<?xml version="1.0" standalone="no"?>
<!DOCTYPE svg PUBLIC "-//W3C//DTD SVG 20010904//EN"
 "http://www.w3.org/TR/2001/REC-SVG-20010904/DTD/svg10.dtd">
<svg version="1.0" xmlns="http://www.w3.org/2000/svg"
 width="220.000000pt" height="220.000000pt" viewBox="0 0 220.000000 220.000000"
 preserveAspectRatio="xMidYMid meet">
<metadata>
Created by potrace 1.11, written by Peter Selinger 2001-2013
</metadata>
<g transform="translate(0.000000,220.000000) scale(0.100000,-0.100000)"
fill="#000000" stroke="none">
<path d="M235 2182 c-93 -32 -155 -89 -202 -182 l-28 -55 0 -845 0 -845 29
-59 c49 -100 129 -163 236 -186 40 -8 278 -10 865 -8 l810 3 57 28 c72 35 134
97 167 167 l26 55 0 845 0 845 -28 57 c-35 72 -95 132 -166 166 l-56 27 -830
2 c-768 2 -834 1 -880 -15z"/>
</g>
</svg>
