<?xml version="1.0" encoding="utf-8"?>
<!-- Generator: Adobe Illustrator 16.0.0, SVG Export Plug-In . SVG Version: 6.00 Build 0)  -->
<!DOCTYPE svg PUBLIC "-//W3C//DTD SVG 1.1//EN" "http://www.w3.org/Graphics/SVG/1.1/DTD/svg11.dtd">
<svg version="1.1" id="Layer_1" xmlns="http://www.w3.org/2000/svg" xmlns:xlink="http://www.w3.org/1999/xlink" x="0px" y="0px"
	 width="612px" height="106.297px" viewBox="0 0 612 106.297" enable-background="new 0 0 612 106.297" xml:space="preserve">
<g>
	<g>
		<path fill="#FFFFFF" d="M398.567,1.808h41.4v8.754h-15.189v53.134h-11.045V10.562h-15.166V1.808L398.567,1.808z"/>
		<path fill="#FFFFFF" d="M551.984,47.427c0,12.47-10.589,16.714-21.958,16.714c-21.841,0-24.681-14.238-24.681-31.391
			c0-17.15,2.838-31.387,24.681-31.387c11.369,0,21.958,4.424,21.958,16.71v3.982h-10.809v-3.982c0-5.653-4.25-7.958-11.149-7.958
			c-12.231,0-13.76,8.931-13.76,22.634c0,13.705,1.53,22.636,13.76,22.636c6.786,0,11.042-2.567,11.042-7.959v-3.976h10.916V47.427z
			"/>
		<path fill="#FFFFFF" d="M569.623,1.808h11.027v29.881h20.32V1.808H612v61.889h-11.029V40.443h-20.32v23.253h-11.027V1.808z"/>
		<path fill="#FFFFFF" d="M490.563,1.808v10.461H457.95L447.119,1.808H490.563z M457.95,27.882h32.613v10.38H457.95h-10.831v-10.38
			H457.95z M457.95,53.804h32.613v10.458h-43.444v-0.859L457.95,53.804z"/>
	</g>
	<g>
		<path fill="#BFE7F7" d="M54.637,92.609c-0.783-0.775-1.734-1.445-2.774-1.99c-0.23-0.063-0.577-0.09-0.953-0.09
			c-0.867,0-1.964,0.35-2.715,0.953c-0.896,1.474-1.358,3.234-1.358,5.716c0,4.594,1.849,6.675,4.362,6.675
			c1.619,0,3.089-0.725,4.218-2.022l1.819,2.225c-1.589,1.761-3.783,2.603-6.21,2.603c-5.026,0-7.508-3.725-7.508-9.479
			c0-5.854,3.089-9.471,7.651-9.471c2.252,0,4.216,0.725,5.576,1.995L54.637,92.609z"/>
		<path fill="#BFE7F7" d="M126.455,97.198c0,5.985-3.002,9.479-7.566,9.479c-4.619,0-7.566-3.327-7.566-9.479
			c0-5.747,3.032-9.471,7.566-9.471C123.51,87.728,126.455,91.074,126.455,97.198z M114.641,97.198c0,4.77,1.796,6.706,4.309,6.706
			c1.009,0,2.02-0.32,2.743-0.924c0.925-1.473,1.445-3.382,1.445-5.782c0-4.765-1.794-6.696-4.309-6.696
			c-1.036,0-2.018,0.314-2.77,0.98C115.167,92.956,114.641,94.865,114.641,97.198z"/>
		<path fill="#BFE7F7" d="M187.053,87.988l3.727,13.952h0.347l3.754-13.839h4.418l1.242,18.195h-3.522v-3.64l-0.436-9.903h-0.374
			l-0.865,3.759l-2.92,9.784h-3.29l-2.946-9.933l-0.751-3.61h-0.351l-0.316,8.75v4.793h-3.553l1.246-14.643v-3.408L187.053,87.988z"
			/>
		<path fill="#BFE7F7" d="M261.296,87.988l3.725,13.952h0.347l3.755-13.839h4.42l1.241,18.195h-3.524v-3.64l-0.43-9.903h-0.38
			l-0.863,3.759l-2.918,9.784h-3.292l-2.947-9.933l-0.75-3.61h-0.347l-0.315,8.75v4.793h-3.557l1.245-14.643v-3.408L261.296,87.988z
			"/>
		<path fill="#BFE7F7" d="M333.698,87.988v10.944c0,3.464,1.332,5.058,3.466,5.058c1.011,0,1.909-0.258,2.575-0.752
			c0.604-0.896,0.92-2.28,0.92-4.103v-7.765l-0.289-3.121l3.556-0.262V98.96c0,4.741-2.344,7.718-6.762,7.718
			c-4.299,0-6.756-2.634-6.756-7.597v-7.63l-0.289-3.201L333.698,87.988z"/>
		<path fill="#BFE7F7" d="M403.395,87.988l7.337,13.169h0.26l-0.23-5.895v-3.604l-0.372-3.408l3.466-0.262v18.227l-3.037,0.256
			l-7.333-13.051h-0.258l0.23,7.134v5.743h-3.091V91.425l-0.288-3.175L403.395,87.988z"/>
		<path fill="#BFE7F7" d="M473.693,87.988v18.309h-3.292V91.425l-0.292-3.175L473.693,87.988z"/>
		<path fill="#BFE7F7" d="M533.471,88.102h3.871l4.876-0.172l-0.141,3.18l-4.075-0.258h-1.012v15.445h-3.289V90.852h-0.982
			l-4.159,0.223l0.232-3.113L533.471,88.102z"/>
		<path fill="#BFE7F7" d="M600.146,87.988l1.038,3.549l2.742,6.644h0.322l2.336-6.031l0.813-4.048h3.662v0.437l-1.354,3.841
			l-4.132,8.868v5.054h-3.263v-5.081l-6.039-12.565V88.25L600.146,87.988z"/>
	</g>
	<g>
		<path fill="#FFFFFF" d="M281.162,1.244h11.036v61.887h-11.036V1.244z"/>
		<path fill="#FFFFFF" d="M319.687,52.476l-5.69,10.396h-12.399l33.496-62.072l22.362,41.434h-12.568l-9.794-18.234l-9.882,18.234
			L319.687,52.476z M368.594,62.871h-12.481l-12.146-22.5h12.4L368.594,62.871z"/>
		<path fill="#FFFFFF" d="M110.171,52.476l-5.688,10.396H92.082l33.499-62.072l22.363,41.434h-12.571l-9.792-18.234l-9.884,18.234
			L110.171,52.476z M159.079,62.871H146.6l-12.148-22.502h12.401L159.079,62.871z"/>
	</g>
	<path fill="#FFFFFF" d="M213.749,0.448h10.391l25.564,40.761V0.448h10.927v61.893h-10.165L224.79,21.669v40.671h-11.042V0.448
		L213.749,0.448z"/>
	<path fill="#FFFFFF" d="M40.95,40.94h10.923v3.978c0,4.866,3.613,9.109,13.879,9.109c9.719,0,11.028-5.127,11.028-7.601
		c0-5.661-6.777-7.868-13.98-10.079c-10.052-3.185-20.872-6.543-20.872-19.186C41.928,12.385,45.314,0,64.775,0
		C83.56,0,86.721,12.826,86.721,17.509v3.98H75.695v-3.98c0-4.859-3.502-8.755-10.92-8.755c-7.11,0-11.807,3.359-11.807,8.406
		c0,6.01,6.993,8.308,14.314,10.521c10.046,3,20.534,6.358,20.534,18.744c0,7.777-5.018,16.356-22.063,16.356
		c-24.366,0-24.802-15.296-24.802-17.864V40.94z"/>
	<path fill="#71C5EE" d="M323.212,14.552c-17.59,0-26.743,6.711-34.823,12.631c-7.621,5.589-14.201,10.41-28.048,10.41
		c-13.823,0-20.404-4.821-28.016-10.406c-8.067-5.922-17.221-12.635-34.804-12.635c-17.581,0-26.735,6.711-34.807,12.631
		c-7.619,5.589-14.202,10.41-28.035,10.41c-13.829,0-20.403-4.821-28.022-10.406c-8.064-5.922-17.216-12.635-34.792-12.635
		c-17.576,0-26.725,6.711-34.796,12.635c-7.611,5.585-14.186,10.406-28.015,10.406c-3.171,0-5.737,2.581-5.737,5.764
		c0,3.185,2.566,5.761,5.737,5.761c17.579,0,26.727-6.713,34.798-12.633c7.609-5.585,14.178-10.406,28.013-10.406
		S92.27,30.899,99.89,36.486c8.071,5.918,17.215,12.633,34.79,12.633c17.589,0,26.737-6.715,34.809-12.633
		c7.619-5.587,14.2-10.408,28.035-10.408c13.833,0,20.409,4.821,28.028,10.408c8.066,5.918,17.214,12.633,34.79,12.633
		c17.595,0,26.743-6.707,34.821-12.633c7.626-5.583,14.208-10.408,28.049-10.408c13.848,0,20.427,4.825,28.049,10.408
		c8.075,5.926,17.226,12.633,34.818,12.633c3.171,0,5.735-2.578,5.735-5.761s-2.564-5.764-5.735-5.764
		c-13.845,0-20.428-4.823-28.048-10.41C349.954,21.265,340.799,14.552,323.212,14.552z"/>
	<ellipse fill="#88C0E8" cx="172.846" cy="31.221" rx="0.002" ry="0.173"/>
	<ellipse fill="#88C0E8" cx="177.225" cy="35.653" rx="0" ry="0.134"/>
	<path fill="#71C5EE" d="M172.846,30.011c0,0,4.56,5.281,4.922,5.281c0.359,0,5.552-0.096,7.449-3.458
		c1.898-3.361,2.439-5.708,2.439-5.844c0-0.137-4.11-1.625-4.11-1.625"/>
	<path fill="#FFFFFF" d="M184.224,41.296l13.344,22.4h-12.463l-18.869-31.309l9.681,0.082c2.934,0,5.451-1.013,7.566-3.043
		c2.201-2.032,3.253-4.533,3.253-7.418c0-2.809-1.052-5.232-3.253-7.258c-2.116-2.028-4.632-3.047-7.566-3.047h-21.73l-1.214-1.169
		l-5.622-9.291h28.565c5.95,0,11.061,2.028,15.3,6.09c4.227,4.136,6.351,8.975,6.351,14.675c0,4.375-1.22,8.275-3.828,11.793
		C191.217,37.311,188.04,39.81,184.224,41.296z"/>
	<path fill="#FFFFFF" d="M213.749,0.448h10.391l25.564,40.761V0.448h10.927v61.893h-10.165L224.79,21.669"/>
	<path fill="#FFFFFF" d="M41.987,17.16c0-4.775,3.386-17.156,22.847-17.156c18.785,0,21.946,12.822,21.946,17.507v3.98H75.756v-3.98
		c0-4.861-3.504-8.755-10.922-8.755c-7.11,0-11.805,3.359-11.805,8.404"/>
	<path fill="#FFFFFF" d="M125.581,0.799l22.363,41.434h-12.571l-9.792-18.234 M159.079,62.871H146.6l-12.148-22.502h12.401
		L159.079,62.871z"/>
	<path fill="#FFFFFF" d="M319.687,52.476l-5.696,10.396h-12.393l33.496-62.072l22.362,41.434h-12.568l-9.794-18.232l-9.882,18.232
		L319.687,52.476z M368.594,62.871h-12.481l-12.146-22.5h12.4L368.594,62.871z"/>
</g>
</svg>
