<?xml version="1.0" encoding="utf-8"?>
<!-- Generator: Adobe Illustrator 16.0.0, SVG Export Plug-In . SVG Version: 6.00 Build 0)  -->
<!DOCTYPE svg PUBLIC "-//W3C//DTD SVG 1.1//EN" "http://www.w3.org/Graphics/SVG/1.1/DTD/svg11.dtd">
<svg version="1.1" id="Layer_1" xmlns="http://www.w3.org/2000/svg" xmlns:xlink="http://www.w3.org/1999/xlink" x="0px" y="0px"
	 width="591.825px" height="104.3px" viewBox="0 0 591.825 104.3" enable-background="new 0 0 591.825 104.3" xml:space="preserve">
<g>
	<g>
		<path fill="#0082E6" d="M384.307,1.756h40.253v8.511h-14.768v51.663h-10.738V10.268h-14.747V1.756z"/>
		<path fill="#0082E6" d="M533.472,46.112c0,12.126-10.294,16.252-21.346,16.252c-21.239,0-23.999-13.846-23.999-30.524
			c0-16.673,2.76-30.518,23.999-30.518c11.052,0,21.346,4.303,21.346,16.251v3.867h-10.508v-3.867c0-5.498-4.133-7.738-10.838-7.738
			c-11.893,0-13.38,8.686-13.38,22.005c0,13.325,1.487,22.009,13.38,22.009c6.598,0,10.733-2.493,10.733-7.736v-3.867h10.612V46.112
			z"/>
		<path fill="#0082E6" d="M550.623,1.756h10.724V30.81h19.757V1.756h10.722v60.174h-10.722V39.321h-19.757v22.609h-10.724V1.756z"/>
		<path fill="#0082E6" d="M473.755,1.756v10.169h-31.71L431.514,1.756H473.755z M442.045,27.107h31.71v10.095h-31.71h-10.531V27.107
			H442.045z M442.045,52.312h31.71v10.166h-42.241v-0.833L442.045,52.312z"/>
	</g>
	<g>
		<path fill="#616161" d="M49.897,90.046c-0.759-0.758-1.684-1.406-2.696-1.937c-0.224-0.061-0.561-0.091-0.926-0.091
			c-0.843,0-1.91,0.341-2.64,0.929c-0.872,1.433-1.322,3.146-1.322,5.559c0,4.468,1.798,6.487,4.242,6.487
			c1.574,0,3.003-0.7,4.102-1.962l1.766,2.16c-1.544,1.713-3.676,2.531-6.037,2.531c-4.886,0-7.302-3.623-7.302-9.217
			c0-5.695,3.004-9.208,7.442-9.208c2.19,0,4.1,0.701,5.419,1.938L49.897,90.046z"/>
		<path fill="#616161" d="M119.73,94.506c0,5.817-2.921,9.217-7.359,9.217c-4.492,0-7.357-3.232-7.357-9.217
			c0-5.585,2.95-9.208,7.357-9.208C116.866,85.298,119.73,88.553,119.73,94.506z M108.245,94.506c0,4.639,1.741,6.521,4.183,6.521
			c0.983,0,1.965-0.314,2.668-0.901c0.898-1.433,1.403-3.285,1.403-5.62c0-4.631-1.741-6.514-4.185-6.514
			c-1.008,0-1.963,0.307-2.694,0.955C108.749,90.38,108.245,92.237,108.245,94.506z"/>
		<path fill="#616161" d="M178.649,85.552l3.623,13.566h0.337l3.649-13.456h4.297l1.209,17.692h-3.426v-3.539l-0.422-9.633h-0.366
			l-0.841,3.657l-2.838,9.515h-3.199l-2.864-9.658l-0.731-3.514h-0.337l-0.307,8.511v4.661h-3.456l1.208-14.236v-3.315
			L178.649,85.552z"/>
		<path fill="#616161" d="M250.834,85.552l3.624,13.566h0.335l3.653-13.456h4.297l1.205,17.692h-3.426v-3.539l-0.421-9.633h-0.363
			l-0.843,3.657l-2.838,9.515h-3.2l-2.865-9.658l-0.731-3.514h-0.338l-0.307,8.511v4.661h-3.456l1.209-14.236v-3.315L250.834,85.552
			z"/>
		<path fill="#616161" d="M321.237,85.552v10.641c0,3.369,1.288,4.919,3.369,4.919c0.981,0,1.849-0.254,2.497-0.731
			c0.591-0.872,0.899-2.217,0.899-3.99v-7.549l-0.278-3.034l3.452-0.255v10.671c0,4.608-2.273,7.5-6.57,7.5
			c-4.188,0-6.575-2.559-6.575-7.387v-7.412l-0.28-3.117L321.237,85.552z"/>
		<path fill="#616161" d="M388.999,85.552l7.137,12.805h0.252l-0.226-5.729v-3.509l-0.367-3.315l3.37-0.251v17.72l-2.946,0.254
			l-7.136-12.694h-0.252l0.226,6.934v5.59h-3.002v-14.46l-0.288-3.092L388.999,85.552z"/>
		<path fill="#616161" d="M457.348,85.552v17.803h-3.2v-14.46l-0.28-3.092L457.348,85.552z"/>
		<path fill="#616161" d="M515.472,85.662h3.763l4.748-0.167l-0.144,3.092l-3.956-0.254h-0.981v15.021h-3.206V88.333h-0.955
			l-4.039,0.22l0.22-3.031L515.472,85.662z"/>
		<path fill="#616161" d="M580.306,85.552l1.007,3.453l2.67,6.457h0.305l2.278-5.866l0.786-3.934h3.568v0.421l-1.323,3.739
			l-4.013,8.622v4.91h-3.176v-4.94L576.54,86.2v-0.394L580.306,85.552z"/>
	</g>
	<g>
		<path fill="#0082E6" d="M270.152,1.207h10.728v60.175h-10.728V1.207z"/>
		<path fill="#0082E6" d="M307.607,51.021l-5.533,10.108h-12.056l32.571-60.354l21.741,40.286h-12.221l-9.521-17.729l-9.61,17.729
			L307.607,51.021z M355.16,61.129h-12.134l-11.812-21.88h12.058L355.16,61.129z"/>
		<path fill="#0082E6" d="M103.898,51.021l-5.536,10.108H86.306l32.57-60.354l21.746,40.286h-12.221l-9.525-17.729l-9.608,17.729
			L103.898,51.021z M151.448,61.129h-12.134l-11.808-21.88h12.056L151.448,61.129z"/>
	</g>
	<path fill="#0082E6" d="M204.604,0.434h10.104l24.855,39.629V0.434h10.622v60.179h-9.883l-24.965-39.548v39.548h-10.733V0.434z"/>
	<path fill="#0082E6" d="M36.591,39.804h10.622v3.869c0,4.732,3.509,8.858,13.493,8.858c9.452,0,10.722-4.989,10.722-7.392
		c0-5.503-6.59-7.651-13.593-9.801c-9.772-3.096-20.294-6.363-20.294-18.656C37.54,12.041,40.835,0,59.755,0
		c18.265,0,21.338,12.469,21.338,17.024v3.869H70.373v-3.869c0-4.725-3.406-8.511-10.618-8.511c-6.916,0-11.48,3.264-11.48,8.169
		c0,5.845,6.796,8.079,13.915,10.232c9.771,2.918,19.964,6.185,19.964,18.223c0,7.564-4.877,15.903-21.452,15.903
		c-23.691,0-24.114-14.872-24.114-17.369v-3.867H36.591z"/>
	<path fill="#AEDEFF" d="M311.036,14.148c-17.105,0-26.001,6.525-33.858,12.282c-7.411,5.432-13.809,10.121-27.271,10.121
		c-13.439,0-19.839-4.691-27.24-10.119c-7.844-5.759-16.745-12.284-33.839-12.284c-17.094,0-25.996,6.525-33.843,12.282
		c-7.409,5.432-13.807,10.121-27.261,10.121c-13.445,0-19.837-4.691-27.244-10.119c-7.846-5.759-16.74-12.284-33.83-12.284
		s-25.984,6.525-33.83,12.284C25.417,31.86,19.023,36.551,5.58,36.551C2.495,36.551,0,39.06,0,42.153
		c0,3.098,2.495,5.603,5.58,5.603c17.092,0,25.986-6.529,33.832-12.285c7.398-5.431,13.786-10.118,27.236-10.118
		c13.453,0,19.841,4.688,27.248,10.122c7.848,5.752,16.742,12.281,33.827,12.281c17.104,0,25.999-6.529,33.847-12.281
		c7.408-5.435,13.807-10.122,27.257-10.122c13.452,0,19.845,4.688,27.253,10.122c7.84,5.752,16.738,12.281,33.826,12.281
		c17.108,0,26.001-6.521,33.857-12.281c7.412-5.431,13.813-10.122,27.272-10.122c13.464,0,19.86,4.691,27.271,10.122
		c7.854,5.759,16.747,12.281,33.854,12.281c3.083,0,5.574-2.504,5.574-5.603c0-3.094-2.491-5.603-5.574-5.603
		c-13.462,0-19.859-4.691-27.271-10.121C337.039,20.673,328.139,14.148,311.036,14.148z"/>
	<ellipse fill="#7DC4FF" cx="164.833" cy="30.353" rx="0.002" ry="0.169"/>
	<ellipse fill="#7DC4FF" cx="169.092" cy="34.664" rx="0" ry="0.133"/>
	<path fill="#AEDEFF" d="M164.833,29.177c0,0,4.436,5.137,4.786,5.137c0.353,0,5.4-0.093,7.246-3.362
		c1.843-3.268,2.368-5.551,2.368-5.682c0-0.133-3.994-1.581-3.994-1.581"/>
	<path fill="#0082E6" d="M175.897,40.151l12.971,21.779h-12.115l-18.348-30.44l9.413,0.078c2.854,0,5.302-0.983,7.359-2.96
		c2.141-1.974,3.161-4.407,3.161-7.211c0-2.732-1.02-5.085-3.161-7.06c-2.058-1.97-4.506-2.959-7.359-2.959h-21.13l-1.178-1.136
		l-5.468-9.034h27.776c5.785,0,10.756,1.975,14.877,5.922c4.111,4.021,6.173,8.726,6.173,14.268c0,4.255-1.184,8.045-3.721,11.465
		C182.696,36.274,179.607,38.704,175.897,40.151z"/>
	<path fill="#0082E6" d="M204.604,0.434h10.104l24.855,39.629V0.434h10.622v60.179h-9.883l-24.965-39.548"/>
	<path fill="#0082E6" d="M37.553,17.191c0-4.644,3.295-16.685,22.217-16.685c18.264,0,21.336,12.469,21.336,17.022v3.869H70.389
		v-3.869c0-4.723-3.407-8.511-10.618-8.511c-6.916,0-11.482,3.267-11.482,8.174"/>
	<path fill="#0082E6" d="M118.876,0.775l21.746,40.286h-12.221l-9.525-17.729 M151.448,61.129h-12.134l-11.808-21.88h12.056
		L151.448,61.129z"/>
	<path fill="#0082E6" d="M307.607,51.021l-5.539,10.108h-12.05l32.571-60.354l21.741,40.286h-12.221l-9.521-17.727l-9.61,17.727
		L307.607,51.021z M355.16,61.129h-12.134l-11.812-21.88h12.058L355.16,61.129z"/>
</g>
</svg>
