<?xml version="1.0" encoding="utf-8"?>
<!-- Generator: Adobe Illustrator 16.0.0, SVG Export Plug-In . SVG Version: 6.00 Build 0)  -->
<!DOCTYPE svg PUBLIC "-//W3C//DTD SVG 1.1//EN" "http://www.w3.org/Graphics/SVG/1.1/DTD/svg11.dtd">
<svg version="1.1" id="Layer_1" xmlns="http://www.w3.org/2000/svg" xmlns:xlink="http://www.w3.org/1999/xlink" x="0px" y="0px"
	 width="138px" height="82px" viewBox="0 0 138 82" enable-background="new 0 0 138 82" xml:space="preserve">
<g>
	<g>
		<g>
			<path fill="#BBEFFF" d="M17.983,76.509c-0.278-0.275-0.617-0.512-0.986-0.707c-0.083-0.02-0.206-0.031-0.338-0.031
				c-0.308,0-0.698,0.123-0.964,0.34c-0.319,0.523-0.482,1.15-0.482,2.031c0,1.631,0.655,2.371,1.548,2.371
				c0.575,0,1.099-0.258,1.499-0.719l0.646,0.791c-0.564,0.625-1.344,0.924-2.206,0.924c-1.785,0-2.667-1.324-2.667-3.367
				c0-2.082,1.098-3.367,2.719-3.367c0.8,0,1.498,0.256,1.981,0.709L17.983,76.509z"/>
			<path fill="#BBEFFF" d="M32.489,78.142c0,2.125-1.068,3.367-2.688,3.367c-1.643,0-2.69-1.182-2.69-3.367
				c0-2.043,1.079-3.367,2.69-3.367C31.441,74.774,32.489,75.966,32.489,78.142z M28.292,78.142c0,1.693,0.636,2.381,1.529,2.381
				c0.358,0,0.717-0.113,0.975-0.328c0.328-0.523,0.513-1.199,0.513-2.053c0-1.691-0.636-2.381-1.529-2.381
				c-0.37,0-0.718,0.113-0.985,0.35C28.476,76.634,28.292,77.31,28.292,78.142z"/>
			<path fill="#BBEFFF" d="M43.007,74.868l1.323,4.957h0.123l1.335-4.916h1.57l0.441,6.467h-1.253v-1.295l-0.153-3.52H46.26
				l-0.307,1.334l-1.038,3.479h-1.17l-1.047-3.529l-0.267-1.283H42.31l-0.114,3.109v1.703h-1.262l0.44-5.203V74.96L43.007,74.868z"
				/>
			<path fill="#BBEFFF" d="M58.372,74.868l1.325,4.957h0.123l1.333-4.916h1.57l0.441,6.467h-1.251v-1.295l-0.155-3.52h-0.132
				l-0.31,1.334l-1.037,3.479h-1.168l-1.047-3.529l-0.267-1.283h-0.123l-0.114,3.109v1.703H56.3l0.441-5.203V74.96L58.372,74.868z"
				/>
			<path fill="#BBEFFF" d="M73.086,74.868v3.891c0,1.23,0.473,1.795,1.232,1.795c0.359,0,0.678-0.094,0.914-0.268
				c0.215-0.316,0.328-0.809,0.328-1.455v-2.762l-0.104-1.107l1.264-0.094v3.9c0,1.684-0.832,2.74-2.402,2.74
				c-1.531,0-2.402-0.934-2.402-2.701v-2.707l-0.102-1.139L73.086,74.868z"/>
			<path fill="#BBEFFF" d="M86.838,74.868l2.605,4.68h0.094l-0.082-2.094v-1.283l-0.133-1.209l1.232-0.094v6.475l-1.078,0.092
				l-2.607-4.637h-0.092l0.08,2.533v2.045H85.76v-5.287l-0.102-1.127L86.838,74.868z"/>
			<path fill="#BBEFFF" d="M100.803,74.868v6.508h-1.17v-5.287l-0.102-1.127L100.803,74.868z"/>
			<path fill="#BBEFFF" d="M111.027,74.909h1.377l1.732-0.063l-0.051,1.131l-1.445-0.094h-0.359v5.492h-1.17v-5.492h-0.348
				l-1.48,0.082l0.084-1.109L111.027,74.909z"/>
			<path fill="#BBEFFF" d="M123.707,74.868l0.369,1.262l0.975,2.361h0.111l0.834-2.146l0.287-1.436h1.303v0.154l-0.482,1.363
				l-1.467,3.152v1.797h-1.162v-1.807l-2.143-4.465v-0.143L123.707,74.868z"/>
		</g>
	</g>
	<g>
		<path fill="#FFFFFF" d="M98.76,0.441h3.92v21.991h-3.92V0.441z"/>
		<path fill="#FFFFFF" d="M112.447,18.646l-2.023,3.694h-4.404l11.9-22.058l7.949,14.723h-4.467l-3.48-6.479l-3.512,6.479
			L112.447,18.646z M129.824,22.34h-4.434l-4.316-7.997h4.406L129.824,22.34z"/>
		<path fill="#FFFFFF" d="M38.001,18.646l-2.024,3.694h-4.406L43.474,0.283l7.948,14.723h-4.466l-3.482-6.479l-3.511,6.479
			L38.001,18.646z M55.378,22.34h-4.436l-4.313-7.997h4.406L55.378,22.34z"/>
	</g>
	<path fill="#FFFFFF" d="M74.805,0.159h3.691l9.084,14.483V0.159h3.883V22.15H87.85L78.727,7.699V22.15h-3.922V0.159z"/>
	<path fill="#FFFFFF" d="M13.403,14.546h3.883v1.415c0,1.729,1.281,3.237,4.929,3.237c3.455,0,3.918-1.823,3.918-2.701
		c0-2.012-2.407-2.795-4.967-3.583c-3.572-1.131-7.417-2.325-7.417-6.816C13.75,4.4,14.956,0,21.868,0c6.677,0,7.8,4.556,7.8,6.221
		v1.414h-3.919V6.221c0-1.727-1.245-3.11-3.881-3.11c-2.526,0-4.192,1.193-4.192,2.986c0,2.136,2.482,2.952,5.083,3.738
		c3.573,1.067,7.296,2.26,7.296,6.66c0,2.764-1.783,5.812-7.838,5.812c-8.659,0-8.813-5.435-8.813-6.347V14.546L13.403,14.546z"/>
	<path fill="#FFFFFF" d="M12.264,30.379h22.158v4.685h-8.129v28.437h-5.911V35.064h-8.118V30.379z"/>
	<path fill="#FFFFFF" d="M94.373,54.794c0,6.672-5.668,8.943-11.75,8.943c-11.691,0-13.215-7.619-13.215-16.801
		c0-9.175,1.523-16.796,13.215-16.796c6.082,0,11.75,2.368,11.75,8.944v2.13h-5.787v-2.13c0-3.026-2.273-4.259-5.963-4.259
		c-6.547,0-7.367,4.78-7.367,12.111c0,7.336,0.82,12.117,7.367,12.117c3.627,0,5.906-1.373,5.906-4.26v-2.129h5.844V54.794
		L94.373,54.794z"/>
	<path fill="#FFFFFF" d="M103.811,30.379h5.902V46.37h10.875V30.379h5.9v33.122h-5.9V51.056h-10.875v12.445h-5.902V30.379
		L103.811,30.379z"/>
	<path fill="#FFFFFF" d="M61.5,30.077v5.598H44.045l-5.797-5.598H61.5z M44.045,44.03H61.5v5.557H44.045h-5.797V44.03H44.045z
		 M44.045,57.903H61.5v5.598H38.248v-0.459L44.045,57.903z"/>
	<path fill="#64C8FF" d="M113.701,5.171c-6.252,0-9.504,2.384-12.375,4.488c-2.707,1.985-5.047,3.699-9.967,3.699
		c-4.91,0-7.25-1.713-9.953-3.698c-2.867-2.105-6.121-4.489-12.367-4.489c-6.249,0-9.501,2.384-12.369,4.488
		c-2.708,1.985-5.046,3.699-9.962,3.699c-4.915,0-7.25-1.713-9.957-3.698c-2.867-2.105-6.119-4.489-12.364-4.489
		c-6.246,0-9.497,2.384-12.362,4.489c-2.706,1.984-5.043,3.698-9.956,3.698c-1.128,0-2.039,0.917-2.039,2.047
		c0,1.131,0.91,2.047,2.039,2.047c6.247,0,9.496-2.386,12.364-4.49c2.704-1.984,5.038-3.698,9.954-3.698
		c4.917,0,7.252,1.713,9.958,3.699c2.867,2.102,6.119,4.488,12.362,4.488c6.25,0,9.501-2.386,12.37-4.488
		c2.707-1.986,5.045-3.699,9.962-3.699c4.914,0,7.252,1.713,9.959,3.699c2.865,2.102,6.117,4.488,12.361,4.488
		c6.252,0,9.504-2.383,12.373-4.488c2.711-1.984,5.049-3.699,9.969-3.699s7.258,1.715,9.965,3.699
		c2.869,2.105,6.121,4.488,12.373,4.488c1.127,0,2.037-0.916,2.037-2.047c0-1.131-0.91-2.047-2.037-2.047
		c-4.922,0-7.258-1.714-9.967-3.699C123.203,7.555,119.949,5.171,113.701,5.171z"/>
	<ellipse fill="#7DC4FF" cx="60.27" cy="11.093" rx="0" ry="0.062"/>
	<ellipse fill="#7DC4FF" cx="61.826" cy="12.668" rx="0" ry="0.049"/>
	<path fill="#64C8FF" d="M60.27,10.663c0,0,1.62,1.877,1.749,1.877s1.973-0.035,2.647-1.229c0.674-1.195,0.866-2.029,0.866-2.077
		s-1.46-0.578-1.46-0.578"/>
	<path fill="#FFFFFF" d="M64.313,14.673l4.74,7.96h-4.427l-6.705-11.125l3.44,0.027c1.043,0,1.937-0.358,2.689-1.081
		c0.783-0.722,1.156-1.611,1.156-2.635c0-0.999-0.373-1.859-1.156-2.58c-0.752-0.721-1.646-1.083-2.689-1.083h-7.722l-0.43-0.415
		l-2-3.301h10.152c2.114,0,3.931,0.721,5.438,2.164c1.502,1.469,2.254,3.189,2.254,5.214c0,1.554-0.432,2.94-1.358,4.19
		C66.798,13.256,65.669,14.145,64.313,14.673z"/>
	<path fill="#FFFFFF" d="M74.805,0.159h3.691l9.084,14.483V0.159h3.883V22.15H87.85L78.727,7.699"/>
	<path fill="#FFFFFF" d="M13.771,6.097C13.771,4.4,14.975,0,21.889,0c6.674,0,7.797,4.556,7.797,6.221v1.414H25.77V6.221
		c0-1.727-1.246-3.11-3.88-3.11c-2.528,0-4.196,1.193-4.196,2.986"/>
	<path fill="#FFFFFF" d="M43.474,0.283l7.948,14.723h-4.466l-3.482-6.479 M55.378,22.34h-4.436l-4.313-7.997h4.406L55.378,22.34z"/>
	<path fill="#FFFFFF" d="M112.447,18.646l-2.023,3.694h-4.404l11.9-22.058l7.949,14.723h-4.467l-3.48-6.479l-3.512,6.479
		L112.447,18.646z M129.824,22.34h-4.434l-4.316-7.997h4.406L129.824,22.34z"/>
</g>
</svg>
