<?xml version="1.0" encoding="utf-8"?>
<!-- Generator: Adobe Illustrator 16.0.0, SVG Export Plug-In . SVG Version: 6.00 Build 0)  -->
<!DOCTYPE svg PUBLIC "-//W3C//DTD SVG 1.1//EN" "http://www.w3.org/Graphics/SVG/1.1/DTD/svg11.dtd">
<svg version="1.1" id="Layer_1" xmlns="http://www.w3.org/2000/svg" xmlns:xlink="http://www.w3.org/1999/xlink" x="0px" y="0px"
	 width="95.223px" height="60.119px" viewBox="0 0 95.223 60.119" enable-background="new 0 0 95.223 60.119" xml:space="preserve">
<g>
	<g>
		<path fill="#0082E6" d="M87.797,0H22.661c-4.093,0-7.423,3.33-7.423,7.422v10.02h5.117V7.422c0-1.271,1.033-2.309,2.306-2.309
			h65.137c1.273,0,2.313,1.037,2.313,2.309v33.666c0,1.272-1.037,2.31-2.313,2.31h-9.781v5.115h9.781
			c4.096,0,7.426-3.33,7.426-7.425V7.422C95.221,3.33,91.891,0,87.797,0z"/>
	</g>
	<polygon fill="#0082E6" points="41.642,51.403 34.956,60.119 76.858,60.119 70.102,51.403 	"/>
	<g>
		<path fill="#B0DDFB" d="M52.165,43.801c-7.772,0-13.354-4.342-18.278-8.174c-4.257-3.312-7.932-6.168-12.375-6.168
			c-13.897,0-16.401,11.795-16.499,12.297c-0.272,1.363-1.598,2.261-2.966,1.994c-1.362-0.265-2.261-1.578-2.002-2.944
			c1.073-5.675,6.94-16.4,21.467-16.4c6.179,0,10.905,3.68,15.479,7.234c4.7,3.655,9.138,7.108,15.176,7.108
			c14.508,0,17.424-11.871,17.541-12.375c0.314-1.355,1.668-2.209,3.021-1.9c1.355,0.309,2.213,1.648,1.91,3.006
			C74.602,27.641,70.805,43.801,52.165,43.801z"/>
	</g>
</g>
</svg>
