<?xml version="1.0" encoding="utf-8"?>
<!-- Generator: Adobe Illustrator 16.0.0, SVG Export Plug-In . SVG Version: 6.00 Build 0)  -->
<!DOCTYPE svg PUBLIC "-//W3C//DTD SVG 1.1//EN" "http://www.w3.org/Graphics/SVG/1.1/DTD/svg11.dtd">
<svg version="1.1" id="Layer_1" xmlns="http://www.w3.org/2000/svg" xmlns:xlink="http://www.w3.org/1999/xlink" x="0px" y="0px"
	 width="95.178px" height="60.119px" viewBox="0 0 95.178 60.119" enable-background="new 0 0 95.178 60.119" xml:space="preserve">
<g>
	<g>
		<path fill="#0082E6" d="M-312.386,0h-65.137c-4.093,0-7.423,3.33-7.423,7.422v10.02h5.117V7.422c0-1.271,1.033-2.309,2.306-2.309
			h65.137c1.273,0,2.312,1.037,2.312,2.309v33.666c0,1.273-1.037,2.309-2.312,2.309h-9.782v5.115h9.782
			c4.095,0,7.425-3.33,7.425-7.424V7.422C-304.962,3.33-308.292,0-312.386,0z"/>
	</g>
	<polygon fill="#0082E6" points="-358.541,51.404 -365.228,60.119 -323.325,60.119 -330.081,51.404 	"/>
	<g>
		<path fill="#B0DDFB" d="M-348.019,43.801c-7.773,0-13.354-4.342-18.279-8.174c-4.256-3.311-7.931-6.168-12.375-6.168
			c-13.897,0-16.401,11.795-16.499,12.297c-0.272,1.363-1.597,2.26-2.965,1.994c-1.363-0.264-2.261-1.578-2.002-2.945
			c1.073-5.674,6.94-16.4,21.466-16.4c6.179,0,10.906,3.68,15.479,7.234c4.7,3.656,9.138,7.109,15.176,7.109
			c14.508,0,17.424-11.871,17.541-12.375c0.314-1.355,1.668-2.209,3.021-1.9c1.356,0.309,2.213,1.648,1.91,3.006
			C-325.581,27.641-329.378,43.801-348.019,43.801z"/>
	</g>
</g>
<g>
	<g>
		<path fill="#FFFFFF" d="M87.753,0H22.616c-4.093,0-7.423,3.33-7.423,7.424v10.018h5.117V7.424c0-1.271,1.033-2.309,2.306-2.309
			h65.137c1.273,0,2.312,1.035,2.312,2.309V41.09c0,1.273-1.037,2.309-2.312,2.309h-9.782v5.115h9.782
			c4.095,0,7.425-3.33,7.425-7.424V7.424C95.177,3.331,91.847,0,87.753,0z"/>
	</g>
	<polygon fill="#FFFFFF" points="41.598,51.404 34.911,60.119 76.813,60.119 70.058,51.404 	"/>
	<g>
		<path fill="#B0DDFB" d="M52.12,43.803c-7.773,0-13.354-4.342-18.279-8.174c-4.256-3.311-7.931-6.17-12.375-6.17
			c-13.897,0-16.401,11.797-16.499,12.297c-0.272,1.365-1.597,2.262-2.965,1.996C0.639,43.486-0.259,42.174,0,40.807
			c1.073-5.674,6.94-16.402,21.466-16.402c6.179,0,10.906,3.68,15.479,7.236c4.7,3.654,9.138,7.107,15.176,7.107
			c14.508,0,17.424-11.869,17.541-12.375c0.314-1.354,1.668-2.207,3.021-1.898c1.356,0.307,2.213,1.646,1.91,3.006
			C74.558,27.643,70.761,43.803,52.12,43.803z"/>
	</g>
</g>
</svg>
