<?xml version="1.0" encoding="utf-8"?>
<!-- Generator: Adobe Illustrator 16.0.0, SVG Export Plug-In . SVG Version: 6.00 Build 0)  -->
<!DOCTYPE svg PUBLIC "-//W3C//DTD SVG 1.1//EN" "http://www.w3.org/Graphics/SVG/1.1/DTD/svg11.dtd">
<svg version="1.1" xmlns="http://www.w3.org/2000/svg" xmlns:xlink="http://www.w3.org/1999/xlink" x="0px" y="0px" width="792px"
	 height="612px" viewBox="0 0 792 612" enable-background="new 0 0 792 612" xml:space="preserve">
<g id="Layer_2">
	<rect x="393.333" fill="#0047E4" width="398.667" height="612"/>
</g>
<g id="Layer_1">
	<g>
		<g>
			<path fill="#0082E6" d="M236.289,455.91h-65.137c-4.093,0-7.423,3.33-7.423,7.422v10.02h5.117v-10.02
				c0-1.271,1.033-2.309,2.306-2.309h65.137c1.273,0,2.312,1.037,2.312,2.309v33.666c0,1.273-1.037,2.309-2.312,2.309h-9.782v5.115
				h9.782c4.095,0,7.425-3.33,7.425-7.424v-33.666C243.713,459.24,240.383,455.91,236.289,455.91z"/>
		</g>
		<polygon fill="#0082E6" points="190.134,507.314 183.447,516.029 225.35,516.029 218.594,507.314 		"/>
		<g>
			<path fill="#B0DDFB" d="M200.656,499.711c-7.773,0-13.354-4.342-18.279-8.174c-4.256-3.311-7.931-6.168-12.375-6.168
				c-13.897,0-16.401,11.795-16.499,12.297c-0.272,1.363-1.597,2.26-2.965,1.994c-1.363-0.264-2.261-1.578-2.002-2.945
				c1.073-5.674,6.94-16.4,21.466-16.4c6.179,0,10.906,3.68,15.479,7.234c4.7,3.656,9.138,7.109,15.176,7.109
				c14.508,0,17.424-11.871,17.541-12.375c0.314-1.355,1.668-2.209,3.021-1.9c1.356,0.309,2.213,1.648,1.91,3.006
				C223.094,483.551,219.297,499.711,200.656,499.711z"/>
		</g>
	</g>
	<g>
		<g>
			<path fill="#FFFFFF" d="M636.428,453.336h-65.137c-4.093,0-7.423,3.33-7.423,7.424v10.018h5.117V460.76
				c0-1.271,1.033-2.309,2.306-2.309h65.137c1.273,0,2.312,1.035,2.312,2.309v33.666c0,1.273-1.037,2.309-2.312,2.309h-9.782v5.115
				h9.782c4.095,0,7.425-3.33,7.425-7.424V460.76C643.852,456.666,640.521,453.336,636.428,453.336z"/>
		</g>
		<polygon fill="#FFFFFF" points="590.272,504.74 583.586,513.455 625.488,513.455 618.732,504.74 		"/>
		<g>
			<path fill="#B0DDFB" d="M600.795,497.139c-7.773,0-13.354-4.342-18.279-8.174c-4.256-3.311-7.931-6.17-12.375-6.17
				c-13.897,0-16.401,11.797-16.499,12.297c-0.272,1.365-1.597,2.262-2.965,1.996c-1.363-0.266-2.261-1.578-2.002-2.945
				c1.073-5.674,6.94-16.402,21.466-16.402c6.179,0,10.906,3.68,15.479,7.236c4.7,3.654,9.138,7.107,15.176,7.107
				c14.508,0,17.424-11.869,17.541-12.375c0.314-1.354,1.668-2.207,3.021-1.898c1.356,0.307,2.213,1.646,1.91,3.006
				C623.232,480.979,619.436,497.139,600.795,497.139z"/>
		</g>
	</g>
	<g>
		<g>
			<path fill="#FFFFFF" d="M641.814,308.99h20.754v4.389h-7.614v26.637h-5.537v-26.637h-7.603V308.99L641.814,308.99z"/>
			<path fill="#FFFFFF" d="M718.724,331.859c0,6.251-5.309,8.379-11.008,8.379c-10.949,0-12.373-7.138-12.373-15.736
				c0-8.598,1.423-15.734,12.373-15.734c5.699,0,11.008,2.218,11.008,8.377v1.996h-5.419v-1.996c0-2.834-2.131-3.989-5.589-3.989
				c-6.132,0-6.898,4.478-6.898,11.347c0,6.87,0.768,11.348,6.898,11.348c3.401,0,5.535-1.287,5.535-3.99v-1.993h5.473V331.859z"/>
			<path fill="#FFFFFF" d="M727.565,308.99h5.528v14.979h10.187V308.99h5.529v31.025h-5.529v-11.657h-10.187v11.657h-5.528V308.99z"
				/>
			<path fill="#FFFFFF" d="M687.933,308.99v5.244h-16.35l-5.43-5.244H687.933z M671.583,322.062h16.35v5.204h-16.35h-5.43v-5.204
				H671.583z M671.583,335.057h16.35v5.242h-21.779v-0.431L671.583,335.057z"/>
		</g>
		<g>
			<path fill="#BBEFFF" d="M469.399,354.51c-0.393-0.389-0.869-0.725-1.391-0.998c-0.115-0.031-0.289-0.045-0.478-0.045
				c-0.435,0-0.984,0.176-1.361,0.479c-0.449,0.738-0.681,1.621-0.681,2.865c0,2.303,0.927,3.346,2.187,3.346
				c0.812,0,1.549-0.363,2.114-1.014l0.912,1.115c-0.797,0.883-1.896,1.305-3.113,1.305c-2.52,0-3.764-1.867-3.764-4.752
				c0-2.936,1.549-4.748,3.836-4.748c1.129,0,2.113,0.363,2.795,1L469.399,354.51z"/>
			<path fill="#BBEFFF" d="M505.402,356.811c0,3-1.505,4.752-3.793,4.752c-2.315,0-3.793-1.668-3.793-4.752
				c0-2.881,1.52-4.748,3.793-4.748C503.926,352.063,505.402,353.74,505.402,356.811z M499.479,356.811
				c0,2.391,0.9,3.361,2.16,3.361c0.506,0,1.013-0.16,1.375-0.463c0.464-0.738,0.725-1.695,0.725-2.898
				c0-2.389-0.899-3.357-2.16-3.357c-0.52,0-1.012,0.158-1.389,0.492C499.743,354.684,499.479,355.641,499.479,356.811z"/>
			<path fill="#BBEFFF" d="M535.78,352.193l1.868,6.994h0.174l1.882-6.938h2.215l0.623,9.121h-1.766v-1.824l-0.219-4.965h-0.188
				l-0.434,1.885l-1.464,4.904h-1.649l-1.477-4.979l-0.377-1.811h-0.176l-0.158,4.387v2.402h-1.781l0.625-7.34v-1.709
				L535.78,352.193z"/>
			<path fill="#BBEFFF" d="M572.999,352.193l1.867,6.994h0.174l1.883-6.938h2.216l0.622,9.121h-1.767v-1.824l-0.216-4.965h-0.19
				l-0.433,1.885l-1.463,4.904h-1.65l-1.478-4.979l-0.376-1.811h-0.174l-0.158,4.387v2.402h-1.783l0.624-7.34v-1.709
				L572.999,352.193z"/>
			<path fill="#BBEFFF" d="M609.295,352.193v5.486c0,1.736,0.668,2.535,1.737,2.535c0.507,0,0.957-0.129,1.291-0.377
				c0.303-0.449,0.461-1.143,0.461-2.057v-3.893l-0.145-1.564l1.782-0.131v5.5c0,2.377-1.175,3.869-3.39,3.869
				c-2.155,0-3.387-1.32-3.387-3.809v-3.824l-0.145-1.605L609.295,352.193z"/>
			<path fill="#BBEFFF" d="M644.234,352.193l3.678,6.602h0.13l-0.115-2.955v-1.807l-0.187-1.709l1.737-0.131v9.137l-1.522,0.129
				l-3.676-6.543h-0.13l0.116,3.576v2.879h-1.55v-7.455l-0.145-1.592L644.234,352.193z"/>
			<path fill="#BBEFFF" d="M679.476,352.193v9.178h-1.65v-7.455l-0.146-1.592L679.476,352.193z"/>
			<path fill="#BBEFFF" d="M709.442,352.25h1.94l2.444-0.086l-0.07,1.594l-2.043-0.129h-0.507v7.742h-1.649v-7.742h-0.492
				l-2.085,0.111l0.116-1.561L709.442,352.25z"/>
			<path fill="#BBEFFF" d="M742.867,352.193l0.521,1.779l1.375,3.33h0.161l1.171-3.023l0.408-2.029h1.836v0.219l-0.679,1.926
				l-2.071,4.445v2.533h-1.636v-2.547l-3.027-6.299v-0.203L742.867,352.193z"/>
		</g>
		<g>
			<path fill="#FFFFFF" d="M582.958,308.708h5.532v31.024h-5.532V308.708z"/>
			<path fill="#FFFFFF" d="M602.271,334.391l-2.853,5.211h-6.216l16.792-31.117l11.21,20.771h-6.301l-4.909-9.141l-4.954,9.141
				L602.271,334.391z M626.788,339.602h-6.257l-6.089-11.279h6.217L626.788,339.602z"/>
			<path fill="#FFFFFF" d="M497.239,334.391l-2.852,5.211h-6.217l16.793-31.117l11.211,20.771h-6.302l-4.909-9.141l-4.955,9.141
				L497.239,334.391z M521.757,339.602h-6.256l-6.09-11.28h6.217L521.757,339.602z"/>
		</g>
		<path fill="#FFFFFF" d="M549.163,308.309h5.209l12.815,20.434v-20.434h5.478v31.027h-5.096l-12.871-20.389v20.389h-5.535V308.309
			L549.163,308.309z"/>
		<path fill="#FFFFFF" d="M462.538,328.607h5.476v1.994c0,2.439,1.812,4.566,6.958,4.566c4.872,0,5.528-2.57,5.528-3.811
			c0-2.838-3.397-3.944-7.009-5.053c-5.039-1.597-10.463-3.28-10.463-9.618c0-2.394,1.697-8.603,11.453-8.603
			c9.417,0,11.002,6.43,11.002,8.777v1.995h-5.527v-1.995c0-2.436-1.756-4.389-5.475-4.389c-3.564,0-5.919,1.684-5.919,4.214
			c0,3.013,3.506,4.165,7.176,5.274c5.036,1.504,10.294,3.188,10.294,9.396c0,3.898-2.516,8.199-11.061,8.199
			c-12.215,0-12.434-7.668-12.434-8.955V328.607z"/>
		<path fill="#64C8FF" d="M604.038,315.379c-8.818,0-13.406,3.364-17.457,6.332c-3.82,2.802-7.119,5.219-14.061,5.219
			c-6.93,0-10.229-2.417-14.045-5.217c-4.044-2.969-8.633-6.334-17.447-6.334c-8.813,0-13.402,3.364-17.449,6.332
			c-3.819,2.802-7.119,5.219-14.054,5.219c-6.933,0-10.229-2.417-14.048-5.217c-4.043-2.969-8.631-6.334-17.441-6.334
			s-13.397,3.364-17.443,6.334c-3.815,2.8-7.111,5.217-14.044,5.217c-1.59,0-2.876,1.294-2.876,2.89
			c0,1.597,1.286,2.888,2.876,2.888c8.813,0,13.398-3.365,17.444-6.333c3.814-2.8,7.107-5.217,14.043-5.217
			s10.229,2.417,14.049,5.218c4.046,2.967,8.63,6.333,17.44,6.333c8.817,0,13.403-3.366,17.45-6.333
			c3.819-2.801,7.118-5.218,14.054-5.218c6.935,0,10.231,2.417,14.051,5.218c4.044,2.967,8.63,6.333,17.44,6.333
			c8.82,0,13.406-3.362,17.456-6.333c3.823-2.799,7.122-5.218,14.062-5.218c6.941,0,10.24,2.419,14.061,5.218
			c4.049,2.971,8.636,6.333,17.455,6.333c1.59,0,2.875-1.292,2.875-2.888s-1.285-2.89-2.875-2.89c-6.94,0-10.24-2.418-14.061-5.219
			C617.444,318.744,612.854,315.379,604.038,315.379z"/>
		<ellipse fill="#7DC4FF" cx="528.658" cy="323.735" rx="0.001" ry="0.087"/>
		<ellipse fill="#7DC4FF" cx="530.854" cy="325.957" rx="0" ry="0.067"/>
		<path fill="#64C8FF" d="M528.658,323.129c0,0,2.286,2.647,2.468,2.647c0.18,0,2.783-0.048,3.734-1.733
			c0.951-1.685,1.223-2.861,1.223-2.93s-2.061-0.814-2.061-0.814"/>
		<path fill="#FFFFFF" d="M534.362,328.786l6.689,11.229h-6.248l-9.459-15.695l4.854,0.041c1.471,0,2.732-0.508,3.793-1.525
			c1.104-1.019,1.631-2.272,1.631-3.719c0-1.408-0.527-2.623-1.631-3.639c-1.061-1.017-2.322-1.527-3.793-1.527h-10.894
			l-0.608-0.586l-2.818-4.657h14.32c2.982,0,5.545,1.017,7.67,3.053c2.119,2.073,3.184,4.499,3.184,7.356
			c0,2.193-0.611,4.148-1.919,5.912C537.868,326.788,536.275,328.041,534.362,328.786z"/>
		<path fill="#FFFFFF" d="M549.163,308.309h5.209l12.815,20.434v-20.434h5.478v31.027h-5.096l-12.871-20.389"/>
		<path fill="#FFFFFF" d="M463.058,316.687c0-2.394,1.697-8.601,11.453-8.601c9.417,0,11.002,6.428,11.002,8.776v1.995h-5.526
			v-1.995c0-2.437-1.757-4.389-5.476-4.389c-3.564,0-5.918,1.684-5.918,4.213"/>
		<path fill="#FFFFFF" d="M504.964,308.484l11.211,20.771h-6.302l-4.909-9.141 M521.757,339.602h-6.256l-6.09-11.28h6.217
			L521.757,339.602z"/>
		<path fill="#FFFFFF" d="M602.271,334.391l-2.855,5.211h-6.213l16.792-31.117l11.21,20.771h-6.301l-4.909-9.14l-4.954,9.14
			L602.271,334.391z M626.788,339.602h-6.257l-6.089-11.279h6.217L626.788,339.602z"/>
	</g>
	<g>
		<g>
			<path fill="#0082E6" d="M241.662,310.354h20.747v4.387h-7.611v26.628h-5.535V314.74h-7.601V310.354z"/>
			<path fill="#0082E6" d="M318.544,333.215c0,6.25-5.306,8.377-11.002,8.377c-10.947,0-12.369-7.137-12.369-15.732
				c0-8.594,1.422-15.729,12.369-15.729c5.696,0,11.002,2.218,11.002,8.376v1.993h-5.416v-1.993c0-2.834-2.13-3.988-5.586-3.988
				c-6.13,0-6.896,4.477-6.896,11.342c0,6.868,0.767,11.344,6.896,11.344c3.4,0,5.532-1.285,5.532-3.987v-1.993h5.47V333.215z"/>
			<path fill="#0082E6" d="M327.384,310.354h5.527v14.975h10.183v-14.975h5.526v31.015h-5.526v-11.653h-10.183v11.653h-5.527
				V310.354z"/>
			<path fill="#0082E6" d="M287.765,310.354v5.241h-16.344l-5.428-5.241H287.765z M271.421,323.42h16.344v5.203h-16.344h-5.428
				v-5.203H271.421z M271.421,336.41h16.344v5.24h-21.771v-0.43L271.421,336.41z"/>
		</g>
		<g>
			<path fill="#616161" d="M69.303,355.859c-0.392-0.391-0.868-0.725-1.39-0.998c-0.115-0.031-0.289-0.047-0.478-0.047
				c-0.435,0-0.984,0.176-1.36,0.479c-0.449,0.738-0.682,1.621-0.682,2.865c0,2.303,0.927,3.344,2.187,3.344
				c0.812,0,1.548-0.361,2.114-1.012l0.91,1.113c-0.796,0.883-1.895,1.305-3.111,1.305c-2.519,0-3.764-1.867-3.764-4.75
				c0-2.936,1.549-4.746,3.836-4.746c1.129,0,2.113,0.361,2.793,0.998L69.303,355.859z"/>
			<path fill="#616161" d="M105.296,358.158c0,2.998-1.506,4.75-3.793,4.75c-2.315,0-3.792-1.666-3.792-4.75
				c0-2.879,1.521-4.746,3.792-4.746C103.819,353.412,105.296,355.09,105.296,358.158z M99.376,358.158
				c0,2.391,0.897,3.361,2.156,3.361c0.507,0,1.013-0.162,1.375-0.465c0.463-0.738,0.724-1.693,0.724-2.896
				c0-2.387-0.897-3.357-2.157-3.357c-0.52,0-1.012,0.158-1.389,0.492C99.636,356.031,99.376,356.988,99.376,358.158z"/>
			<path fill="#616161" d="M135.663,353.543l1.867,6.992h0.174l1.881-6.936h2.215l0.623,9.119h-1.766v-1.824l-0.218-4.965h-0.188
				l-0.434,1.885l-1.463,4.904h-1.648l-1.477-4.979l-0.377-1.811h-0.174l-0.158,4.387v2.402h-1.781l0.623-7.338v-1.709
				L135.663,353.543z"/>
			<path fill="#616161" d="M172.868,353.543l1.868,6.992h0.173l1.883-6.936h2.215l0.621,9.119h-1.766v-1.824l-0.217-4.965h-0.188
				l-0.435,1.885l-1.463,4.904h-1.649l-1.477-4.979l-0.377-1.811h-0.174l-0.158,4.387v2.402h-1.781l0.623-7.338v-1.709
				L172.868,353.543z"/>
			<path fill="#616161" d="M209.155,353.543v5.484c0,1.736,0.664,2.535,1.736,2.535c0.506,0,0.953-0.131,1.287-0.377
				c0.305-0.449,0.464-1.143,0.464-2.057v-3.891l-0.144-1.564l1.779-0.131v5.5c0,2.375-1.172,3.865-3.387,3.865
				c-2.158,0-3.389-1.318-3.389-3.807v-3.82l-0.145-1.607L209.155,353.543z"/>
			<path fill="#616161" d="M244.081,353.543l3.678,6.6h0.13l-0.116-2.953v-1.809l-0.189-1.709l1.737-0.129v9.133l-1.519,0.131
				l-3.678-6.543h-0.13l0.116,3.574v2.881h-1.547v-7.453l-0.148-1.594L244.081,353.543z"/>
			<path fill="#616161" d="M279.309,353.543v9.176h-1.649v-7.453l-0.145-1.594L279.309,353.543z"/>
			<path fill="#616161" d="M309.267,353.6h1.939l2.447-0.086l-0.074,1.594l-2.039-0.131h-0.506v7.742h-1.652v-7.742h-0.492
				l-2.082,0.113l0.113-1.563L309.267,353.6z"/>
			<path fill="#616161" d="M342.683,353.543l0.52,1.779l1.376,3.328h0.157l1.174-3.023l0.405-2.027h1.839v0.217l-0.682,1.928
				l-2.068,4.443v2.531h-1.637v-2.547l-3.024-6.295v-0.203L342.683,353.543z"/>
		</g>
		<g>
			<path fill="#0082E6" d="M182.825,310.07h5.529v31.015h-5.529V310.07z"/>
			<path fill="#0082E6" d="M202.13,335.745l-2.852,5.21h-6.214l16.787-31.107l11.206,20.764h-6.299l-4.907-9.138l-4.953,9.138
				L202.13,335.745z M226.64,340.955h-6.254l-6.088-11.277h6.215L226.64,340.955z"/>
			<path fill="#0082E6" d="M97.136,335.745l-2.854,5.21h-6.214l16.787-31.107l11.208,20.764h-6.299l-4.909-9.138l-4.952,9.138
				L97.136,335.745z M121.644,340.955h-6.254l-6.086-11.277h6.214L121.644,340.955z"/>
		</g>
		<path fill="#0082E6" d="M149.041,309.672h5.208l12.811,20.426v-20.426h5.475v31.018h-5.094l-12.867-20.384v20.384h-5.532V309.672z
			"/>
		<path fill="#0082E6" d="M62.444,329.964h5.475v1.994c0,2.438,1.809,4.565,6.954,4.565c4.872,0,5.526-2.571,5.526-3.81
			c0-2.837-3.396-3.943-7.006-5.052c-5.037-1.596-10.46-3.279-10.46-9.615c0-2.393,1.698-8.599,11.45-8.599
			c9.414,0,10.998,6.427,10.998,8.774v1.994h-5.525v-1.994c0-2.436-1.756-4.387-5.473-4.387c-3.564,0-5.917,1.683-5.917,4.211
			c0,3.013,3.503,4.164,7.172,5.273c5.036,1.504,10.29,3.188,10.29,9.393c0,3.898-2.514,8.196-11.057,8.196
			c-12.211,0-12.429-7.665-12.429-8.952L62.444,329.964L62.444,329.964z"/>
		<path fill="#AEDEFF" d="M203.897,316.74c-8.816,0-13.401,3.363-17.451,6.33c-3.819,2.8-7.117,5.217-14.056,5.217
			c-6.927,0-10.226-2.418-14.04-5.216c-4.043-2.968-8.631-6.331-17.441-6.331s-13.398,3.363-17.443,6.33
			c-3.818,2.8-7.116,5.217-14.051,5.217c-6.93,0-10.225-2.418-14.042-5.216c-4.044-2.968-8.628-6.331-17.437-6.331
			s-13.393,3.363-17.437,6.331c-3.814,2.798-7.11,5.216-14.039,5.216c-1.59,0-2.876,1.293-2.876,2.888
			c0,1.597,1.286,2.888,2.876,2.888c8.81,0,13.394-3.365,17.438-6.332c3.813-2.799,7.105-5.215,14.038-5.215
			c6.934,0,10.227,2.416,14.044,5.217c4.045,2.965,8.629,6.33,17.435,6.33c8.815,0,13.4-3.365,17.445-6.33
			c3.818-2.801,7.116-5.217,14.049-5.217c6.934,0,10.229,2.416,14.047,5.217c4.041,2.965,8.627,6.33,17.435,6.33
			c8.817,0,13.401-3.361,17.45-6.33c3.82-2.799,7.119-5.217,14.057-5.217c6.939,0,10.236,2.418,14.056,5.217
			c4.048,2.969,8.632,6.33,17.449,6.33c1.589,0,2.873-1.291,2.873-2.888c0-1.595-1.284-2.888-2.873-2.888
			c-6.938,0-10.236-2.418-14.056-5.217C217.3,320.104,212.712,316.74,203.897,316.74z"/>
		<ellipse fill="#7DC4FF" cx="128.542" cy="325.093" rx="0.001" ry="0.087"/>
		<ellipse fill="#7DC4FF" cx="130.737" cy="327.314" rx="0" ry="0.068"/>
		<path fill="#AEDEFF" d="M128.542,324.486c0,0,2.286,2.647,2.467,2.647c0.182,0,2.783-0.048,3.734-1.732
			c0.95-1.685,1.221-2.861,1.221-2.929c0-0.068-2.059-0.814-2.059-0.814"/>
		<path fill="#0082E6" d="M134.245,330.143l6.686,11.226h-6.244l-9.457-15.689l4.852,0.04c1.471,0,2.732-0.507,3.793-1.525
			c1.104-1.018,1.629-2.271,1.629-3.717c0-1.408-0.525-2.621-1.629-3.639c-1.061-1.016-2.322-1.525-3.793-1.525H119.19l-0.607-0.586
			l-2.818-4.656h14.316c2.981,0,5.544,1.018,7.668,3.053c2.119,2.072,3.182,4.497,3.182,7.354c0,2.193-0.61,4.146-1.918,5.909
			C137.749,328.145,136.157,329.396,134.245,330.143z"/>
		<path fill="#0082E6" d="M149.041,309.672h5.208l12.811,20.426v-20.426h5.475v31.018h-5.094l-12.867-20.384"/>
		<path fill="#0082E6" d="M62.94,318.309c0-2.394,1.698-8.6,11.451-8.6c9.413,0,10.997,6.427,10.997,8.773v1.994h-5.524v-1.994
			c0-2.435-1.756-4.387-5.473-4.387c-3.564,0-5.918,1.684-5.918,4.213"/>
		<path fill="#0082E6" d="M104.855,309.848l11.208,20.764h-6.299l-4.909-9.138 M121.644,340.955h-6.254l-6.086-11.277h6.214
			L121.644,340.955z"/>
		<path fill="#0082E6" d="M202.13,335.745l-2.854,5.21h-6.211l16.787-31.107l11.206,20.764h-6.299l-4.907-9.137l-4.953,9.137
			L202.13,335.745z M226.64,340.955h-6.254l-6.088-11.277h6.215L226.64,340.955z"/>
	</g>
	<g>
		<g>
			<path fill="#616161" d="M125.41,216.819c-0.383-0.383-0.852-0.71-1.364-0.98c-0.114-0.029-0.284-0.044-0.468-0.044
				c-0.426,0-0.966,0.172-1.336,0.469c-0.441,0.725-0.668,1.592-0.668,2.813c0,2.26,0.91,3.281,2.145,3.281
				c0.796,0,1.521-0.355,2.076-0.993l0.894,1.094c-0.781,0.866-1.861,1.279-3.055,1.279c-2.471,0-3.693-1.833-3.693-4.661
				c0-2.881,1.521-4.658,3.765-4.658c1.108,0,2.073,0.355,2.741,0.979L125.41,216.819z"/>
			<path fill="#616161" d="M145.489,219.076c0,2.943-1.477,4.661-3.721,4.661c-2.274,0-3.722-1.635-3.722-4.661
				c0-2.826,1.491-4.658,3.722-4.658C144.041,214.418,145.489,216.064,145.489,219.076z M139.68,219.076
				c0,2.346,0.88,3.298,2.116,3.298c0.497,0,0.995-0.158,1.35-0.456c0.456-0.725,0.71-1.663,0.71-2.843
				c0-2.342-0.88-3.295-2.117-3.295c-0.511,0-0.993,0.155-1.364,0.483C139.935,216.99,139.68,217.928,139.68,219.076z"/>
			<path fill="#616161" d="M160.049,214.546l1.832,6.863h0.171l1.847-6.807h2.173l0.61,8.949h-1.732v-1.79l-0.214-4.872h-0.184
				l-0.426,1.849l-1.437,4.813h-1.619l-1.449-4.885l-0.369-1.777h-0.171l-0.155,4.306v2.357h-1.748l0.611-7.202v-1.676
				L160.049,214.546z"/>
			<path fill="#616161" d="M181.318,214.546l1.832,6.863h0.17l1.848-6.807h2.174l0.609,8.949h-1.732v-1.79l-0.213-4.872h-0.185
				l-0.427,1.849l-1.435,4.813h-1.62l-1.448-4.885l-0.37-1.777h-0.17l-0.156,4.306v2.357h-1.748l0.611-7.202v-1.676L181.318,214.546
				z"/>
			<path fill="#616161" d="M201.685,214.546v5.384c0,1.704,0.655,2.486,1.706,2.486c0.496,0,0.937-0.127,1.264-0.368
				c0.297-0.442,0.455-1.123,0.455-2.019v-3.82l-0.143-1.534l1.748-0.128v5.397c0,2.332-1.151,3.796-3.324,3.796
				c-2.117,0-3.326-1.294-3.326-3.737v-3.75l-0.141-1.577L201.685,214.546z"/>
			<path fill="#616161" d="M220.719,214.546l3.609,6.477h0.127l-0.113-2.899v-1.773l-0.186-1.676l1.705-0.128v8.965l-1.49,0.127
				l-3.609-6.421h-0.128l0.114,3.508v2.826h-1.521v-7.314l-0.141-1.563L220.719,214.546z"/>
			<path fill="#616161" d="M240.049,214.546v9.005h-1.621v-7.314l-0.142-1.563L240.049,214.546z"/>
			<path fill="#616161" d="M254.205,214.602h1.904l2.4-0.083l-0.071,1.563l-2.005-0.127h-0.496v7.597h-1.619v-7.597h-0.483
				l-2.046,0.11l0.113-1.532L254.205,214.602z"/>
			<path fill="#616161" d="M271.753,214.546l0.511,1.746l1.35,3.268h0.158l1.148-2.968l0.4-1.99h1.802v0.213l-0.667,1.89
				l-2.031,4.361v2.484h-1.605v-2.499l-2.969-6.178v-0.201L271.753,214.546z"/>
		</g>
		<g>
			<path fill="#0082E6" d="M237.221,111.523h5.427v30.44h-5.427V111.523z"/>
			<path fill="#0082E6" d="M256.168,136.722l-2.799,5.113h-6.1l16.477-30.532l11,20.38h-6.184l-4.816-8.969l-4.86,8.969
				L256.168,136.722z M280.223,141.835h-6.139l-5.974-11.067h6.099L280.223,141.835z"/>
			<path fill="#0082E6" d="M153.12,136.722l-2.8,5.113h-6.099l16.476-30.532l11,20.38h-6.183l-4.817-8.969l-4.861,8.969
				L153.12,136.722z M177.173,141.835h-6.138l-5.973-11.067h6.099L177.173,141.835z"/>
		</g>
		<path fill="#0082E6" d="M204.063,111.132h5.111l12.572,20.048v-20.048h5.375v30.441h-5l-12.629-20.004v20.004h-5.43V111.132z"/>
		<path fill="#0082E6" d="M119.071,131.048h5.374v1.957c0,2.394,1.775,4.481,6.825,4.481c4.781,0,5.424-2.524,5.424-3.74
			c0-2.784-3.334-3.87-6.876-4.958c-4.944-1.566-10.266-3.218-10.266-9.436c0-2.349,1.667-8.44,11.238-8.44
			c9.239,0,10.794,6.307,10.794,8.611v1.957h-5.423v-1.957c0-2.39-1.724-4.305-5.371-4.305c-3.499,0-5.806,1.65-5.806,4.134
			c0,2.956,3.438,4.086,7.038,5.174c4.943,1.477,10.1,3.128,10.1,9.219c0,3.826-2.468,8.045-10.852,8.045
			c-11.985,0-12.199-7.522-12.199-8.786V131.048L119.071,131.048z"/>
		<path fill="#0082E6" d="M117.494,152.964h30.669v6.486h-11.251v39.361h-8.181v-39.362h-11.237V152.964z"/>
		<path fill="#0082E6" d="M231.148,186.759c0,9.236-7.844,12.381-16.265,12.381c-16.182,0-18.289-10.548-18.289-23.255
			c0-12.703,2.107-23.251,18.289-23.251c8.421,0,16.265,3.278,16.265,12.38v2.949h-8.011v-2.949c0-4.188-3.146-5.894-8.254-5.894
			c-9.061,0-10.196,6.617-10.196,16.766c0,10.152,1.136,16.771,10.196,16.771c5.021,0,8.175-1.903,8.175-5.897v-2.946h8.09V186.759z
			"/>
		<path fill="#0082E6" d="M244.213,152.964h8.171V175.1h15.052v-22.136h8.17v45.847h-8.17v-17.226h-15.052v17.226h-8.171V152.964
			L244.213,152.964z"/>
		<path fill="#0082E6" d="M185.646,152.546v7.748h-24.159l-8.026-7.748H185.646z M161.487,171.86h24.159v7.691h-24.159h-8.026
			v-7.691H161.487z M161.487,191.064h24.159v7.747h-32.184v-0.635L161.487,191.064z"/>
		<path fill="#AEDEFF" d="M257.902,118.069c-8.652,0-13.152,3.301-17.129,6.213c-3.747,2.747-6.983,5.12-13.793,5.12
			c-6.8,0-10.036-2.373-13.781-5.118c-3.967-2.914-8.469-6.215-17.117-6.215s-13.15,3.301-17.121,6.213
			c-3.748,2.747-6.984,5.12-13.789,5.12c-6.802,0-10.036-2.373-13.783-5.119c-3.968-2.913-8.469-6.214-17.113-6.214
			c-8.645,0-13.144,3.301-17.114,6.214c-3.743,2.746-6.977,5.119-13.778,5.119c-1.56,0-2.822,1.269-2.822,2.833
			c0,1.567,1.262,2.834,2.822,2.834c8.646,0,13.144-3.304,17.115-6.215c3.742-2.746,6.973-5.118,13.777-5.118
			c6.804,0,10.038,2.372,13.783,5.119c3.969,2.91,8.469,6.214,17.113,6.214c8.651,0,13.15-3.304,17.121-6.214
			c3.748-2.748,6.984-5.119,13.789-5.119c6.804,0,10.037,2.372,13.785,5.119c3.967,2.91,8.467,6.214,17.113,6.214
			c8.652,0,13.152-3.3,17.125-6.214c3.75-2.745,6.988-5.119,13.797-5.119c6.811,0,10.047,2.374,13.795,5.119
			c3.973,2.914,8.473,6.214,17.125,6.214c1.562,0,2.821-1.268,2.821-2.834c0-1.565-1.26-2.833-2.821-2.833
			c-6.809,0-10.046-2.373-13.794-5.12C271.057,121.37,266.553,118.069,257.902,118.069z"/>
		<ellipse fill="#7DC4FF" cx="183.944" cy="126.267" rx="0.001" ry="0.085"/>
		<path fill="#7DC4FF" d="M186.1,128.447c0.036,0,0.065,0,0.065,0S186.136,128.447,186.1,128.447c-0.039,0-0.068,0-0.068,0
			S186.061,128.447,186.1,128.447z"/>
		<path fill="#AEDEFF" d="M183.944,125.672c0,0,2.243,2.598,2.421,2.598s2.731-0.046,3.664-1.701c0.934-1.653,1.2-2.808,1.2-2.874
			c0-0.067-2.021-0.799-2.021-0.799"/>
		<path fill="#0082E6" d="M189.541,131.223l6.563,11.017h-6.129l-9.281-15.398l4.76,0.038c1.444,0,2.684-0.496,3.725-1.496
			c1.082-0.999,1.599-2.229,1.599-3.647c0-1.382-0.517-2.572-1.599-3.571c-1.041-0.997-2.28-1.498-3.725-1.498h-10.688l-0.596-0.574
			l-2.766-4.57h14.049c2.928,0,5.441,0.998,7.527,2.995c2.079,2.034,3.123,4.415,3.123,7.218c0,2.151-0.6,4.07-1.883,5.8
			C192.98,129.263,191.418,130.491,189.541,131.223z"/>
		<path fill="#0082E6" d="M204.063,111.132h5.111l12.572,20.048v-20.048h5.375v30.441h-5l-12.629-20.004"/>
		<path fill="#0082E6" d="M119.581,119.353c0-2.349,1.666-8.44,11.237-8.44c9.24,0,10.793,6.307,10.793,8.611v1.957h-5.422v-1.957
			c0-2.39-1.723-4.305-5.372-4.305c-3.497,0-5.807,1.65-5.807,4.134"/>
		<path fill="#0082E6" d="M160.696,111.303l11,20.38h-6.183l-4.817-8.969 M177.173,141.835h-6.138l-5.973-11.067h6.099
			L177.173,141.835z"/>
		<path fill="#0082E6" d="M256.168,136.722l-2.801,5.113h-6.096l16.475-30.532l11,20.38h-6.183l-4.817-8.968l-4.86,8.968
			L256.168,136.722z M280.223,141.835h-6.139l-5.974-11.067h6.099L280.223,141.835z"/>
	</g>
	<g>
		<g>
			<g>
				<path fill="#BBEFFF" d="M524.892,216.862c-0.389-0.387-0.861-0.717-1.377-0.989c-0.115-0.029-0.287-0.043-0.473-0.043
					c-0.43,0-0.976,0.172-1.348,0.473c-0.445,0.732-0.674,1.607-0.674,2.839c0,2.279,0.916,3.312,2.164,3.312
					c0.803,0,1.534-0.359,2.094-1.004l0.902,1.104c-0.788,0.874-1.877,1.291-3.082,1.291c-2.494,0-3.727-1.85-3.727-4.703
					c0-2.91,1.533-4.703,3.799-4.703c1.117,0,2.092,0.358,2.768,0.989L524.892,216.862z"/>
				<path fill="#BBEFFF" d="M545.157,219.142c0,2.969-1.492,4.703-3.756,4.703c-2.295,0-3.758-1.65-3.758-4.703
					c0-2.853,1.508-4.703,3.758-4.703C543.694,214.439,545.157,216.102,545.157,219.142z M539.294,219.142
					c0,2.367,0.889,3.327,2.136,3.327c0.501,0,1.003-0.158,1.362-0.459c0.459-0.731,0.717-1.677,0.717-2.868
					c0-2.365-0.889-3.326-2.137-3.326c-0.517,0-1.003,0.157-1.377,0.487C539.552,217.035,539.294,217.98,539.294,219.142z"/>
				<path fill="#BBEFFF" d="M559.853,214.568l1.848,6.926h0.172l1.865-6.869h2.194l0.616,9.034h-1.75v-1.808l-0.214-4.917h-0.187
					l-0.43,1.865l-1.449,4.859h-1.635l-1.463-4.933l-0.372-1.792h-0.171l-0.159,4.345v2.38h-1.764l0.616-7.269v-1.691
					L559.853,214.568z"/>
				<path fill="#BBEFFF" d="M581.318,214.568l1.851,6.926h0.172l1.863-6.869h2.194l0.616,9.034h-1.748v-1.808l-0.216-4.917h-0.185
					l-0.432,1.865l-1.449,4.859h-1.633l-1.463-4.933l-0.373-1.792h-0.172l-0.159,4.345v2.38h-1.762l0.616-7.269v-1.691
					L581.318,214.568z"/>
				<path fill="#BBEFFF" d="M601.876,214.568v5.435c0,1.72,0.658,2.509,1.721,2.509c0.501,0,0.947-0.129,1.275-0.372
					c0.303-0.445,0.458-1.132,0.458-2.036v-3.857l-0.143-1.548l1.764-0.13v5.448c0,2.353-1.161,3.829-3.354,3.829
					c-2.139,0-3.355-1.305-3.355-3.771v-3.784l-0.143-1.592L601.876,214.568z"/>
				<path fill="#BBEFFF" d="M621.086,214.568l3.642,6.538h0.13l-0.114-2.925v-1.792l-0.186-1.691l1.721-0.13v9.047l-1.506,0.129
					l-3.643-6.481h-0.129l0.114,3.542v2.854h-1.534v-7.384l-0.143-1.577L621.086,214.568z"/>
				<path fill="#BBEFFF" d="M640.597,214.568v9.091h-1.635v-7.385l-0.143-1.576L640.597,214.568z"/>
				<path fill="#BBEFFF" d="M654.884,214.625h1.922l2.422-0.085l-0.072,1.577l-2.02-0.129h-0.502v7.671h-1.635v-7.671h-0.486
					l-2.066,0.113l0.115-1.548L654.884,214.625z"/>
				<path fill="#BBEFFF" d="M672.597,214.568l0.516,1.764l1.361,3.298h0.156l1.164-2.997l0.4-2.007h1.82v0.216l-0.674,1.907
					l-2.049,4.402v2.509h-1.623v-2.523l-2.994-6.237v-0.2L672.597,214.568z"/>
			</g>
		</g>
		<g>
			<path fill="#FFFFFF" d="M637.742,110.587h5.478v30.724h-5.478V110.587z"/>
			<path fill="#FFFFFF" d="M656.864,136.021l-2.824,5.161h-6.154l16.627-30.816l11.104,20.569h-6.24l-4.861-9.052l-4.906,9.052
				L656.864,136.021z M681.144,141.182h-6.195l-6.029-11.171h6.156L681.144,141.182z"/>
			<path fill="#FFFFFF" d="M552.858,136.021l-2.827,5.161h-6.155l16.629-30.816l11.104,20.569h-6.239l-4.864-9.052l-4.906,9.052
				L552.858,136.021z M577.136,141.182h-6.196l-6.026-11.171h6.156L577.136,141.182z"/>
		</g>
		<path fill="#FFFFFF" d="M604.275,110.192h5.158l12.69,20.234v-20.234h5.424v30.724h-5.047l-12.746-20.19v20.19h-5.479V110.192z"/>
		<path fill="#FFFFFF" d="M518.493,130.293h5.425v1.976c0,2.415,1.79,4.522,6.887,4.522c4.827,0,5.474-2.547,5.474-3.774
			c0-2.811-3.363-3.906-6.939-5.005c-4.99-1.58-10.361-3.248-10.361-9.523c0-2.37,1.685-8.518,11.342-8.518
			c9.328,0,10.897,6.365,10.897,8.692v1.975h-5.476v-1.975c0-2.413-1.739-4.346-5.422-4.346c-3.529,0-5.857,1.667-5.857,4.172
			c0,2.984,3.468,4.124,7.102,5.223c4.991,1.491,10.193,3.158,10.193,9.305c0,3.861-2.49,8.12-10.951,8.12
			c-12.098,0-12.313-7.593-12.313-8.868V130.293L518.493,130.293z"/>
		<path fill="#FFFFFF" d="M516.901,152.413h30.956v6.545h-11.356v39.729h-8.258v-39.729h-11.342V152.413z"/>
		<path fill="#FFFFFF" d="M631.614,186.522c0,9.322-7.919,12.497-16.416,12.497c-16.334,0-18.461-10.646-18.461-23.472
			c0-12.821,2.127-23.467,18.461-23.467c8.497,0,16.416,3.308,16.416,12.495v2.976h-8.086v-2.976c0-4.228-3.176-5.95-8.33-5.95
			c-9.146,0-10.292,6.679-10.292,16.922c0,10.247,1.146,16.927,10.292,16.927c5.068,0,8.252-1.919,8.252-5.952v-2.973h8.164V186.522
			L631.614,186.522z"/>
		<path fill="#FFFFFF" d="M644.8,152.413h8.246v22.341h15.193v-22.341h8.244v46.274h-8.244V181.3h-15.193v17.387H644.8V152.413
			L644.8,152.413z"/>
		<path fill="#FFFFFF" d="M585.688,151.991v7.82h-24.385l-8.1-7.82H585.688z M561.304,171.486h24.385v7.762h-24.385h-8.1v-7.762
			H561.304z M561.304,190.867h24.385v7.82h-32.484v-0.642L561.304,190.867z"/>
		<path fill="#64C8FF" d="M658.616,117.194c-8.732,0-13.275,3.332-17.287,6.271c-3.783,2.773-7.051,5.167-13.924,5.167
			c-6.861,0-10.129-2.394-13.908-5.166c-4.004-2.941-8.549-6.272-17.276-6.272c-8.729,0-13.273,3.332-17.28,6.271
			c-3.783,2.773-7.049,5.167-13.918,5.167c-6.866,0-10.129-2.394-13.91-5.166c-4.006-2.941-8.549-6.272-17.273-6.272
			c-8.726,0-13.268,3.332-17.271,6.272c-3.78,2.771-7.046,5.166-13.909,5.166c-1.576,0-2.848,1.281-2.848,2.861
			c0,1.581,1.271,2.859,2.848,2.859c8.729,0,13.267-3.333,17.273-6.272c3.777-2.772,7.039-5.166,13.906-5.166
			c6.869,0,10.132,2.393,13.912,5.167c4.006,2.937,8.549,6.271,17.271,6.271c8.732,0,13.273-3.333,17.281-6.271
			c3.781-2.774,7.049-5.167,13.917-5.167c6.866,0,10.131,2.393,13.914,5.167c4.003,2.937,8.546,6.271,17.271,6.271
			c8.734,0,13.276-3.329,17.285-6.271c3.786-2.772,7.053-5.167,13.926-5.167c6.875,0,10.141,2.396,13.924,5.167
			c4.008,2.941,8.551,6.271,17.285,6.271c1.574,0,2.846-1.279,2.846-2.859c0-1.58-1.271-2.861-2.846-2.861
			c-6.875,0-10.141-2.394-13.924-5.167C671.892,120.525,667.347,117.194,658.616,117.194z"/>
		<ellipse fill="#7DC4FF" cx="583.97" cy="125.468" rx="0" ry="0.086"/>
		<ellipse fill="#7DC4FF" cx="586.144" cy="127.669" rx="0" ry="0.068"/>
		<path fill="#64C8FF" d="M583.97,124.867c0,0,2.264,2.623,2.443,2.623s2.757-0.048,3.699-1.716c0.941-1.669,1.21-2.834,1.21-2.902
			s-2.04-0.807-2.04-0.807"/>
		<path fill="#FFFFFF" d="M589.618,130.47l6.623,11.121h-6.186l-9.367-15.542l4.806,0.039c1.458,0,2.706-0.501,3.757-1.51
			c1.094-1.008,1.615-2.25,1.615-3.682c0-1.395-0.521-2.597-1.615-3.604c-1.051-1.007-2.299-1.512-3.757-1.512h-10.788l-0.602-0.58
			l-2.793-4.612h14.183c2.953,0,5.491,1.007,7.597,3.023c2.098,2.052,3.15,4.455,3.15,7.285c0,2.171-0.604,4.108-1.898,5.854
			C593.091,128.491,591.513,129.731,589.618,130.47z"/>
		<path fill="#FFFFFF" d="M604.275,110.192h5.158l12.69,20.234v-20.234h5.424v30.724h-5.047l-12.746-20.19"/>
		<path fill="#FFFFFF" d="M519.007,118.489c0-2.37,1.682-8.518,11.342-8.518c9.324,0,10.895,6.365,10.895,8.692v1.975h-5.473v-1.975
			c0-2.413-1.74-4.346-5.422-4.346c-3.531,0-5.861,1.667-5.861,4.172"/>
		<path fill="#FFFFFF" d="M560.505,110.366l11.104,20.569h-6.239l-4.864-9.052 M577.136,141.182h-6.196l-6.026-11.171h6.156
			L577.136,141.182z"/>
		<path fill="#FFFFFF" d="M656.864,136.021l-2.826,5.161h-6.152l16.627-30.816l11.104,20.569h-6.24l-4.861-9.051l-4.906,9.051
			L656.864,136.021z M681.144,141.182h-6.195l-6.029-11.171h6.156L681.144,141.182z"/>
	</g>
</g>
</svg>
