<?xml version="1.0" encoding="utf-8"?>
<!-- Generator: Adobe Illustrator 16.0.0, SVG Export Plug-In . SVG Version: 6.00 Build 0)  -->
<!DOCTYPE svg PUBLIC "-//W3C//DTD SVG 1.1//EN" "http://www.w3.org/Graphics/SVG/1.1/DTD/svg11.dtd">
<svg version="1.1" id="Layer_1" xmlns="http://www.w3.org/2000/svg" xmlns:xlink="http://www.w3.org/1999/xlink" x="0px" y="0px"
	 width="191.939px" height="113.768px" viewBox="0 0 191.939 113.768" enable-background="new 0 0 191.939 113.768"
	 xml:space="preserve">
<g>
	<g>
		<g>
			<path fill="#BBEFFF" d="M24.929,107.094c-0.386-0.384-0.855-0.712-1.367-0.981c-0.115-0.029-0.285-0.043-0.469-0.043
				c-0.427,0-0.968,0.171-1.337,0.469c-0.442,0.728-0.669,1.596-0.669,2.819c0,2.261,0.909,3.286,2.148,3.286
				c0.796,0,1.522-0.356,2.078-0.996l0.896,1.097c-0.782,0.867-1.863,1.281-3.059,1.281c-2.476,0-3.699-1.836-3.699-4.668
				c0-2.889,1.522-4.668,3.771-4.668c1.109,0,2.076,0.354,2.747,0.98L24.929,107.094z"/>
			<path fill="#BBEFFF" d="M45.043,109.357c0,2.946-1.481,4.668-3.728,4.668c-2.278,0-3.729-1.639-3.729-4.668
				c0-2.833,1.497-4.668,3.729-4.668C43.591,104.689,45.043,106.339,45.043,109.357z M39.224,109.357
				c0,2.349,0.882,3.301,2.12,3.301c0.497,0,0.995-0.157,1.352-0.455c0.456-0.726,0.711-1.663,0.711-2.846
				c0-2.348-0.882-3.302-2.121-3.302c-0.513,0-0.996,0.156-1.367,0.483C39.48,107.266,39.224,108.204,39.224,109.357z"/>
			<path fill="#BBEFFF" d="M59.629,104.817l1.834,6.874h0.17l1.852-6.818h2.178l0.612,8.967h-1.737v-1.794l-0.212-4.881H64.14
				l-0.427,1.851l-1.438,4.823h-1.623l-1.452-4.896l-0.37-1.778h-0.169l-0.158,4.312v2.362h-1.751l0.612-7.215v-1.679
				L59.629,104.817z"/>
			<path fill="#BBEFFF" d="M80.935,104.817l1.837,6.874h0.171l1.849-6.818h2.179l0.611,8.967h-1.735v-1.794l-0.214-4.881h-0.184
				l-0.428,1.851l-1.438,4.823h-1.621l-1.452-4.896l-0.37-1.778h-0.17l-0.158,4.312v2.362h-1.749l0.612-7.215v-1.679L80.935,104.817
				z"/>
			<path fill="#BBEFFF" d="M101.339,104.817v5.394c0,1.707,0.653,2.49,1.708,2.49c0.497,0,0.94-0.128,1.266-0.369
				c0.301-0.441,0.455-1.124,0.455-2.021v-3.828l-0.142-1.536l1.75-0.129v5.407c0,2.335-1.152,3.801-3.329,3.801
				c-2.123,0-3.331-1.295-3.331-3.743v-3.756l-0.141-1.58L101.339,104.817z"/>
			<path fill="#BBEFFF" d="M120.405,104.817l3.614,6.489h0.129l-0.113-2.903v-1.779l-0.184-1.678l1.707-0.129v8.979l-1.494,0.128
				l-3.615-6.432h-0.128l0.113,3.515v2.833h-1.522v-7.328l-0.142-1.565L120.405,104.817z"/>
			<path fill="#BBEFFF" d="M139.771,104.817v9.022h-1.622v-7.329l-0.142-1.564L139.771,104.817z"/>
			<path fill="#BBEFFF" d="M153.951,104.873h1.907l2.404-0.084l-0.072,1.565l-2.004-0.128h-0.499v7.613h-1.622v-7.613h-0.482
				l-2.052,0.112l0.115-1.536L153.951,104.873z"/>
			<path fill="#BBEFFF" d="M171.531,104.817l0.512,1.75l1.352,3.273h0.155l1.155-2.975l0.397-1.993h1.807v0.215l-0.669,1.893
				l-2.033,4.369v2.49h-1.611v-2.505l-2.972-6.19v-0.198L171.531,104.817z"/>
		</g>
	</g>
	<g>
		<path fill="#FFFFFF" d="M136.938,1.612h5.437v30.494h-5.437V1.612z"/>
		<path fill="#FFFFFF" d="M155.917,26.855l-2.804,5.123h-6.108l16.503-30.586l11.021,20.416h-6.193l-4.825-8.985l-4.869,8.985
			L155.917,26.855z M180.015,31.978h-6.149l-5.983-11.088h6.109L180.015,31.978z"/>
		<path fill="#FFFFFF" d="M52.687,26.855l-2.806,5.123h-6.109L60.276,1.392l11.021,20.416h-6.193l-4.828-8.985l-4.87,8.985
			L52.687,26.855z M76.783,31.978h-6.15L64.652,20.89h6.11L76.783,31.978z"/>
	</g>
	<path fill="#FFFFFF" d="M103.721,1.22h5.119l12.596,20.083V1.22h5.384v30.495h-5.01l-12.65-20.039v20.039h-5.438V1.22z"/>
	<path fill="#FFFFFF" d="M18.578,21.17h5.385v1.961c0,2.397,1.776,4.489,6.835,4.489c4.791,0,5.433-2.528,5.433-3.746
		c0-2.79-3.338-3.877-6.888-4.968c-4.953-1.568-10.284-3.223-10.284-9.452C19.059,7.102,20.731,1,30.316,1
		c9.258,0,10.816,6.318,10.816,8.627v1.96h-5.435v-1.96c0-2.395-1.727-4.313-5.381-4.313c-3.503,0-5.814,1.654-5.814,4.141
		c0,2.961,3.442,4.093,7.049,5.184c4.954,1.479,10.117,3.134,10.117,9.236c0,3.832-2.472,8.06-10.87,8.06
		c-12.007,0-12.221-7.536-12.221-8.802V21.17L18.578,21.17z"/>
	<path fill="#FFFFFF" d="M16.999,43.125h30.725v6.496H36.452v39.433h-8.196V49.622H16.999V43.125z"/>
	<path fill="#FFFFFF" d="M130.855,76.98c0,9.251-7.86,12.404-16.294,12.404c-16.212,0-18.323-10.567-18.323-23.297
		c0-12.725,2.111-23.292,18.323-23.292c8.434,0,16.294,3.283,16.294,12.402v2.954h-8.026v-2.954c0-4.196-3.151-5.906-8.268-5.906
		c-9.078,0-10.215,6.629-10.215,16.796c0,10.171,1.137,16.801,10.215,16.801c5.03,0,8.19-1.906,8.19-5.908V74.03h8.104V76.98
		L130.855,76.98z"/>
	<path fill="#FFFFFF" d="M143.942,43.125h8.185V65.3h15.08V43.125h8.183v45.929h-8.183V71.797h-15.08v17.258h-8.185V43.125
		L143.942,43.125z"/>
	<path fill="#FFFFFF" d="M85.272,42.707v7.762H61.069l-8.039-7.762H85.272z M61.069,62.057h24.203v7.704H61.069H53.03v-7.704H61.069
		z M61.069,81.292h24.203v7.762H53.03v-0.638L61.069,81.292z"/>
	<path fill="#64C8FF" d="M157.655,8.17c-8.667,0-13.176,3.307-17.158,6.224c-3.755,2.752-6.998,5.129-13.819,5.129
		c-6.811,0-10.054-2.376-13.805-5.127c-3.974-2.919-8.485-6.226-17.147-6.226c-8.664,0-13.174,3.307-17.151,6.224
		c-3.755,2.752-6.996,5.129-13.814,5.129c-6.815,0-10.053-2.376-13.806-5.127C46.978,11.477,42.469,8.17,33.81,8.17
		c-8.661,0-13.168,3.307-17.142,6.226c-3.752,2.75-6.993,5.127-13.806,5.127c-1.564,0-2.826,1.271-2.826,2.839
		c0,1.569,1.262,2.838,2.826,2.838c8.664,0,13.168-3.308,17.145-6.225c3.75-2.751,6.987-5.127,13.803-5.127
		c6.818,0,10.056,2.375,13.808,5.129c3.976,2.915,8.485,6.224,17.143,6.224c8.667,0,13.174-3.308,17.153-6.224
		c3.753-2.753,6.996-5.129,13.813-5.129c6.815,0,10.056,2.375,13.811,5.129c3.973,2.915,8.481,6.224,17.142,6.224
		c8.669,0,13.177-3.304,17.156-6.224c3.758-2.751,7-5.129,13.821-5.129c6.824,0,10.065,2.377,13.82,5.129
		c3.978,2.919,8.487,6.224,17.156,6.224c1.563,0,2.824-1.269,2.824-2.838c0-1.568-1.262-2.839-2.824-2.839
		c-6.824,0-10.065-2.376-13.82-5.129C170.832,11.476,166.321,8.17,157.655,8.17z"/>
	<ellipse fill="#7DC4FF" cx="83.566" cy="16.382" rx="0" ry="0.086"/>
	<ellipse fill="#7DC4FF" cx="85.724" cy="18.566" rx="0" ry="0.068"/>
	<path fill="#64C8FF" d="M83.566,15.785c0,0,2.246,2.603,2.425,2.603s2.736-0.047,3.672-1.703c0.935-1.657,1.201-2.813,1.201-2.88
		s-2.025-0.801-2.025-0.801"/>
	<path fill="#FFFFFF" d="M89.173,21.346l6.573,11.038h-6.14L80.31,16.958l4.77,0.039c1.447,0,2.686-0.498,3.729-1.499
		c1.086-1.001,1.604-2.233,1.604-3.654c0-1.385-0.518-2.578-1.604-3.578c-1.043-0.999-2.281-1.501-3.729-1.501H74.372l-0.597-0.575
		l-2.772-4.578h14.077c2.932,0,5.45,1,7.54,3c2.082,2.037,3.127,4.422,3.127,7.23c0,2.155-0.599,4.078-1.885,5.81
		C92.619,19.382,91.053,20.613,89.173,21.346z"/>
	<path fill="#FFFFFF" d="M103.721,1.22h5.119l12.596,20.083V1.22h5.384v30.495h-5.01l-12.65-20.039"/>
	<path fill="#FFFFFF" d="M19.088,9.455C19.088,7.102,20.757,1,30.345,1C39.6,1,41.159,7.318,41.159,9.627v1.96h-5.432v-1.96
		c0-2.395-1.727-4.313-5.381-4.313c-3.505,0-5.817,1.654-5.817,4.141"/>
	<path fill="#FFFFFF" d="M60.276,1.392l11.021,20.416h-6.193l-4.828-8.985 M76.783,31.978h-6.15L64.652,20.89h6.11L76.783,31.978z"
		/>
	<path fill="#FFFFFF" d="M155.917,26.855l-2.806,5.123h-6.106l16.503-30.586l11.021,20.416h-6.193l-4.825-8.983l-4.869,8.983
		L155.917,26.855z M180.015,31.978h-6.149l-5.983-11.088h6.109L180.015,31.978z"/>
</g>
</svg>
