<?xml version="1.0" encoding="utf-8"?>
<!-- Generator: Adobe Illustrator 16.0.0, SVG Export Plug-In . SVG Version: 6.00 Build 0)  -->
<!DOCTYPE svg PUBLIC "-//W3C//DTD SVG 1.1//EN" "http://www.w3.org/Graphics/SVG/1.1/DTD/svg11.dtd">
<svg version="1.1" id="Layer_1" xmlns="http://www.w3.org/2000/svg" xmlns:xlink="http://www.w3.org/1999/xlink" x="0px" y="0px"
	 width="191.939px" height="113.768px" viewBox="0 0 191.939 113.768" enable-background="new 0 0 191.939 113.768"
	 xml:space="preserve">
<g>
	<g>
		<path fill="#616161" d="M24.848,106.849c-0.383-0.383-0.852-0.71-1.364-0.98c-0.114-0.029-0.284-0.044-0.468-0.044
			c-0.426,0-0.966,0.172-1.336,0.469c-0.441,0.725-0.668,1.592-0.668,2.813c0,2.26,0.91,3.281,2.145,3.281
			c0.796,0,1.521-0.355,2.076-0.993l0.894,1.094c-0.781,0.866-1.861,1.279-3.055,1.279c-2.471,0-3.693-1.833-3.693-4.661
			c0-2.881,1.521-4.658,3.765-4.658c1.108,0,2.073,0.355,2.741,0.98L24.848,106.849z"/>
		<path fill="#616161" d="M44.927,109.105c0,2.943-1.477,4.661-3.721,4.661c-2.274,0-3.722-1.635-3.722-4.661
			c0-2.826,1.491-4.658,3.722-4.658C43.479,104.447,44.927,106.094,44.927,109.105z M39.119,109.105c0,2.346,0.88,3.299,2.116,3.299
			c0.497,0,0.995-0.158,1.35-0.456c0.456-0.725,0.71-1.663,0.71-2.843c0-2.342-0.88-3.295-2.117-3.295
			c-0.511,0-0.993,0.155-1.364,0.483C39.374,107.02,39.119,107.957,39.119,109.105z"/>
		<path fill="#616161" d="M59.487,104.575l1.832,6.862h0.171l1.847-6.807h2.173l0.61,8.949h-1.732v-1.789l-0.214-4.873H63.99
			l-0.426,1.85l-1.437,4.813h-1.619l-1.449-4.885l-0.369-1.777H58.52l-0.155,4.307v2.357h-1.748l0.611-7.202v-1.677L59.487,104.575z
			"/>
		<path fill="#616161" d="M80.757,104.575l1.832,6.862h0.17l1.848-6.807h2.174l0.609,8.949h-1.732v-1.789l-0.213-4.873H85.26
			l-0.427,1.85l-1.435,4.813h-1.62l-1.448-4.885l-0.37-1.777h-0.17l-0.156,4.307v2.357h-1.748l0.611-7.202v-1.677L80.757,104.575z"
			/>
		<path fill="#616161" d="M101.123,104.575v5.384c0,1.704,0.655,2.486,1.706,2.486c0.496,0,0.937-0.127,1.264-0.368
			c0.297-0.442,0.455-1.123,0.455-2.019v-3.82l-0.143-1.535l1.748-0.128v5.397c0,2.331-1.151,3.795-3.324,3.795
			c-2.117,0-3.326-1.294-3.326-3.736v-3.75l-0.141-1.578L101.123,104.575z"/>
		<path fill="#616161" d="M120.157,104.575l3.609,6.478h0.127l-0.113-2.9v-1.772l-0.186-1.677l1.705-0.128v8.965l-1.49,0.128
			l-3.609-6.422h-0.128l0.114,3.509v2.825h-1.521v-7.314l-0.141-1.563L120.157,104.575z"/>
		<path fill="#616161" d="M139.487,104.575v9.005h-1.621v-7.314l-0.142-1.563L139.487,104.575z"/>
		<path fill="#616161" d="M153.644,104.631h1.904l2.4-0.083l-0.071,1.563l-2.005-0.127h-0.496v7.597h-1.619v-7.597h-0.483
			l-2.046,0.11l0.113-1.532L153.644,104.631z"/>
		<path fill="#616161" d="M171.191,104.575l0.511,1.746l1.35,3.268h0.158l1.148-2.968l0.4-1.99h1.802v0.214l-0.667,1.89
			l-2.031,4.361v2.484h-1.605v-2.498l-2.969-6.179v-0.201L171.191,104.575z"/>
	</g>
	<g>
		<path fill="#0082E6" d="M136.659,1.553h5.427v30.44h-5.427V1.553z"/>
		<path fill="#0082E6" d="M155.606,26.751l-2.799,5.113h-6.1l16.477-30.532l11,20.38h-6.184l-4.816-8.969l-4.86,8.969
			L155.606,26.751z M179.661,31.864h-6.139l-5.974-11.067h6.099L179.661,31.864z"/>
		<path fill="#0082E6" d="M52.558,26.751l-2.8,5.113h-6.099L60.135,1.333l11,20.38h-6.183l-4.817-8.969l-4.861,8.969L52.558,26.751z
			 M76.611,31.864h-6.138l-5.973-11.067H70.6L76.611,31.864z"/>
	</g>
	<path fill="#0082E6" d="M103.501,1.161h5.111l12.572,20.048V1.161h5.375v30.441h-5l-12.629-20.004v20.004h-5.43V1.161z"/>
	<path fill="#0082E6" d="M18.509,21.077h5.374v1.957c0,2.394,1.775,4.481,6.825,4.481c4.781,0,5.424-2.524,5.424-3.74
		c0-2.784-3.334-3.87-6.876-4.958c-4.944-1.566-10.266-3.218-10.266-9.436c0-2.349,1.667-8.44,11.238-8.44
		c9.239,0,10.794,6.307,10.794,8.611v1.957H35.6V9.553c0-2.39-1.724-4.305-5.371-4.305c-3.499,0-5.806,1.65-5.806,4.134
		c0,2.956,3.438,4.086,7.038,5.174c4.943,1.477,10.1,3.128,10.1,9.219c0,3.826-2.468,8.045-10.852,8.045
		c-11.985,0-12.199-7.522-12.199-8.786V21.077L18.509,21.077z"/>
	<path fill="#0082E6" d="M16.933,42.993h30.669v6.486H36.351V88.84H28.17V49.478H16.933V42.993z"/>
	<path fill="#0082E6" d="M130.587,76.788c0,9.235-7.844,12.382-16.265,12.382c-16.182,0-18.289-10.549-18.289-23.256
		c0-12.703,2.107-23.251,18.289-23.251c8.421,0,16.265,3.278,16.265,12.38v2.949h-8.011v-2.949c0-4.188-3.146-5.894-8.254-5.894
		c-9.061,0-10.196,6.617-10.196,16.766c0,10.152,1.136,16.771,10.196,16.771c5.021,0,8.175-1.903,8.175-5.897v-2.946h8.09V76.788z"
		/>
	<path fill="#0082E6" d="M143.651,42.993h8.171v22.136h15.052V42.993h8.17V88.84h-8.17V71.613h-15.052V88.84h-8.171V42.993
		L143.651,42.993z"/>
	<path fill="#0082E6" d="M85.085,42.576v7.748H60.926l-8.026-7.748H85.085z M60.926,61.89h24.159v7.691H60.926h-8.026V61.89H60.926z
		 M60.926,81.094h24.159v7.746H52.901v-0.635L60.926,81.094z"/>
	<path fill="#AEDEFF" d="M157.341,8.099c-8.652,0-13.152,3.301-17.129,6.213c-3.747,2.747-6.983,5.12-13.793,5.12
		c-6.8,0-10.036-2.373-13.781-5.118c-3.967-2.914-8.469-6.215-17.117-6.215s-13.15,3.301-17.121,6.213
		c-3.748,2.747-6.984,5.12-13.789,5.12c-6.802,0-10.036-2.373-13.783-5.119c-3.968-2.913-8.469-6.214-17.113-6.214
		c-8.645,0-13.144,3.301-17.114,6.214c-3.743,2.746-6.977,5.119-13.778,5.119C1.262,19.432,0,20.7,0,22.265
		C0,23.832,1.262,25.1,2.822,25.1c8.646,0,13.144-3.304,17.115-6.215c3.742-2.746,6.973-5.118,13.777-5.118
		c6.804,0,10.038,2.372,13.783,5.119c3.969,2.91,8.469,6.214,17.113,6.214c8.651,0,13.15-3.304,17.121-6.214
		c3.748-2.748,6.984-5.119,13.789-5.119c6.804,0,10.037,2.372,13.785,5.119c3.967,2.91,8.467,6.214,17.113,6.214
		c8.652,0,13.152-3.3,17.125-6.214c3.75-2.745,6.988-5.119,13.797-5.119c6.811,0,10.047,2.374,13.795,5.119
		c3.973,2.914,8.473,6.214,17.125,6.214c1.562,0,2.821-1.268,2.821-2.834c0-1.565-1.26-2.833-2.821-2.833
		c-6.809,0-10.046-2.373-13.794-5.12C170.495,11.399,165.991,8.099,157.341,8.099z"/>
	<ellipse fill="#7DC4FF" cx="83.383" cy="16.297" rx="0.001" ry="0.085"/>
	<path fill="#7DC4FF" d="M85.538,18.477c0.036,0,0.065,0,0.065,0S85.574,18.477,85.538,18.477c-0.039,0-0.068,0-0.068,0
		S85.499,18.477,85.538,18.477z"/>
	<path fill="#AEDEFF" d="M83.383,15.701c0,0,2.243,2.598,2.421,2.598s2.731-0.046,3.664-1.701c0.934-1.653,1.2-2.808,1.2-2.874
		c0-0.067-2.021-0.799-2.021-0.799"/>
	<path fill="#0082E6" d="M88.979,21.252l6.563,11.017h-6.129l-9.281-15.398l4.76,0.038c1.444,0,2.684-0.496,3.725-1.496
		c1.082-0.999,1.599-2.229,1.599-3.647c0-1.382-0.517-2.572-1.599-3.571c-1.041-0.997-2.28-1.498-3.725-1.498H74.204l-0.596-0.574
		l-2.766-4.57h14.049c2.928,0,5.441,0.998,7.527,2.995c2.079,2.034,3.123,4.415,3.123,7.218c0,2.151-0.6,4.07-1.883,5.8
		C92.419,19.292,90.856,20.521,88.979,21.252z"/>
	<path fill="#0082E6" d="M103.501,1.161h5.111l12.572,20.048V1.161h5.375v30.441h-5l-12.629-20.004"/>
	<path fill="#0082E6" d="M19.019,9.382c0-2.349,1.666-8.44,11.237-8.44c9.24,0,10.793,6.307,10.793,8.611v1.957h-5.422V9.553
		c0-2.39-1.723-4.305-5.372-4.305c-3.497,0-5.807,1.65-5.807,4.134"/>
	<path fill="#0082E6" d="M60.135,1.333l11,20.38h-6.183l-4.817-8.969 M76.611,31.864h-6.138l-5.973-11.067H70.6L76.611,31.864z"/>
	<path fill="#0082E6" d="M155.606,26.751l-2.801,5.113h-6.096l16.475-30.532l11,20.38h-6.183l-4.817-8.968l-4.86,8.968
		L155.606,26.751z M179.661,31.864h-6.139l-5.974-11.067h6.099L179.661,31.864z"/>
</g>
<g>
	<g>
		<g>
			<path fill="#BBEFFF" d="M424.33,106.892c-0.389-0.387-0.861-0.717-1.377-0.989c-0.115-0.029-0.287-0.043-0.473-0.043
				c-0.43,0-0.976,0.172-1.348,0.473c-0.445,0.732-0.674,1.607-0.674,2.84c0,2.278,0.916,3.312,2.164,3.312
				c0.803,0,1.534-0.359,2.094-1.004l0.902,1.104c-0.788,0.874-1.877,1.291-3.082,1.291c-2.494,0-3.727-1.85-3.727-4.703
				c0-2.91,1.533-4.703,3.799-4.703c1.117,0,2.092,0.357,2.768,0.988L424.33,106.892z"/>
			<path fill="#BBEFFF" d="M444.596,109.172c0,2.969-1.492,4.703-3.756,4.703c-2.295,0-3.758-1.65-3.758-4.703
				c0-2.854,1.508-4.703,3.758-4.703C443.133,104.469,444.596,106.131,444.596,109.172z M438.732,109.172
				c0,2.366,0.889,3.326,2.136,3.326c0.501,0,1.003-0.158,1.362-0.459c0.459-0.73,0.717-1.676,0.717-2.867
				c0-2.365-0.889-3.326-2.137-3.326c-0.517,0-1.003,0.157-1.377,0.487C438.99,107.064,438.732,108.01,438.732,109.172z"/>
			<path fill="#BBEFFF" d="M459.291,104.598l1.848,6.926h0.172l1.865-6.869h2.194l0.616,9.034h-1.75v-1.808l-0.214-4.918h-0.187
				l-0.43,1.865l-1.449,4.859h-1.635l-1.463-4.933l-0.372-1.792h-0.171l-0.159,4.345v2.38h-1.764l0.616-7.27v-1.691L459.291,104.598
				z"/>
			<path fill="#BBEFFF" d="M480.757,104.598l1.851,6.926h0.172l1.863-6.869h2.194l0.616,9.034h-1.748v-1.808l-0.216-4.918h-0.185
				l-0.432,1.865l-1.449,4.859h-1.633l-1.463-4.933l-0.373-1.792h-0.172l-0.159,4.345v2.38h-1.762l0.616-7.27v-1.691
				L480.757,104.598z"/>
			<path fill="#BBEFFF" d="M501.314,104.598v5.435c0,1.72,0.658,2.509,1.721,2.509c0.501,0,0.947-0.129,1.275-0.372
				c0.303-0.444,0.458-1.132,0.458-2.036v-3.857l-0.143-1.548l1.764-0.13v5.448c0,2.353-1.161,3.829-3.354,3.829
				c-2.139,0-3.355-1.305-3.355-3.771v-3.783l-0.143-1.593L501.314,104.598z"/>
			<path fill="#BBEFFF" d="M520.524,104.598l3.642,6.538h0.13l-0.114-2.925v-1.793l-0.186-1.69l1.721-0.13v9.047l-1.506,0.129
				l-3.643-6.48h-0.129l0.114,3.541v2.854h-1.534v-7.384l-0.143-1.577L520.524,104.598z"/>
			<path fill="#BBEFFF" d="M540.035,104.598v9.091H538.4v-7.385l-0.143-1.576L540.035,104.598z"/>
			<path fill="#BBEFFF" d="M554.322,104.654h1.922l2.422-0.085l-0.072,1.577l-2.02-0.129h-0.502v7.671h-1.635v-7.671h-0.486
				l-2.066,0.113l0.115-1.548L554.322,104.654z"/>
			<path fill="#BBEFFF" d="M572.035,104.598l0.516,1.764l1.361,3.298h0.156l1.164-2.997l0.4-2.008h1.82v0.217l-0.674,1.906
				l-2.049,4.402v2.509h-1.623v-2.523l-2.994-6.237v-0.2L572.035,104.598z"/>
		</g>
	</g>
	<g>
		<path fill="#FFFFFF" d="M537.181,0.616h5.478V31.34h-5.478V0.616z"/>
		<path fill="#FFFFFF" d="M556.303,26.05l-2.824,5.161h-6.154l16.627-30.816l11.104,20.569h-6.24l-4.861-9.052l-4.906,9.052
			L556.303,26.05z M580.582,31.211h-6.195l-6.029-11.171h6.156L580.582,31.211z"/>
		<path fill="#FFFFFF" d="M452.297,26.05l-2.827,5.161h-6.155l16.629-30.816l11.104,20.569h-6.239l-4.864-9.052l-4.906,9.052
			L452.297,26.05z M476.574,31.211h-6.196l-6.026-11.171h6.156L476.574,31.211z"/>
	</g>
	<path fill="#FFFFFF" d="M503.714,0.222h5.158l12.69,20.234V0.222h5.424v30.724h-5.047l-12.746-20.19v20.19h-5.479V0.222z"/>
	<path fill="#FFFFFF" d="M417.932,20.322h5.425v1.976c0,2.415,1.79,4.522,6.887,4.522c4.827,0,5.474-2.547,5.474-3.774
		c0-2.811-3.363-3.906-6.939-5.005c-4.99-1.58-10.361-3.248-10.361-9.523c0-2.37,1.685-8.518,11.342-8.518
		c9.328,0,10.897,6.365,10.897,8.692v1.975h-5.476V8.692c0-2.413-1.739-4.346-5.422-4.346c-3.529,0-5.857,1.667-5.857,4.172
		c0,2.984,3.468,4.124,7.102,5.223c4.991,1.491,10.193,3.158,10.193,9.305c0,3.861-2.49,8.12-10.951,8.12
		c-12.098,0-12.313-7.593-12.313-8.868V20.322L417.932,20.322z"/>
	<path fill="#FFFFFF" d="M416.34,42.442h30.956v6.545h-11.356v39.729h-8.258V48.987H416.34V42.442z"/>
	<path fill="#FFFFFF" d="M531.053,76.552c0,9.321-7.919,12.497-16.416,12.497c-16.334,0-18.461-10.646-18.461-23.473
		c0-12.821,2.127-23.467,18.461-23.467c8.497,0,16.416,3.308,16.416,12.495v2.976h-8.086v-2.976c0-4.228-3.176-5.95-8.33-5.95
		c-9.146,0-10.292,6.679-10.292,16.922c0,10.248,1.146,16.928,10.292,16.928c5.068,0,8.252-1.92,8.252-5.952v-2.973h8.164V76.552
		L531.053,76.552z"/>
	<path fill="#FFFFFF" d="M544.238,42.442h8.246v22.341h15.193V42.442h8.244v46.274h-8.244V71.329h-15.193v17.388h-8.246V42.442
		L544.238,42.442z"/>
	<path fill="#FFFFFF" d="M485.127,42.021v7.82h-24.385l-8.1-7.82H485.127z M460.742,61.516h24.385v7.762h-24.385h-8.1v-7.762
		H460.742z M460.742,80.896h24.385v7.82h-32.484v-0.643L460.742,80.896z"/>
	<path fill="#64C8FF" d="M558.055,7.224c-8.732,0-13.275,3.332-17.287,6.271c-3.783,2.773-7.051,5.167-13.924,5.167
		c-6.861,0-10.129-2.394-13.908-5.166c-4.004-2.941-8.549-6.272-17.276-6.272c-8.729,0-13.273,3.332-17.28,6.271
		c-3.783,2.773-7.049,5.167-13.918,5.167c-6.866,0-10.129-2.394-13.91-5.166c-4.006-2.941-8.549-6.272-17.273-6.272
		c-8.726,0-13.268,3.332-17.271,6.272c-3.78,2.771-7.046,5.166-13.909,5.166c-1.576,0-2.848,1.281-2.848,2.861
		c0,1.581,1.271,2.859,2.848,2.859c8.729,0,13.267-3.333,17.273-6.272c3.777-2.772,7.039-5.166,13.906-5.166
		c6.869,0,10.132,2.393,13.912,5.167c4.006,2.937,8.549,6.271,17.271,6.271c8.732,0,13.273-3.333,17.281-6.271
		c3.781-2.774,7.049-5.167,13.917-5.167c6.866,0,10.131,2.393,13.914,5.167c4.003,2.937,8.546,6.271,17.271,6.271
		c8.734,0,13.276-3.329,17.285-6.271c3.786-2.772,7.053-5.167,13.926-5.167c6.875,0,10.141,2.396,13.924,5.167
		c4.008,2.941,8.551,6.271,17.285,6.271c1.574,0,2.846-1.279,2.846-2.859c0-1.58-1.271-2.861-2.846-2.861
		c-6.875,0-10.141-2.394-13.924-5.167C571.33,10.555,566.785,7.224,558.055,7.224z"/>
	<ellipse fill="#7DC4FF" cx="483.408" cy="15.497" rx="0" ry="0.086"/>
	<ellipse fill="#7DC4FF" cx="485.582" cy="17.699" rx="0" ry="0.068"/>
	<path fill="#64C8FF" d="M483.408,14.896c0,0,2.264,2.623,2.443,2.623s2.757-0.048,3.699-1.716c0.941-1.669,1.21-2.834,1.21-2.902
		s-2.04-0.807-2.04-0.807"/>
	<path fill="#FFFFFF" d="M489.057,20.499l6.623,11.121h-6.186l-9.367-15.542l4.806,0.039c1.458,0,2.706-0.501,3.757-1.51
		c1.094-1.008,1.615-2.25,1.615-3.682c0-1.395-0.521-2.597-1.615-3.604c-1.051-1.007-2.299-1.512-3.757-1.512h-10.788l-0.602-0.58
		l-2.793-4.612h14.183c2.953,0,5.491,1.007,7.597,3.023c2.098,2.052,3.15,4.455,3.15,7.285c0,2.171-0.604,4.108-1.898,5.854
		C492.529,18.521,490.951,19.761,489.057,20.499z"/>
	<path fill="#FFFFFF" d="M503.714,0.222h5.158l12.69,20.234V0.222h5.424v30.724h-5.047l-12.746-20.19"/>
	<path fill="#FFFFFF" d="M418.445,8.518c0-2.37,1.682-8.518,11.342-8.518c9.324,0,10.895,6.365,10.895,8.692v1.975h-5.473V8.692
		c0-2.413-1.74-4.346-5.422-4.346c-3.531,0-5.861,1.667-5.861,4.172"/>
	<path fill="#FFFFFF" d="M459.943,0.395l11.104,20.569h-6.239l-4.864-9.052 M476.574,31.211h-6.196l-6.026-11.171h6.156
		L476.574,31.211z"/>
	<path fill="#FFFFFF" d="M556.303,26.05l-2.826,5.161h-6.152l16.627-30.816l11.104,20.569h-6.24l-4.861-9.051l-4.906,9.051
		L556.303,26.05z M580.582,31.211h-6.195l-6.029-11.171h6.156L580.582,31.211z"/>
</g>
</svg>
