<?xml version="1.0" encoding="utf-8"?>
<!-- Generator: Adobe Illustrator 16.0.0, SVG Export Plug-In . SVG Version: 6.00 Build 0)  -->
<!DOCTYPE svg PUBLIC "-//W3C//DTD SVG 1.1//EN" "http://www.w3.org/Graphics/SVG/1.1/DTD/svg11.dtd">
<svg version="1.1" id="Layer_1" xmlns="http://www.w3.org/2000/svg" xmlns:xlink="http://www.w3.org/1999/xlink" x="0px" y="0px"
	 width="812px" height="559.968px" viewBox="0 0 812 559.968" enable-background="new 0 0 812 559.968" xml:space="preserve">
<g>
	<g>
		<g>
			<path fill="#527F3A" d="M645.541,32.666c7.467,10.168,22.447,11.856,22.447,11.856s2.873-14.798-4.594-24.966
				c-7.467-10.168-22.445-11.856-22.445-11.856S638.076,22.498,645.541,32.666z"/>
			<path fill="#3C6938" d="M676.896,26.585c-6.846,6.747-6.471,18.224-6.471,18.224s11.469,0.541,18.314-6.206
				c6.846-6.747,6.473-18.224,6.473-18.224S683.742,19.839,676.896,26.585z"/>
			<path fill="#64B15B" d="M659.932,21.482c-1.391,12.538,8.49,23.924,8.49,23.924s12.135-8.944,13.523-21.482
				C683.336,11.385,673.457,0,673.457,0S661.322,8.944,659.932,21.482z"/>
		</g>
		<g>
			<polygon fill="#63334B" points="660.857,80.047 686.842,80.047 695.359,42.137 652.338,42.137 			"/>
			<polygon fill="#A1533B" points="651.061,80.047 677.045,80.047 680.877,42.137 642.543,42.137 			"/>
		</g>
	</g>
	<g>
		<g>
			
				<rect x="556.034" y="265.76" transform="matrix(0.9846 0.1745 -0.1745 0.9846 59.7233 -92.8994)" fill="#6176B1" width="3.961" height="54.661"/>
			
				<rect x="558.614" y="264.704" transform="matrix(0.9847 0.174 -0.174 0.9847 56.0512 -93.5621)" fill="#6176B1" width="6.141" height="16.44"/>
		</g>
		<g>
			<polygon fill="#7A4162" points="548.699,327.22 544.753,326.89 549.32,272.419 551.709,268.934 553.268,272.751 			"/>
		</g>
		<g>
			<polygon fill="#1B2C58" points="543.213,330.005 539.325,330.761 528.88,277.106 530.229,273.104 532.769,276.349 			"/>
		</g>
		<g>
			<polygon fill="#F3885E" points="551.955,342.483 535.025,342.483 529.474,297.667 557.506,297.667 			"/>
			<polygon fill="#FDBD63" points="558.336,342.483 541.408,342.483 538.909,297.667 563.889,297.667 			"/>
		</g>
	</g>
	<rect x="506.352" y="92.852" opacity="0.54" fill="#B0ADC0" width="201.922" height="28.682"/>
	<g>
		<path fill="#7D4C3A" d="M620.65,135.417l-11.15,6.899c-8.08,5-10.965,15.362-6.65,23.827c0.857,1.684,1.395,2.768,1.285,2.644
			c-0.42-0.485,17.08-33.229,17.08-33.229"/>
		<path fill="#FABBA4" d="M649.672,242.069h5.768c5.293,0,9.623-4.331,9.623-9.624v-27.119c0-5.293-4.33-9.623-9.623-9.623h-5.768
			c-5.293,0-9.625,4.33-9.625,9.623v27.119C640.047,237.738,644.379,242.069,649.672,242.069z"/>
		<path fill="#7D4C3A" d="M604.332,168.787c-0.258,2.184,9.975,5.877,10.098,8.182l-1.666,4.625c12.566-4.556,1.48,2.388,1.48,2.405
			c3.73,11.073,2.434,17.2,13.096,21.414c5.313,2.098,11.143,3.061,17.211,2.631c8.15-0.566,15.391,1.977,21.305-0.843
			c1.223-0.568,2.373-1.376,3.475-2.459c2.082-2.08,3.939-4.367,5.502-6.844c0.602-0.98,1.188-1.96,1.721-2.992
			c3.215-6.207,9.793-24.434,9.26-31.914c-1.479-21.116-21.709-35.251-44.992-33.651c-0.6,0.041-1.186,0.051-1.789,0.085
			c-12.57,0.877-23.316,7.549-29.885,17.229c-0.344,0.516-0.688,1.049-1.014,1.582c0,0.018,0,0.018,0,0.018
			c-1.893,3.078-2.906,16.25-2.906,16.25C604.797,165.897,604.504,167.325,604.332,168.787z"/>
		<path fill="#FABBA4" d="M605.271,175.544l0.291,5.794l0.5,9.613l0.781,3.407c0.068,1.514,0.834,9.471,1.109,10.916
			c2.648,13.601,11.58,16.489,25.439,18.21c0.412,0.068,0.842,0.103,1.256,0.119c1.479,0.156,2.975,0.174,4.506,0.104
			c1.477-0.069,2.922-0.259,4.35-0.534c2.768-0.498,5.434-1.375,7.893-2.544c0,0,0.016,0,0.033-0.017
			c6.121-2.89,11.16-7.618,14.426-13.413c2.494-4.385,3.975-9.371,4.129-14.65C670,192.189,670,191.828,670,191.45
			c0.018-0.412,0-0.859-0.033-1.306v-0.225l-0.033-1.048l-0.156-2.734l-0.465-9.439l-0.016-0.086v-0.018l-0.086-1.754l-0.07-1.358
			l-0.066-1.255l-0.02-0.327c-0.137-2.184-0.566-4.282-1.221-6.293c-0.412-1.427-0.945-2.803-1.547-4.126
			c-0.088-0.207-0.154-0.396-0.258-0.602c-0.482-1.083-1.049-2.167-1.67-3.181c0-0.018,0-0.018,0-0.018
			c-2.338-3.902-5.467-7.273-9.18-9.87c-0.74-0.533-1.514-1.031-2.289-1.496c-5.398-3.164-11.76-4.866-18.449-4.522
			c-5.572,0.292-9.689,1.96-14.176,4.66c-2.717,1.634-5.178,3.645-7.291,5.967c-3.01,3.268-4.971,7.119-6.414,11.366
			c-0.086,0.241-0.154,0.481-0.225,0.722c-0.43,1.393-0.721,2.82-0.893,4.282C605.186,170.97,605.15,173.24,605.271,175.544z"/>
		<path fill="#7D4C3A" d="M616.973,146.811c-6.799,18.732,11.102,17.207,11.934,25.809c0.094,0.967,0.438,2.391,0.693,9.436
			l1.367,4.407c0.396,1.375,1.67,2.321,3.096,2.321c1.789,0,3.232-1.444,3.232-3.232v-0.086l-0.154-7.016l3.49,9.251
			c2.512,6.672,6.33,12.707,11.143,17.796c4.008,4.214,8.701,7.79,13.912,10.507c0,0,21.838-12.982,21.838-42.627
			c0-2.355-0.139-4.814-0.43-7.376c-0.275-2.304-0.654-4.454-1.17-6.465c-9.045-36.833-54.303-24.263-58.652-22.629
			C622.697,138.626,616.973,146.811,616.973,146.811z"/>
		<path fill="#FABBA4" d="M601.42,195.397c-0.006,0.061,0.008,0.485,0.008,0.485c0.059,2.025,1.814,3.636,6.16,3.51l-0.609-15.817
			C603.449,188.956,601.738,192.083,601.42,195.397z"/>
		<path fill="#7D4C3A" d="M603.785,176.251h9.67c1.125,0,2.043-0.919,2.043-2.042l0,0c0-1.123-0.918-2.042-2.043-2.042h-9.67
			c-1.123,0-2.043,0.919-2.043,2.042l0,0C601.742,175.332,602.662,176.251,603.785,176.251z"/>
		<path fill="#141743" d="M609.221,183.534L609.221,183.534c0.801,0,1.457-0.656,1.457-1.459v-2.148
			c0-0.803-0.656-1.458-1.457-1.458l0,0c-0.805,0-1.461,0.656-1.461,1.458v2.148C607.76,182.877,608.416,183.534,609.221,183.534z"
			/>
		<path opacity="0.2" fill="#141743" d="M651.773,205.498c4.008,4.214,8.701,7.79,13.912,10.507c0,0,21.838-12.982,21.838-42.627
			c0-2.355-0.139-4.814-0.43-7.376c-0.275-2.304-0.654-4.454-1.17-6.465c-0.965,5.64-3.508,14.186-10.008,24.744
			C666.029,200.339,655.299,204.518,651.773,205.498z"/>
		<path fill="#7D4C3A" d="M607.666,204.291l0.287,11.067c0,9.436,11.176,13.227,19.473,12.331l13.219-1.429l-1.332-11.457
			l-3.605-21.925l5.826-16.373l-12.004,4.983l0.002,0.018c0.908,13.01-8.414,23.526-21.441,22.924L607.666,204.291z"/>
		<path fill="#FABBA4" d="M638.09,176.097c-1.336,0.008-2.412,1.098-2.402,2.435l0.055,8.236l0.057,7.196l2.828-0.017
			c0.209-0.004,0.414-0.008,0.609-0.038c4.73-0.358,8.463-4.494,8.439-9.221c-0.01-2.454-1.053-4.541-2.711-6.164
			c-1.486-1.447-3.49-2.272-5.705-2.396l-0.014,0c-0.256-0.038-0.477-0.047-0.734-0.033L638.09,176.097z"/>
	</g>
	<g>
		<g>
			<path fill="#FBAF3E" d="M106.128,443.009v18.779l86.984-0.002c5.184,0,9.39-4.205,9.39-9.389c0-2.586-1.052-4.936-2.747-6.643
				c-1.706-1.695-4.056-2.746-6.643-2.746H106.128z"/>
			<path fill="#FFD72F" d="M156.974,449.278v-6.232h36.324c4.07,0,7.547,2.6,8.847,6.232H156.974z"/>
			<path fill="#F28155" d="M85.368,443.009v18.779l86.984-0.002c5.183,0,9.389-4.205,9.389-9.389c0-2.586-1.051-4.936-2.747-6.643
				c-1.705-1.695-4.056-2.746-6.642-2.746H85.368z"/>
			<path fill="#FFFFFF" d="M85.368,446.229v12.039h84.451c3.327,0,6.021-2.693,6.021-6.02c0-1.666-0.677-3.168-1.76-4.26
				c-1.096-1.086-2.598-1.76-4.261-1.76H85.368z"/>
		</g>
		<g>
			<path fill="#A2CC3B" d="M102.741,461.896v18.783h86.985c5.184,0,9.384-4.207,9.384-9.391c0-1.594-0.397-3.096-1.097-4.41
				c-0.439-0.82-1-1.578-1.65-2.236c-1.706-1.697-4.053-2.746-6.637-2.746H102.741z"/>
			<path fill="#709C3F" d="M111.759,461.896v4.982h86.254c-0.439-0.82-1-1.578-1.65-2.236c-1.706-1.697-4.053-2.746-6.637-2.746
				H111.759z"/>
			<path fill="#709C3F" d="M111.759,480.687v-4.979h86.254c-0.439,0.82-1,1.574-1.65,2.234c-1.706,1.697-4.053,2.744-6.637,2.744
				H111.759z"/>
			<path fill="#4D853D" d="M73.928,461.897v18.777h86.984c5.185,0,9.391-4.205,9.391-9.389c0-2.586-1.053-4.936-2.747-6.643
				c-1.707-1.695-4.057-2.746-6.644-2.746H73.928z"/>
			<path fill="#FFFFFF" d="M73.928,465.118v12.037h84.451c3.328,0,6.021-2.691,6.021-6.02c0-1.662-0.675-3.164-1.76-4.26
				c-1.095-1.084-2.597-1.76-4.261-1.76L73.928,465.118z"/>
		</g>
	</g>
	<g>
		<g>
			<rect x="510.297" y="43.884" fill="#DBDAE0" width="109.773" height="23.355"/>
			<rect x="569.596" y="43.619" fill="#FFFFFF" width="50.766" height="23.887"/>
			<g>
				
					<line fill="none" stroke="#B0ADC0" stroke-width="1.7994" stroke-miterlimit="10" x1="510.394" y1="48.183" x2="620.266" y2="48.183"/>
				
					<line fill="none" stroke="#B0ADC0" stroke-width="1.7994" stroke-miterlimit="10" x1="510.394" y1="52.881" x2="620.266" y2="52.881"/>
				
					<line fill="none" stroke="#B0ADC0" stroke-width="1.7994" stroke-miterlimit="10" x1="510.394" y1="57.579" x2="620.266" y2="57.579"/>
				
					<line fill="none" stroke="#B0ADC0" stroke-width="1.7994" stroke-miterlimit="10" x1="510.394" y1="62.276" x2="620.266" y2="62.276"/>
			</g>
		</g>
		<g>
			<g>
				<path fill="#244789" d="M415.226,156.019l-3.559,136.033h-80.729l-2.14-134.445c-0.004-17.191,13.018-31.495,30.151-34.379
					c2.062-0.34,4.177-0.52,6.348-0.521l12.339-0.003C397.796,122.699,415.222,136.753,415.226,156.019z"/>
				<g>
					<path fill="#D36652" d="M384.571,104.818l-19.357,0.005c-15.068,0.004-27.288-12.209-27.291-27.278l-0.006-18.997
						c-0.006-18.944,15.348-34.306,34.293-34.311l5.326-0.001c18.944-0.005,34.305,15.348,34.31,34.292l0.005,18.997
						C411.854,92.595,399.642,104.814,384.571,104.818z"/>
					<path fill="#FBC7B1" d="M347.729,66.176l-0.496,8.244l-0.345,5.566l-2.6-0.109c-0.19-0.01-0.38-0.02-0.559-0.05
						c-4.334-0.438-7.603-3.765-7.389-7.423c0.105-1.899,1.151-3.478,2.741-4.678c1.426-1.069,3.302-1.64,5.345-1.659h0.012
						c0.238-0.02,0.439-0.02,0.677,0L347.729,66.176z"/>
					<path fill="#FBC7B1" d="M404.419,66.351l0.502,8.245l0.347,5.565l2.601-0.11c0.189-0.01,0.38-0.02,0.558-0.051
						c4.334-0.44,7.6-3.769,7.386-7.426c-0.108-1.898-1.154-3.478-2.744-4.676c-1.427-1.069-3.304-1.638-5.347-1.657h-0.011
						c-0.237-0.021-0.439-0.021-0.678,0L404.419,66.351z"/>
					<path fill="#F3A892" d="M377.309,135.773l-5.662,0.001c-5.493,0.001-9.99-4.493-9.991-9.986l-0.009-28.757
						c-0.002-5.494,4.494-9.99,9.988-9.991l5.662-0.001c5.494-0.001,9.99,4.493,9.992,9.986l0.008,28.756
						C387.299,131.275,382.805,135.771,377.309,135.773z"/>
					<path fill="#FBC7B1" d="M409.414,65.02l-0.805,15.084l-0.118,2.258c-0.071,1.487-0.272,2.963-0.558,4.382
						c-2.431,11.986-12.036,21.466-24.268,24.476c-1.365,0.341-2.767,0.591-4.191,0.762c-0.428,0.068-0.868,0.102-1.295,0.125
						c-0.902,0.091-1.805,0.137-2.72,0.138c-0.652,0-1.307-0.023-1.973-0.045c-1.494-0.079-2.944-0.249-4.381-0.51
						c-0.594-0.102-1.177-0.227-1.759-0.362c-2.22-0.499-4.335-1.225-6.342-2.133c0,0-0.012,0-0.023-0.011
						c-9.622-4.345-16.63-12.901-18.546-22.968c-0.012-0.034-0.012-0.057-0.012-0.091c-0.189-1.089-0.332-2.19-0.416-3.303
						c-0.035-0.352-0.049-0.692-0.06-1.044c-0.013-0.363-0.024-0.715-0.013-1.078c-0.022-0.42-0.001-0.851,0.023-1.283v-0.227
						l0.047-1.033l0.154-2.69l0.236-4.608v-0.044l0.236-4.654l0.012-0.09v-0.012l0.095-1.714l0.07-1.339l0.072-1.226l0.022-0.317
						c0.131-2.134,0.582-4.2,1.234-6.174c0.438-1.385,0.984-2.736,1.59-4.03c0.082-0.216,0.166-0.397,0.261-0.59
						c0.498-1.067,1.08-2.123,1.71-3.121c0-0.011,0.012-0.023,0.012-0.023c2.386-3.814,5.604-7.117,9.402-9.671
						c0.76-0.511,1.544-1,2.34-1.454c5.545-3.112,12.053-4.781,18.917-4.442c9.181,0.452,17.412,4.388,23.149,10.401
						c1.688,1.771,3.065,3.7,4.193,5.788c0.939,1.691,1.712,3.473,2.377,5.356c0.429,1.18,0.738,2.395,0.963,3.621
						c0,0,0,0.011,0,0.023c0.072,0.419,0.132,0.828,0.179,1.248c0.096,0.738,0.167,1.487,0.202,2.247
						C409.508,62.068,409.496,63.532,409.414,65.02z"/>
					<g>
						<path fill="#191D4C" d="M388.262,74.74h-0.066c-0.798,0-1.452-0.653-1.452-1.451l-0.001-4.475
							c-0.001-0.798,0.653-1.451,1.451-1.452h0.066c0.799,0,1.451,0.653,1.452,1.451l0.001,4.475
							C389.714,74.087,389.061,74.74,388.262,74.74z"/>
						<path fill="#191D4C" d="M362.331,74.652h-0.065c-0.798,0-1.451-0.653-1.451-1.451l-0.001-4.475
							c-0.001-0.798,0.652-1.451,1.45-1.451h0.065c0.8,0,1.452,0.652,1.452,1.45l0.001,4.475
							C363.782,73.999,363.131,74.652,362.331,74.652z"/>
						<path fill="#D36652" d="M393.688,63.276l-11.231,0.002c-0.831,0-1.511-0.679-1.51-1.509l0,0
							c-0.001-0.83,0.679-1.51,1.509-1.511l11.231-0.002c0.83,0,1.51,0.679,1.51,1.509l0,0
							C395.197,62.596,394.518,63.276,393.688,63.276z"/>
						<path fill="#D36652" d="M368.153,63.282l-11.23,0.002c-0.831,0-1.511-0.679-1.511-1.509l0,0c0-0.831,0.68-1.51,1.51-1.51
							l11.231-0.003c0.83,0,1.51,0.679,1.51,1.509l0,0C369.663,62.603,368.984,63.282,368.153,63.282z"/>
						<path fill="#FFFFFF" d="M384.095,88.668c-3.038,4.258-5.833,7.091-9.986,6.477c-3.483-0.514-6.31-3.012-8.05-6.714
							L384.095,88.668z"/>
						<path fill="#F89F7C" d="M371.572,79.378l7.125-0.001C378.697,79.377,375.334,83.918,371.572,79.378z"/>
					</g>
					<path fill="#FBC7B1" d="M409.414,65.02l-0.805,15.084l-0.118,2.258c-0.071,1.487-0.272,2.963-0.558,4.382
						c-2.431,11.986-12.036,21.466-24.268,24.476c-1.365,0.341-2.767,0.591-4.191,0.762c-0.428,0.068-0.868,0.102-1.295,0.125
						c-0.902,0.091-1.805,0.137-2.72,0.138c-0.652,0-1.307-0.023-1.973-0.045c-1.697-0.068-3.359-0.249-4.999-0.521
						c-0.332-0.057-0.653-0.102-0.985-0.17c-2.245-0.499-4.371-1.225-6.391-2.133c0,0-0.011,0-0.023-0.011
						c-9.692-4.378-16.76-12.992-18.652-23.149c-0.012-0.034-0.012-0.057-0.012-0.091c-0.201-1.089-0.344-2.19-0.416-3.303
						c-0.035-0.352-0.049-0.692-0.06-1.044c-0.013-0.363-0.024-0.715-0.013-1.078c-0.022-0.42-0.001-0.851,0.023-1.283v-0.227
						l0.047-1.033l0.154-2.69l0.236-4.608c1.489,16.878,7.741,38.202,29.76,39.06c30.486,1.184,36.809-30.847,37.277-49.279
						C409.508,62.068,409.496,63.532,409.414,65.02z"/>
				</g>
				<g>
					<polygon fill="#244789" points="389.803,292.052 357.661,292.052 358.657,120.324 365.776,120.09 373.348,136.362 
						381.684,120.555 389.276,120.687 					"/>
				</g>
			</g>
			<polygon fill="#B0ADC0" points="365.917,119.956 361.2,127.592 354.984,124.379 361.666,115.018 			"/>
			<polygon fill="#B0ADC0" points="381.754,120.443 386.802,127.586 392.967,125.575 387.443,115.907 			"/>
			<ellipse fill="#D36652" cx="401.714" cy="45.005" rx="11.721" ry="11.202"/>
			<ellipse fill="#D36652" cx="383.081" cy="48.744" rx="9.017" ry="8.617"/>
			<ellipse fill="#D36652" cx="368.956" cy="49.322" rx="8.415" ry="8.042"/>
			<ellipse fill="#D36652" cx="353.479" cy="47.171" rx="7.964" ry="7.611"/>
			<path fill="#D36652" d="M363.992,31.084c0,0,16.83-4.6,25.847,1.429c9.02,6.03,13.829,14.357,13.829,14.357l-34.561,2.881
				l-20.738-3.154l7.96-14.507"/>
			<path fill="#D36652" d="M348.972,49.327l-3.825,24.32c-0.178,1.128-1.508,1.71-2.517,1.102l0,0
				c-0.449-0.271-0.735-0.731-0.769-1.238l-1.154-17.719C340.707,55.792,346.865,41.141,348.972,49.327z"/>
			<path fill="#D36652" d="M401.867,52.473l3.838,24.319c0.177,1.128,1.507,1.709,2.517,1.1l0,0
				c0.448-0.271,0.734-0.732,0.766-1.238l1.145-22.603C410.132,54.051,403.969,44.287,401.867,52.473z"/>
			<path fill="#D36652" d="M345.371,72.449c-0.45,5.888,2.863,32.886,28.41,33.455c25.546,0.568,30.689-25.563,31.097-31.028
				c0.406-5.464,4.207-4.884,4.207-3.735l-0.147,14.084c0.005,16.492-13.98,29.864-31.236,29.869l-3.629,0.001
				c-17.255,0.004-32.45-12.51-32.456-29.001l0.148-13.5C341.765,72.594,345.409,71.947,345.371,72.449z"/>
		</g>
		
			<rect x="349.518" y="511.808" transform="matrix(0.9996 -0.0278 0.0278 0.9996 -14.3362 10.1669)" fill="#0E133A" width="16.98" height="16.411"/>
		<g>
			<path fill="#87888D" d="M370.754,529.716l-24.948,0.693l0,0c-0.151-5.443,4.142-9.982,9.588-10.133l5.222-0.146
				C366.063,519.978,370.603,524.271,370.754,529.716L370.754,529.716z"/>
			
				<rect x="345.32" y="529.841" transform="matrix(0.9996 -0.0278 0.0278 0.9996 -14.6641 10.1755)" fill="#191D4C" width="25.754" height="4.037"/>
		</g>
		<polygon fill="#6D1A48" points="369.841,307.964 369.717,312.954 368.534,505.46 368.534,505.472 368.298,515.022 
			368.252,516.526 368.252,516.62 348.396,517.286 346.426,517.353 337.316,403.751 333.186,315.603 333.061,312.954 
			332.914,309.808 332.88,309.175 365.675,308.099 368.098,308.021 		"/>
		<path opacity="0.62" fill="#0E133A" d="M373.362,331.255c0,0,0,0.418-0.023,1.199
			C373.327,331.774,373.327,331.354,373.362,331.255z"/>
		<polygon fill="#6D1A48" points="411.475,289.103 411.054,313.53 333.068,313.149 330.992,289.103 		"/>
		<path opacity="0.16" fill="#0E133A" d="M373.362,331.255c0,0,0,0.418-0.023,1.199
			C373.327,331.774,373.327,331.354,373.362,331.255z"/>
		<polygon fill="#757678" points="345.153,511.845 369.069,511.53 368.598,517.036 345.625,517.665 		"/>
		<polygon fill="#0E133A" points="390.828,527.53 407.802,527.054 407.256,510.653 390.281,511.128 		"/>
		<g>
			<path fill="#87888D" d="M386.911,529.487l24.946-0.699l0,0c-0.181-5.443-4.744-9.734-10.19-9.582l-5.222,0.146
				C390.998,519.505,386.729,524.044,386.911,529.487L386.911,529.487z"/>
			<polygon fill="#191D4C" points="386.771,533.304 412.516,532.581 412.382,528.55 386.638,529.271 			"/>
		</g>
		<polygon fill="#6D1A48" points="374.269,308.062 374.698,313.038 387.644,505.147 387.644,505.159 388.466,514.683 
			388.602,516.183 388.607,516.272 408.471,515.831 410.442,515.79 412.591,401.872 411.328,313.642 411.291,310.991 
			411.245,307.843 411.24,307.208 378.436,307.966 376.012,308.022 		"/>
		<polygon fill="#757678" points="411.376,510.22 387.479,511.239 388.288,516.708 411.26,516.054 		"/>
		<g>
			<path fill="#F1AE9B" d="M338.42,154.307c0,0-10.112,29.893-11.177,67.447c-0.815,28.914-2.021,95.937-2.021,95.937l-13.082-0.268
				c0,0-4.013-38.832-3.805-92.288c0.207-53.458,15.001-76.834,20.582-78.672C334.498,144.625,338.909,147.905,338.42,154.307z"/>
			<g>
				<path fill="#F1AE9B" d="M334.856,334.388l-6.752-12.494c-0.786-1.457-2.554-2.084-3.928-1.391l-0.252,0.127
					c-1.372,0.695-1.852,2.453-1.064,3.912l6.75,12.494c0.788,1.459,2.556,2.084,3.928,1.391l0.253-0.129
					C335.163,337.606,335.643,335.847,334.856,334.388z"/>
				<path fill="#F1AE9B" d="M309.544,323.274c0,0,0.897,9.33,1.083,12.029c0.36,5.223,1.84,7.807,5.264,8.086l6.93-1.332
					c3.691-1.309,5.367-2.104,5.615-5.383l0.813-10.795c0.248-3.277-3.377-12.25-6.801-12.529l-7.018-0.891
					C312.007,312.181,309.792,319.995,309.544,323.274z"/>
				<path fill="#F1AE9B" d="M323.248,338.97l1.702,12.24c0.213,1.984,1.486,3.516,2.83,3.402l0,0
					c1.346-0.111,2.271-1.826,2.059-3.811l-1.703-12.242c-0.212-1.982-1.486-3.514-2.83-3.402l0,0
					C323.961,335.271,323.035,336.987,323.248,338.97z"/>
				<path fill="#F1AE9B" d="M317.743,342.231l1.702,12.24c0.213,1.984,1.487,3.516,2.831,3.402l0,0
					c1.345-0.113,2.271-1.828,2.059-3.813l-1.704-12.238c-0.212-1.984-1.485-3.518-2.83-3.402l0,0
					C318.456,338.532,317.53,340.247,317.743,342.231z"/>
				<path fill="#F1AE9B" d="M311.42,339.497l1.703,12.238c0.212,1.984,1.485,3.516,2.829,3.402l0,0
					c1.346-0.111,2.271-1.828,2.059-3.813l-1.702-12.238c-0.212-1.984-1.487-3.516-2.831-3.402l0,0
					C312.133,335.798,311.207,337.513,311.42,339.497z"/>
			</g>
		</g>
		<g>
			<path fill="#F1AE9B" d="M407.054,154.307c0,0,10.112,29.893,11.174,67.447c0.819,28.914,2.021,95.937,2.021,95.937l13.082-0.268
				c0,0,4.014-38.832,3.806-92.288c-0.207-53.458-15.002-76.834-20.582-78.672C410.975,144.625,406.563,147.905,407.054,154.307z"/>
			<g>
				<path fill="#F1AE9B" d="M410.615,334.388l6.751-12.494c0.786-1.457,2.554-2.084,3.928-1.391l0.252,0.127
					c1.374,0.695,1.854,2.453,1.066,3.912l-6.75,12.494c-0.788,1.459-2.556,2.084-3.929,1.391l-0.253-0.129
					C410.309,337.606,409.829,335.847,410.615,334.388z"/>
				<path fill="#F1AE9B" d="M435.928,323.274c0,0-0.896,9.33-1.082,12.029c-0.359,5.223-1.84,7.807-5.264,8.086l-6.93-1.332
					c-3.692-1.309-5.369-2.104-5.615-5.383l-0.814-10.795c-0.246-3.277,3.376-12.25,6.802-12.529l7.017-0.891
					C433.466,312.181,435.681,319.995,435.928,323.274z"/>
				<path fill="#F1AE9B" d="M422.225,338.97l-1.703,12.24c-0.213,1.984-1.486,3.516-2.83,3.402l0,0
					c-1.345-0.111-2.271-1.826-2.059-3.811l1.702-12.242c0.213-1.982,1.487-3.514,2.831-3.402l0,0
					C421.511,335.271,422.437,336.987,422.225,338.97z"/>
				<path fill="#F1AE9B" d="M427.729,342.231l-1.702,12.24c-0.212,1.984-1.486,3.516-2.83,3.402l0,0
					c-1.346-0.113-2.271-1.828-2.059-3.813l1.703-12.238c0.212-1.984,1.486-3.518,2.83-3.402l0,0
					C427.016,338.532,427.941,340.247,427.729,342.231z"/>
				<path fill="#F1AE9B" d="M434.053,339.497l-1.703,12.238c-0.213,1.984-1.487,3.516-2.83,3.402l0,0
					c-1.346-0.111-2.271-1.828-2.059-3.813l1.703-12.238c0.213-1.984,1.486-3.516,2.831-3.402l0,0
					C433.338,335.798,434.266,337.513,434.053,339.497z"/>
			</g>
		</g>
		<g>
			<ellipse fill="#FFFFFF" cx="373.637" cy="168.209" rx="2.054" ry="1.963"/>
			<ellipse fill="#FFFFFF" cx="373.637" cy="195.757" rx="2.054" ry="1.963"/>
			<ellipse fill="#FFFFFF" cx="373.637" cy="223.306" rx="2.054" ry="1.964"/>
			<ellipse fill="#FFFFFF" cx="373.637" cy="250.854" rx="2.054" ry="1.964"/>
			<ellipse fill="#FFFFFF" cx="373.637" cy="278.401" rx="2.054" ry="1.967"/>
		</g>
		<path fill="#244789" d="M352.086,125.092l-10.441,3.774c-13.637,4.969-23.837,16.494-27.112,30.633l-5.827,25.166l29.204,6.042
			L352.086,125.092z"/>
		<path fill="#244789" d="M392.149,126.046l10.614,3.867c13.637,4.969,23.837,16.494,27.112,30.633l5.828,25.166l-29.205,6.042
			L392.149,126.046z"/>
		<path opacity="0.54" fill="#B0ADC0" d="M244.887,556.331h549.818c9.459,0,17.125-7.668,17.125-17.125l0,0
			c0-9.459-7.666-17.125-17.125-17.125H244.887c-9.459,0-17.127,7.666-17.127,17.125l0,0
			C227.76,548.663,235.428,556.331,244.887,556.331z"/>
		<g>
			<path fill="#D36652" d="M223.003,166.947l-2.589-4.593c-3.505-6.212-9.904-10.241-17.021-10.715l0,0
				c-7.14-0.476-14.038,2.69-18.333,8.416l0,0c-0.339,0.453-0.669,0.911-0.989,1.375c-6.093,8.827-8.479,23.245-4.014,44.292
				l8.464,53.73l28.21,3.99l8.983-85.206C225.882,174.294,224.942,170.384,223.003,166.947z"/>
			<g>
				<g>
					<g>
						<path fill="#FBC7B1" d="M320.354,322.659l13.175-3.811c0.962-0.275,1.521-1.291,1.243-2.254l0,0
							c-0.277-0.961-1.293-1.521-2.255-1.244l-13.175,3.809c-0.962,0.277-1.522,1.293-1.245,2.256l0,0
							C318.376,322.378,319.39,322.937,320.354,322.659z"/>
						<path fill="#FBC7B1" d="M325.082,325.765l10.577-3.059c0.963-0.279,1.522-1.293,1.245-2.256l0,0
							c-0.278-0.961-1.293-1.52-2.256-1.242l-10.58,3.057c-0.961,0.279-1.52,1.293-1.241,2.256l0,0
							C323.104,325.481,324.119,326.044,325.082,325.765z"/>
						<path fill="#FBC7B1" d="M323.169,330.786l12.521-3.619c0.962-0.279,1.521-1.293,1.242-2.256l0,0
							c-0.277-0.963-1.293-1.523-2.255-1.244l-12.521,3.619c-0.962,0.277-1.521,1.293-1.243,2.256l0,0
							C321.191,330.503,322.206,331.063,323.169,330.786z"/>
					</g>
					<path fill="#FBC7B1" d="M325.725,318.466c-0.143,0.035-1.793,0.217-3.584,0.408c-3.09,0.328-6.06,1.391-8.658,3.094
						l-4.979,3.262c0,0,4.15,8.635,4.577,8.66c10.448,0.584,13.381-4.488,13.381-4.488L325.725,318.466z"/>
				</g>
				<g>
					<path fill="#FBC7B1" d="M235.575,284.343c0,0,6.123,16.387,12.312,29.711c1.724,3.697,3.448,7.156,5.043,9.967
						c0.467,0.814,0.941,1.607,1.44,2.367c6.177,9.611,14.461,14.973,26.181,13.525c0.107-0.014,34.507-5.867,34.507-5.867
						l-1.979-11.93l-35.583,3.078c-3.854,0.525-9.55-4.859-12.022-8.521c-0.192-0.285-0.364-0.559-0.516-0.818
						c-1.169-2.014-2.447-4.5-3.789-7.273c-8.029-16.668-18.132-43.969-18.132-43.969L235.575,284.343z"/>
				</g>
			</g>
			<path fill="#FDBC4A" d="M240.075,253.583c0.712,1.067,17.084,33.1,17.084,33.1l-12.813,11.746L240.075,253.583z"/>
			<g>
				<path fill="#6D1A48" d="M245.83,414.907l-77.092,7.65l-28.294-143.609l43.614-0.24c19.189-0.066,35.79,13.342,39.76,32.117
					L245.83,414.907z"/>
				<path fill="#F04847" d="M148.002,415.839l-16.961-125.662c-0.755-5.6,3.207-10.797,8.805-11.555l0,0
					c5.599-0.756,10.798,3.209,11.553,8.807l16.962,125.662c0.756,5.6-3.208,10.797-8.807,11.555l0,0
					C153.956,425.399,148.758,421.438,148.002,415.839z"/>
				<g>
					<g>
						<rect x="206.089" y="433.054" fill="#39477A" width="11.947" height="70.469"/>
						<path fill="#191D4C" d="M218.036,437.155v15.924l-11.947-4.621v-10.783C209.077,437.536,214.832,437.296,218.036,437.155z"/>
					</g>
					<path fill="#39477A" d="M239.743,438.751h-53.387c-2.937,0-5.338-2.402-5.338-5.338l0,0c0-2.938,2.401-5.34,5.338-5.34h53.387
						c2.936,0,5.338,2.402,5.338,5.34l0,0C245.081,436.349,242.679,438.751,239.743,438.751z"/>
					<path fill="#6D1A48" d="M265.871,432.345h-61.362c-7.341,0-13.348-6.008-13.348-13.348l0,0c0-7.342,6.007-13.35,13.348-13.35
						h61.362c7.341,0,13.349,6.008,13.349,13.35l0,0C279.22,426.337,273.212,432.345,265.871,432.345z"/>
					<path fill="#F04847" d="M211.95,432.702h-49.082c-7.341,0-13.349-6.008-13.349-13.35l0,0c0-7.344,6.008-13.348,13.349-13.348
						h49.082c7.342,0,13.35,6.004,13.35,13.348l0,0C225.3,426.694,219.292,432.702,211.95,432.702z"/>
					<g>
						<g>
							<path fill="#191D4C" d="M262.699,527.015h-7.476c0-8.928-7.264-16.191-16.193-16.191h-54.454
								c-8.929,0-16.193,7.264-16.193,16.191h-7.474c0-13.049,10.617-23.666,23.667-23.666h54.454
								C252.081,503.349,262.699,513.966,262.699,527.015z"/>
						</g>
						<rect x="203.261" y="492.138" fill="#191D4C" width="17.44" height="11.389"/>
					</g>
					<g>
						<circle fill="#191D4C" cx="164.361" cy="534.243" r="6.208"/>
						<path fill="#39477A" d="M173.314,533.694h-16.991v-1.885c0-4.512,3.658-8.17,8.17-8.17h0.651c4.513,0,8.17,3.658,8.17,8.17
							V533.694z"/>
						<circle fill="#191D4C" cx="259.312" cy="534.243" r="6.208"/>
						<path fill="#39477A" d="M268.265,533.694h-16.991v-1.885c0-4.512,3.658-8.17,8.17-8.17h0.651c4.513,0,8.17,3.658,8.17,8.17
							V533.694z"/>
					</g>
					<rect x="207.388" y="505.661" fill="#191D4C" width="9.893" height="22.422"/>
					<g>
						<circle fill="#191D4C" cx="212.542" cy="534.243" r="6.208"/>
						<path fill="#39477A" d="M221.494,533.694h-16.99v-1.885c0-4.512,3.658-8.17,8.17-8.17h0.65c4.513,0,8.17,3.658,8.17,8.17
							V533.694z"/>
					</g>
				</g>
			</g>
			<path fill="#1B2C58" d="M235.54,422.878l-0.441-0.176C235.225,422.987,235.54,422.878,235.54,422.878z"/>
			<path fill="#1B2C58" d="M235.54,422.878l-0.441-0.176C235.225,422.987,235.54,422.878,235.54,422.878z"/>
			<path fill="#1C1C2D" d="M189.893,362.136l0.558,22.889c0.308,12.57,5.314,23.021,21.33,23.557l41.641,5.338v-25.092
				l-5.338-17.084L189.893,362.136z"/>
			<g>
				<g>
					<path fill="#858484" d="M285.293,539.165l43.404,1.17c2.589,0.07,4.742-2.02,4.811-4.664l0,0
						c0.054-2.037-1.161-3.887-3.026-4.609l-21.277-8.236l-23.488-0.045L285.293,539.165z"/>
					<path fill="#191D4C" d="M329.5,541.591l-43.911-0.854l0.059-3.219l47.097,0.914v0.031
						C332.712,540.224,331.258,541.624,329.5,541.591z"/>
				</g>
				<g>
					
						<line fill="none" stroke="#191D4C" stroke-width="1.1138" stroke-linecap="round" stroke-miterlimit="10" x1="308" y1="529.304" x2="313.316" y2="523.835"/>
					
						<line fill="none" stroke="#191D4C" stroke-width="1.1138" stroke-linecap="round" stroke-miterlimit="10" x1="311.788" y1="530.987" x2="317.104" y2="525.517"/>
					
						<line fill="none" stroke="#191D4C" stroke-width="1.1138" stroke-linecap="round" stroke-miterlimit="10" x1="315.403" y1="533.214" x2="321.388" y2="527.007"/>
				</g>
				<g>
					<path fill="#1C1C2D" d="M285.344,524.999c2.575-43.289,4.224-93.738,0.852-101.844c-3.458-5.031-25.833-10.305-47.025-16.166
						l4.464-29.195c17.084,2.67,58.075,16.164,66.911,31.32c3.729,6.396,4.964,29.313,3.217,73.455
						c-0.917,23.121-2.044,41.232-2.044,41.232L285.344,524.999z"/>
				</g>
			</g>
			<g>
				<g>
					<path fill="#9C9794" d="M253.262,539.698l43.405,1.17c2.588,0.07,4.741-2.018,4.81-4.662l0,0
						c0.053-2.041-1.162-3.887-3.026-4.609l-21.276-8.236l-23.49-0.049L253.262,539.698z"/>
					<path fill="#191D4C" d="M297.468,542.122l-43.911-0.85l0.061-3.221l47.095,0.914v0.033
						C300.68,540.759,299.227,542.157,297.468,542.122z"/>
				</g>
				<g>
					
						<line fill="none" stroke="#191D4C" stroke-width="1.1138" stroke-linecap="round" stroke-miterlimit="10" x1="275.969" y1="529.839" x2="281.284" y2="524.368"/>
					
						<line fill="none" stroke="#191D4C" stroke-width="1.1138" stroke-linecap="round" stroke-miterlimit="10" x1="279.756" y1="531.522" x2="285.072" y2="526.052"/>
					
						<line fill="none" stroke="#191D4C" stroke-width="1.1138" stroke-linecap="round" stroke-miterlimit="10" x1="283.371" y1="533.745" x2="289.356" y2="527.542"/>
				</g>
				<g>
					<path fill="#25263A" d="M253.312,525.534c2.575-43.291,4.225-93.738,0.853-101.844c-3.141-3.178-28.166-9.191-48.852-15.203
						c-7.844-2.279-13.601-8.973-14.695-17.066l-1.081-13.27l22.778-1.068c17.084,2.67,57.362,17.41,66.198,32.564
						c3.731,6.398,4.965,29.314,3.217,73.455c-0.916,23.121-2.043,41.23-2.043,41.23L253.312,525.534z"/>
				</g>
			</g>
			<path fill="#FDBC4A" d="M249.957,374.911l-42.88,1.836l-17.957,0.775h-0.077l-5.252-88.092
				c-0.545-11.986,0.708-20.922,2.919-27.582c6.485-19.649,21.248-19.487,22.683-19.487l15.526,0.191
				c13.174,0,23.391,22.319,24.702,45.243l0.23,60.1l0.085,20.998L249.957,374.911z"/>
			<path fill="#F4A32A" d="M249.957,374.911l-42.88,1.836l-17.957,0.775h-0.077l-5.252-88.092
				c-0.545-11.986,0.708-20.922,2.919-27.582l8.333,12.753l14.99,49.432l24.874,12.111l14.944,11.75l0.085,20.998L249.957,374.911z"
				/>
		</g>
		<line fill="#39477A" x1="718.389" y1="523.716" x2="718.389" y2="528.685"/>
		<rect x="583.412" y="402.849" fill="#191D4C" width="65.109" height="12.959"/>
		<rect x="581.518" y="358.782" fill="#727083" width="14.641" height="180.813"/>
		<rect x="636.039" y="358.782" fill="#B2AFC2" width="14.641" height="180.813"/>
		<rect x="222.905" y="403.942" fill="#727083" width="61.829" height="12.957"/>
		<rect x="221.62" y="358.872" fill="#727083" width="14.642" height="180.811"/>
		<rect x="274.871" y="358.782" fill="#B2AFC2" width="14.643" height="180.813"/>
		<path fill="#D36652" d="M203.568,359.737H407.79v-10.557c0-3.197-2.591-5.787-5.785-5.787H209.353
			c-3.195,0-5.784,2.59-5.784,5.787V359.737z"/>
		<g>
			<path fill="#F89F7C" d="M667.883,349.177v10.563H263.092v-10.563c0-3.195,2.592-5.779,5.787-5.779h393.215
				C665.289,343.397,667.883,345.981,667.883,349.177z"/>
			<path fill="#D36652" d="M626.189,343.397v16.342H515.693c-1.942-4.258-5.081-11.215-7.31-16.342H626.189z"/>
		</g>
		<g>
			<path fill="#DEDEDD" d="M527.499,343.952h-83.16c-0.464-0.664-0.83-1.416-1.051-2.225l-18.606-67.168
				c-0.896-3.2,1.514-6.369,4.838-6.369h73.169c2.256,0,4.23,1.512,4.838,3.681L527.499,343.952z"/>
			<path fill="#2D2E3B" d="M453.436,344.558h78.026l-20.805-75.083c-0.603-2.172-2.58-3.674-4.834-3.674h-73.102
				c-3.316,0-5.721,3.164-4.834,6.359l18.594,67.108C447.347,342.396,450.192,344.558,453.436,344.558z"/>
			<path fill="#30568D" d="M431.998,275.118l15.194,54.719l3.188,11.459h77.409l-3.18-11.459l-15.893-57.208
				c-0.556-2.012-2.394-3.399-4.48-3.399h-67.759C433.406,269.23,431.175,272.16,431.998,275.118z"/>
			<g>
				<g>
					<polygon fill="#EDEEF0" points="477.597,276.671 501.422,276.671 500.892,274.997 477.065,274.997 					"/>
					<polygon fill="#EA5544" points="455.984,276.671 467.267,276.671 466.735,274.997 455.454,274.997 					"/>
					<polygon fill="#A29FB0" points="439.698,276.671 450.979,276.671 450.448,274.997 439.168,274.997 					"/>
					<polygon fill="#6F89C3" points="452.312,276.671 454.981,276.671 454.451,274.997 451.782,274.997 					"/>
					<polygon fill="#A29FB0" points="468.572,276.671 476.48,276.671 475.949,274.997 468.042,274.997 					"/>
				</g>
				<g>
					<polygon fill="#DEDEDD" points="494.188,305.261 482.906,305.261 482.376,303.585 493.657,303.585 					"/>
					<polygon fill="#FFC644" points="510.475,305.261 499.193,305.261 498.663,303.585 509.944,303.585 					"/>
					<polygon fill="#6F89C3" points="497.86,305.261 495.192,305.261 494.662,303.585 497.329,303.585 					"/>
				</g>
				<g>
					<polygon fill="#EA5544" points="494.751,283.819 503.686,283.819 503.155,282.144 494.221,282.144 					"/>
					<polygon fill="#6F89C3" points="473.14,283.819 476.974,283.819 476.444,282.144 472.608,282.144 					"/>
					<polygon fill="#EA5544" points="441.962,283.819 460.688,283.819 460.157,282.144 441.432,282.144 					"/>
					<polygon fill="#6F89C3" points="462.021,283.819 472.135,283.819 471.604,282.144 461.491,282.144 					"/>
					<polygon fill="#6F89C3" points="478.281,283.819 493.634,283.819 493.103,282.144 477.75,282.144 					"/>
				</g>
				<g>
					<polygon fill="#323E6F" points="508.33,326.702 517.266,326.702 516.732,325.026 507.799,325.026 					"/>
				</g>
				<g>
					<polygon fill="#DEDEDD" points="497.014,290.968 505.949,290.968 505.419,289.292 496.483,289.292 					"/>
					<polygon fill="#DEDEDD" points="482.433,290.968 491.367,290.968 490.837,289.292 481.901,289.292 					"/>
					<polygon fill="#6F89C3" points="446.704,290.968 462.057,290.968 461.526,289.292 446.174,289.292 					"/>
				</g>
				<g>
					<polygon fill="#6F89C3" points="508.212,298.114 492.858,298.114 492.328,296.438 507.682,296.438 					"/>
				</g>
			</g>
			<polygon fill="#2D2E3B" points="447.192,329.837 450.381,341.296 527.79,341.296 524.61,329.837 			"/>
			<g>
				<path fill="#85828E" d="M488.915,344.735h95.056c2.221,0,4.039-1.818,4.039-4.039l0,0c0-2.221-1.818-4.039-4.039-4.039h-95.056
					c-2.222,0-4.04,1.818-4.04,4.039l0,0C484.875,342.917,486.693,344.735,488.915,344.735z"/>
			</g>
			<polygon opacity="0.55" fill="#C5CAE6" points="441.409,265.801 490.342,336.47 520.231,336.47 471.302,265.801 			"/>
			<g>
				<g>
					<path fill="#DEDEDD" d="M452.98,344.685h56.376c2.278,0,4.142-1.861,4.142-4.141l0,0c0-2.275-1.863-4.139-4.142-4.139H452.98
						c-2.277,0-4.14,1.863-4.14,4.139l0,0C448.841,342.823,450.703,344.685,452.98,344.685z"/>
				</g>
				<g>
					<rect x="472.652" y="339.083" fill="#141743" width="7.856" height="2.359"/>
					<rect x="482.865" y="339.083" fill="#141743" width="5.697" height="2.359"/>
				</g>
			</g>
		</g>
		<g>
			<g>
				<path fill="#F04847" d="M367.539,322.712v21.512h17.97v-21.512c0-0.947-0.771-1.719-1.718-1.719h-14.534
					C368.31,320.993,367.539,321.765,367.539,322.712z"/>
				<g>
					<path fill="#F04847" d="M385.288,340.542c0.234-0.133,5.751-3.365,6.243-9.025c0.188-2.156-0.628-3.494-1.348-4.236
						c-1.974-2.039-5.254-1.922-5.623-1.902l0.145,2.625c0.665-0.029,2.627,0.105,3.595,1.113c0.494,0.512,0.694,1.223,0.611,2.172
						c-0.374,4.307-4.889,6.947-4.934,6.973L385.288,340.542z"/>
				</g>
			</g>
			<path fill="#F04847" d="M375.937,344.224h9.572v-21.512c0-0.947-0.771-1.719-1.718-1.719h-0.579
				c-0.025,1.123-0.333,9.705-2.744,15.883C378.374,342.259,376.506,343.847,375.937,344.224z"/>
			<g>
				<path opacity="0.37" fill="#6D1A48" d="M390.182,327.278c-1.402-1.445-3.463-1.805-4.673-1.893v-2.674
					c0-0.947-0.771-1.717-1.718-1.717h-0.579c-0.025,1.121-0.333,9.703-2.744,15.883c-2.094,5.381-3.962,6.971-4.531,7.346h9.572
					v-3.82c1.07-0.668,5.584-3.799,6.023-8.889C391.716,329.356,390.901,328.024,390.182,327.278z M388.911,331.286
					c-0.238,2.664-2.042,4.689-3.402,5.848v-9.1c0.868,0.076,2.086,0.357,2.788,1.078
					C388.797,329.628,388.989,330.339,388.911,331.286z"/>
			</g>
		</g>
		<g>
			<g>
				<g>
					<path fill="#DEDEDD" d="M387.347,344.946H323.03c-4.208,0-6.987-4.373-5.202-8.184l22.433-47.854
						c1.955-4.174,6.146-6.838,10.756-6.838h59.213c3.068,0,5.096,3.189,3.794,5.967L387.347,344.946z"/>
					<g>
						<g>
							<path fill="#DBDAE0" d="M323.268,345.11h-45.86c-1.853,0-3.367-1.514-3.367-3.367l0,0c0-1.854,1.515-3.367,3.367-3.367h45.86
								c1.853,0,3.368,1.514,3.368,3.367l0,0C326.636,343.597,325.12,345.11,323.268,345.11z"/>
						</g>
						<g>
							<rect x="300.238" y="340.608" fill="#FFFFFF" width="6.55" height="1.965"/>
							<rect x="293.524" y="340.608" fill="#FFFFFF" width="4.748" height="1.965"/>
						</g>
					</g>
					<path fill="#A29FB0" d="M386.379,344.946h-64.468c-2.314,0-3.844-2.404-2.862-4.5l24.159-51.537
						c1.955-4.174,6.148-6.838,10.756-6.838h59.214c3.067,0,5.095,3.189,3.792,5.967l-25.014,53.363
						C390.941,343.563,388.769,344.946,386.379,344.946z"/>
				</g>
				<path fill="#FFFFFF" d="M372.295,317.183c-1.529,3.574-4.385,5.783-6.381,4.93c-1.996-0.852-2.375-4.443-0.847-8.018
					c1.528-3.578,4.385-5.783,6.38-4.932C373.443,310.017,373.822,313.606,372.295,317.183z"/>
			</g>
			<g>
				<g>
					<g>
						<path fill="#FBC7B1" d="M269.396,332.19l13.553-2.1c0.988-0.154,1.673-1.09,1.521-2.078l0,0
							c-0.154-0.99-1.089-1.674-2.078-1.521l-13.554,2.1c-0.989,0.154-1.674,1.09-1.521,2.08l0,0
							C267.471,331.659,268.406,332.345,269.396,332.19z"/>
						<path fill="#FBC7B1" d="M273.69,335.874l10.882-1.688c0.99-0.154,1.674-1.09,1.521-2.078l0,0
							c-0.154-0.99-1.09-1.674-2.079-1.521l-10.882,1.688c-0.99,0.154-1.675,1.088-1.521,2.078l0,0
							C271.766,335.343,272.701,336.026,273.69,335.874z"/>
						<path fill="#FBC7B1" d="M271.155,340.61l12.879-1.998c0.989-0.152,1.674-1.09,1.521-2.078l0,0
							c-0.152-0.99-1.089-1.674-2.078-1.52l-12.881,1.996c-0.989,0.154-1.674,1.088-1.521,2.078l0,0
							C269.229,340.079,270.164,340.763,271.155,340.61z"/>
					</g>
					<path fill="#FBC7B1" d="M275.258,328.718c-0.146,0.016-1.807-0.014-3.606-0.053c-3.107-0.068-6.187,0.609-8.982,1.967
						l-5.354,2.602c0,0,3.017,9.092,3.438,9.17c10.29,1.91,13.844-2.748,13.844-2.748L275.258,328.718z"/>
				</g>
				<g>
					<path fill="#FBC7B1" d="M190.184,283.396c0,0,3.987,17.035,8.432,31.037c1.239,3.887,2.509,7.537,3.732,10.531
						c0.359,0.865,0.729,1.711,1.128,2.529c4.903,10.318,12.438,16.691,24.246,16.746c0.109,0.002,34.973-1.426,34.973-1.426
						l-0.444-12.088l-35.686-1.475c-3.89,0.033-8.853-6.033-10.838-9.982c-0.156-0.305-0.293-0.6-0.409-0.877
						c-0.904-2.145-1.854-4.773-2.832-7.697c-5.843-17.553-12.39-45.918-12.39-45.918L190.184,283.396z"/>
				</g>
			</g>
			<path fill="#FDBC4A" d="M203.062,253.938l7.829,34.879l-22.422,6.764c0,0-1.245-4.396-2.192-9.498
				c-0.948-5.104-2.021-18.211,0.434-24.234C189.044,256.12,196.555,255.106,203.062,253.938z"/>
		</g>
		<g>
			<g>
				<g>
					<path fill="#894D2E" d="M619.92,550.884l-47.189-0.977c-2.813-0.061-5.047-2.389-4.988-5.203l0,0
						c0.045-2.164,1.457-4.068,3.516-4.74l23.516-7.658l25.508,1.15L619.92,550.884z"/>
					<path fill="#191D4C" d="M571.758,551.198l47.762,1.344l0.098-3.424l-51.186-1.441l0,0
						C568.379,549.567,569.869,551.144,571.758,551.198z"/>
				</g>
				<g>
					
						<line fill="none" stroke="#191D4C" stroke-width="1.1846" stroke-linecap="round" stroke-miterlimit="10" x1="595.156" y1="539.222" x2="589.783" y2="533.142"/>
					
						<line fill="none" stroke="#191D4C" stroke-width="1.1846" stroke-linecap="round" stroke-miterlimit="10" x1="591.049" y1="540.817" x2="585.676" y2="534.739"/>
					
						<line fill="none" stroke="#191D4C" stroke-width="1.1846" stroke-linecap="round" stroke-miterlimit="10" x1="587.098" y1="543.001" x2="581.049" y2="536.108"/>
				</g>
				<g>
					<path fill="#11112C" d="M622.123,534.595c-2.738-46.037-2-88.6,1.588-97.221c3.676-5.352,32.348-16.953,61.004-18.205
						l-13.41-29.275c-37.584,1.889-64.453,15.99-73.85,32.109c-3.967,6.803-7.412,20.523-5.553,67.469
						c0.973,24.588,2.172,43.85,2.172,43.85L622.123,534.595z"/>
				</g>
				<g>
					<path fill="#A36440" d="M578.469,551.249l-47.198,0.354c-2.813,0.021-5.112-2.244-5.132-5.059l0,0
						c-0.018-2.166,1.34-4.107,3.381-4.836l23.291-8.322l25.529,0.432L578.469,551.249z"/>
					<path fill="#191D4C" d="M530.337,552.921l47.78-0.006v-3.424l-51.206,0.004l0,0
						C526.911,551.386,528.446,552.921,530.337,552.921z"/>
				</g>
				<g>
					
						<line fill="none" stroke="#191D4C" stroke-width="1.1846" stroke-linecap="round" stroke-miterlimit="10" x1="553.389" y1="540.288" x2="547.846" y2="534.364"/>
					
						<line fill="none" stroke="#191D4C" stroke-width="1.1846" stroke-linecap="round" stroke-miterlimit="10" x1="549.328" y1="542.001" x2="543.785" y2="536.077"/>
					
						<line fill="none" stroke="#191D4C" stroke-width="1.1846" stroke-linecap="round" stroke-miterlimit="10" x1="545.438" y1="544.294" x2="539.199" y2="537.575"/>
				</g>
				<g>
					<path fill="#25263A" d="M580.191,534.595c-2.738-46.037-1.998-88.6,1.588-97.221c3.678-5.352,32.35-16.953,61.006-18.205
						l-13.41-29.275c-37.586,1.889-64.451,15.99-73.85,32.109c-3.967,6.803-7.412,20.523-5.553,67.469
						c0.973,24.588,2.172,43.85,2.172,43.85L580.191,534.595z"/>
				</g>
				<path fill="#25263A" d="M620.582,398.317c0,5.156,1.836,9.881,4.885,13.564c3.898,4.725,9.814,7.74,16.432,7.74h35.822
					c1.064,0,2.107-0.08,3.127-0.238c2.629-0.375,5.102-1.246,7.32-2.504c0.396-0.215,0.783-0.453,1.156-0.703
					c5.836-3.795,9.699-10.381,9.699-17.859l-0.654-11.367l-77.164-0.668L620.582,398.317z"/>
				<g>
					<g>
						<g>
							<path fill="#FBC7B1" d="M595.973,337.608l-18.465-2.951c-1.348-0.217-2.275-1.496-2.061-2.844l0,0
								c0.217-1.35,1.496-2.275,2.846-2.059l18.463,2.949c1.348,0.215,2.275,1.494,2.061,2.844l0,0
								C598.602,336.897,597.32,337.825,595.973,337.608z"/>
							<path fill="#FBC7B1" d="M590.094,342.601l-14.826-2.369c-1.348-0.217-2.275-1.496-2.061-2.844l0,0
								c0.217-1.35,1.496-2.277,2.844-2.061l14.826,2.369c1.35,0.215,2.275,1.496,2.061,2.844l0,0
								C592.721,341.888,591.441,342.815,590.094,342.601z"/>
							<path fill="#FBC7B1" d="M593.521,349.075l-17.549-2.805c-1.348-0.217-2.275-1.498-2.059-2.844l0,0
								c0.215-1.35,1.494-2.277,2.844-2.063l17.547,2.807c1.35,0.215,2.275,1.496,2.061,2.842l0,0
								C596.15,348.362,594.869,349.29,593.521,349.075z"/>
						</g>
						<path fill="#FBC7B1" d="M588.002,332.833c0.199,0.025,2.463-0.008,4.916-0.049c4.238-0.07,8.434,0.871,12.236,2.742
							l7.283,3.582c0,0-4.172,12.377-4.746,12.479c-14.041,2.539-18.857-3.836-18.857-3.836L588.002,332.833z"/>
					</g>
					<rect x="598.873" y="332.784" fill="#FFFFFF" width="6.232" height="20.258"/>
				</g>
				<g>
					<path fill="#6D1A48" d="M645.949,355.241c14.695,0,28.131-8.578,34.305-21.938l0.303-0.66l19.236-58.734l-23.695-7.76
						l-18.742,57.239c-2.223,4.27-6.695,6.975-11.531,6.92l-40.859-0.404l-0.248,24.93l40.857,0.406
						C645.699,355.239,645.826,355.241,645.949,355.241z"/>
				</g>
				<g>
					<g>
						<path fill="#FBC7B1" d="M512.954,329.269c1.526-2.723,3.821-4.951,6.621-6.332c0.021-0.01,0.044-0.021,0.065-0.033
							c3.81-1.857,8.006-2.785,12.243-2.703l8.114,0.156c0,0,1.632,19.236,1.525,18.664c-0.209-1.145-7.813-2.285-28.406-2.285
							c-1.949,0-3.201-2.051-2.249-3.75L512.954,329.269z"/>
					</g>
					<rect x="536.527" y="319.829" fill="#FFFFFF" width="7.744" height="20.748"/>
				</g>
				<path fill="#F04847" d="M701.586,404.55c0,0-7.988,0.879-18.789,1.338c-1.961,0.096-4.029,0.164-6.143,0.211
					c-12.475,0.316-27.084-0.105-37.463-2.793c-6.305-1.645-11.088-3.348-14.658-4.898c-1.463-0.641-2.715-1.242-3.797-1.818
					c-3.961-2.084-5.49-3.625-5.691-3.836c-0.01-0.018-0.02-0.027-0.02-0.027l-0.594-66.633l-0.449-52.332
					c0-20.626,16.723-37.349,37.348-37.349h12.631c2.209,0,4.381,0.19,6.484,0.556c2.182,0.382,4.295,0.956,6.332,1.702
					c0.01,0,0.01,0.01,0.021,0.01c14.301,5.242,24.51,18.981,24.51,35.082L701.586,404.55z"/>
				<path opacity="0.33" fill="#6D1A48" d="M701.586,404.55c0,0-7.988,0.879-18.789,1.338c-1.961,0.096-4.029,0.164-6.143,0.211
					c-6.658,0.174-13.939,0.125-20.846-0.363l-0.307-140.843c0-10.696-3.969-20.483-10.533-27.936
					c2.066-0.363,4.191-0.545,6.361-0.545h12.631c2.209,0,4.381,0.19,6.484,0.556c2.182,0.382,4.295,0.956,6.332,1.702
					c0.01,0,0.01,0.01,0.021,0.01c14.301,5.242,24.51,18.981,24.51,35.082L701.586,404.55z"/>
				<path opacity="0.48" fill="#6D1A48" d="M638.311,274.286c-1.465,6.344-10.207,45.74-14.234,63.889l-0.24-30.93
					c0,0-1.34,5.262-5.021,11.977l-1.877-16.234C616.938,302.987,640.225,265.992,638.311,274.286z"/>
				<g>
					<g>
						<rect x="659.629" y="445.487" fill="#39477A" width="12.609" height="70.096"/>
						<path fill="#191D4C" d="M659.629,449.567v15.842l12.609-4.6v-10.725C669.082,449.944,663.01,449.708,659.629,449.567z"/>
					</g>
					<path fill="#39477A" d="M636.4,451.155h56.982c2.92,0,5.311-2.391,5.311-5.311l0,0c0-2.92-2.391-5.311-5.311-5.311H636.4
						c-2.922,0-5.313,2.391-5.313,5.311l0,0C631.088,448.765,633.479,451.155,636.4,451.155z"/>
					<g>
						<g>
							<path fill="#191D4C" d="M613.002,541.47h7.887c0-8.883,7.666-16.107,17.088-16.107h57.465
								c9.422,0,17.088,7.225,17.088,16.107h7.889c0-12.98-11.207-23.543-24.977-23.543h-57.465
								C624.205,517.927,613.002,528.489,613.002,541.47z"/>
						</g>
						<rect x="656.816" y="504.259" fill="#191D4C" width="18.402" height="15.357"/>
					</g>
					<g>
						<ellipse fill="#191D4C" cx="716.773" cy="548.659" rx="6.551" ry="6.174"/>
						<path fill="#39477A" d="M707.326,548.114h17.93v-1.633c0-4.623-3.748-8.371-8.371-8.371h-1.189
							c-4.623,0-8.369,3.748-8.369,8.371V548.114z"/>
						<ellipse fill="#191D4C" cx="616.575" cy="548.659" rx="6.552" ry="6.174"/>
						<path fill="#39477A" d="M607.129,548.114h17.93v-1.633c0-4.623-3.748-8.371-8.371-8.371h-1.189
							c-4.623,0-8.369,3.748-8.369,8.371V548.114z"/>
					</g>
					<rect x="660.93" y="520.228" fill="#191D4C" width="10.441" height="22.305"/>
					<g>
						<ellipse fill="#191D4C" cx="665.931" cy="548.659" rx="6.552" ry="6.174"/>
						<path fill="#39477A" d="M656.482,548.114h17.93v-1.633c0-4.623-3.748-8.371-8.371-8.371h-1.188
							c-4.623,0-8.371,3.748-8.371,8.371V548.114z"/>
					</g>
				</g>
				<path fill="#6D1A48" d="M766.32,309.31l-16.885,121.885c-1.027,7.412-7.248,13.002-14.729,13.236l-38.455,0.707l23.484-153.262
					l31.354-0.025C760.416,291.835,767.6,300.071,766.32,309.31z"/>
				<g>
					<path fill="#F04847" d="M582.486,343.907c14.697,0,28.131-8.578,34.305-21.936l27.697-59.936l-22.633-10.457l-27.695,59.934
						c-2.119,4.582-6.703,7.523-11.799,7.461l-40.858-0.402l-0.246,24.93l40.858,0.406
						C582.238,343.907,582.363,343.907,582.486,343.907z"/>
				</g>
				<path fill="#F04847" d="M600.328,445.138h98.559c7.303,0,13.277-5.977,13.277-13.277l0,0c0-7.305-5.975-13.279-13.277-13.279
					h-98.559c-7.303,0-13.277,5.975-13.277,13.279l0,0C587.051,439.161,593.025,445.138,600.328,445.138z"/>
				<rect x="638.178" y="227.909" fill="#FFFFFF" width="38.529" height="10.767"/>
				<path fill="#F04847" d="M713.768,428.364l17.896-124.998c0.797-5.566-3.385-10.74-9.291-11.49l0,0
					c-5.908-0.752-11.395,3.189-12.191,8.758l-17.898,124.998c-0.797,5.568,3.385,10.74,9.291,11.49l0,0
					C707.482,437.874,710.539,442.05,713.768,428.364z"/>
				<path opacity="0.48" fill="#6D1A48" d="M624.533,398.407c-1.463-0.641-2.715-1.242-3.797-1.818
					c-3.961-2.084-5.49-3.625-5.691-3.836c-0.01-0.018-0.02-0.027-0.02-0.027l-0.594-66.633c7.051-9.605,9.404-18.848,9.404-18.848
					L624.533,398.407z"/>
			</g>
		</g>
		<g>
			<g>
				<path fill="#6176B1" d="M122.28,481.565v17.928h76.571c4.947,0,8.964-4.018,8.964-8.965c0-2.471-1.004-4.711-2.623-6.342
					c-1.628-1.617-3.872-2.621-6.341-2.621H122.28z"/>
				<path fill="#191D4C" d="M101.25,481.565v17.928h76.571c4.948,0,8.963-4.018,8.963-8.965c0-2.471-1.003-4.711-2.621-6.342
					c-1.63-1.617-3.873-2.621-6.342-2.621H101.25z"/>
				<path fill="#FFFFFF" d="M101.25,484.638v11.492h74.155c3.175,0,5.745-2.57,5.745-5.744c0-1.588-0.646-3.021-1.68-4.066
					c-1.044-1.035-2.479-1.682-4.065-1.682H101.25z"/>
			</g>
		</g>
		<g>
			<rect x="129.433" y="479.837" fill="#BF7847" width="119.482" height="76.625"/>
			<rect x="79.437" y="479.841" fill="#DE9863" width="119.48" height="76.621"/>
			<path fill="#2D2E3B" d="M150.861,501.265h-23.376c-3.036,0-5.52-2.482-5.52-5.52l0,0c0-3.035,2.484-5.52,5.52-5.52h23.376
				c3.036,0,5.52,2.484,5.52,5.52l0,0C156.381,498.782,153.897,501.265,150.861,501.265z"/>
			<path opacity="0.64" fill="#4E1D0F" d="M127.529,506.427c0-2.268-0.918-4.334-2.41-5.826c-1.503-1.494-3.56-2.42-5.837-2.42
				h-3.865c1.656-0.719,2.813-2.373,2.813-4.297v-11.813c0-0.816-0.201-1.57-0.564-2.23H79.437v23.408v11.424v41.414h35.732
				c2.583,0,4.688-2.104,4.688-4.697v-11.814c0-2.594-2.105-4.697-4.688-4.697h-1.464c1.024-0.861,1.684-2.133,1.684-3.578v-11.814
				c0-2.594-2.095-4.697-4.688-4.697l-0.312-0.115h8.893C123.836,514.673,127.529,510.979,127.529,506.427z"/>
		</g>
		<g opacity="0.84">
			<g>
				<path fill="#AB7340" d="M76.208,537.187H18.551v-19.945h57.656c2.437,0,4.412,1.975,4.412,4.414v11.119
					C80.62,535.212,78.645,537.187,76.208,537.187z"/>
				<path fill="#AB7340" d="M74.084,535.907H18.551v-17.406h55.533c2.088,0,3.781,1.691,3.781,3.779v9.846
					C77.865,534.216,76.172,535.907,74.084,535.907z"/>
			</g>
			<g>
				<path fill="#AB7340" d="M77.233,499.515H21.701v-17.406h55.533c2.088,0,3.781,1.691,3.781,3.779v9.848
					C81.014,497.821,79.322,499.515,77.233,499.515z"/>
			</g>
			<g>
				<path fill="#AB7340" d="M80.406,556.083H22.75v-19.945h57.656c2.438,0,4.414,1.975,4.414,4.414v11.119
					C84.819,554.108,82.844,556.083,80.406,556.083z"/>
				<path fill="#AB7340" d="M78.283,554.804H22.75v-17.408h55.533c2.088,0,3.78,1.693,3.78,3.781v9.846
					C82.063,553.11,80.371,554.804,78.283,554.804z"/>
			</g>
			<g>
				<path fill="#AB7340" d="M31.805,501.382v15.51h55.757c4.281,0,7.755-3.475,7.755-7.756c0-2.137-0.868-4.078-2.269-5.486
					c-1.41-1.4-3.35-2.268-5.487-2.268H31.805z"/>
				<path fill="#AB7340" d="M31.805,504.04v9.943H85.47c2.748,0,4.972-2.225,4.972-4.971c0-1.375-0.558-2.617-1.454-3.52
					c-0.903-0.896-2.144-1.453-3.518-1.453H31.805z"/>
			</g>
			<g>
				<line fill="#AB7340" x1="21.132" y1="486.272" x2="78.87" y2="486.272"/>
				<line fill="#AB7340" x1="21.132" y1="489.597" x2="78.87" y2="489.597"/>
				<line fill="#AB7340" x1="21.132" y1="492.921" x2="78.87" y2="492.921"/>
				<line fill="#AB7340" x1="21.132" y1="496.245" x2="78.87" y2="496.245"/>
			</g>
			<g>
				<line fill="#AB7340" x1="18.508" y1="522.14" x2="76.246" y2="522.14"/>
				<line fill="#AB7340" x1="18.508" y1="525.464" x2="76.246" y2="525.464"/>
				<line fill="#AB7340" x1="18.508" y1="528.788" x2="76.246" y2="528.788"/>
				<line fill="#AB7340" x1="18.508" y1="532.112" x2="76.246" y2="532.112"/>
			</g>
			<g>
				<line fill="#AB7340" x1="22.881" y1="541.212" x2="80.62" y2="541.212"/>
				<line fill="#AB7340" x1="22.881" y1="544.536" x2="80.62" y2="544.536"/>
				<line fill="#AB7340" x1="22.881" y1="547.86" x2="80.62" y2="547.86"/>
				<line fill="#AB7340" x1="22.881" y1="551.185" x2="80.62" y2="551.185"/>
			</g>
		</g>
		<g>
			<g>
				<path fill="#6D1A48" d="M92.008,534.239H25.356v-23.057h66.651c2.817,0,5.102,2.281,5.102,5.1v12.855
					C97.109,531.956,94.825,534.239,92.008,534.239z"/>
				<path fill="#6D1A48" d="M67.736,534.239H1.035v-23.057h66.702c2.817,0,5.102,2.281,5.102,5.1v12.855
					C72.838,531.956,70.553,534.239,67.736,534.239z"/>
				<path fill="#FFFFFF" d="M65.282,532.759H1.035v-20.121h64.248c2.414,0,4.37,1.955,4.37,4.369v11.383
					C69.652,530.804,67.696,532.759,65.282,532.759z"/>
				<rect x="76.036" y="518.462" fill="#FFFFFF" width="18.557" height="8.193"/>
				<rect x="77.844" y="520.282" fill="#191D4C" width="15.17" height="1.67"/>
				<rect x="77.844" y="523.013" fill="#191D4C" width="15.17" height="1.672"/>
			</g>
			<g>
				<path fill="#6D1A48" d="M95.095,493.552H28.444v-23.059h66.651c2.818,0,5.102,2.285,5.102,5.102v12.854
					C100.197,491.267,97.913,493.552,95.095,493.552z"/>
				<path fill="#6D1A48" d="M70.824,493.552H3.516v-23.059h67.309c2.817,0,5.101,2.285,5.101,5.102v12.854
					C75.925,491.267,73.641,493.552,70.824,493.552z"/>
				<path fill="#FFFFFF" d="M68.37,492.071H3.516v-20.123H68.37c2.414,0,4.37,1.955,4.37,4.371V487.7
					C72.739,490.114,70.783,492.071,68.37,492.071z"/>
				<rect x="79.125" y="477.774" fill="#FFFFFF" width="18.556" height="8.191"/>
				<rect x="80.931" y="479.595" fill="#191D4C" width="15.17" height="1.668"/>
				<rect x="80.931" y="482.327" fill="#191D4C" width="15.17" height="1.668"/>
			</g>
			<g>
				<path fill="#191D4C" d="M96.862,556.083H30.211v-23.057h66.651c2.817,0,5.101,2.283,5.101,5.102v12.855
					C101.963,553.802,99.68,556.083,96.862,556.083z"/>
				<path fill="#191D4C" d="M72.591,556.083H5.939v-23.057h66.652c2.817,0,5.101,2.283,5.101,5.102v12.855
					C77.692,553.802,75.408,556.083,72.591,556.083z"/>
				<path fill="#FFFFFF" d="M70.136,554.604H5.939v-20.123h64.197c2.414,0,4.371,1.957,4.371,4.369v11.383
					C74.506,552.647,72.55,554.604,70.136,554.604z"/>
				<rect x="80.891" y="540.308" fill="#FFFFFF" width="18.557" height="8.191"/>
				<rect x="82.698" y="542.128" fill="#191D4C" width="15.169" height="1.67"/>
				<rect x="82.698" y="544.858" fill="#191D4C" width="15.169" height="1.668"/>
			</g>
			<g>
				<path fill="#D36652" d="M24.753,493.122v17.93h76.591c4.949,0,8.965-4.014,8.965-8.963c0-2.471-1.004-4.715-2.624-6.344
					c-1.628-1.619-3.873-2.623-6.342-2.623H24.753z"/>
				<path fill="#F89F7C" d="M15.853,493.122v17.93h64.456c4.949,0,8.966-4.014,8.966-8.963c0-2.471-1.004-4.715-2.624-6.344
					c-1.628-1.619-3.873-2.623-6.342-2.623H15.853z"/>
				<path fill="#FFFFFF" d="M15.853,496.196v11.496h62.038c3.177,0,5.748-2.572,5.748-5.748c0-1.588-0.645-3.021-1.68-4.068
					c-1.046-1.035-2.479-1.68-4.068-1.68H15.853z"/>
			</g>
			<g>
				
					<line fill="none" stroke="#B0ADC0" stroke-width="1.2685" stroke-miterlimit="10" x1="3.516" y1="476.763" x2="70.262" y2="476.763"/>
				
					<line fill="none" stroke="#B0ADC0" stroke-width="1.2685" stroke-miterlimit="10" x1="3.516" y1="480.606" x2="70.262" y2="480.606"/>
				
					<line fill="none" stroke="#B0ADC0" stroke-width="1.2685" stroke-miterlimit="10" x1="3.516" y1="484.448" x2="70.262" y2="484.448"/>
				
					<line fill="none" stroke="#B0ADC0" stroke-width="1.2685" stroke-miterlimit="10" x1="3.516" y1="488.292" x2="70.262" y2="488.292"/>
			</g>
			<g>
				
					<line fill="none" stroke="#B0ADC0" stroke-width="1.2685" stroke-miterlimit="10" x1="1.035" y1="516.845" x2="67.781" y2="516.845"/>
				
					<line fill="none" stroke="#B0ADC0" stroke-width="1.2685" stroke-miterlimit="10" x1="1.035" y1="520.688" x2="67.781" y2="520.688"/>
				
					<line fill="none" stroke="#B0ADC0" stroke-width="1.2685" stroke-miterlimit="10" x1="1.035" y1="524.53" x2="67.781" y2="524.53"/>
				
					<line fill="none" stroke="#B0ADC0" stroke-width="1.2685" stroke-miterlimit="10" x1="1.035" y1="528.374" x2="67.781" y2="528.374"/>
			</g>
			<g>
				
					<line fill="none" stroke="#B0ADC0" stroke-width="1.2685" stroke-miterlimit="10" x1="6.091" y1="538.892" x2="72.838" y2="538.892"/>
				
					<line fill="none" stroke="#B0ADC0" stroke-width="1.2685" stroke-miterlimit="10" x1="6.091" y1="542.735" x2="72.838" y2="542.735"/>
				
					<line fill="none" stroke="#B0ADC0" stroke-width="1.2685" stroke-miterlimit="10" x1="6.091" y1="546.577" x2="72.838" y2="546.577"/>
				
					<line fill="none" stroke="#B0ADC0" stroke-width="1.2685" stroke-miterlimit="10" x1="6.091" y1="550.419" x2="72.838" y2="550.419"/>
			</g>
		</g>
		<rect x="507.682" y="79.458" fill="#D36652" width="201.92" height="15.532"/>
		<rect x="522.522" y="66.684" fill="#6D1A48" width="102.216" height="13.652"/>
		<rect x="490.078" y="66.684" fill="#F04847" width="102.217" height="13.652"/>
		<path fill="none" stroke="#191D4C" stroke-width="1.7821" stroke-miterlimit="10" d="M360.143,496.386v-22.492
			c0-4.633,3.757-8.393,8.392-8.393l0,0c4.635,0,8.392,3.76,8.392,8.393v27.861h14.435v-17.623c0-6.209-5.034-11.246-11.245-11.246
			l0,0c-6.211,0-11.244,5.037-11.244,11.246v17.623"/>
		<path fill="#6176B1" d="M456.816,484.972h-10.088v-6.891c0-2.787,2.259-5.045,5.044-5.045l0,0c2.786,0,5.044,2.258,5.044,5.045
			V484.972z"/>
		<path fill="#FDBD63" d="M442.894,484.972h-12.893v-8.809c0-3.559,2.886-6.443,6.445-6.443l0,0c3.561,0,6.447,2.885,6.447,6.443
			V484.972z"/>
		<g>
			<path fill="#878498" d="M469.987,528.149h-45.18c-5.627,0-10.229-4.602-10.229-10.229v-25.574c0-5.627,4.603-10.23,10.229-10.23
				h45.18c5.627,0,10.23,4.604,10.23,10.23v25.574C480.218,523.548,475.614,528.149,469.987,528.149z"/>
			<path fill="#B0ADC0" d="M459.232,528.149h-45.182c-5.625,0-10.229-4.602-10.229-10.229v-25.574c0-5.627,4.604-10.23,10.229-10.23
				h45.182c5.626,0,10.229,4.604,10.229,10.23v25.574C469.462,523.548,464.858,528.149,459.232,528.149z"/>
		</g>
		<rect x="415.613" y="492.218" fill="#191D4C" width="40.067" height="25.146"/>
		<path fill="#6176B1" d="M373.737,521.224h-50.352v-23.205c0-7.762,6.294-14.055,14.057-14.055h22.239
			c7.763,0,14.056,6.293,14.056,14.055V521.224z"/>
		<path fill="#2C3663" d="M391.36,521.224H341.01v-23.205c0-7.762,6.293-14.055,14.056-14.055h22.238
			c7.764,0,14.057,6.293,14.057,14.055V521.224z"/>
		<g>
			<rect x="340.375" y="493.026" fill="#BF7847" width="72.132" height="66.941"/>
			<rect x="310.189" y="493.026" fill="#DE9863" width="72.132" height="66.941"/>
			<path fill="#2D2E3B" d="M352.636,511.747h-12.761c-2.204,0-4.008-1.803-4.008-4.008v-1.627c0-2.205,1.804-4.008,4.008-4.008
				h12.761c2.205,0,4.008,1.803,4.008,4.008v1.627C356.644,509.944,354.841,511.747,352.636,511.747z"/>
		</g>
		<g>
			<rect x="426.979" y="493.026" fill="#BF7847" width="72.132" height="66.941"/>
			<rect x="396.793" y="493.026" fill="#DE9863" width="72.133" height="66.941"/>
			<path fill="#2D2E3B" d="M439.238,511.747h-12.759c-2.205,0-4.009-1.803-4.009-4.008v-1.627c0-2.205,1.804-4.008,4.009-4.008
				h12.759c2.205,0,4.01,1.803,4.01,4.008v1.627C443.248,509.944,441.443,511.747,439.238,511.747z"/>
		</g>
		<g>
			<g>
				<rect x="390.797" y="333.362" fill="#191D4C" width="37.538" height="11.195"/>
				<rect x="380.259" y="333.362" fill="#6176B1" width="37.538" height="11.195"/>
			</g>
			<path fill="none" stroke="#FFFFFF" stroke-width="2.0651" stroke-linecap="round" stroke-miterlimit="10" d="M395.237,340.587
				L395.237,340.587c-3.713,0.57-6.477,3.729-6.553,7.482l-0.097,4.824c-0.148,7.322-6.073,13.209-13.396,13.311l-12.531,0.172
				c-5.689,0.08-10.447-4.309-10.83-9.984l-0.092-1.361c-0.408-6.047-5.146-10.898-11.179-11.447l0,0l-33.405-0.076
				c-1.102-0.004-2.143-0.506-2.829-1.369l-0.418-0.527"/>
			<path fill="none" stroke="#FFFFFF" stroke-width="2.0651" stroke-linecap="round" stroke-miterlimit="10" d="M401.987,341.573
				L401.987,341.573c-3.3,0.184-5.854,2.961-5.761,6.264l0.994,35.627c0.264,9.432-7.463,17.141-16.896,16.859l0,0
				c-8.717-0.264-15.707-7.297-15.912-16.018l-0.815-34.635c-0.076-3.246-2.679-5.863-5.925-5.957l-15.955-0.061"/>
			<path fill="#FFFFFF" d="M407.421,343.222h-7.245c-0.817,0-1.481-0.664-1.481-1.482l0,0c0-0.818,0.664-1.482,1.481-1.482h7.245
				c0.817,0,1.48,0.664,1.48,1.482l0,0C408.901,342.558,408.238,343.222,407.421,343.222z"/>
			<path fill="#FFFFFF" d="M395.571,342.489h-7.245c-0.816,0-1.481-0.664-1.481-1.48l0,0c0-0.818,0.665-1.482,1.481-1.482h7.245
				c0.818,0,1.481,0.664,1.481,1.482l0,0C397.053,341.825,396.39,342.489,395.571,342.489z"/>
		</g>
	</g>
	<rect x="477.651" y="79.458" fill="#F89F7C" width="201.923" height="15.532"/>
	<path fill="#F3A892" d="M217.913,249.658h-3.221c-4.185,0-7.609-3.424-7.609-7.608v-24.098c0-4.186,3.425-7.609,7.609-7.609h3.221
		c4.184,0,7.608,3.424,7.608,7.609v24.098C225.521,246.234,222.097,249.658,217.913,249.658z"/>
	<g>
		<path fill="#FFFFFF" d="M216.692,156.089l-2.716-2.974c0,0-13.639,2.229-19.166,14.09l2.004,2.942L216.692,156.089z"/>
		<g>
			<path fill="#F3885E" d="M260.142,189.826c-0.035,0.496-0.08,0.99-0.135,1.484c-0.279,2.377-0.796,4.688-1.541,6.881
				c-3.168,9.387-35.389-18.786-44.438-15.216c-4.492,1.777-7.312,39.83-8.032,39.176c-15.305-13.88-14.518-30.944-14.072-37.293
				c1.258-17.902,17.957-31.232,35.714-30.787c0.507,0.015,1.014,0.041,1.519,0.076c11.221,0.788,20.747,7.024,26.194,15.95
				c0.01,0.011,0.01,0.011,0.01,0.011c1.594,2.621,2.836,5.481,3.67,8.496C260.009,182.157,260.413,185.944,260.142,189.826z"/>
			<g>
				<path fill="#FDDCD4" d="M215.642,196.685c-0.039,0.727-0.206,1.424-0.501,2.063c-0.334,0.766-0.845,1.582-1.474,2.15
					c-1.14,1.022-2.663,1.74-4.313,1.651l-3.548-0.187l-2.72-0.138l0.402-8.075h0.01l0.069-1.493l0.059-1.159l0.058-1.062
					l0.011-0.274h0.011l6.258,0.324c1.581,0.078,2.985,0.767,4.008,1.817c0.619,0.639,1.09,1.426,1.375,2.279
					C215.583,195.25,215.681,195.947,215.642,196.685z"/>
				<path fill="#FBC7B1" d="M202.897,206.748c-0.011,0.314,0,0.618,0.01,0.933c0,0.099,0.011,0.196,0.02,0.295
					c0.157,3.91,1.18,7.633,2.87,10.982c0.077,0.168,0.166,0.335,0.254,0.502c2.771,5.207,7.183,9.451,12.596,12.016
					c0.01,0.01,0.02,0.01,0.02,0.01c2.093,0.992,4.342,1.729,6.7,2.16c0.864,0.158,1.729,0.286,2.612,0.374
					c0.354,0.029,0.709,0.05,1.072,0.069c1.297,0.059,2.563,0.049,3.82-0.078c0.354-0.021,0.718-0.05,1.072-0.109
					c11.739-1.453,21.309-10.305,23.549-21.84c0.235-1.228,0.401-2.504,0.462-3.792l0.098-1.955l0.668-13.057
					c0.108-1.965,0.078-3.88-0.147-5.737c-0.166-1.444-0.473-2.859-0.942-4.234c-1.219-3.605-2.889-6.867-5.434-9.647
					c-4.745-5.207-11.553-8.616-19.147-9.008c-5.679-0.295-11.063,1.149-15.65,3.84c-0.658,0.393-1.306,0.816-1.935,1.258
					c-3.145,2.21-5.808,5.068-7.782,8.37c0,0-0.009,0.009-0.009,0.02c-0.521,0.865-1.003,1.778-1.415,2.702
					c-0.078,0.167-0.147,0.324-0.216,0.511c-0.501,1.12-0.954,2.289-1.317,3.488c-0.541,1.709-0.913,3.498-1.021,5.344l-0.021,0.275
					l-0.058,1.061l-0.059,1.159l-0.079,1.483v0.01l-0.01,0.079l-0.011,0.255l-0.039,0.688l-0.344,7.055l-0.127,2.328l-0.039,0.885
					v0.195C202.897,206.01,202.878,206.383,202.897,206.748z"/>
				<path fill="#FDDCD4" d="M198.82,200.017c-0.127,2.574,1.641,4.951,4.098,5.59c0.225,0.059,0.461,0.107,0.707,0.138
					c0.108,0.029,0.235,0.029,0.363,0.04l1.68,0.088l0.187-3.508l0.039-0.785l0.325-6.366l-1.689-0.089
					c-0.158-0.01-0.295-0.01-0.443,0h-0.01c-0.216,0-0.432,0.02-0.638,0.049c0,0-0.011-0.01-0.011,0
					c-1.07,0.128-2.053,0.551-2.818,1.238C199.578,197.335,198.898,198.552,198.82,200.017z"/>
			</g>
			<path fill="#FBC7B1" d="M202.918,205.607v0.029c-0.021,0.374-0.04,0.747-0.021,1.111c-0.011,0.314,0,0.618,0.01,0.933
				c0,0.099,0.011,0.196,0.02,0.295c0.05,0.02,0.1,0.02,0.148,0.029c0.127,3.9,1.08,7.604,2.722,10.953
				c0.077,0.168,0.166,0.335,0.254,0.502c2.751,5.354,7.231,9.727,12.763,12.34c0.01,0.01,0.02,0.01,0.02,0.01
				c4.715,2.828,5.021,2.416,5.021,2.416s2.269-0.294,1.964-0.491c-1.915-1.237-6.866-5.974-9.962-14.157
				c-1.688-4.45-2.082-11.789-2.023-18.351v-0.492c0.03-3.006,0.168-5.836,0.305-8.104c0-0.04,0-0.09,0.011-0.129
				c0.187-3.134,0.393-5.178,0.393-5.178c-2.151-4.646-5.934-4.253-9.647-2.18c-0.512,1.611-0.875,3.291-1.002,5.03
				c-0.011,0.108-0.011,0.207-0.021,0.314h-0.01l-0.009,0.274l-0.061,1.062l-0.058,1.159l-0.079,1.483v0.01
				c-0.059,0-0.128,0-0.188,0.01l-0.039,0.688c-1.07,0.128-2.053,0.551-2.818,1.238c-1.031,0.924-1.711,2.141-1.789,3.605
				C198.693,202.591,200.461,204.968,202.918,205.607z"/>
			<path fill="#F3885E" d="M249.796,178.617c0.432,2.383-0.4,4.64-1.931,6.17c-1.257,1.258-3.007,2.044-4.912,2.044
				c0,0-27.287,2.04-31.221,10.487l-2.92,5.37c-0.43,0.788-1.288,1.259-2.184,1.19c-0.018-0.001-0.034-0.002-0.051-0.003
				c-1.086-0.085-1.961-0.907-2.1-1.987c-0.678-5.256-3.713-20.354-3.713-21.533c0-1.916,1.79-4.136,3.048-5.403
				c1.258-1.258,3.006-2.044,4.912-2.044h33.941C246.086,172.909,249.185,175.253,249.796,178.617z"/>
			<path fill="#F04847" d="M237.607,218.67h4.338c0.587,0,1.066-0.479,1.066-1.064l0,0c0-0.586-0.479-1.064-1.066-1.064h-4.338
				c-0.586,0-1.065,0.479-1.065,1.064l0,0C236.542,218.192,237.021,218.67,237.607,218.67z"/>
			<path fill="#F04847" d="M237.74,220.534h3.045c0.763,0,1.387-0.624,1.387-1.387l0,0c0-0.764-0.624-1.387-1.387-1.387h-3.045
				c-0.763,0-1.387,0.623-1.387,1.387l0,0C236.354,219.91,236.978,220.534,237.74,220.534z"/>
			<path fill="#FBC7B1" d="M244.402,210.32c0,0-0.318,1.976-3.111,1.883c-2.456-0.082-2.7-1.802-2.7-1.802L244.402,210.32z"/>
			<circle fill="#39477A" cx="202.076" cy="207.208" r="2.948"/>
			<path fill="#F3885E" d="M247.922,177.49c0,0,8.286-0.329,11.635,9.538c0,0,1.874-10.029-11.88-20.344s-38.068-1.719-40.034,2.701
				c-1.965,4.422-1.719,7.86-1.719,7.86L247.922,177.49z"/>
			<g>
				<path fill="none" stroke="#F3885E" stroke-width="2.0538" stroke-linecap="round" stroke-miterlimit="10" d="M235.396,194.928
					c0,0-4.666-2.21-9.579,0.737"/>
				<path fill="none" stroke="#F3885E" stroke-width="2.0538" stroke-linecap="round" stroke-miterlimit="10" d="M254.8,194.314
					c0,0-4.666-2.211-9.578,0.737"/>
			</g>
			<path fill="#191D4C" d="M230.896,203.756L230.896,203.756c-0.676,0-1.229-0.552-1.229-1.228v-2.271
				c0-0.676,0.553-1.229,1.229-1.229l0,0c0.675,0,1.228,0.553,1.228,1.229v2.271C232.123,203.205,231.57,203.756,230.896,203.756z"
				/>
			<path fill="#191D4C" d="M249.89,203.756L249.89,203.756c-0.677,0-1.229-0.552-1.229-1.228v-2.271
				c0-0.676,0.552-1.229,1.229-1.229l0,0c0.675,0,1.227,0.553,1.227,1.229v2.271C251.116,203.205,250.564,203.756,249.89,203.756z"
				/>
		</g>
	</g>
</g>
</svg>
