<?xml version="1.0" encoding="utf-8"?>
<!-- Generator: Adobe Illustrator 16.0.0, SVG Export Plug-In . SVG Version: 6.00 Build 0)  -->
<!DOCTYPE svg PUBLIC "-//W3C//DTD SVG 1.1//EN" "http://www.w3.org/Graphics/SVG/1.1/DTD/svg11.dtd">
<svg version="1.1" id="Layer_1" xmlns="http://www.w3.org/2000/svg" xmlns:xlink="http://www.w3.org/1999/xlink" x="0px" y="0px"
	 width="1544.324px" height="773.694px" viewBox="0 0 1544.324 773.694" enable-background="new 0 0 1544.324 773.694"
	 xml:space="preserve">
<path fill="#F7F8F8" d="M1509.705,166.318v-23.441c0.847,0.498,1.656,1.047,2.422,1.657c7.604,6.084,15.964,12.165,27.373,12.165
	c11.404,0,0,18.249-7.606,20.529c-7.603,2.281-7.603-5.321-14.446-9.125C1514.867,166.669,1512.068,166.102,1509.705,166.318
	L1509.705,166.318z M1509.705,128.994v-7.326l0.174,0.007c4.278-0.284,9.986,7.419,1.427,7.419
	C1510.745,129.092,1510.212,129.06,1509.705,128.994z M1509.705,121.668v7.326C1502.511,128.088,1500.838,121.234,1509.705,121.668
	L1509.705,121.668z M1509.705,142.876v23.441c-3.895,0.358-6.601,2.848-5.181,7.108c0.984,2.959-0.161,3.643-2.329,3.159V139.74
	C1504.875,140.56,1507.427,141.538,1509.705,142.876L1509.705,142.876z M1502.195,589.018v-6.374
	c1.996-0.635,3.44,0.497,3.016,2.622C1504.855,587.035,1503.641,589.063,1502.195,589.018L1502.195,589.018z M1502.195,189.593
	v-6.684C1506.517,185.984,1506.637,188.516,1502.195,189.593z M1502.195,139.74v36.845c-2.56-0.568-6.536-2.754-10.133-4.757
	v-34.776C1495.448,137.97,1498.916,138.739,1502.195,139.74L1502.195,139.74z M1502.195,182.909v6.684
	c-1.495,0.36-3.501,0.561-6.038,0.561c-1.484,0-2.842,0.114-4.095,0.325v-13.69c1.532,1.178,3.413,2.379,5.616,3.48
	C1499.498,181.179,1501.005,182.065,1502.195,182.909L1502.195,182.909z M1502.195,582.643v6.373
	c-0.538-0.017-1.099-0.313-1.664-1.006c-2.096-2.584-1.936-4.198,0.807-5.003C1501.632,582.851,1501.919,582.73,1502.195,582.643
	L1502.195,582.643z M1492.065,700.385v-9.139C1493.244,693.969,1493.057,697.481,1492.065,700.385L1492.065,700.385z
	 M1492.065,592.563v-6.374c1.997-0.634,3.441,0.496,3.017,2.623C1494.728,590.582,1493.512,592.609,1492.065,592.563z
	 M1492.065,137.052v34.776l-1.229-0.683c-5.423-3.013-4.637,1.141,1.229,5.645v13.689c-4.824,0.813-8.048,3.084-10.614,5.94v-63.393
	c0.595,0.279,1.194,0.568,1.784,0.863C1485.972,135.259,1488.983,136.216,1492.065,137.052L1492.065,137.052z M1492.065,586.188
	v6.374c-0.534-0.018-1.098-0.312-1.664-1.009c-2.097-2.582-1.935-4.196,0.81-5C1491.503,586.396,1491.787,586.276,1492.065,586.188
	L1492.065,586.188z M1492.065,691.245v9.139c-1.224,3.565-3.668,6.208-6.3,5.329c-1.797-0.596-3.196-1.242-4.314-2.075v-25.681
	c1.45,3.914,3.086,7.974,6.846,9.522C1490.137,688.237,1491.349,689.598,1492.065,691.245z M1481.451,133.026v63.391
	c-2.224,2.476-3.961,5.391-5.82,8.183c-0.447,0.671-0.896,1.186-1.344,1.573v-75.971
	C1476.464,130.86,1478.969,131.865,1481.451,133.026L1481.451,133.026z M1481.451,677.959v25.681
	c-2.662-1.98-3.733-5.03-4.802-11.094c-0.395-2.216-1.323-4.768-2.362-7.354v-16.109
	C1478.373,669.195,1479.792,673.48,1481.451,677.959L1481.451,677.959z M1474.287,718.691c5.551-6.194,5.824-15.347,0-16.419
	V718.691z M1474.287,130.203v75.971c-3.299,2.843-6.712-1.301-11.093-3.094v-62.717c13.146,4.075,12.253,2.4,6.352-5.712
	C1465.493,129.073,1468.876,128.567,1474.287,130.203L1474.287,130.203z M1474.287,669.082v16.109
	c-3.003-7.459-6.956-15.192-1.69-15.943C1473.207,669.121,1473.767,669.066,1474.287,669.082L1474.287,669.082z M1474.287,702.272
	v16.419c-0.056,0.063-0.114,0.127-0.172,0.19c-2.61,2.829-6.815,5.566-10.919,8.451v-12.686c4.325-3.364-1.075-11.16,9.907-12.479
	C1473.522,702.167,1473.917,702.204,1474.287,702.272L1474.287,702.272z M1463.196,484.688v-6.375
	c1.999-0.635,3.442,0.496,3.017,2.624C1465.86,482.707,1464.645,484.732,1463.196,484.688z M1463.196,140.363v62.717
	c-1.109-0.455-2.284-0.76-3.531-0.76c-0.819,0-1.55,0.066-2.219,0.179v-63.824c1.241,0.313,2.719,0.736,4.499,1.298
	C1462.375,140.107,1462.793,140.238,1463.196,140.363L1463.196,140.363z M1463.196,478.313v6.375
	c-0.533-0.018-1.099-0.313-1.662-1.007c-2.098-2.584-1.937-4.198,0.808-5.003C1462.634,478.522,1462.92,478.401,1463.196,478.313
	L1463.196,478.313z M1463.196,714.647v12.686c-2.007,1.409-3.99,2.855-5.75,4.365v-15.058c0.964-0.303,1.968-0.568,2.994-0.797
	C1461.65,715.573,1462.534,715.162,1463.196,714.647L1463.196,714.647z M1457.446,593.347v-9.07
	c4.643,3.371,7.751,9.511,2.489,9.511C1459.091,593.787,1458.252,593.625,1457.446,593.347L1457.446,593.347z M1457.446,244.637
	v-4.716c3.455,2.356,6.819,6.072,3.359,5.868C1459.688,245.724,1458.526,245.279,1457.446,244.637z M1457.446,138.675v63.824
	c-4.925,0.827-6.475,4.201-14.509,2.861c-0.191-0.032-0.38-0.065-0.565-0.098v-8.357c6.224-2.932,3.601-6.704,0-6.532v-51.275
	c0.682,0.013,1.373,0.05,2.087,0.115C1451.789,139.877,1448.602,136.455,1457.446,138.675L1457.446,138.675z M1457.446,239.921
	v4.716c-3.633-2.153-6.413-6.551-3.775-6.551C1454.655,238.25,1456.057,238.976,1457.446,239.921L1457.446,239.921z
	 M1457.446,584.276v9.07c-5.992-2.064-10.461-10.763-5.106-11.209C1454.033,582.27,1455.831,583.107,1457.446,584.276
	L1457.446,584.276z M1457.446,716.639v15.059c-3.02,2.583-5.391,5.355-6.121,8.456c-2.026,8.608-4.051-8.104-5.572-12.665
	C1444.404,723.447,1449.836,719.004,1457.446,716.639L1457.446,716.639z M1442.372,611.132v-9.046
	c6.51,1.397,14.792,9.974,6.419,10.44C1446.556,612.649,1444.324,612.071,1442.372,611.132L1442.372,611.132z M1442.372,219.026
	v-5.671c3.934,0.755,5.83,5.898,1.597,5.898C1443.425,219.255,1442.885,219.171,1442.372,219.026z M1442.372,139.098v51.275
	c-1.061,0.051-2.205,0.443-3.233,1.301c-1.925,1.601-4.789,3.202-7.632,4.178v-55.41
	C1434.79,139.761,1438.312,139.014,1442.372,139.098L1442.372,139.098z M1442.372,196.905v8.357
	c-8.553-1.551-8.383-4.544-0.195-8.266L1442.372,196.905L1442.372,196.905z M1442.372,213.355v5.671
	c-3.777-1.062-6.242-5.513-0.969-5.764C1441.739,213.263,1442.06,213.297,1442.372,213.355L1442.372,213.355z M1442.372,602.086
	v9.046c-6.007-2.895-9.329-9.239-1.682-9.239C1441.228,601.893,1441.794,601.96,1442.372,602.086L1442.372,602.086z
	 M1431.506,566.606v-6.099c3.118,2.537,5.398,6.179,1.101,6.179C1432.238,566.685,1431.874,566.655,1431.506,566.606
	L1431.506,566.606z M1431.506,246.208c4.623,0.324,1.761-15.026,5.618-15.541c3.433-0.457-0.845-13.948-5.618-18.974V246.208
	L1431.506,246.208z M1431.506,132.802v-5.094c4.511,0.547,6.109,5.381,1.907,5.381
	C1432.779,133.088,1432.13,132.982,1431.506,132.802z M1431.506,127.706v5.095c-3.86-1.119-6.88-5.135-1.23-5.135
	C1430.708,127.644,1431.118,127.659,1431.506,127.706L1431.506,127.706z M1431.506,140.443v55.41
	c-3.909,1.341-7.779,1.505-9.099-1.137c-1.215-2.434-4.164-4.218-7.572-3.969v-57.729c2.986,4.068,5.819,8.474,9.093,8.474
	C1426.405,141.492,1428.878,140.989,1431.506,140.443L1431.506,140.443z M1431.506,211.692v34.516
	c-0.505-0.035-1.098-0.254-1.801-0.705c-7.135-4.564-4.564,1.142-8.275,6.846c-1.328,2.044-3.862,3.391-6.595,4.045v-37.372
	c4.795-5.359,7.465-9.623,13.155-9.184C1429.122,209.725,1430.328,210.453,1431.506,211.692L1431.506,211.692z M1431.506,560.506
	v6.1c-6.258-0.847-12.318-8.503-4.84-8.503C1427.932,558.104,1429.837,559.146,1431.506,560.506L1431.506,560.506z
	 M1414.835,552.672v-6.355c6.734,1.994,13.596,6.38,7.87,7.033C1420.513,553.596,1417.635,553.293,1414.835,552.672z
	 M1414.835,133.018v57.729c-2.983,0.219-6.318,1.993-9.154,6.249c-2.413,3.62-4.587,7.357-6.806,10.314v-81.041
	c2.898,0.084,5.536,0.019,7.566,0.019C1409.601,126.286,1412.275,129.527,1414.835,133.018L1414.835,133.018z M1414.835,219.024
	v37.373c-4.902,1.17-10.442,0.109-10.81-3.188c-0.569-5.136,1.997-11.413,0.286-15.693c-1.713-4.279-3.14-5.992,5.42-13.409
	C1411.722,222.377,1413.377,220.649,1414.835,219.024L1414.835,219.024z M1414.835,546.316v6.355
	c-7.32-1.623-14.138-5.418-6.98-7.249C1409.687,545.141,1412.251,545.553,1414.835,546.316L1414.835,546.316z M1398.875,635.611
	v-6.374c2.002-0.634,3.442,0.494,3.02,2.623C1401.539,633.628,1400.325,635.655,1398.875,635.611L1398.875,635.611z
	 M1398.875,536.709v-2.411C1399.591,535.393,1399.714,536.279,1398.875,536.709z M1398.875,126.269v81.041
	c-2.281,3.04-4.609,5.251-7.296,5.659v-87.31C1394.065,126.033,1396.556,126.202,1398.875,126.269L1398.875,126.269z
	 M1398.875,534.298v2.411c-0.35,0.18-0.866,0.276-1.577,0.276c-1.803,0-3.812-0.69-5.719-1.729v-7.295
	C1394.495,529.775,1397.612,532.357,1398.875,534.298L1398.875,534.298z M1398.875,629.237v6.374
	c-0.532-0.019-1.099-0.313-1.66-1.009c-2.1-2.582-1.938-4.195,0.806-5.001C1398.312,629.445,1398.598,629.325,1398.875,629.237
	L1398.875,629.237z M1391.58,650.926v-22.013C1393.302,635.094,1393.015,643.279,1391.58,650.926z M1391.58,125.659v87.31
	c-1.288,0.196-2.659-0.023-4.146-0.766c-6.901-3.452-12.551-1.264-20.356-0.833v-92.245c2.479-2.806,5.606-3.988,11.231,1.075
	C1381.851,123.39,1386.709,124.929,1391.58,125.659L1391.58,125.659z M1391.58,527.962v7.295
	c-6.119-3.326-11.209-10.243-5.171-9.488C1387.53,525.768,1389.504,526.668,1391.58,527.962L1391.58,527.962z M1391.58,628.914
	v22.013c-0.644,3.419-1.519,6.736-2.55,9.711c-3.603,10.414-12.589,29.688-21.953,34.296v-97.159
	c7.173,10.173,15.549,19.803,19.925,23.361C1389.182,622.904,1390.665,625.627,1391.58,628.914L1391.58,628.914z M1367.077,714.501
	v-15.503c3.9-0.428,6.466,2.237,5.564,6.755C1371.929,709.307,1369.79,713.291,1367.077,714.501L1367.077,714.501z
	 M1367.077,551.506v-10.26c3.587,5.81,8.126,11.683,1.688,10.588C1368.177,551.733,1367.613,551.624,1367.077,551.506
	L1367.077,551.506z M1367.077,90.77v-6.183c4.412,0.292,9.559,6.33,1.914,6.33C1368.32,90.916,1367.68,90.864,1367.077,90.77z
	 M1348.795,295.908c2.011,2.033,2.013,4.691,4.021,5.154c2.639,0.605,7.69,2.602,3.815,4.875c-3.876,2.273-5.574,7.272-7.267,5.808
	c-0.165-0.142-0.357-0.318-0.57-0.515V295.908L1348.795,295.908z M1367.077,84.585v6.184c-6.466-1.01-8.856-6.879-0.324-6.196
	C1366.859,84.572,1366.964,84.577,1367.077,84.585L1367.077,84.585z M1367.077,119.127v92.244c-0.794,0.045-1.61,0.072-2.456,0.072
	c-5.139,0-11.006-1.932-15.825-2.121v-96.991c6.591-1.812,12.236-2.1,10.507,1.791c-3.042,6.841,2.278,12.925,5.318,8.362
	C1365.415,121.298,1366.205,120.114,1367.077,119.127L1367.077,119.127z M1367.077,541.246v10.26
	c-8.318-1.822-10.736-5.529-15.293-4.29c-0.958,0.26-1.96,0.78-2.988,1.389v-23.567c5.745-0.303,15.778,2.66,15.118,8.321
	C1363.681,535.357,1365.256,538.294,1367.077,541.246L1367.077,541.246z M1367.077,597.774v97.159
	c-2.478,1.219-4.985,1.416-7.421,0.145c-4.133-2.157-7.696-2.974-10.86-3.561V564.927c2.462,1.09,4.795,3.918,5.797,9.11
	C1355.753,580.086,1360.982,589.127,1367.077,597.774L1367.077,597.774z M1367.077,698.998v15.503
	c-1.771,0.791-3.789,0.398-5.802-2.084c-5.098-6.272-4.703-10.192,1.959-12.152C1364.599,699.536,1365.898,699.126,1367.077,698.998
	L1367.077,698.998z M1348.795,324.203v-1.37C1348.865,323.325,1348.869,323.791,1348.795,324.203L1348.795,324.203z
	 M1348.795,293.449v-6.23c2.557,2.353,4.604,5.599,3.516,6.998C1351.794,294.883,1350.397,294.438,1348.795,293.449
	L1348.795,293.449z M1348.795,278.4v-13.229c4.975,0.667,6.542,8.58,3.782,8.079c-2.886-0.523,1.049,8.91-3.671,5.241
	C1348.869,278.462,1348.833,278.431,1348.795,278.4L1348.795,278.4z M1348.795,249.919v-4.653c4.701,0.548,5.611,5.172,1.418,4.925
	C1349.737,250.161,1349.258,250.066,1348.795,249.919L1348.795,249.919z M1348.795,105.46v-4.768
	C1350.41,102.127,1350.586,104.188,1348.795,105.46L1348.795,105.46z M1348.795,85.527v-8.909c1.962,0.667,3.169,1.951,3.169,4.257
	C1351.964,83.038,1350.701,84.505,1348.795,85.527z M1346.176,294.261c1.156,0.429,1.983,1.009,2.619,1.646v15.321
	c-1.984-1.832-5.692-5.529-3.89-1.594c1.995,4.36,1.664,5.528-0.398,5.367c-2.06-0.164-4.537-4.799-4.936-7.861
	c-0.397-3.063,4.048,0.585,5.323-2.424C1346.171,301.707,1342.327,292.468,1346.176,294.261L1346.176,294.261z M1348.795,76.619
	v8.909c-3.704,1.99-9.829,2.305-13.799,2.771c-2.678,0.314-6.125-1.896-7.813-4.474v-5.312c1.122-1.064,3.25-1.796,6.752-1.88
	C1339.57,76.182,1345.348,75.446,1348.795,76.619L1348.795,76.619z M1348.795,100.692v4.768c-0.87,0.615-2.203,1.046-4.058,1.127
	c-8.581,0.374-9.701-6.716-1.867-7.462C1345.521,98.873,1347.572,99.601,1348.795,100.692L1348.795,100.692z M1348.795,112.331
	v96.991c-3.737-0.147-6.844,0.751-8.504,4.402c-3.025,6.655-7.012,14.269-13.107,17.87V121.236c2.418-0.509,4.736-1.483,7.787-3.313
	C1338.25,115.954,1343.794,113.704,1348.795,112.331L1348.795,112.331z M1348.795,245.266v4.653
	c-3.818-1.209-6.549-5.876-0.937-4.708C1348.187,245.21,1348.498,245.229,1348.795,245.266L1348.795,245.266z M1348.795,265.172
	V278.4c-4.605-3.754-4.574-14.573-0.678-13.274C1348.352,265.126,1348.579,265.145,1348.795,265.172L1348.795,265.172z
	 M1348.795,287.218c-1.754-1.612-3.746-2.805-5.131-2.698c-4.321,0.375,1.064,6.416,5.131,8.93V287.218L1348.795,287.218z
	 M1348.795,322.833v1.37c-0.071,0.397-0.215,0.745-0.445,1.022c-1.702,2.045-2.236,5.406-2.599,8.675
	c-0.365,3.268-2.415,7.041-5.129,7.676c-2.708,0.639-5.168,0.974-5.856,2.982c-0.694,2.009-2.729,1.837-4.002-0.745
	c-0.818-1.65-1.751-3.521-3.58-4.188v-5.477c2.625,0.017,4.948,0.338,6.568-2.526c2.536-4.479,5.62-2.48,6.764-6.513
	c1.146-4.032,0.98-9.414,4.235-8.493C1346.384,316.979,1348.442,320.272,1348.795,322.833L1348.795,322.833z M1348.795,525.037
	v23.567c-4.176,2.47-8.832,6.415-13.202,0.591c-2.479-2.598-5.672-6.836-8.409-11.245v-16.69c6.506,0.827,16.167,4.398,20.786,3.848
	C1348.236,525.076,1348.509,525.052,1348.795,525.037L1348.795,525.037z M1348.795,564.927v126.591
	c-5.757-1.068-10.217-1.374-14.464-7.579c-3.136-4.591-5.356-10.562-7.147-15.003v-79.487c1.605,0.331,3.607,0.574,6.134,0.794
	c8.104-0.509,7.599-13.169,7.599-20.259C1340.917,565.688,1345.006,563.252,1348.795,564.927L1348.795,564.927z M1327.184,348.141
	c2.141-2.347,2.543-2.94,1.06-5.021c-0.396-0.118-0.749-0.144-1.06-0.099V348.141L1327.184,348.141z M1327.184,288.494v-46.265
	c5.146,0.384,9.089,3.501,10.829,11.033c2.278,9.883-2.281,19.769-6.847,27.371C1329.833,282.859,1328.559,285.607,1327.184,288.494
	z M1327.184,78.513v5.312C1325.976,81.979,1325.667,79.946,1327.184,78.513L1327.184,78.513z M1327.184,121.236v110.358
	c-1.566,0.927-3.272,1.588-5.138,1.899c-0.523,0.085-1.004,0.199-1.458,0.332V121.771
	C1323.16,121.76,1325.207,121.653,1327.184,121.236L1327.184,121.236z M1327.184,242.229v46.265
	c-1.861,3.905-3.919,8.064-6.599,11.534v-57.246c0.459-0.012,0.944-0.064,1.458-0.167
	C1323.856,242.255,1325.578,242.11,1327.184,242.229L1327.184,242.229z M1327.184,334.148v5.477
	c-1.031-0.377-2.354-0.37-4.095,0.278c-1.059,0.392-1.891,0.486-2.504,0.376v-3.865c0.504-0.495,1.147-0.969,1.939-1.373
	C1324.126,334.229,1325.705,334.139,1327.184,334.148L1327.184,334.148z M1327.184,343.023v5.119l-0.121,0.129
	C1325.04,350.492,1324.216,343.456,1327.184,343.023L1327.184,343.023z M1327.184,521.259v16.69
	c-4.914-7.921-8.348-16.38-3.472-16.804C1324.701,521.036,1325.877,521.094,1327.184,521.259L1327.184,521.259z M1327.184,589.448
	v79.487c-1.964-4.874-3.413-7.906-5.003-5.258c-1.891,3.148,0.134,5.513-1.596,4.662v-83.755
	C1321.686,587.322,1323.254,588.643,1327.184,589.448L1327.184,589.448z M1320.588,351.917v-6.372
	C1321.957,346.952,1322.552,349.384,1320.588,351.917z M1320.588,121.771v112.055c-6.936,2.037-5.915,9.1,0,8.957v57.246
	c-2.103,2.731-4.592,5.035-7.667,6.455c-2.113,0.977-4.089,1.462-5.923,1.695V122.813c1.776-0.642,3.737-1.089,5.923-1.089
	C1316.003,121.724,1318.472,121.78,1320.588,121.771L1320.588,121.771z M1320.588,336.415v3.865
	C1318.906,339.97,1318.913,338.074,1320.588,336.415L1320.588,336.415z M1320.588,345.545v6.372
	c-0.317,0.411-0.704,0.826-1.168,1.239c-5.35,4.774-6.864-9.631-2.301-8.723C1318.233,344.051,1319.609,344.535,1320.588,345.545
	L1320.588,345.545z M1320.588,584.585v83.757c-1.052-0.521-3.486-2.227-9.044-5.676c-1.584-0.984-3.101-1.801-4.546-2.478v-96.508
	c0.157,0.067,0.32,0.14,0.493,0.227c6.078,3.038,9.621,7.596,11.649,15.7C1319.653,581.652,1320.065,583.28,1320.588,584.585
	L1320.588,584.585z M1306.999,529.659v-7.08c3.97,2.107,8.895,7.806,3.515,7.806C1309.334,530.386,1308.131,530.11,1306.999,529.659
	z M1306.999,122.813v185.366c-3.506,0.445-6.501-0.043-8.992,0.136V127.082C1300.428,126.316,1303.313,124.145,1306.999,122.813
	L1306.999,122.813z M1306.999,522.579v7.08c-5.197-2.069-8.928-7.851-2.424-7.851
	C1305.246,521.809,1306.097,522.101,1306.999,522.579L1306.999,522.579z M1306.999,563.68v96.508
	c-3.348-1.565-6.331-2.369-8.992-2.695v-87.615C1303.058,568.909,1301.877,561.525,1306.999,563.68L1306.999,563.68z
	 M1298.008,364.936v-6.943c0.104,0.047,0.215,0.102,0.322,0.165c2.096,0.786,5.764,10.221-0.265,6.813L1298.008,364.936z
	 M1298.008,127.082v181.233c-2.306,0.166-4.181,0.905-5.616,3.492c-3.515,6.33-2.479,10.057-8.926,11.783V115.135
	c3.696,1.316,6.6,3.439,8.166,7.349C1293.506,127.17,1295.508,127.876,1298.008,127.082L1298.008,127.082z M1298.008,357.995v6.942
	C1292.267,361.646,1294.992,356.685,1298.008,357.995L1298.008,357.995z M1298.008,569.878v87.615
	c-6.656-0.817-11.299,1.351-14.542,2.073v-83.953c2.877,3.004,2.382,7.386,5.792,6.021c5.064-2.027,1.014-11.649,7.599-11.649
	C1297.275,569.983,1297.658,569.947,1298.008,569.878L1298.008,569.878z M1283.466,396.63v-6.373
	c2.002-0.636,3.444,0.496,3.017,2.621C1286.132,394.647,1284.914,396.675,1283.466,396.63L1283.466,396.63z M1283.466,355.904
	v-22.783c0.468,0.694,0.917,1.446,1.324,2.254c3.8,7.605,10.644,19.01,3.041,20.53
	C1286.204,356.23,1284.752,356.206,1283.466,355.904L1283.466,355.904z M1283.466,113.774c1.765,0.23,3.611,0.439,5.574,0.683
	c8.486,1.062,3.39-8.255-3.21-7.656c-0.745,0.07-1.539-0.019-2.364-0.216V113.774z M1283.466,106.585v7.189
	c-2.179-0.286-4.225-0.607-6.187-1.082v-8.895C1279.436,105.031,1281.547,106.118,1283.466,106.585L1283.466,106.585z
	 M1283.466,115.135c-1.881-0.67-3.968-1.129-6.187-1.51v236.833c1.298,2.713,3.33,4.772,6.187,5.446v-22.783
	c-3.918-5.826-9.189-7.791-1.718-9.148c0.627-0.116,1.196-0.241,1.718-0.382V115.135L1283.466,115.135z M1283.466,390.257v6.373
	c-0.53-0.018-1.096-0.313-1.66-1.01c-2.1-2.582-1.936-4.193,0.807-5.001C1282.905,390.462,1283.193,390.344,1283.466,390.257
	L1283.466,390.257z M1283.466,575.612v83.953c-0.094,0.021-0.19,0.041-0.284,0.061c-1.496,0.3-3.611,0.025-5.902-0.316v-86.244
	C1280.36,573.274,1282.227,574.313,1283.466,575.612z M1277.28,103.799v8.895c-2.876-0.692-5.57-1.712-8.241-3.423v-9.919
	C1271.66,100.392,1274.509,102.212,1277.28,103.799L1277.28,103.799z M1277.28,113.625c-2.604-0.449-5.393-0.787-8.241-1.223
	v223.684c2.829,2.201,6.177,4.386,6.627,8.416c0.237,2.128,0.767,4.183,1.614,5.958V113.625L1277.28,113.625z M1277.28,573.064
	v86.244c-2.753-0.41-5.757-0.913-8.241-0.626v-72.552c4.138-3.306-2.633-13.108,7.054-13.108
	C1276.504,573.022,1276.902,573.038,1277.28,573.064L1277.28,573.064z M1269.039,555.411v-5.913
	c2.342-1.156,4.183-0.024,3.708,2.342C1272.34,553.886,1270.776,556.276,1269.039,555.411L1269.039,555.411z M1269.039,485.923
	v-13.037c4.087-1.294,7.038,1.015,6.168,5.364C1274.485,481.869,1271.998,486.014,1269.039,485.923z M1269.039,99.35v9.92
	c-0.407-0.257-0.806-0.53-1.206-0.819c-6.367-4.597-8.84-9.545-4.806-9.449C1264.748,98.142,1266.811,98.465,1269.039,99.35
	L1269.039,99.35z M1269.039,112.401v223.684c-1.981-1.536-3.706-3.083-4.018-5.272c-0.61-4.257-1.703-9-8.344-10.728V109.278
	c0.246,0.091,0.492,0.184,0.738,0.281C1261.212,111.034,1265.183,111.809,1269.039,112.401L1269.039,112.401z M1269.039,472.886
	v13.037c-1.092-0.033-2.248-0.642-3.399-2.062c-4.292-5.279-3.961-8.582,1.648-10.23
	C1267.887,473.31,1268.474,473.065,1269.039,472.886L1269.039,472.886z M1269.039,549.498v5.913
	c-0.321-0.162-0.646-0.427-0.971-0.828c-2.096-2.583-1.938-4.197,0.805-5.002L1269.039,549.498L1269.039,549.498z M1269.039,586.131
	v72.552c-2.447,0.281-4.395,1.326-5.102,3.982c-1.109,4.161-3.89,6.194-7.26,7.1v-80.994c1.181-0.99,3.571-1.567,8.273-1.567
	C1266.912,587.203,1268.197,586.799,1269.039,586.131L1269.039,586.131z M1256.677,527.83v-7.039
	c3.171,3.17,5.558,7.286,1.702,7.286C1257.809,528.077,1257.239,527.988,1256.677,527.83L1256.677,527.83z M1256.677,454.107v-7.944
	c3.071,1.347,5.401,4.747,2.028,7.34C1258.053,454.006,1257.361,454.177,1256.677,454.107L1256.677,454.107z M1256.677,435.987
	v-9.837C1260.099,428.702,1261.253,435.187,1256.677,435.987L1256.677,435.987z M1256.677,411.587v-10.544
	c6.271,0.313,4.603,11.202,0.051,10.55L1256.677,411.587z M1256.677,109.278v210.808c-1.66-0.432-3.668-0.676-6.104-0.676
	c-12.164,0-14.446,12.167-6.842,12.167c7.603,0-3.042,16.726,3.04,23.569c6.083,6.844,12.922,20.529,6.844,26.612
	c-6.086,6.082-7.607,15.206-13.688,18.249c-6.079,3.041-19.007,13.686-29.654,13.686c-1.378,0-2.839,0.102-4.316,0.306V103.071
	c2.993-0.605,6.787-0.573,11.923,0.406C1233.556,106.464,1243.373,104.319,1256.677,109.278L1256.677,109.278z M1256.677,401.043
	c-0.09-0.004-0.183-0.006-0.279-0.006c-5.916-0.986-4.301,9.814,0.279,10.55V401.043L1256.677,401.043z M1256.677,426.15v9.837
	c-0.555,0.098-1.196,0.112-1.932,0.024c-8.246-0.989-9.566-10.558-0.986-10.889C1254.836,425.124,1255.828,425.516,1256.677,426.15
	L1256.677,426.15z M1256.677,446.163v7.944c-3.799-0.386-7.343-8.246-2.588-8.525
	C1254.941,445.582,1255.834,445.797,1256.677,446.163L1256.677,446.163z M1256.677,520.791v7.039
	c-5.613-1.59-10.357-10.344-5.558-10.643C1252.392,517.188,1254.689,518.803,1256.677,520.791L1256.677,520.791z M1256.677,588.771
	v80.993c-2.784,0.747-5.967,0.726-8.948,0.498c-6.584-0.507-11.65,5.572-16.206,2.532c-4.558-3.039,3.545-8.104-1.521-19.75
	c-5.063-11.65-4.557-24.311-8.101-30.391c-3.545-6.075,1.01-19.244,13.671-19.751c12.663-0.505,20.257-3.038,20.257-7.596
	C1255.832,592.588,1254.932,590.229,1256.677,588.771L1256.677,588.771z M1205.958,547.586v-5.984c7.976,0.913,11.409,6,1.026,6
	C1206.635,547.603,1206.293,547.598,1205.958,547.586L1205.958,547.586z M1205.958,519.319v-12.571
	c1.145-1.134,2.739-2.276,4.905-3.421c11.88-6.269,15.839-18.478,23.429-18.478c4.616-0.331,4.948,6.6,3.629,14.848
	c-1.32,8.251-13.861,29.7-18.152,29.369c-4.29-0.331-10.888-3.96-13.197-8.579C1206.382,520.108,1206.174,519.719,1205.958,519.319
	L1205.958,519.319z M1205.958,428.188v-8.315c3.664,0.597,4.768,9.828,0.613,8.55
	C1206.357,428.356,1206.152,428.278,1205.958,428.188L1205.958,428.188z M1205.958,92.955V79.079
	c2.902,0.471,5.857,0.829,8.881,0.829c9.886,0,1.521,10.645-8.362,12.925C1206.302,92.872,1206.126,92.914,1205.958,92.955z
	 M1205.958,79.079v13.876c-9.711,2.374-19.33,8.375-23.813,15.845c-4.563,7.604,4.561,9.885,10.646,3.801
	c4.124-4.127,6.853-8.25,13.167-9.53v310.925c-9.917,1.352-20.741,7.16-15.45,16.423c6.083,10.643,10.646,18.247,11.404,22.81
	c0.762,4.56-7.602,8.364-12.162,16.727c-4.563,8.363-10.646,3.8-16.728-3.041c-1.377-1.546-2.905-3.092-4.45-4.489V80.848
	c2.113-6.363,0.461-15.206,9.771-16.148c13.686,0-0.76,12.926,8.365,12.166C1193.038,76.337,1199.371,78.006,1205.958,79.079
	L1205.958,79.079z M1205.958,419.873c-0.123-0.021-0.248-0.029-0.376-0.029c-4.388,0.629-3.417,6.617,0.376,8.345V419.873
	L1205.958,419.873z M1205.958,506.748v12.571C1203.999,515.729,1201.329,511.321,1205.958,506.748L1205.958,506.748z
	 M1205.958,541.603v5.984c-10.631-0.38-14.388-6.549-2.482-6.125C1204.341,541.462,1205.169,541.513,1205.958,541.603
	L1205.958,541.603z M1168.572,534.361v-27.188c9.928,7.499,18.822,20.683,19.115,28.587
	C1188.039,545.239,1176.869,540.949,1168.572,534.361L1168.572,534.361z M1168.572,500.462c5.354,4.391,10.532,12.968,10.532,3.707
	c0-7.633-5.473-16.047-10.532-21.037V500.462z M1168.572,80.848v381.578c-5.292-4.785-10.758-7.821-10.758-3.116
	c0,6.084,0,17.488,5.318,19.77c1.508,0.645,3.442,2.083,5.437,4.055v17.33c-0.798-0.657-1.601-1.22-2.395-1.615
	c-6.083-3.04-3.8-15.966-9.883-19.77c-6.083-3.802-9.123-7.603-3.803-18.249c5.323-10.644-0.76-17.486-9.883-17.486
	c-7.734,0-3.997-9.834-7.31-15.608V83.576c9.351-1.362,11.163,3.401,15.74,0.958c5.049-2.692,14.469,3.699,17.162-2.692
	C1168.336,81.518,1168.459,81.186,1168.572,80.848L1168.572,80.848z M1168.572,507.174v27.188c-2.066-1.645-3.956-3.429-5.446-5.178
	c-7.454-8.772-20.611-26.753-9.207-27.629C1158.436,501.115,1163.633,503.442,1168.572,507.174L1168.572,507.174z M1135.299,481.999
	c1.448,0.045,2.663-1.984,3.019-3.751c0.424-2.128-1.02-3.257-3.019-2.624V481.999L1135.299,481.999z M1135.299,49.784V37.92
	c0.272-0.023,0.561-0.019,0.865,0.016c5.225-3.733,25.373-2.986,18.281-1.494c-7.087,1.494-8.205,14.18-16.043,14.18
	C1137.213,50.621,1136.178,50.308,1135.299,49.784z M1135.299,37.919v11.863C1130.671,47.016,1130.479,38.309,1135.299,37.919
	L1135.299,37.919z M1135.299,83.576v344.159c-0.598-1.037-1.416-1.944-2.574-2.639c-7.605-4.564-15.969-9.887-26.617-3.803
	c-10.642,6.085-22.808,17.488-26.608,18.247c-0.581,0.119-1.02,0.501-1.353,1.09V120.3c1.914,2.123,2.975,5.148,3.812,7.497
	c1.594,4.466,11.329,13.083,14.995,18.986c3.672,5.903,6.386,7.658,6.386,2.233c0-5.424-4.786-12.445-7.978-14.678
	c-3.189-2.234,0.955-14.839-6.223-17.872c-7.181-3.031-11.968-11.968-2.874-13.083c9.097-1.119,10.937-2.024,15.307-6.398
	c4.377-4.375,18.51-9.758,30.625-12.787C1133.318,83.917,1134.348,83.716,1135.299,83.576L1135.299,83.576z M1135.299,475.624v6.374
	c-0.533-0.018-1.099-0.313-1.662-1.01c-2.098-2.581-1.938-4.193,0.805-5.003C1134.738,475.832,1135.024,475.709,1135.299,475.624
	L1135.299,475.624z M1078.147,483.04v-12.953c4.814,0.648,8.141,10.456,1.776,12.719
	C1079.301,483.03,1078.708,483.096,1078.147,483.04z M1078.147,120.3v320.331c-1.858,3.278-0.517,12.998-2.449,19.44
	c-2.283,7.603-6.083,13.686-11.406,12.926c-3.45-0.495-7.861-8.338-12.401-16.074V151.089c0.409-0.303,0.967-0.471,1.756-0.471
	c5.323,0,10.646,9.124,18.249,9.124c7.603,0,0.761-11.405-7.604-15.207c-4.086-1.857-8.901-2.082-12.401-2.535v-27.183
	c4.538-0.462-5.882,16.886,7.839,10.711c15.206-6.842,3.041-6.084,10.646-7.603C1073.985,117.202,1076.416,118.383,1078.147,120.3
	L1078.147,120.3z M1078.147,470.087c-0.383-0.052-0.772-0.05-1.168,0.024c-6.691-0.947-4.457,12.354,1.168,12.929V470.087
	L1078.147,470.087z M1051.892,508.627v-5.614l0.127-0.04c2.418-1.29,4.357-0.162,3.872,2.259
	C1055.461,507.391,1053.747,509.933,1051.892,508.627L1051.892,508.627z M1051.892,497.569v-3.977
	c0.535,0.472,0.774,1.276,0.566,2.315C1052.346,496.46,1052.15,497.038,1051.892,497.569L1051.892,497.569z M1051.892,490.338
	v-6.375c2-0.632,3.444,0.498,3.017,2.623C1054.555,488.357,1053.337,490.385,1051.892,490.338z M1051.892,114.816v27.183
	c-1.031-0.132-1.946-0.288-2.699-0.507v-25.435c0.211-0.141,0.425-0.28,0.655-0.415
	C1050.738,115.122,1051.403,114.867,1051.892,114.816L1051.892,114.816z M1051.892,151.089v305.832
	c-0.896-1.528-1.798-3.049-2.699-4.511V157.809C1050.859,154.934,1050.437,152.165,1051.892,151.089L1051.892,151.089z
	 M1051.892,483.963v6.375c-0.53-0.015-1.096-0.313-1.66-1.006c-0.453-0.557-0.798-1.069-1.039-1.536v-2.45
	c0.365-0.424,0.973-0.762,1.846-1.02C1051.331,484.172,1051.617,484.053,1051.892,483.963L1051.892,483.963z M1051.892,493.593
	v3.977c-0.617,1.27-1.604,2.275-2.699,2.063v-6.26C1050.321,492.943,1051.291,493.058,1051.892,493.593L1051.892,493.593z
	 M1051.892,503.012v5.614c-0.226-0.156-0.454-0.373-0.68-0.65C1049.146,505.433,1049.271,503.829,1051.892,503.012L1051.892,503.012
	z M1049.193,481.797v-3.146c0.357,0.485,0.494,1.183,0.319,2.047C1049.438,481.062,1049.332,481.434,1049.193,481.797z
	 M1049.193,116.057v25.435c-1.914-0.564-2.744-1.566-1.626-3.799c1.483-2.97-0.112-7.025-1.074-11.018v-7.509
	C1046.999,118.021,1047.854,116.971,1049.193,116.057L1049.193,116.057z M1049.193,157.809V452.41
	c-0.901-1.467-1.805-2.87-2.697-4.152V160.802C1047.763,159.838,1048.61,158.816,1049.193,157.809L1049.193,157.809z
	 M1049.193,478.651v3.146c-0.539,1.414-1.546,2.689-2.697,2.654v-6.375C1047.683,477.702,1048.673,477.946,1049.193,478.651
	L1049.193,478.651z M1049.193,485.347v2.45C1048.673,486.781,1048.663,485.972,1049.193,485.347L1049.193,485.347z
	 M1049.193,493.372v6.26c-0.456-0.089-0.937-0.392-1.413-0.98c-0.646-0.788-1.076-1.488-1.284-2.104v-1.497
	c0.283-0.611,0.971-1.072,2.089-1.403C1048.792,493.54,1048.994,493.448,1049.193,493.372L1049.193,493.372z M1046.496,462.099
	v-5.121c0.863,0.368,1.316,1.306,1.056,2.626C1047.376,460.463,1047,461.383,1046.496,462.099z M1046.496,119.165v7.509
	C1045.858,124.031,1045.502,121.417,1046.496,119.165L1046.496,119.165z M1046.496,160.802c-0.919,0.698-2.061,1.367-3.491,1.981
	c-10.646,4.56-14.446-0.76-9.126-7.605c5.322-6.843,8.365-11.405,6.085-23.571c-2.282-12.166,0-23.569-7.604-22.049
	c-7.602,1.521-12.926,20.53-12.926,27.372c0,6.842,5.324,9.124-3.799,9.124c-9.125,0-12.165-9.124-19.011-9.124
	c-6.842,0-1.521,7.604-8.362,7.604c-5.073,0-12.654,1.673-20.264,4.086v164.309c21.292,5.573,13.945,17.16,0,21.712v57.486
	c1.913,0.421,3.865,1.135,5.815,2.555c8.367,6.081,6.085,0,19.773,0c13.685,0,12.923-1.521,23.568,7.602
	c10.644,9.125,16.724,12.167,23.568,12.167c6.846,0-3.04,22.811,3.805,31.173c0.648,0.796,1.306,1.682,1.968,2.635V160.802
	L1046.496,160.802z M1046.496,456.977v5.122c-0.919,1.296-2.271,1.913-3.625,0.248c-2.096-2.582-1.936-4.196,0.809-5.001
	C1044.778,456.758,1045.778,456.673,1046.496,456.977L1046.496,456.977z M1046.496,478.076v6.375
	c-0.532-0.02-1.098-0.314-1.662-1.009c-2.098-2.583-1.937-4.195,0.808-5.002C1045.932,478.283,1046.218,478.164,1046.496,478.076
	L1046.496,478.076z M1046.496,495.051v1.497C1046.298,495.976,1046.296,495.476,1046.496,495.051L1046.496,495.051z
	 M967.998,536.946v-6.373c1.998-0.632,3.44,0.497,3.018,2.624C970.659,534.965,969.445,536.993,967.998,536.946L967.998,536.946z
	 M967.998,434.381v-36.486c5.299,0.164,10.376,2.361,13.42,5.911c4.563,5.322-10.646,23.573-12.925,29.655
	C968.374,433.775,968.207,434.08,967.998,434.381L967.998,434.381z M967.998,131.706V98.413c7.662-5.167,5.335-20.026,20.576-20.026
	c17.186,0,6.873-9.453,26.638-4.296c11.172-0.859,1.717,12.89-7.734,12.89s-31.792,18.904-34.371,28.356
	C971.297,121.977,971.181,130.312,967.998,131.706z M967.998,98.413v33.292c-1.156,0.506-2.717,0.096-4.908-1.638v-29.8
	c0.455-0.157,0.928-0.291,1.423-0.397C965.875,99.577,967.016,99.074,967.998,98.413L967.998,98.413z M967.998,148.62v164.31
	l-0.042-0.012c-1.886-0.493-3.494-1.024-4.866-1.587V150.277C964.71,149.697,966.354,149.142,967.998,148.62L967.998,148.62z
	 M967.998,334.641v57.487c-1.677-0.364-3.318-0.501-4.908-0.684v-55.559C964.787,335.573,966.432,335.151,967.998,334.641
	L967.998,334.641z M967.998,397.895v36.486c-0.919,1.317-2.675,2.527-4.908,3.663v-39.707
	C964.71,397.986,966.363,397.843,967.998,397.895L967.998,397.895z M967.998,530.573v6.373c-0.534-0.014-1.1-0.313-1.664-1.006
	c-2.097-2.581-1.936-4.195,0.809-5.003C967.434,530.78,967.72,530.66,967.998,530.573L967.998,530.573z M963.089,486.904v-6.375
	c1.999-0.634,3.444,0.498,3.017,2.624C965.755,484.923,964.536,486.947,963.089,486.904z M963.089,100.267v29.801
	c-0.367-0.291-0.75-0.616-1.154-0.981C952.873,120.846,952.5,103.92,963.089,100.267L963.089,100.267z M963.089,150.277v161.054
	c-14.507-5.945-2.577-15.391-8.83-18.604V146.531c7.38-0.722-3.395,8.409,5.868,4.845
	C961.103,151.003,962.094,150.634,963.089,150.277L963.089,150.277z M963.089,335.886v55.56c-3.25-0.369-6.267-0.924-8.83-3.986
	v-50.976C957.251,336.642,960.244,336.415,963.089,335.886L963.089,335.886z M963.089,398.337v39.707
	c-2.513,1.28-5.63,2.467-8.83,3.61v-43.101c1.883,1.125,3.849,1.499,5.868,0.691C961.096,398.858,962.084,398.559,963.089,398.337
	L963.089,398.337z M963.089,480.529v6.375c-0.535-0.017-1.097-0.313-1.66-1.009c-2.1-2.582-1.938-4.195,0.805-5.001
	C962.528,480.737,962.816,480.617,963.089,480.529L963.089,480.529z M954.259,463.845v-6.375c1.997-0.632,3.441,0.497,3.017,2.623
	C956.922,461.863,955.707,463.893,954.259,463.845z M954.259,146.532v146.195c-2.432-1.248-7.596-1.556-18.122-0.354
	c-2.21,1.657-4.059,3.313-5.507,4.983V158.411c5.663-4.739,12.625-9.609,21.894-11.595
	C953.19,146.672,953.765,146.582,954.259,146.532L954.259,146.532z M954.259,336.484v50.975c-0.891-1.061-1.722-2.42-2.494-4.18
	c-5.323-12.166-15.208-9.884-10.646-2.284c3.351,5.586,7.931,14.448,13.14,17.561v43.101c-5.952,2.125-12.198,4.104-15.419,6.249
	c-2.574,1.718-5.365,4.511-8.21,6.477V313.843c0.83,0.96,1.805,1.936,2.937,2.928c10.274,8.988-5.136,15.409,16.696,19.26
	C951.584,336.265,952.922,336.412,954.259,336.484L954.259,336.484z M954.259,457.47v6.375c-0.534-0.018-1.098-0.313-1.664-1.009
	c-2.096-2.583-1.935-4.195,0.81-5.001C953.698,457.679,953.984,457.558,954.259,457.47L954.259,457.47z M930.63,630.042v-54.095
	c3.522-4.348,7.123-8.044,9.955-8.263c8.834-0.49,8.834,10.302,2.943,15.21c-5.887,4.905,5.888,29.437-0.49,31.892
	C938.559,616.507,935.045,624.771,930.63,630.042L930.63,630.042z M930.63,495.029c5.833-7.74,11.278-16.395,14.289-23.553
	c6.083-14.446-3.04-13.687-11.401-10.646c-0.946,0.345-1.908,0.601-2.888,0.771V495.029z M930.63,158.411v138.946
	c-4.535,5.237-5.06,10.602,0,16.486v140.536c-4.715,3.26-9.572,4.244-13.842-5.713c-0.402-0.938-0.832-1.885-1.29-2.831v-281.54
	c7.914-0.343-3.192-18.241,5.094-18.241c8.363,0,1.521,19.768,7.6,14.447C928.979,159.813,929.792,159.114,930.63,158.411
	L930.63,158.411z M930.63,461.602c-4.786,0.834-9.957-0.359-15.132-3.328v53.61c4.388-3.743,9.916-9.935,15.132-16.855V461.602
	L930.63,461.602z M930.63,575.947v54.095c-1.87,2.234-3.898,3.929-6.235,4.367c-7.849,1.47-4.415-16.683-8.83-21.59l-0.066-0.075
	V596.26c1.077-2.907,2.505-5.343,3.991-6.498C921.946,587.854,926.222,581.391,930.63,575.947L930.63,575.947z M915.499,570.802
	v-6.373c2.001-0.636,3.441,0.493,3.019,2.623C918.162,568.818,916.947,570.846,915.499,570.802z M915.499,164.295v281.541
	c-7.305-15.183-21.07-31.474-26.078-45.072c-5.326-14.443-10.646-23.569-15.97-22.811c-5.32,0.762,6.845,28.135,12.165,38.019
	c5.323,9.886,11.404,25.853,20.529,34.975c3.062,3.063,6.208,5.523,9.354,7.327v53.61c-0.607,0.519-1.192,0.989-1.749,1.409
	c-9.125,6.843-11.407,22.811-16.729,25.09c-5.321,2.281,1.521,6.081,4.563,12.164c3.042,6.082,3.802,25.852,0,33.456
	c-3.801,7.603-10.644,16.726-16.728,17.487c-6.083,0.76-6.841,11.406-2.278,14.447c4.56,3.039-1.521,9.884-10.646,10.644
	c-9.125,0.76,0.759,28.131-7.604,28.894c-8.363,0.758-18.248,11.404-30.412,12.922c-11.124,1.392-24.15,5.956-30.369-0.822V366.953
	c5.282,2.33,10.207,3.142,12.119-1.164c3.042-6.844,12.928-4.562,21.29-3.041c8.362,1.519,22.81,4.562,30.412,3.8
	c7.605-0.759,15.208-7.604,15.969-14.445c0.758-6.845-9.886-8.364-22.811-8.364s-18.247-2.281-15.967-9.883
	c2.282-7.604,6.083-14.446,12.926-17.487c6.843-3.042,12.927-4.562,19.769-4.562c6.841,0,15.966,5.321,24.331,4.562
	c8.364-0.76,5.32-8.364-3.042-12.926s-9.884-11.405-6.081-15.207c3.802-3.8,1.521-7.603-5.323-3.8
	c-6.843,3.8-16.727,13.686-19.006,7.604c-2.283-6.083-19.011-0.76-19.011,8.363c0,9.125,2.284,10.645-0.758,16.728
	c-3.044,6.083-9.888,10.646-15.968,9.885c-6.085-0.76,0.76,10.644-5.324,13.685c-6.081,3.042-9.122-4.562-12.924-12.164
	c-3.787-7.574-6.819-12.131-10.6-16.674V237.08c5.075,1.679,9.36,3.96,13.641,0.214c6.084-5.321-4.562-14.447,4.56-14.447
	c9.125,0,16.728,0.76,9.886-6.082c-6.844-6.843,2.279-3.041,9.883-6.843c7.604-3.801,6.845-9.885-2.278-8.364
	c-9.127,1.521-16.727,6.844-20.531-2.28c-3.8-9.125,7.604-19.77,13.688-26.613c6.08-6.843-9.886-9.882-12.168-1.52
	c-2.28,8.364-11.403,12.166-14.447,20.529c-3.042,8.364,8.364,15.968,2.283,22.05c-1.773,1.773-3.224,3.608-4.518,5.32v-80.599
	c1.82-1.119,3.596-1.916,5.276-2.275c10.646-2.282,25.852-15.967,38.019-10.645c12.164,5.322,16.725,3.801,25.85,10.645
	c9.125,6.844,8.364,10.645,18.25,12.166c9.883,1.521,12.164,14.447,0,14.447c-12.167,0-19.771-6.845-24.331-3.042
	c-4.563,3.8,4.563,7.603,9.123,12.924c4.56,5.322,12.924,9.124,16.727,6.844c3.802-2.281-7.604-9.884,0.76-7.603
	c8.363,2.28,16.728,3.041,11.405-1.521s2.28-6.083,10.643-6.083C915.348,164.301,915.422,164.298,915.499,164.295L915.499,164.295z
	 M915.499,564.427c-0.275,0.086-0.563,0.208-0.855,0.363c-2.744,0.807-2.904,2.42-0.807,5.001c0.563,0.695,1.129,0.992,1.662,1.01
	V564.427L915.499,564.427z M915.499,596.26c-2.104,5.686-2.852,13.189,0,16.484V596.26L915.499,596.26z M803.546,321.371
	c0.596-2.842,0.864-5.824,0-7.688V321.371L803.546,321.371z M803.546,74.993V44.791c1.288,0.533,2.784,1.13,4.574,1.801
	c18.044,0,12.889,4.298,21.483,10.313c8.593,6.014-2.579,20.623-14.609,12.029C805.063,61.841,808.012,74.653,803.546,74.993z
	 M803.546,44.791v30.202c-0.946,0.072-2.221-0.412-4.019-1.761c-10.315-7.735-12.033-13.751-0.859-14.609
	c11.171-0.86-10.314-9.452-15.47-3.438c-5.155,6.015-16.328-14.608-0.859-14.608C795.794,40.578,794.947,41.229,803.546,44.791
	L803.546,44.791z M803.546,138.446v80.599c-3.151,4.168-5.398,7.605-9.17,7.605c-5.32,0-9.885,11.404-12.165,3.801
	c-2.278-7.604-6.843-15.966-12.166-12.167c-5.322,3.802-4.562,16.728-11.402,6.084c-6.844-10.644-12.926-25.851-5.323-34.214
	c7.603-8.364,18.248-15.207,24.333-23.571C782.774,159.54,793.827,144.408,803.546,138.446L803.546,138.446z M803.546,237.08
	c-2.136-0.706-4.412-1.308-6.887-1.308c-8.363,0-10.647,3.802-20.531,3.802c-9.885,0-6.083-6.843-12.166-6.843
	c-6.083,0-4.562,11.405-9.883,16.727c-4.649,4.648-12.195,10.455-20.11,13.371v60.952c3.629-1.216,4.694-8.184,2.623-15.778
	c-2.281-8.364,12.167-5.322,24.331-5.322c12.166,0,13.686,8.363,22.048,11.405c8.367,3.042,9.125,10.645,9.125,21.289
	c0,10.646,8.365-3.799,9.886-8.362c0.481-1.449,1.117-3.505,1.566-5.642v-7.688c-0.535-1.152-1.501-1.876-3.087-1.876
	c-6.083,0-7.602-2.282-12.928-7.605c-5.32-5.323-0.758-8.364,4.563-3.802c5.321,4.561,7.604,6.843,11.407,11.407l0.045,0.054V237.08
	H803.546z M803.546,366.953v300.622c-0.584-0.637-1.109-1.369-1.565-2.217c-5.321-9.884,3.8-15.966-5.321-26.613
	c-9.127-10.644-3.802-19.769-10.647-29.652c-6.842-9.885-13.685-27.369-6.842-36.494c6.842-9.125,9.884-15.969,3.802-18.248
	c-6.081-2.283,3.04-12.926-5.322-18.25c-8.365-5.321-13.687-19.769-10.645-26.612c3.041-6.842,3.802-18.246-6.083-18.246
	c-7.299,0-17.917-4.146-26.953-5.092V341.101c4.485-1.719,9.054-3.444,16.308-3.444c14.447,0,25.094-5.322,23.571,6.083
	c-1.52,11.404,12.927,13.685,20.529,18.249C797.195,363.679,800.433,365.58,803.546,366.953L803.546,366.953z M733.969,256.691
	v-6.375c2-0.633,3.443,0.497,3.017,2.624C736.632,254.709,735.417,256.737,733.969,256.691z M733.969,250.316v6.375
	c-0.534-0.017-1.097-0.313-1.662-1.007c-2.099-2.584-1.938-4.197,0.806-5.003C733.407,250.524,733.694,250.403,733.969,250.316
	L733.969,250.316z M733.969,262.83v60.952c-0.368,0.125-0.76,0.189-1.18,0.189c-1.264,0-2.581,0.057-3.814,0.254v-59.971
	c0.487-0.101,1-0.215,1.532-0.349C731.665,263.616,732.821,263.254,733.969,262.83L733.969,262.83z M733.969,341.101v145.051
	c-1.735-0.181-3.41-0.242-4.993-0.135V342.89C730.712,342.35,732.334,341.726,733.969,341.101L733.969,341.101z M728.977,231.222
	v-6.374c1.998-0.636,3.442,0.496,3.017,2.623C731.639,229.238,730.422,231.268,728.977,231.222z M728.977,224.847v6.374
	c-0.532-0.017-1.098-0.313-1.662-1.009c-2.099-2.581-1.937-4.195,0.807-5.002C728.413,225.055,728.699,224.934,728.977,224.847
	L728.977,224.847z M728.977,264.255v59.972c-3.228,0.514-5.861,1.978-5.311,5.829c0.76,5.32-1.521,4.56-5.322,7.603
	c-1.811,1.45-4.138,3.068-6.736,3.958v-36.512c6.319-2.042,10.186-8.733,4.455-13.826c-6.843-6.083-4.561-14.445-0.76-21.289
	C718.882,263.546,721.112,265.865,728.977,264.255L728.977,264.255z M728.977,342.89v143.127c-1.337,0.09-2.608,0.3-3.791,0.664
	c-5.055,1.555-9.514,2.911-13.58,4.174V345.037c1.876-0.335,4.076-0.538,6.737-0.538C722.654,344.5,725.984,343.822,728.977,342.89
	L728.977,342.89z M711.606,264.411c2.675-1.146,5.664-2.134,8.864-2.134c11.17,0-0.86-18.904,0.859-24.919
	c1.646-5.763,0.925-20.203-9.723-19.888V264.411z M711.606,217.469v46.942c-6.667,2.854-11.393,6.698-12.621-1.274
	c-1.718-11.171-2.579-10.312,7.733-14.607c10.314-4.297-4.294-31.795,3.44-30.935C710.659,217.522,711.142,217.483,711.606,217.469
	L711.606,217.469z M711.606,305.104v36.512c-2.858,0.979-6.043,1.074-9.231-0.917c-3.036-1.897-7.588-1.331-11.387-1.235v-35.254
	c6.94,0.1,8.641,1.515,16.71,1.515C709.058,305.723,710.379,305.501,711.606,305.104L711.606,305.104z M711.606,345.037v145.817
	c-3.882,1.203-7.407,2.315-10.749,3.432c-2.644,0.88-6.078-0.62-9.869-3.363v-138.01c1.391-0.708,2.915-1.245,4.545-1.57
	C701.658,350.119,703.837,346.428,711.606,345.037L711.606,345.037z M690.988,260.679c1.761-0.538,3.466-1.953,4.56-4.416
	c3.437-7.733,3.437-21.485-3.436-20.624c-0.394-0.056-0.768-0.097-1.124-0.125V260.679L690.988,260.679z M690.988,130.308v-8.962
	c0.585-0.054,1.243-0.056,1.981,0.007c6.015,0,10.312,10.311,2.579,10.311C693.861,131.663,692.297,131.131,690.988,130.308z
	 M690.988,121.346v8.962C686.732,127.631,685.195,121.876,690.988,121.346L690.988,121.346z M690.988,235.515v25.165
	c-3.765,1.15-7.781-1.723-6.61-6.993C686.04,246.203,680.468,234.704,690.988,235.515L690.988,235.515z M690.988,304.208v35.254
	c-3.81,0.096-6.859-0.278-6.859-4.087c0-7.602-5.321-10.644-1.521-17.487c3.802-6.844,0-13.686,7.603-13.686
	C690.477,304.203,690.736,304.205,690.988,304.208L690.988,304.208z M690.988,352.913v138.01
	c-6.028-4.359-12.956-11.858-19.025-17.926c-4.431-4.432-10.54-9.933-15.251-15.268v-52.822c3.402-6.418,5.856-22.441,12.97-23.151
	c7.604-0.763,12.926-9.123,12.926-15.966C682.607,360.413,685.893,355.506,690.988,352.913L690.988,352.913z M656.713,362.261
	c1.449,0.045,2.664-1.982,3.019-3.752c0.426-2.126-1.019-3.258-3.019-2.622V362.261L656.713,362.261z M656.713,182.578v-18.183
	c7.815,0.082,11.226,7.049,6.183,12.812C661.28,179.053,659.17,180.958,656.713,182.578L656.713,182.578z M656.713,39.462V27.468
	c8.749-0.295,24.486,9.469,13.625,10.749C666.193,38.704,661.224,39.026,656.713,39.462z M656.713,27.468v11.994
	c-1.639,0.161-3.217,0.333-4.675,0.536V28.931c0.574-0.256,1.147-0.526,1.715-0.81C654.578,27.71,655.588,27.507,656.713,27.468
	L656.713,27.468z M656.713,164.395v18.183c-1.448,0.957-3.017,1.812-4.675,2.496v-19.991
	C653.727,164.595,655.293,164.381,656.713,164.395L656.713,164.395z M656.713,355.887v6.374c-0.532-0.017-1.098-0.313-1.661-1.008
	c-2.099-2.582-1.938-4.197,0.808-5.003C656.152,356.095,656.438,355.973,656.713,355.887L656.713,355.887z M656.713,404.907v52.822
	c-1.83-2.073-3.449-4.124-4.675-6.076v-11.146c5.922-5.598,3.244-7.5,0-11.38v-16.244c1.22-2.597,2.674-4.999,3.958-6.795
	C656.24,405.745,656.479,405.349,656.713,404.907L656.713,404.907z M652.038,380.901v-6.439c1.775-0.358,2.991,0.758,2.597,2.733
	C654.315,378.787,653.297,380.592,652.038,380.901z M652.038,28.931v11.067c-6.39,0.886-10.435,2.319-6.937,5.427
	c6.489,5.77-10.817,10.816-1.442,15.865c9.374,5.046,6.489,16.584-2.885,16.584c-9.374,0,0.721,6.488-6.489,13.699
	c-7.211,7.21-5.048,12.258-15.141,12.258c-10.094,0,12.257,15.863,0.721,15.863c-11.537,0-15.142,14.423-3.604,12.979
	c11.535-1.442,10.815,3.605-1.444,9.374c-12.258,5.769-31.728,5.768-37.494,15.142c-5.768,9.375-27.399,8.654-27.399,17.306
	c0,8.651-3.604,40.379-20.189,34.61c-16.585-5.766-20.188-22.353-26.677-32.447c-6.489-10.093,3.604-20.91-2.886-24.515
	c-6.489-3.606,14.422-20.188,7.211-15.143c-7.211,5.047-18.748-2.163-8.653-4.325c10.094-2.165,6.489-12.259-0.721-10.096
	s-15.143-1.443-5.769-8.653c9.374-7.21,5.046-5.048-1.443-7.21c-3.114-1.039-4.07-4.736-5.657-8.618V21.901
	c14.396,2.178,15.445,11.885,23.684,9.825c8.653-2.163-10.094-20.911,11.538-7.931c21.631,12.979,5.768-1.443,15.141-1.443
	c9.373,0-6.489-13.698,10.094-12.979C562.181,10.094,562.181,0,583.09,0c25.237,0,70.663,20.913,47.59,18.027
	c-23.073-2.886-54.078-3.606-39.656,5.046c14.419,8.652,17.304-7.932,22.352,0c5.048,7.932,13.7,0,19.468,5.046
	C638.158,32.771,645.307,31.914,652.038,28.931L652.038,28.931z M652.038,165.083c-0.104,0.03-0.208,0.06-0.314,0.093
	c-6.014-0.859-8.592,0-16.326-3.437c-7.734-3.438-15.469,11.17-3.436,20.623c6.895,5.417,14.074,5.188,20.077,2.711L652.038,165.083
	L652.038,165.083z M652.038,374.461v6.439c-0.651,0.161-1.366-0.082-2.083-0.965c-2.098-2.58-1.937-4.194,0.807-5
	C651.208,374.698,651.637,374.542,652.038,374.461L652.038,374.461z M652.038,412.883v16.243c-0.451-0.542-0.913-1.117-1.363-1.747
	C648.155,423.852,649.643,417.987,652.038,412.883L652.038,412.883z M652.038,440.507v11.146c-2.657-4.23-3.474-8.007-0.603-10.592
	C651.646,440.872,651.846,440.688,652.038,440.507L652.038,440.507z M485.14,671.493V482.036c5.321,3.508,10.271,6.115,15.03,6.115
	c9.375,0,7.932,9.373,7.932,18.746c0,9.372,12.259,9.372,25.237,13.7c12.979,4.324,18.747,3.605,31.726,11.537
	c12.979,7.93,15.861,12.258,9.373,21.63c-6.489,9.375-20.188,23.797-20.909,37.496c-0.722,13.7-9.375,26.676-18.749,28.118
	c-9.374,1.444-18.027,8.656-18.027,15.145c0,6.489-8.652,3.604-9.373,15.863c-0.722,12.257-11.536,25.956-16.584,23.794
	C489.528,673.637,487.441,672.591,485.14,671.493L485.14,671.493z M485.14,287.423v-23.199c6.845,1.929,8.417,8.828,11.091,14.623
	c3.241,7.02,1.08,14.042-9.721,9.181C486.043,287.817,485.586,287.616,485.14,287.423L485.14,287.423z M642.27,359.647
	c2.42-1.291,4.357-0.162,3.873,2.26c-0.483,2.42-2.581,5.325-4.68,2.744C639.366,362.068,639.526,360.454,642.27,359.647z
	 M485.14,21.901v76.196c-1.719-4.206-4.177-8.63-10.927-10.13c-6.566-1.458-13.688-0.887-20.335-0.714V32.351
	c15.687-1.139,13.264-12.086,28.987-10.719C483.659,21.7,484.416,21.792,485.14,21.901L485.14,21.901z M485.14,264.224v23.199
	c-9.925-4.274-15.186-4.7-11.052-14.518c4.321-10.261-1.08-9.72,5.94-9.182C482.009,263.63,483.691,263.818,485.14,264.224
	L485.14,264.224z M485.14,482.036v189.457c-6.855-3.275-15.604-7.037-10.206,0.523c7.21,10.093,8.652,15.142,0.721,18.748
	c-7.301,3.318-16.436,16.411-21.779,14.534V465.823c4.417,0.551,9.292,1.918,14.568,5.022
	C474.477,474.393,479.983,478.64,485.14,482.036L485.14,482.036z M453.877,302.474v-9.307c5.818-0.367,6.834,9.442,1.311,9.442
	C454.733,302.608,454.297,302.56,453.877,302.474L453.877,302.474z M453.877,269.673c2.049,1.877,3.316,2.564,5.193-0.723
	c2.887-5.046,8.653-8.652,20.911-8.652s-5.77-12.258-3.604-17.306c2.163-5.047-8.653-7.209-14.419-12.979
	c-4.196-4.193-4.577-14.489-8.08-20.07V269.673L453.877,269.673z M453.877,167.491v-9.011
	C456.396,162.465,456.796,166.646,453.877,167.491L453.877,167.491z M453.877,21.031c0.746-0.281,1.516-0.56,2.31-0.841
	c4.785-1.688,2.757-3.376-2.31-4.724V21.031z M453.877,15.466v5.565c-3.626,1.363-6.707,2.746-9.382,4.237V13.751
	C448.065,14.21,451.349,14.794,453.877,15.466L453.877,15.466z M453.877,32.351v54.902c-3.286,0.085-6.454,0.073-9.382-0.33V55.85
	c4.44-2.697,3.364-7.684,0-10.112V32.999c1.806-0.351,4.003-0.55,6.645-0.55C452.112,32.449,453.019,32.413,453.877,32.351
	L453.877,32.351z M453.877,158.479v9.011c-0.857,0.248-2,0.211-3.459-0.207c-2.15-0.615-4.169-0.935-5.923-0.975v-15.256
	c0.278,0.133,0.572,0.257,0.877,0.366C449.029,152.728,452.024,155.549,453.877,158.479L453.877,158.479z M453.877,209.944v59.729
	c-1.098-1.005-2.42-2.349-4.179-3.606c-1.148-0.82-3.046-0.968-5.202-0.708v-58.806c0.834-0.327,2.026-0.466,3.761-0.333
	C450.813,206.417,452.564,207.849,453.877,209.944L453.877,209.944z M453.877,293.167v9.307c-5.069-1.062-7.376-8.048-1.391-9.045
	C452.976,293.276,453.439,293.194,453.877,293.167L453.877,293.167z M453.877,465.823V705.3c-0.461-0.164-0.895-0.437-1.295-0.834
	c-5.047-5.047-4.326,0.72-4.326,5.769c0,3.705-0.778,10.136-3.761,13.288V465.586C447.331,465.46,450.468,465.401,453.877,465.823
	L453.877,465.823z M444.495,434.477v-1.9C445.204,433.303,445.321,434.023,444.495,434.477L444.495,434.477z M444.495,306.001
	c0.31,0.067,0.634,0.101,0.971,0.101c4.095,0,3.34-7.272-0.971-6.998V306.001L444.495,306.001z M444.495,293.816
	c0.292-0.344,0.585-0.7,0.877-1.072c3.992-5.081,2.503-10.341-0.877-14.318V293.816L444.495,293.816z M444.495,192.213v-13.375
	C448.53,184.083,447.501,189.622,444.495,192.213z M444.495,13.751V25.27c-2.869,1.599-5.266,3.32-7.36,5.278V13.021
	C439.623,13.199,442.121,13.447,444.495,13.751L444.495,13.751z M444.495,32.999v12.739c-0.603-0.437-1.278-0.789-2.009-1.031
	C436.912,42.847,433.467,35.135,444.495,32.999L444.495,32.999z M444.495,55.85v31.074c-2.688-0.368-5.172-1.063-7.36-2.314v-7.57
	c3.733-3.292,9.414-5.953,3.91-6.376c-1.168-0.09-2.493-0.067-3.91,0.021V57.661C440.453,57.533,442.851,56.85,444.495,55.85
	L444.495,55.85z M444.495,151.054v15.256c-6.489-0.145-9.385,3.538-2.009,10.347c0.777,0.714,1.442,1.446,2.009,2.181v13.375
	c-1.678,1.445-3.967,1.976-6.333,1.028l-1.027-0.409v-54.348C438.711,143.609,440.031,148.905,444.495,151.054L444.495,151.054z
	 M444.495,206.553v58.805c-2.352,0.285-5.012,1.053-7.36,1.966v-52.177c0.333-0.079,0.674-0.168,1.027-0.275
	C444.037,213.11,440.816,207.998,444.495,206.553L444.495,206.553z M444.495,278.426v15.389c-2.443,2.87-4.937,4.845-7.36,6.362
	V272.98C439.752,274.121,442.464,276.042,444.495,278.426L444.495,278.426z M444.495,299.104c-0.326,0.021-0.667,0.081-1.031,0.193
	c-4.438,0.74-2.727,5.919,1.031,6.703V299.104L444.495,299.104z M444.495,432.576v1.9c-0.634,0.35-1.819,0.539-3.712,0.455
	c-1.302-0.057-2.531-0.226-3.648-0.465v-4.407l0.286,0.019C440.353,430.078,443.284,431.337,444.495,432.576L444.495,432.576z
	 M444.495,465.586v257.937c-1.081,1.139-2.449,1.852-4.171,1.852c-6.49,0,5.768,18.027,2.162,20.19
	c-1.203,0.722-3.211,3.456-5.352,6.772V465.843c0.604-0.028,1.188-0.047,1.747-0.047
	C440.593,465.796,442.468,465.677,444.495,465.586z M437.135,13.021v17.526c-1.764,1.647-3.311,3.46-4.743,5.506
	c-2.47,3.528-7.704,6.885-13.334,9.308v-32.13c0.985-0.046,2.058-0.125,3.239-0.251C426.207,12.568,431.645,12.625,437.135,13.021
	L437.135,13.021z M437.135,57.661v13.023c-5.986,0.378-13.622,1.955-18.077,1.371V60.707c2.616-3.023,6.556-3.023,16.938-3.023
	C436.39,57.685,436.767,57.677,437.135,57.661L437.135,57.661z M437.135,77.04v7.57c-0.14-0.082-0.279-0.163-0.416-0.248
	C432.849,81.982,434.509,79.355,437.135,77.04L437.135,77.04z M437.135,138.485v54.349c-3.886-1.542-10.72-4.166-18.077-6.56
	v-61.647c3.559,0.923,6.743,1.711,9.006,2.278C433.687,128.31,435.542,133.31,437.135,138.485L437.135,138.485z M437.135,215.148
	v52.177c-4.966,1.933-8.523,4.51-4.743,4.51c1.404,0,3.054,0.411,4.743,1.146v27.197c-5.204,3.254-10.079,4.391-13.395,7.708
	c-2,2-3.322,4.566-4.682,6.937V196.871c4.845,3.468,8.286,7.342,8.286,10.07C427.345,213.114,430.608,216.678,437.135,215.148
	L437.135,215.148z M437.135,430.06v4.407C430.942,433.127,428.293,429.525,437.135,430.06L437.135,430.06z M437.135,465.843v286.493
	c-4.27,6.622-9.069,15.579-9.069,15.579s0.722,10.093-7.21,3.603c-0.611-0.499-1.21-1.083-1.797-1.733V632.239
	c3.66-3.688,8.14-6.396,5.402-11.417c-4.327-7.933,0.722-17.304-4.327-21.633c-0.351-0.301-0.709-0.643-1.076-1.012V464.051
	C423.057,467.541,431.091,466.128,437.135,465.843L437.135,465.843z M419.059,433.71v-9.889c0.706-0.058,1.472-0.088,2.31-0.088
	c6.346-0.375,5.599,10.08-1.119,10.08C419.853,433.813,419.455,433.777,419.059,433.71z M419.059,13.231v32.13
	c-5.873,2.527-12.18,4.039-16.229,3.672c-7.932-0.721-2.885,18.746-8.653,18.746c-0.405,0-0.809,0.076-1.215,0.215V10.059
	c1.619-0.087,3.228-0.082,4.819,0.035C408.324,10.094,408.632,13.707,419.059,13.231L419.059,13.231z M419.059,60.708
	c-1.197,1.385-2.117,3.406-3.251,6.352c-1.259,3.271,0.298,4.609,3.251,4.996V60.708L419.059,60.708z M419.059,124.627v61.647
	c-7.998-2.603-16.61-4.934-22.719-5.291c-1.22-0.072-2.347-0.238-3.377-0.477V169.36c9.7-1.157,7.181-9.441,13.473-14.335
	c6.489-5.047,6.489-5.047-3.605-12.257c-2.834-2.024-6.233-3.537-9.869-4.665v-21.992
	C397.693,118.823,409.682,122.194,419.059,124.627L419.059,124.627z M419.059,196.871v117.953c-2.07,3.61-4.229,6.765-9.019,6.765
	c-7.93,0-12.257,18.025-12.257,24.514c0,2.525-2.075,4.723-4.82,6.804V189.571c1.011-0.307,2.129-0.531,3.377-0.656
	C403.028,188.078,412.379,192.088,419.059,196.871L419.059,196.871z M419.059,423.821v9.889
	C413.096,432.722,407.64,424.747,419.059,423.821L419.059,423.821z M419.059,464.051V598.18
	c-4.881-4.962-11.013-15.574-18.393-15.574c-7.932,0-6.489-7.93-6.489-14.42c0-1.089-0.448-2.32-1.215-3.66v-69.871
	c0.624-1.411,0.504-3.157,0-5.014v-23.222c3.644,0.297,7.213,0.314,9.868-1.345c5.77-3.602,11.537-10.812,14.422-3.602
	C417.677,462.541,418.295,463.385,419.059,464.051L419.059,464.051z M419.059,632.239v137.547
	c-7.007-7.785-12.125-25.389-14.786-30.713c-2.886-5.767,0.719-6.488,5.045-13.699c4.328-7.21,3.606-12.979-0.72-25.956
	c-4.326-12.979-2.886-23.075,3.605-28.123c6.489-5.047,2.884-21.632,2.884-31.003C415.087,636.848,416.935,634.38,419.059,632.239
	L419.059,632.239z M392.961,420.356v-5.567c6.741,0.472,11.488,6.33,4.516,6.33C395.861,421.119,394.317,420.822,392.961,420.356
	L392.961,420.356z M392.961,403.507v-9.021c7.395,2.691,12.67,13.096,7.13,9.835C397.291,402.674,395,402.913,392.961,403.507
	L392.961,403.507z M392.961,156.473c0.887-0.246,1.836-0.666,2.819-1.3c6.544-4.206,2.57-8.411-2.819-8.067V156.473L392.961,156.473
	z M392.961,112.612v-4.916c3.947,1.823,5.208,3.68,0.495,4.789C393.281,112.525,393.119,112.568,392.961,112.612z M392.961,10.059
	v57.935c-4.652,1.586-9.5,11.576-16.788,14.262V42.774c6.87-2.19,7.689-5.379,0-6.397V13.52
	C381.803,11.736,387.447,10.354,392.961,10.059L392.961,10.059z M392.961,107.696v4.916c-2.968,0.828-2.489,2.073,0,3.5v21.992
	c-5.447-1.692-11.42-2.522-16.788-2.92v-32.102C382.264,104.056,388.98,105.857,392.961,107.696L392.961,107.696z M392.961,147.106
	v9.367c-5.927,1.638-9.158-4.631-2.581-8.858C391.252,147.323,392.125,147.161,392.961,147.106L392.961,147.106z M392.961,169.359
	v11.147c-9.317-2.164-10.687-10.412-0.947-11.06C392.342,169.424,392.658,169.397,392.961,169.359L392.961,169.359z
	 M392.961,189.571v163.336c-4.312,3.27-10.281,6.257-12.484,9.78c-3.605,5.769-0.722,11.536-0.722,21.632
	c0,5.606-1.113,7.654-3.582,6.391V256.951c2.273,3.508,4.66,4.499,5.024-2.42c0.72-13.699,0.72-22.353,6.489-22.353
	c5.769,0,0.721-7.21-1.442-17.305C384.269,205.65,382.296,192.822,392.961,189.571L392.961,189.571z M392.961,394.485v9.021
	c-2.583,0.751-4.762,2.065-7.058,0.813c-4.105-2.241-2.986-9.334,3.732-10.453C390.772,393.867,391.889,394.096,392.961,394.485
	L392.961,394.485z M392.961,414.789v5.565c-4.906-1.686-7.31-5.583-1.458-5.583C391.997,414.746,392.485,414.755,392.961,414.789
	L392.961,414.789z M392.961,466.419v23.222c-0.791-2.914-2.531-6.102-3.833-8.703c-1.528-3.059-7.317-2.872-12.954-2.887v-11.288
	c1.725,0.399,3.428,0.354,5.024-0.245C384.312,465.351,388.688,466.075,392.961,466.419L392.961,466.419z M392.961,494.655v69.871
	c-3.203-5.601-11.977-13.036-16.788-19.55v-30.508c0.225-0.13,0.457-0.25,0.697-0.36c7.932-3.604,4.328-14.423,12.257-16.583
	C391.208,496.958,392.394,495.943,392.961,494.655L392.961,494.655z M376.174,413.505v-7.452c6.517,1.421,10.046,8.645,2.637,7.972
	C377.895,413.942,377.009,413.76,376.174,413.505L376.174,413.505z M376.174,183.476v-4.362
	C377.817,181.469,378.153,183.356,376.174,183.476L376.174,183.476z M376.174,98.312v-8.478c6.445,1.509,10.184,3.587,6.466,6.066
	C380.839,97.101,378.631,97.863,376.174,98.312z M376.174,13.52v22.858c-1.57-0.208-3.493-0.325-5.792-0.325
	c-2.365,0-4.419,0.038-6.229,0.094V17.713C368.118,16.278,372.142,14.797,376.174,13.52L376.174,13.52z M376.174,42.774v39.481
	c-1.146,0.423-2.353,0.666-3.627,0.666c-2.378,0-5.314,0.319-8.394,0.695v-38.79c0.377-0.044,0.766-0.086,1.184-0.119
	C369.793,44.349,373.456,43.64,376.174,42.774L376.174,42.774z M376.174,89.833v8.478c-3.629,0.664-7.805,0.645-12.022,0.337V87.921
	C368.45,88.375,372.704,89.021,376.174,89.833L376.174,89.833z M376.174,103.082v32.102c-3.811-0.282-7.32-0.347-10.118-0.347
	c-0.615,0-1.252-0.042-1.904-0.119v-32.181c0.844-0.064,1.718-0.115,2.625-0.147C369.239,102.226,372.599,102.511,376.174,103.082
	L376.174,103.082z M376.174,179.114v4.362c-0.547,0.034-1.266-0.066-2.186-0.329c-3.658-1.044-6.938-0.101-9.836,1.116v-14.284
	C368.849,171.463,373.834,175.76,376.174,179.114L376.174,179.114z M376.174,256.951v133.758c-1.979-1.012-4.828-4.146-8.675-9.277
	c-1.049-1.396-2.172-2.568-3.346-3.551V237.102c4.672,2.049,7.671,4.298,7.671,7.333
	C371.824,247.648,373.945,253.509,376.174,256.951L376.174,256.951z M376.174,406.055v7.453c-6.645-2.026-10.175-8.688-2.218-7.694
	C374.725,405.813,375.466,405.899,376.174,406.055L376.174,406.055z M376.174,466.764v11.289c-4.993-0.011-9.868-0.173-11.561-2.882
	c-0.16-0.256-0.313-0.535-0.462-0.83v-17.496C367.274,461.858,371.786,465.752,376.174,466.764L376.174,466.764z M376.174,514.468
	v30.508c-0.881-1.193-1.63-2.355-2.186-3.469C369.793,533.117,368.988,518.627,376.174,514.468L376.174,514.468z M364.152,191.161
	v-1.329c0.434-0.875,1.817-1.692,4.626-2.254c9.181-2.16,8.101,4.86,3.781,6.48C369.924,195.046,365.083,193.223,364.152,191.161
	L364.152,191.161z M364.152,164.181v-24.388c0.604,0.001,1.239,0.03,1.904,0.09c7.932,0.721,12.258,23.793,3.604,23.793
	C367.826,163.678,365.958,163.873,364.152,164.181z M364.152,17.713v18.434c-11.979,0.374-13.215,1.596-22.612-1.536
	c-1.274-0.425-2.517-0.899-3.692-1.407v-9.389c0.485-0.014,0.993-0.02,1.528-0.02C346.984,23.795,355.427,20.871,364.152,17.713
	L364.152,17.713z M364.152,44.826v38.792c-10.008,1.219-21.551,3.035-20.449-3.581c1.442-8.652,6.489-15.143,15.14-18.025
	C367.299,59.192,348.234,46.744,364.152,44.826L364.152,44.826z M364.152,87.921c-6.298-0.665-12.688-0.92-16.843-0.674
	c-4.369,0.258-7.273-0.769-9.46-2.064v12.314c1.949-0.572,4.439-1.133,8.017-0.877c4.891,0.35,11.64,1.544,18.286,2.028V87.921
	L364.152,87.921z M364.152,102.537v32.182c-9.299-1.105-21.891-9.729-21.891-16.465C342.261,111.378,346.85,103.847,364.152,102.537
	L364.152,102.537z M364.152,139.793v24.388c-6.701,1.138-12.518,3.823-12.518,3.823s-2.163,13.702-10.095,13.702
	c-1.734,0-2.881,0.31-3.692,0.801v-36.074l0.087-0.061c5.047-3.604,10.094-0.721,10.815,5.047s5.77,4.326,5.77-2.163
	C354.52,143.312,357.546,139.788,364.152,139.793L364.152,139.793z M364.152,169.979c-1.076-0.339-2.135-0.532-3.143-0.532
	c-7.931,1.441-12.979,5.768-8.654,14.421c2.761,5.519,6.693,2.533,11.797,0.394V169.979L364.152,169.979z M364.152,189.831v1.329
	C363.954,190.721,363.933,190.269,364.152,189.831L364.152,189.831z M364.152,237.102v140.78c-8.531-7.119-19.88-4.032-26.217-1.497
	l-0.087,0.034V227.907c1.737,0.652,3.68,1.347,5.854,2.107C351.375,232.7,358.842,234.773,364.152,237.102L364.152,237.102z
	 M364.152,456.846v17.497c-3.229-6.376-4.407-21.523-16.122-21.523c-3.824,0-7.088-1.125-10.182-2.692v-34.005
	c7.159-6.042,14.886-11.197,14.886-6.225c0,7.21-7.588,31.385,3.228,31.385c10.814,0,3.605,7.93,7.931,15.141
	C363.978,456.566,364.065,456.705,364.152,456.846L364.152,456.846z M337.849,75.076v-6.285
	C340.794,70.284,341.575,74.159,337.849,75.076L337.849,75.076z M337.849,62.815c0.978-0.42,1.971-0.926,2.97-1.526
	c10.468-6.278,3.379-17.961-2.97-19.362V62.815z M337.849,23.815v9.389C329.356,29.539,324.462,24.187,337.849,23.815
	L337.849,23.815z M337.849,41.927c-0.214-0.047-0.424-0.083-0.635-0.106c-6.489-0.722-5.047-11.538-18.747-10.095
	c-11.537-0.72,4.326,14.421,2.884,23.074c-1.308,7.852,6.886,12.143,16.498,8.016V41.927L337.849,41.927z M337.849,68.791v6.285
	c-0.691,0.167-1.537,0.237-2.553,0.169c-8.102-0.541-8.102-7.021-0.54-7.021C335.933,68.119,336.983,68.352,337.849,68.791
	L337.849,68.791z M337.849,85.184v12.314c-3.552,1.042-5.309,2.125-8.565-1.599c-5.048-5.769-10.096-15.864-0.72-14.422
	C332.275,79.622,333.895,82.845,337.849,85.184L337.849,85.184z M337.849,146.433v36.074c-2.9,1.758-1.49,5.845-7.124,6.408
	c-7.21,0.721-5.77,13.701-9.375,15.864c-3.605,2.163,2.163,6.489,2.884,12.258c0.612,4.897,3.826,7.197,13.613,10.87V376.42
	c-7.199,2.808-16.524-2.172-22.987,3.57c-1.171,1.043-2.414,2.556-3.625,4.372V151.244c9.279-0.404,13.366-1.618,10.114-4.872
	c-4.326-4.326-5.047-9.374-8.653-10.093c-0.542-0.108-1.034-0.349-1.46-0.685v-7.844c0.566-0.587,1.287-1.122,2.182-1.568
	c5.768-2.886,7.211-7.931,10.815-2.163c3.605,5.767-2.162,13.701,5.768,12.979C337.889,136.284,332.949,149.813,337.849,146.433
	L337.849,146.433z M337.849,416.122v34.007c-6.827-3.456-12.839-9.072-22.266-9.568c-1.475-0.075-2.923-0.249-4.346-0.488v-22.385
	c5.778,5.954,12.542,11.793,18.045,6.29C331.52,421.738,334.627,418.839,337.849,416.122L337.849,416.122z M311.238,146.665
	c3.281-0.88,2.517-3.041,0-5.058V146.665L311.238,146.665z M311.238,96.089c2.746,0.448,5.546,0.761,8.396,0.761
	c7.958,0-2.347-5.684-8.396-7.195V96.089L311.238,96.089z M311.238,82.267c4.481,1.504,14.894-4.32,10.017-4.32
	c-5.941,0,1.62-9.719-4.322-9.719c-1.927,0-4.136,1.406-5.695,3.642V82.267L311.238,82.267z M311.238,70.459v-8.684
	C313.857,64.791,313.996,68.958,311.238,70.459L311.238,70.459z M321.254,102.79c-9.182,0.539-8.641,6.479-6.481,11.88
	c2.16,5.4,4.861,5.4,6.481,2.161c1.62-3.24,10.26-4.32,12.421-9.719C335.835,101.708,327.735,102.79,321.254,102.79z
	 M311.238,61.776v8.684c-1.157,0.629-2.822,0.792-5.027,0.204c-4.195-1.118-7.739-1.478-11.052-1.54V57.627
	c2.618,0.465,5.303,0.778,8.166,0.778C306.897,58.406,309.568,59.857,311.238,61.776L311.238,61.776z M311.238,71.868v10.399
	c-0.978-0.327-1.673-1.002-1.866-2.16C308.843,76.934,309.74,74.017,311.238,71.868L311.238,71.868z M311.238,89.654
	c-0.929-0.23-1.758-0.366-2.407-0.366c-4.86,0-5.939-8.101-13.499-8.101c-0.059-0.007-0.117-0.011-0.175-0.018v12.022
	c5.145,0.528,10.505,1.989,16.08,2.896L311.238,89.654L311.238,89.654z M311.238,127.751v7.844
	C309.264,134.036,308.7,130.374,311.238,127.751L311.238,127.751z M311.238,141.606v5.058c-0.969,0.261-2.291,0.409-4.024,0.409
	c-5.669,0-9.842-1.586-12.055-3.475v-5.461c1.029-0.49,2.514-0.786,4.494-0.786C303.612,137.353,308.478,139.393,311.238,141.606
	L311.238,141.606z M311.238,151.244v233.118c-5.496,8.242-10.345,22.762-5.027,28.078c1.535,1.537,3.233,3.397,5.027,5.245v22.387
	c-5.814-0.985-11.194-3.176-16.079-5.221V151.175c1.599,0.157,3.346,0.247,5.283,0.247
	C304.553,151.42,308.177,151.376,311.238,151.244L311.238,151.244z M295.157,127.544v-24.56c0.849-0.307,1.81-0.558,2.875-0.736
	c8.1,0,4.321,15.121,8.64,14.581c4.322-0.542-1.62,10.801-10.26,10.801C295.997,127.631,295.578,127.601,295.157,127.544
	L295.157,127.544z M295.157,46.328V41.89c0.792-0.491,2.04-0.79,3.841-0.79c7.931-0.72,12.978,9.374,5.048,9.374
	C300.384,50.473,296.881,48.478,295.157,46.328z M295.157,41.89v4.438C293.812,44.65,293.554,42.879,295.157,41.89L295.157,41.89z
	 M295.157,57.627v11.496c-3.225-0.062-6.232,0.158-9.41,0.232V55.514C288.916,56.265,291.987,57.059,295.157,57.627L295.157,57.627z
	 M295.157,81.17v12.022c-0.485-0.05-0.966-0.091-1.446-0.124C285.661,92.533,286.144,80.268,295.157,81.17L295.157,81.17z
	 M295.157,102.985v24.56c-3.398-0.46-6.903-2.685-9.41-5.161v-7.736c6.347-0.234,10.441-2.297,6.884-4.838
	C289.471,107.553,290.839,104.543,295.157,102.985L295.157,102.985z M295.157,138.139v5.461
	C292.846,141.625,292.671,139.319,295.157,138.139L295.157,138.139z M295.157,151.175v283.677c-3.38-1.412-6.522-2.758-9.41-3.589
	V149.157C288.338,150.03,291.311,150.798,295.157,151.175L295.157,151.175z M285.749,137.639v-2.988
	c0.575,0.121,1.148,0.186,1.714,0.186C290.652,134.836,289.43,136.38,285.749,137.639z M285.749,55.514v13.841
	c-1.976,0.045-4.018,0.036-6.217-0.134c-2.825-0.217-5.517-2.006-7.687-4.322V53.388C276.981,53.56,281.453,54.496,285.749,55.514
	L285.749,55.514z M285.749,114.647v7.736c-3.641-3.594-5.177-7.713-1.217-7.713C284.944,114.67,285.35,114.663,285.749,114.647
	L285.749,114.647z M285.749,134.65c-5.169-1.102-10.62-7.06-13.904-16.404v20.88c0.406,0,0.806,0.013,1.197,0.036
	c5.155,0.322,9.732-0.507,12.708-1.524V134.65L285.749,134.65z M285.749,149.157v282.105c-1.413-0.404-2.767-0.69-4.055-0.798
	c-5.609-0.465-7.583-8.512-9.85-15.291V145.03C277.337,145.5,280.87,147.512,285.749,149.157L285.749,149.157z M271.844,94.511
	V90.92C278.367,91.119,277.869,93.723,271.844,94.511L271.844,94.511z M271.844,84.107v-5.583c0.417-0.024,0.865-0.038,1.344-0.038
	c7.56,0,9.181,5.94,1.621,5.94C273.747,84.427,272.747,84.309,271.844,84.107z M271.844,53.388v11.512
	c-5.027-5.367-7.228-13.557-1.687-11.541C270.728,53.358,271.29,53.368,271.844,53.388L271.844,53.388z M271.844,78.524v5.583
	C266.622,82.943,264.593,78.955,271.844,78.524L271.844,78.524z M271.844,90.92c-0.261-0.008-0.532-0.014-0.816-0.014
	c-9.18,0-9.18-11.879-16.199-11.879c-5.941-0.542-4.861,1.618-7.021,7.561c-1.544,4.247-6.405-0.065-11.812-2.67v16.108
	c2.613-1.118,5.74-3.018,8.03-4.797c4.861-3.782,10.803-1.081,22.143-0.541c2.238,0.106,4.137,0.023,5.676-0.177L271.844,90.92
	L271.844,90.92z M271.844,118.247v20.88c-11.028-0.016-26.6,8.483-35.85,4.897v-35.701c3.479,1.492,7.116,2.72,11.088,2.72
	c10.096,0,20.911-4.327,24.516,6.489C271.68,117.772,271.761,118.01,271.844,118.247L271.844,118.247z M271.844,145.03
	c-0.762-0.065-1.561-0.101-2.408-0.101c-11.538,0-10.096,12.981-18.748,10.095c-6.346-2.115-11.529-0.74-14.694-2.417v239.596
	c5.546,8.387,9.778,15.872,14.694,14.468c5.046-1.443,0-9.373-4.326-15.863c-4.327-6.491,15.141,11.537,20.91,15.863
	c2.028,1.52,3.342,4.825,4.572,8.503V145.03L271.844,145.03z M235.995,64.925V60.12c0.983-1.529,3.217-2.477,7.084-2.155
	c8.01,0,13.729,13.731,3.433,13.731C241.614,71.697,237.494,68.331,235.995,64.925z M235.995,60.12v4.805
	C235.231,63.188,235.147,61.438,235.995,60.12L235.995,60.12z M235.995,83.917v16.108c-2.933,1.253-5.215,1.521-4.931-0.478
	c0.387-2.708-4.492-1.259-7.688-2.206V84.738c1.417-1.355,3.407-2.281,6.069-2.472C231.599,82.113,233.841,82.881,235.995,83.917
	L235.995,83.917z M235.995,108.323v35.702c-0.402-0.157-0.792-0.333-1.169-0.536c-4.577-2.463-8.98-3.897-11.451-5.054v-3.333
	c0.195-0.085,0.406-0.175,0.635-0.264c3.033-1.215,1.855-1.407-0.635-1.759v-29.675C227.563,104.2,231.656,106.464,235.995,108.323
	L235.995,108.323z M235.995,152.608v239.596l-0.449-0.675c-4.24-6.362-8.869-11.555-12.171-17.581V145.218
	c5.142-0.452,8.478-0.553,10.008,4.039C233.96,150.986,234.844,152,235.995,152.608L235.995,152.608z M223.376,76.406v-6.303
	C227.674,70.958,226.585,73.809,223.376,76.406z M223.376,70.103v6.303c-3.102,2.509-8.184,4.782-12.293,4.782
	c-9.18,0-7.02,6.48-14.041,6.48c-7.021,0-11.341-8.64-0.541-9.182c10.802-0.541,11.341-8.1,23.762-8.641
	C221.519,69.846,222.546,69.938,223.376,70.103L223.376,70.103z M223.376,84.738c-2.611,2.497-3.272,6.45-2.574,9.95
	c0.308,1.53,1.308,2.28,2.574,2.654V84.738L223.376,84.738z M223.376,103.403v29.674c-3.428-0.484-9.345-1.273-10.182-5.452
	c-1.443-7.21-22.353,0-28.12-7.21c-5.768-7.211-0.722-22.352,11.535-22.352c10.095-0.722,15.142,5.045,23.794,5.045
	C221.403,103.109,222.392,103.217,223.376,103.403L223.376,103.403z M223.376,135.101v3.333
	C220.944,137.296,220.386,136.426,223.376,135.101L223.376,135.101z M223.376,145.218c-2.125,0.188-4.557,0.434-7.297,0.434
	c-9.373,0-5.047-7.933-17.306-7.933c-12.259,0-6.489,2.886-17.306-4.325c-10.815-7.211-7.21,2.885-21.631,2.885
	c-14.421,0-17.307,2.884-17.307,9.374c0,6.488-20.189-10.096-41.098-11.536c-20.911-1.443-43.263-7.934-56.242-7.934
	c-12.979,0-19.468,13.7-34.611,15.864c-15.142,2.163,1.442,6.488,5.77,14.421c4.327,7.931,2.884,7.209-11.537,8.653
	c-14.422,1.443,7.21,10.815,17.306,10.815c10.094,0-0.722,7.209-7.932,11.536c-7.209,4.328-10.093,19.469,1.443,20.19
	c11.537,0.722,5.769,7.211,20.189,7.211c14.422,0,1.443,10.815-7.931,18.025c-9.374,7.211-8.653,16.584-3.604,12.257
	c5.047-4.325,18.025-15.142,24.514-17.304c6.489-2.164,10.816-13.7,16.585-17.305c5.769-3.604,10.095,7.212,13.7,1.443
	c3.606-5.768,10.815-0.723,17.306-2.164c6.489-1.442,20.189,1.441,25.957,2.884c5.77,1.443,12.258,7.211,20.911,6.489
	c8.652-0.721,9.374,13.701,15.143,18.748c5.77,5.046,12.258,4.327,10.815,11.537c-1.443,7.211,10.094,17.304,20.911,21.632
	c10.816,4.326,15.143,17.305,6.489,12.979c-8.652-4.326-9.373-2.884-6.489,5.046c2.885,7.933,4.327,12.979,0,15.143
	c-4.326,2.163-4.326,23.073,1.442,33.167c5.769,10.094,25.957,20.191,28.842,29.563c0.765,2.482,1.783,4.764,2.971,6.936V145.218
	H223.376z"/>
</svg>
