<?xml version="1.0" encoding="UTF-8" standalone="no"?>
<!-- Generator: Adobe Illustrator 16.0.0, SVG Export Plug-In . SVG Version: 6.00 Build 0)  -->

<svg
   version="1.1"
   id="Layer_1"
   x="0px"
   y="0px"
   width="812px"
   height="559.968px"
   viewBox="0 0 812 559.968"
   enable-background="new 0 0 812 559.968"
   xml:space="preserve"
   sodipodi:docname="main-img1.svg"
   inkscape:version="1.2.1 (9c6d41e410, 2022-07-14)"
   xmlns:inkscape="http://www.inkscape.org/namespaces/inkscape"
   xmlns:sodipodi="http://sodipodi.sourceforge.net/DTD/sodipodi-0.dtd"
   xmlns="http://www.w3.org/2000/svg"
   xmlns:svg="http://www.w3.org/2000/svg"><defs
   id="defs2914" /><sodipodi:namedview
   id="namedview2912"
   pagecolor="#ffffff"
   bordercolor="#000000"
   borderopacity="0.25"
   inkscape:showpageshadow="2"
   inkscape:pageopacity="0.0"
   inkscape:pagecheckerboard="0"
   inkscape:deskcolor="#d1d1d1"
   showgrid="false"
   inkscape:zoom="0.74507389"
   inkscape:cx="598.59835"
   inkscape:cy="303.32562"
   inkscape:window-width="1920"
   inkscape:window-height="1017"
   inkscape:window-x="1352"
   inkscape:window-y="-8"
   inkscape:window-maximized="1"
   inkscape:current-layer="g2909" />
<g
   id="g2909">
	
	
	
	
	
	
	
	
	
<g
   id="g916"
   transform="matrix(1.0021307,0,0,1.0021307,-1.1771678,-0.94824583)"><g
     id="g24"><g
       id="g16"><path
         fill="#527f3a"
         d="m 645.541,32.666 c 7.467,10.168 22.447,11.856 22.447,11.856 0,0 2.873,-14.798 -4.594,-24.966 C 655.927,9.388 640.949,7.7 640.949,7.7 c 0,0 -2.873,14.798 4.592,24.966 z"
         id="path10" /><path
         fill="#3c6938"
         d="m 676.896,26.585 c -6.846,6.747 -6.471,18.224 -6.471,18.224 0,0 11.469,0.541 18.314,-6.206 6.846,-6.747 6.473,-18.224 6.473,-18.224 0,0 -11.47,-0.54 -18.316,6.206 z"
         id="path12" /><path
         fill="#64b15b"
         d="m 659.932,21.482 c -1.391,12.538 8.49,23.924 8.49,23.924 0,0 12.135,-8.944 13.523,-21.482 C 683.336,11.385 673.457,0 673.457,0 c 0,0 -12.135,8.944 -13.525,21.482 z"
         id="path14" /></g><g
       id="g22"><polygon
         fill="#63334b"
         points="652.338,42.137 660.857,80.047 686.842,80.047 695.359,42.137 "
         id="polygon18" /><polygon
         fill="#a1533b"
         points="642.543,42.137 651.061,80.047 677.045,80.047 680.877,42.137 "
         id="polygon20" /></g></g><g
     id="g46"><g
       id="g30"><rect
         x="556.034"
         y="265.76001"
         transform="matrix(0.9846,0.1745,-0.1745,0.9846,59.7233,-92.8994)"
         fill="#6176b1"
         width="3.961"
         height="54.660999"
         id="rect26" /><rect
         x="558.61401"
         y="264.70401"
         transform="matrix(0.9847,0.174,-0.174,0.9847,56.0512,-93.5621)"
         fill="#6176b1"
         width="6.1409998"
         height="16.440001"
         id="rect28" /></g><g
       id="g34"><polygon
         fill="#7a4162"
         points="551.709,268.934 553.268,272.751 548.699,327.22 544.753,326.89 549.32,272.419 "
         id="polygon32" /></g><g
       id="g38"><polygon
         fill="#1b2c58"
         points="530.229,273.104 532.769,276.349 543.213,330.005 539.325,330.761 528.88,277.106 "
         id="polygon36" /></g><g
       id="g44"><polygon
         fill="#f3885e"
         points="557.506,297.667 551.955,342.483 535.025,342.483 529.474,297.667 "
         id="polygon40" /><polygon
         fill="#fdbd63"
         points="563.889,297.667 558.336,342.483 541.408,342.483 538.909,297.667 "
         id="polygon42" /></g></g><rect
     x="506.35199"
     y="92.851997"
     opacity="0.54"
     fill="#b0adc0"
     width="201.922"
     height="28.681999"
     id="rect48" /><g
     id="g72"><path
       fill="#7d4c3a"
       d="m 620.65,135.417 -11.15,6.899 c -8.08,5 -10.965,15.362 -6.65,23.827 0.857,1.684 1.395,2.768 1.285,2.644 -0.42,-0.485 17.08,-33.229 17.08,-33.229"
       id="path50" /><path
       fill="#fabba4"
       d="m 649.672,242.069 h 5.768 c 5.293,0 9.623,-4.331 9.623,-9.624 v -27.119 c 0,-5.293 -4.33,-9.623 -9.623,-9.623 h -5.768 c -5.293,0 -9.625,4.33 -9.625,9.623 v 27.119 c 0,5.293 4.332,9.624 9.625,9.624 z"
       id="path52"
       style="fill:#e79479;fill-opacity:1" /><path
       fill="#7d4c3a"
       d="m 604.332,168.787 c -0.258,2.184 9.975,5.877 10.098,8.182 l -1.666,4.625 c 12.566,-4.556 1.48,2.388 1.48,2.405 3.73,11.073 2.434,17.2 13.096,21.414 5.313,2.098 11.143,3.061 17.211,2.631 8.15,-0.566 15.391,1.977 21.305,-0.843 1.223,-0.568 2.373,-1.376 3.475,-2.459 2.082,-2.08 3.939,-4.367 5.502,-6.844 0.602,-0.98 1.188,-1.96 1.721,-2.992 3.215,-6.207 9.793,-24.434 9.26,-31.914 -1.479,-21.116 -21.709,-35.251 -44.992,-33.651 -0.6,0.041 -1.186,0.051 -1.789,0.085 -12.57,0.877 -23.316,7.549 -29.885,17.229 -0.344,0.516 -0.688,1.049 -1.014,1.582 0,0.018 0,0.018 0,0.018 -1.893,3.078 -2.906,16.25 -2.906,16.25 -0.431,1.392 -0.724,2.82 -0.896,4.282 z"
       id="path54" /><path
       fill="#fabba4"
       d="m 605.271,175.544 0.291,5.794 0.5,9.613 0.781,3.407 c 0.068,1.514 0.834,9.471 1.109,10.916 2.648,13.601 11.58,16.489 25.439,18.21 0.412,0.068 0.842,0.103 1.256,0.119 1.479,0.156 2.975,0.174 4.506,0.104 1.477,-0.069 2.922,-0.259 4.35,-0.534 2.768,-0.498 5.434,-1.375 7.893,-2.544 0,0 0.016,0 0.033,-0.017 6.121,-2.89 11.16,-7.618 14.426,-13.413 2.494,-4.385 3.975,-9.371 4.129,-14.65 0.016,-0.36 0.016,-0.721 0.016,-1.099 0.018,-0.412 0,-0.859 -0.033,-1.306 v -0.225 l -0.033,-1.048 -0.156,-2.734 -0.465,-9.439 -0.016,-0.086 v -0.018 l -0.086,-1.754 -0.07,-1.358 -0.066,-1.255 -0.02,-0.327 c -0.137,-2.184 -0.566,-4.282 -1.221,-6.293 -0.412,-1.427 -0.945,-2.803 -1.547,-4.126 -0.088,-0.207 -0.154,-0.396 -0.258,-0.602 -0.482,-1.083 -1.049,-2.167 -1.67,-3.181 0,-0.018 0,-0.018 0,-0.018 -2.338,-3.902 -5.467,-7.273 -9.18,-9.87 -0.74,-0.533 -1.514,-1.031 -2.289,-1.496 -5.398,-3.164 -11.76,-4.866 -18.449,-4.522 -5.572,0.292 -9.689,1.96 -14.176,4.66 -2.717,1.634 -5.178,3.645 -7.291,5.967 -3.01,3.268 -4.971,7.119 -6.414,11.366 -0.086,0.241 -0.154,0.481 -0.225,0.722 -0.43,1.393 -0.721,2.82 -0.893,4.282 -0.256,2.181 -0.292,4.451 -0.171,6.755 z"
       id="path56"
       style="fill:#e79479;fill-opacity:1" /><path
       fill="#7d4c3a"
       d="m 616.973,146.811 c -6.799,18.732 11.102,17.207 11.934,25.809 0.094,0.967 0.438,2.391 0.693,9.436 l 1.367,4.407 c 0.396,1.375 1.67,2.321 3.096,2.321 1.789,0 3.232,-1.444 3.232,-3.232 v -0.086 l -0.154,-7.016 3.49,9.251 c 2.512,6.672 6.33,12.707 11.143,17.796 4.008,4.214 8.701,7.79 13.912,10.507 0,0 21.838,-12.982 21.838,-42.627 0,-2.355 -0.139,-4.814 -0.43,-7.376 -0.275,-2.304 -0.654,-4.454 -1.17,-6.465 -9.045,-36.833 -54.303,-24.263 -58.652,-22.629 -4.575,1.719 -10.299,9.904 -10.299,9.904 z"
       id="path58" /><path
       fill="#fabba4"
       d="m 601.42,195.397 c -0.006,0.061 0.008,0.485 0.008,0.485 0.059,2.025 1.814,3.636 6.16,3.51 l -0.609,-15.817 c -3.53,5.381 -5.241,8.508 -5.559,11.822 z"
       id="path60"
       style="fill:#e79479;fill-opacity:1" /><path
       fill="#7d4c3a"
       d="m 603.785,176.251 h 9.67 c 1.125,0 2.043,-0.919 2.043,-2.042 v 0 c 0,-1.123 -0.918,-2.042 -2.043,-2.042 h -9.67 c -1.123,0 -2.043,0.919 -2.043,2.042 v 0 c 0,1.123 0.92,2.042 2.043,2.042 z"
       id="path62" /><path
       fill="#141743"
       d="m 609.221,183.534 v 0 c 0.801,0 1.457,-0.656 1.457,-1.459 v -2.148 c 0,-0.803 -0.656,-1.458 -1.457,-1.458 v 0 c -0.805,0 -1.461,0.656 -1.461,1.458 v 2.148 c 0,0.802 0.656,1.459 1.461,1.459 z"
       id="path64" /><path
       opacity="0.2"
       fill="#141743"
       d="m 651.773,205.498 c 4.008,4.214 8.701,7.79 13.912,10.507 0,0 21.838,-12.982 21.838,-42.627 0,-2.355 -0.139,-4.814 -0.43,-7.376 -0.275,-2.304 -0.654,-4.454 -1.17,-6.465 -0.965,5.64 -3.508,14.186 -10.008,24.744 -9.886,16.058 -20.616,20.237 -24.142,21.217 z"
       id="path66" /><path
       fill="#7d4c3a"
       d="m 607.666,204.291 0.287,11.067 c 0,9.436 11.176,13.227 19.473,12.331 l 13.219,-1.429 -1.332,-11.457 -3.605,-21.925 5.826,-16.373 -12.004,4.983 0.002,0.018 c 0.908,13.01 -8.414,23.526 -21.441,22.924 z"
       id="path68" /><path
       fill="#fabba4"
       d="m 638.09,176.097 c -1.336,0.008 -2.412,1.098 -2.402,2.435 l 0.055,8.236 0.057,7.196 2.828,-0.017 c 0.209,-0.004 0.414,-0.008 0.609,-0.038 4.73,-0.358 8.463,-4.494 8.439,-9.221 -0.01,-2.454 -1.053,-4.541 -2.711,-6.164 -1.486,-1.447 -3.49,-2.272 -5.705,-2.396 h -0.014 c -0.256,-0.038 -0.477,-0.047 -0.734,-0.033 z"
       id="path70"
       style="fill:#e79479;fill-opacity:1" /></g><g
     id="g96"><g
       id="g82"><path
         fill="#fbaf3e"
         d="m 106.128,443.009 v 18.779 l 86.984,-0.002 c 5.184,0 9.39,-4.205 9.39,-9.389 0,-2.586 -1.052,-4.936 -2.747,-6.643 -1.706,-1.695 -4.056,-2.746 -6.643,-2.746 h -86.984 z"
         id="path74" /><path
         fill="#ffd72f"
         d="m 156.974,449.278 v -6.232 h 36.324 c 4.07,0 7.547,2.6 8.847,6.232 z"
         id="path76" /><path
         fill="#f28155"
         d="m 85.368,443.009 v 18.779 l 86.984,-0.002 c 5.183,0 9.389,-4.205 9.389,-9.389 0,-2.586 -1.051,-4.936 -2.747,-6.643 -1.705,-1.695 -4.056,-2.746 -6.642,-2.746 H 85.368 Z"
         id="path78" /><path
         fill="#ffffff"
         d="m 85.368,446.229 v 12.039 h 84.451 c 3.327,0 6.021,-2.693 6.021,-6.02 0,-1.666 -0.677,-3.168 -1.76,-4.26 -1.096,-1.086 -2.598,-1.76 -4.261,-1.76 H 85.368 Z"
         id="path80" /></g><g
       id="g94"><path
         fill="#a2cc3b"
         d="m 102.741,461.896 v 18.783 h 86.985 c 5.184,0 9.384,-4.207 9.384,-9.391 0,-1.594 -0.397,-3.096 -1.097,-4.41 -0.439,-0.82 -1,-1.578 -1.65,-2.236 -1.706,-1.697 -4.053,-2.746 -6.637,-2.746 z"
         id="path84" /><path
         fill="#709c3f"
         d="m 111.759,461.896 v 4.982 h 86.254 c -0.439,-0.82 -1,-1.578 -1.65,-2.236 -1.706,-1.697 -4.053,-2.746 -6.637,-2.746 z"
         id="path86" /><path
         fill="#709c3f"
         d="m 111.759,480.687 v -4.979 h 86.254 c -0.439,0.82 -1,1.574 -1.65,2.234 -1.706,1.697 -4.053,2.744 -6.637,2.744 h -77.967 z"
         id="path88" /><path
         fill="#4d853d"
         d="m 73.928,461.897 v 18.777 h 86.984 c 5.185,0 9.391,-4.205 9.391,-9.389 0,-2.586 -1.053,-4.936 -2.747,-6.643 -1.707,-1.695 -4.057,-2.746 -6.644,-2.746 H 73.928 Z"
         id="path90" /><path
         fill="#ffffff"
         d="m 73.928,465.118 v 12.037 h 84.451 c 3.328,0 6.021,-2.691 6.021,-6.02 0,-1.662 -0.675,-3.164 -1.76,-4.26 -1.095,-1.084 -2.597,-1.76 -4.261,-1.76 z"
         id="path92" /></g></g><g
     id="g870"><g
       id="g112"><rect
         x="510.297"
         y="43.883999"
         fill="#dbdae0"
         width="109.773"
         height="23.355"
         id="rect98" /><rect
         x="569.59601"
         y="43.618999"
         fill="#ffffff"
         width="50.765999"
         height="23.886999"
         id="rect100" /><g
         id="g110"><line
           fill="none"
           stroke="#b0adc0"
           stroke-width="1.7994"
           stroke-miterlimit="10"
           x1="510.39401"
           y1="48.182999"
           x2="620.26599"
           y2="48.182999"
           id="line102" /><line
           fill="none"
           stroke="#b0adc0"
           stroke-width="1.7994"
           stroke-miterlimit="10"
           x1="510.39401"
           y1="52.881001"
           x2="620.26599"
           y2="52.881001"
           id="line104" /><line
           fill="none"
           stroke="#b0adc0"
           stroke-width="1.7994"
           stroke-miterlimit="10"
           x1="510.39401"
           y1="57.578999"
           x2="620.26599"
           y2="57.578999"
           id="line106" /><line
           fill="none"
           stroke="#b0adc0"
           stroke-width="1.7994"
           stroke-miterlimit="10"
           x1="510.39401"
           y1="62.276001"
           x2="620.26599"
           y2="62.276001"
           id="line108" /></g></g><g
       id="g170"><g
         id="g148"><path
           fill="#244789"
           d="m 415.226,156.019 -3.559,136.033 h -80.729 l -2.14,-134.445 c -0.004,-17.191 13.018,-31.495 30.151,-34.379 2.062,-0.34 4.177,-0.52 6.348,-0.521 l 12.339,-0.003 c 20.16,-0.005 37.586,14.049 37.59,33.315 z"
           id="path114"
           style="fill:#d36652;fill-opacity:1" /><g
           id="g142"><path
             fill="#d36652"
             d="m 384.571,104.818 -19.357,0.005 C 350.146,104.827 337.926,92.614 337.923,77.545 L 337.917,58.548 C 337.911,39.604 353.265,24.242 372.21,24.237 l 5.326,-10e-4 c 18.944,-0.005 34.305,15.348 34.31,34.292 l 0.005,18.997 c 0.003,15.07 -12.209,27.289 -27.28,27.293 z"
             id="path116"
             style="fill:#28170b" /><path
             fill="#fbc7b1"
             d="m 347.729,66.176 -0.496,8.244 -0.345,5.566 -2.6,-0.109 c -0.19,-0.01 -0.38,-0.02 -0.559,-0.05 -4.334,-0.438 -7.603,-3.765 -7.389,-7.423 0.105,-1.899 1.151,-3.478 2.741,-4.678 1.426,-1.069 3.302,-1.64 5.345,-1.659 h 0.012 c 0.238,-0.02 0.439,-0.02 0.677,0 z"
             id="path118"
             style="fill:#753a00;fill-opacity:1" /><path
             fill="#fbc7b1"
             d="m 404.419,66.351 0.502,8.245 0.347,5.565 2.601,-0.11 c 0.189,-0.01 0.38,-0.02 0.558,-0.051 4.334,-0.44 7.6,-3.769 7.386,-7.426 -0.108,-1.898 -1.154,-3.478 -2.744,-4.676 -1.427,-1.069 -3.304,-1.638 -5.347,-1.657 h -0.011 c -0.237,-0.021 -0.439,-0.021 -0.678,0 z"
             id="path120"
             style="fill:#753a00;fill-opacity:1" /><path
             fill="#f3a892"
             d="m 377.309,135.773 -5.662,0.001 c -5.493,0.001 -9.99,-4.493 -9.991,-9.986 l -0.009,-28.757 c -0.002,-5.494 4.494,-9.99 9.988,-9.991 l 5.662,-0.001 c 5.494,-0.001 9.99,4.493 9.992,9.986 l 0.008,28.756 c 0.002,5.494 -4.492,9.99 -9.988,9.992 z"
             id="path122"
             style="fill:#753a00;fill-opacity:1" /><path
             fill="#fbc7b1"
             d="m 409.414,65.02 -0.805,15.084 -0.118,2.258 c -0.071,1.487 -0.272,2.963 -0.558,4.382 -2.431,11.986 -12.036,21.466 -24.268,24.476 -1.365,0.341 -2.767,0.591 -4.191,0.762 -0.428,0.068 -0.868,0.102 -1.295,0.125 -0.902,0.091 -1.805,0.137 -2.72,0.138 -0.652,0 -1.307,-0.023 -1.973,-0.045 -1.494,-0.079 -2.944,-0.249 -4.381,-0.51 -0.594,-0.102 -1.177,-0.227 -1.759,-0.362 -2.22,-0.499 -4.335,-1.225 -6.342,-2.133 0,0 -0.012,0 -0.023,-0.011 -9.622,-4.345 -16.63,-12.901 -18.546,-22.968 -0.012,-0.034 -0.012,-0.057 -0.012,-0.091 -0.189,-1.089 -0.332,-2.19 -0.416,-3.303 -0.035,-0.352 -0.049,-0.692 -0.06,-1.044 -0.013,-0.363 -0.024,-0.715 -0.013,-1.078 -0.022,-0.42 -0.001,-0.851 0.023,-1.283 V 79.19 l 0.047,-1.033 0.154,-2.69 0.236,-4.608 v -0.044 l 0.236,-4.654 0.012,-0.09 v -0.012 l 0.095,-1.714 0.07,-1.339 0.072,-1.226 0.022,-0.317 c 0.131,-2.134 0.582,-4.2 1.234,-6.174 0.438,-1.385 0.984,-2.736 1.59,-4.03 0.082,-0.216 0.166,-0.397 0.261,-0.59 0.498,-1.067 1.08,-2.123 1.71,-3.121 0,-0.011 0.012,-0.023 0.012,-0.023 2.386,-3.814 5.604,-7.117 9.402,-9.671 0.76,-0.511 1.544,-1 2.34,-1.454 5.545,-3.112 12.053,-4.781 18.917,-4.442 9.181,0.452 17.412,4.388 23.149,10.401 1.688,1.771 3.065,3.7 4.193,5.788 0.939,1.691 1.712,3.473 2.377,5.356 0.429,1.18 0.738,2.395 0.963,3.621 0,0 0,0.011 0,0.023 0.072,0.419 0.132,0.828 0.179,1.248 0.096,0.738 0.167,1.487 0.202,2.247 0.078,1.426 0.066,2.89 -0.016,4.378 z"
             id="path124"
             style="fill:#753a00;fill-opacity:1" /><g
             id="g138"><path
               fill="#191d4c"
               d="m 388.262,74.74 h -0.066 c -0.798,0 -1.452,-0.653 -1.452,-1.451 l -0.001,-4.475 c -10e-4,-0.798 0.653,-1.451 1.451,-1.452 h 0.066 c 0.799,0 1.451,0.653 1.452,1.451 l 0.001,4.475 c 10e-4,0.799 -0.652,1.452 -1.451,1.452 z"
               id="path126"
               style="fill:#000000;fill-opacity:1" /><path
               fill="#191d4c"
               d="m 362.331,74.652 h -0.065 c -0.798,0 -1.451,-0.653 -1.451,-1.451 l -10e-4,-4.475 c -0.001,-0.798 0.652,-1.451 1.45,-1.451 h 0.065 c 0.8,0 1.452,0.652 1.452,1.45 l 10e-4,4.475 c 0,0.799 -0.651,1.452 -1.451,1.452 z"
               id="path128"
               style="fill:#000000;fill-opacity:1" /><path
               fill="#d36652"
               d="m 393.688,63.276 -11.231,0.002 c -0.831,0 -1.511,-0.679 -1.51,-1.509 v 0 c -10e-4,-0.83 0.679,-1.51 1.509,-1.511 l 11.231,-0.002 c 0.83,0 1.51,0.679 1.51,1.509 v 0 c 0,0.831 -0.679,1.511 -1.509,1.511 z"
               id="path130"
               style="fill:#28170b" /><path
               fill="#d36652"
               d="m 368.153,63.282 -11.23,0.002 c -0.831,0 -1.511,-0.679 -1.511,-1.509 v 0 c 0,-0.831 0.68,-1.51 1.51,-1.51 l 11.231,-0.003 c 0.83,0 1.51,0.679 1.51,1.509 v 0 c 0,0.832 -0.679,1.511 -1.51,1.511 z"
               id="path132"
               style="fill:#28170b" /><path
               fill="#ffffff"
               d="m 384.095,88.668 c -3.038,4.258 -5.833,7.091 -9.986,6.477 -3.483,-0.514 -6.31,-3.012 -8.05,-6.714 z"
               id="path134" /><path
               fill="#f89f7c"
               d="m 371.572,79.378 7.125,-0.001 c 0,0 -3.363,4.541 -7.125,0.001 z"
               id="path136"
               style="fill:#9e4c00;fill-opacity:1" /></g><path
             fill="#fbc7b1"
             d="m 409.414,65.02 -0.805,15.084 -0.118,2.258 c -0.071,1.487 -0.272,2.963 -0.558,4.382 -2.431,11.986 -12.036,21.466 -24.268,24.476 -1.365,0.341 -2.767,0.591 -4.191,0.762 -0.428,0.068 -0.868,0.102 -1.295,0.125 -0.902,0.091 -1.805,0.137 -2.72,0.138 -0.652,0 -1.307,-0.023 -1.973,-0.045 -1.697,-0.068 -3.359,-0.249 -4.999,-0.521 -0.332,-0.057 -0.653,-0.102 -0.985,-0.17 -2.245,-0.499 -4.371,-1.225 -6.391,-2.133 0,0 -0.011,0 -0.023,-0.011 -9.692,-4.378 -16.76,-12.992 -18.652,-23.149 -0.012,-0.034 -0.012,-0.057 -0.012,-0.091 -0.201,-1.089 -0.344,-2.19 -0.416,-3.303 -0.035,-0.352 -0.049,-0.692 -0.06,-1.044 -0.013,-0.363 -0.024,-0.715 -0.013,-1.078 -0.022,-0.42 -10e-4,-0.851 0.023,-1.283 V 79.19 l 0.047,-1.033 0.154,-2.69 0.236,-4.608 c 1.489,16.878 7.741,38.202 29.76,39.06 30.486,1.184 36.809,-30.847 37.277,-49.279 0.076,1.428 0.064,2.892 -0.018,4.38 z"
             id="path140" /></g><g
           id="g146"><polygon
             fill="#244789"
             points="358.657,120.324 365.776,120.09 373.348,136.362 381.684,120.555 389.276,120.687 389.803,292.052 357.661,292.052 "
             id="polygon144"
             style="fill:#d36652;fill-opacity:1" /></g></g><polygon
         fill="#b0adc0"
         points="361.666,115.018 365.917,119.956 361.2,127.592 354.984,124.379 "
         id="polygon150" /><polygon
         fill="#b0adc0"
         points="387.443,115.907 381.754,120.443 386.802,127.586 392.967,125.575 "
         id="polygon152" /><ellipse
         fill="#d36652"
         cx="401.71399"
         cy="45.005001"
         rx="11.721"
         ry="11.202"
         id="ellipse154"
         style="fill:#28170b" /><ellipse
         fill="#d36652"
         cx="383.08099"
         cy="48.743999"
         rx="9.0170002"
         ry="8.6169996"
         id="ellipse156"
         style="fill:#28170b" /><ellipse
         fill="#d36652"
         cx="368.95599"
         cy="49.321999"
         rx="8.415"
         ry="8.0419998"
         id="ellipse158"
         style="fill:#28170b" /><ellipse
         fill="#d36652"
         cx="353.479"
         cy="47.171001"
         rx="7.9640002"
         ry="7.6110001"
         id="ellipse160"
         style="fill:#28170b" /><path
         fill="#d36652"
         d="m 363.992,31.084 c 0,0 16.83,-4.6 25.847,1.429 9.02,6.03 13.829,14.357 13.829,14.357 l -34.561,2.881 -20.738,-3.154 7.96,-14.507"
         id="path162"
         style="fill:#28170b" /><path
         fill="#d36652"
         d="m 348.972,49.327 -3.825,24.32 c -0.178,1.128 -1.508,1.71 -2.517,1.102 v 0 c -0.449,-0.271 -0.735,-0.731 -0.769,-1.238 l -1.154,-17.719 c 0,0 6.158,-14.651 8.265,-6.465 z"
         id="path164"
         style="fill:#28170b" /><path
         fill="#d36652"
         d="m 401.867,52.473 3.838,24.319 c 0.177,1.128 1.507,1.709 2.517,1.1 v 0 c 0.448,-0.271 0.734,-0.732 0.766,-1.238 l 1.145,-22.603 c -10e-4,0 -6.164,-9.764 -8.266,-1.578 z"
         id="path166"
         style="fill:#28170b" /><path
         fill="#d36652"
         d="m 345.371,72.449 c -0.45,5.888 2.863,32.886 28.41,33.455 25.546,0.568 30.689,-25.563 31.097,-31.028 0.406,-5.464 4.207,-4.884 4.207,-3.735 l -0.147,14.084 c 0.005,16.492 -13.98,29.864 -31.236,29.869 l -3.629,0.001 c -17.255,0.004 -32.45,-12.51 -32.456,-29.001 l 0.148,-13.5 c 0,0 3.644,-0.647 3.606,-0.145 z"
         id="path168"
         style="fill:#28170b" /></g><rect
       x="349.51801"
       y="511.80801"
       transform="matrix(0.9996,-0.0278,0.0278,0.9996,-14.3362,10.1669)"
       fill="#0e133a"
       width="16.98"
       height="16.410999"
       id="rect172" /><g
       id="g178"><path
         fill="#87888d"
         d="m 370.754,529.716 -24.948,0.693 v 0 c -0.151,-5.443 4.142,-9.982 9.588,-10.133 l 5.222,-0.146 c 5.447,-0.152 9.987,4.141 10.138,9.586 z"
         id="path174" /><rect
         x="345.32001"
         y="529.841"
         transform="matrix(0.9996,-0.0278,0.0278,0.9996,-14.6641,10.1755)"
         fill="#191d4c"
         width="25.754"
         height="4.0370002"
         id="rect176" /></g><polygon
       fill="#6d1a48"
       points="348.396,517.286 346.426,517.353 337.316,403.751 333.186,315.603 333.061,312.954 332.914,309.808 332.88,309.175 365.675,308.099 368.098,308.021 369.841,307.964 369.717,312.954 368.534,505.46 368.534,505.472 368.298,515.022 368.252,516.526 368.252,516.62 "
       id="polygon180" /><path
       opacity="0.62"
       fill="#0e133a"
       d="m 373.362,331.255 c 0,0 0,0.418 -0.023,1.199 -0.012,-0.68 -0.012,-1.1 0.023,-1.199 z"
       id="path182" /><polygon
       fill="#6d1a48"
       points="330.992,289.103 411.475,289.103 411.054,313.53 333.068,313.149 "
       id="polygon184" /><path
       opacity="0.16"
       fill="#0e133a"
       d="m 373.362,331.255 c 0,0 0,0.418 -0.023,1.199 -0.012,-0.68 -0.012,-1.1 0.023,-1.199 z"
       id="path186" /><polygon
       fill="#757678"
       points="345.625,517.665 345.153,511.845 369.069,511.53 368.598,517.036 "
       id="polygon188" /><polygon
       fill="#0e133a"
       points="390.281,511.128 390.828,527.53 407.802,527.054 407.256,510.653 "
       id="polygon190" /><g
       id="g196"><path
         fill="#87888d"
         d="m 386.911,529.487 24.946,-0.699 v 0 c -0.181,-5.443 -4.744,-9.734 -10.19,-9.582 l -5.222,0.146 c -5.447,0.153 -9.716,4.692 -9.534,10.135 z"
         id="path192" /><polygon
         fill="#191d4c"
         points="386.638,529.271 386.771,533.304 412.516,532.581 412.382,528.55 "
         id="polygon194" /></g><polygon
       fill="#6d1a48"
       points="408.471,515.831 410.442,515.79 412.591,401.872 411.328,313.642 411.291,310.991 411.245,307.843 411.24,307.208 378.436,307.966 376.012,308.022 374.269,308.062 374.698,313.038 387.644,505.147 387.644,505.159 388.466,514.683 388.602,516.183 388.607,516.272 "
       id="polygon198" /><polygon
       fill="#757678"
       points="411.26,516.054 411.376,510.22 387.479,511.239 388.288,516.708 "
       id="polygon200" /><g
       id="g216"><path
         fill="#f1ae9b"
         d="m 338.42,154.307 c 0,0 -10.112,29.893 -11.177,67.447 -0.815,28.914 -2.021,95.937 -2.021,95.937 l -13.082,-0.268 c 0,0 -4.013,-38.832 -3.805,-92.288 0.207,-53.458 15.001,-76.834 20.582,-78.672 5.581,-1.838 9.992,1.442 9.503,7.844 z"
         id="path202"
         style="fill:#753a00;fill-opacity:1" /><g
         id="g214"><path
           fill="#f1ae9b"
           d="m 334.856,334.388 -6.752,-12.494 c -0.786,-1.457 -2.554,-2.084 -3.928,-1.391 l -0.252,0.127 c -1.372,0.695 -1.852,2.453 -1.064,3.912 l 6.75,12.494 c 0.788,1.459 2.556,2.084 3.928,1.391 l 0.253,-0.129 c 1.372,-0.692 1.852,-2.451 1.065,-3.91 z"
           id="path204" /><path
           fill="#f1ae9b"
           d="m 309.544,323.274 c 0,0 0.897,9.33 1.083,12.029 0.36,5.223 1.84,7.807 5.264,8.086 l 6.93,-1.332 c 3.691,-1.309 5.367,-2.104 5.615,-5.383 l 0.813,-10.795 c 0.248,-3.277 -3.377,-12.25 -6.801,-12.529 l -7.018,-0.891 c -3.423,-0.278 -5.638,7.536 -5.886,10.815 z"
           id="path206"
           style="fill:#753a00;fill-opacity:1" /><path
           fill="#f1ae9b"
           d="m 323.248,338.97 1.702,12.24 c 0.213,1.984 1.486,3.516 2.83,3.402 v 0 c 1.346,-0.111 2.271,-1.826 2.059,-3.811 l -1.703,-12.242 c -0.212,-1.982 -1.486,-3.514 -2.83,-3.402 v 0 c -1.345,0.114 -2.271,1.83 -2.058,3.813 z"
           id="path208" /><path
           fill="#f1ae9b"
           d="m 317.743,342.231 1.702,12.24 c 0.213,1.984 1.487,3.516 2.831,3.402 v 0 c 1.345,-0.113 2.271,-1.828 2.059,-3.813 l -1.704,-12.238 c -0.212,-1.984 -1.485,-3.518 -2.83,-3.402 v 0 c -1.345,0.112 -2.271,1.827 -2.058,3.811 z"
           id="path210" /><path
           fill="#f1ae9b"
           d="m 311.42,339.497 1.703,12.238 c 0.212,1.984 1.485,3.516 2.829,3.402 v 0 c 1.346,-0.111 2.271,-1.828 2.059,-3.813 l -1.702,-12.238 c -0.212,-1.984 -1.487,-3.516 -2.831,-3.402 v 0 c -1.345,0.114 -2.271,1.829 -2.058,3.813 z"
           id="path212"
           style="fill:#753a00;fill-opacity:1" /></g></g><g
       id="g232"><path
         fill="#f1ae9b"
         d="m 407.054,154.307 c 0,0 10.112,29.893 11.174,67.447 0.819,28.914 2.021,95.937 2.021,95.937 l 13.082,-0.268 c 0,0 4.014,-38.832 3.806,-92.288 -0.207,-53.458 -15.002,-76.834 -20.582,-78.672 -5.58,-1.838 -9.992,1.442 -9.501,7.844 z"
         id="path218"
         style="fill:#753a00;fill-opacity:1" /><g
         id="g230"><path
           fill="#f1ae9b"
           d="m 410.615,334.388 6.751,-12.494 c 0.786,-1.457 2.554,-2.084 3.928,-1.391 l 0.252,0.127 c 1.374,0.695 1.854,2.453 1.066,3.912 l -6.75,12.494 c -0.788,1.459 -2.556,2.084 -3.929,1.391 l -0.253,-0.129 c -1.371,-0.692 -1.851,-2.451 -1.065,-3.91 z"
           id="path220"
           style="fill:#753a00;fill-opacity:1" /><path
           fill="#f1ae9b"
           d="m 435.928,323.274 c 0,0 -0.896,9.33 -1.082,12.029 -0.359,5.223 -1.84,7.807 -5.264,8.086 l -6.93,-1.332 c -3.692,-1.309 -5.369,-2.104 -5.615,-5.383 l -0.814,-10.795 c -0.246,-3.277 3.376,-12.25 6.802,-12.529 l 7.017,-0.891 c 3.424,-0.278 5.639,7.536 5.886,10.815 z"
           id="path222"
           style="fill:#753a00;fill-opacity:1" /><path
           fill="#f1ae9b"
           d="m 422.225,338.97 -1.703,12.24 c -0.213,1.984 -1.486,3.516 -2.83,3.402 v 0 c -1.345,-0.111 -2.271,-1.826 -2.059,-3.811 l 1.702,-12.242 c 0.213,-1.982 1.487,-3.514 2.831,-3.402 v 0 c 1.345,0.114 2.271,1.83 2.059,3.813 z"
           id="path224" /><path
           fill="#f1ae9b"
           d="m 427.729,342.231 -1.702,12.24 c -0.212,1.984 -1.486,3.516 -2.83,3.402 v 0 c -1.346,-0.113 -2.271,-1.828 -2.059,-3.813 l 1.703,-12.238 c 0.212,-1.984 1.486,-3.518 2.83,-3.402 v 0 c 1.345,0.112 2.27,1.827 2.058,3.811 z"
           id="path226" /><path
           fill="#f1ae9b"
           d="m 434.053,339.497 -1.703,12.238 c -0.213,1.984 -1.487,3.516 -2.83,3.402 v 0 c -1.346,-0.111 -2.271,-1.828 -2.059,-3.813 l 1.703,-12.238 c 0.213,-1.984 1.486,-3.516 2.831,-3.402 v 0 c 1.343,0.114 2.271,1.829 2.058,3.813 z"
           id="path228"
           style="fill:#753a00;fill-opacity:1" /></g></g><g
       id="g244"><ellipse
         fill="#ffffff"
         cx="373.63699"
         cy="168.209"
         rx="2.0539999"
         ry="1.9630001"
         id="ellipse234" /><ellipse
         fill="#ffffff"
         cx="373.63699"
         cy="195.757"
         rx="2.0539999"
         ry="1.9630001"
         id="ellipse236" /><ellipse
         fill="#ffffff"
         cx="373.63699"
         cy="223.306"
         rx="2.0539999"
         ry="1.964"
         id="ellipse238" /><ellipse
         fill="#ffffff"
         cx="373.63699"
         cy="250.854"
         rx="2.0539999"
         ry="1.964"
         id="ellipse240" /><ellipse
         fill="#ffffff"
         cx="373.63699"
         cy="278.401"
         rx="2.0539999"
         ry="1.967"
         id="ellipse242" /></g><path
       fill="#244789"
       d="m 352.086,125.092 -10.441,3.774 c -13.637,4.969 -23.837,16.494 -27.112,30.633 l -5.827,25.166 29.204,6.042 z"
       id="path246"
       style="fill:#d36652;fill-opacity:1" /><path
       fill="#244789"
       d="m 392.149,126.046 10.614,3.867 c 13.637,4.969 23.837,16.494 27.112,30.633 l 5.828,25.166 -29.205,6.042 z"
       id="path248"
       style="fill:#d36652;fill-opacity:1" /><path
       opacity="0.54"
       fill="#b0adc0"
       d="m 244.887,556.331 h 549.818 c 9.459,0 17.125,-7.668 17.125,-17.125 v 0 c 0,-9.459 -7.666,-17.125 -17.125,-17.125 H 244.887 c -9.459,0 -17.127,7.666 -17.127,17.125 v 0 c 0,9.457 7.668,17.125 17.127,17.125 z"
       id="path250" /><g
       id="g370"><path
         fill="#d36652"
         d="m 223.003,166.947 -2.589,-4.593 c -3.505,-6.212 -9.904,-10.241 -17.021,-10.715 v 0 c -7.14,-0.476 -14.038,2.69 -18.333,8.416 v 0 c -0.339,0.453 -0.669,0.911 -0.989,1.375 -6.093,8.827 -8.479,23.245 -4.014,44.292 l 8.464,53.73 28.21,3.99 8.983,-85.206 c 0.168,-3.942 -0.772,-7.852 -2.711,-11.289 z"
         id="path252" /><g
         id="g270"><g
           id="g264"><g
             id="g260"><path
               fill="#fbc7b1"
               d="m 320.354,322.659 13.175,-3.811 c 0.962,-0.275 1.521,-1.291 1.243,-2.254 v 0 c -0.277,-0.961 -1.293,-1.521 -2.255,-1.244 l -13.175,3.809 c -0.962,0.277 -1.522,1.293 -1.245,2.256 v 0 c 0.279,0.963 1.293,1.522 2.257,1.244 z"
               id="path254" /><path
               fill="#fbc7b1"
               d="m 325.082,325.765 10.577,-3.059 c 0.963,-0.279 1.522,-1.293 1.245,-2.256 v 0 c -0.278,-0.961 -1.293,-1.52 -2.256,-1.242 l -10.58,3.057 c -0.961,0.279 -1.52,1.293 -1.241,2.256 v 0 c 0.277,0.96 1.292,1.523 2.255,1.244 z"
               id="path256" /><path
               fill="#fbc7b1"
               d="m 323.169,330.786 12.521,-3.619 c 0.962,-0.279 1.521,-1.293 1.242,-2.256 v 0 c -0.277,-0.963 -1.293,-1.523 -2.255,-1.244 l -12.521,3.619 c -0.962,0.277 -1.521,1.293 -1.243,2.256 v 0 c 0.278,0.961 1.293,1.521 2.256,1.244 z"
               id="path258" /></g><path
             fill="#fbc7b1"
             d="m 325.725,318.466 c -0.143,0.035 -1.793,0.217 -3.584,0.408 -3.09,0.328 -6.06,1.391 -8.658,3.094 l -4.979,3.262 c 0,0 4.15,8.635 4.577,8.66 10.448,0.584 13.381,-4.488 13.381,-4.488 z"
             id="path262" /></g><g
           id="g268"><path
             fill="#fbc7b1"
             d="m 235.575,284.343 c 0,0 6.123,16.387 12.312,29.711 1.724,3.697 3.448,7.156 5.043,9.967 0.467,0.814 0.941,1.607 1.44,2.367 6.177,9.611 14.461,14.973 26.181,13.525 0.107,-0.014 34.507,-5.867 34.507,-5.867 l -1.979,-11.93 -35.583,3.078 c -3.854,0.525 -9.55,-4.859 -12.022,-8.521 -0.192,-0.285 -0.364,-0.559 -0.516,-0.818 -1.169,-2.014 -2.447,-4.5 -3.789,-7.273 -8.029,-16.668 -18.132,-43.969 -18.132,-43.969 z"
             id="path266" /></g></g><path
         fill="#fdbc4a"
         d="m 240.075,253.583 c 0.712,1.067 17.084,33.1 17.084,33.1 l -12.813,11.746 z"
         id="path272" /><g
         id="g318"><path
           fill="#6d1a48"
           d="m 245.83,414.907 -77.092,7.65 -28.294,-143.609 43.614,-0.24 c 19.189,-0.066 35.79,13.342 39.76,32.117 z"
           id="path274" /><path
           fill="#f04847"
           d="M 148.002,415.839 131.041,290.177 c -0.755,-5.6 3.207,-10.797 8.805,-11.555 v 0 c 5.599,-0.756 10.798,3.209 11.553,8.807 l 16.962,125.662 c 0.756,5.6 -3.208,10.797 -8.807,11.555 v 0 c -5.598,0.753 -10.796,-3.208 -11.552,-8.807 z"
           id="path276" /><g
           id="g316"><g
             id="g282"><rect
               x="206.089"
               y="433.05399"
               fill="#39477a"
               width="11.947"
               height="70.469002"
               id="rect278" /><path
               fill="#191d4c"
               d="m 218.036,437.155 v 15.924 l -11.947,-4.621 v -10.783 c 2.988,-0.139 8.743,-0.379 11.947,-0.52 z"
               id="path280" /></g><path
             fill="#39477a"
             d="m 239.743,438.751 h -53.387 c -2.937,0 -5.338,-2.402 -5.338,-5.338 v 0 c 0,-2.938 2.401,-5.34 5.338,-5.34 h 53.387 c 2.936,0 5.338,2.402 5.338,5.34 v 0 c 0,2.936 -2.402,5.338 -5.338,5.338 z"
             id="path284" /><path
             fill="#6d1a48"
             d="m 265.871,432.345 h -61.362 c -7.341,0 -13.348,-6.008 -13.348,-13.348 v 0 c 0,-7.342 6.007,-13.35 13.348,-13.35 h 61.362 c 7.341,0 13.349,6.008 13.349,13.35 v 0 c 0,7.34 -6.008,13.348 -13.349,13.348 z"
             id="path286" /><path
             fill="#f04847"
             d="m 211.95,432.702 h -49.082 c -7.341,0 -13.349,-6.008 -13.349,-13.35 v 0 c 0,-7.344 6.008,-13.348 13.349,-13.348 h 49.082 c 7.342,0 13.35,6.004 13.35,13.348 v 0 c 0,7.342 -6.008,13.35 -13.35,13.35 z"
             id="path288" /><g
             id="g296"><g
               id="g292"><path
                 fill="#191d4c"
                 d="m 262.699,527.015 h -7.476 c 0,-8.928 -7.264,-16.191 -16.193,-16.191 h -54.454 c -8.929,0 -16.193,7.264 -16.193,16.191 h -7.474 c 0,-13.049 10.617,-23.666 23.667,-23.666 h 54.454 c 13.051,0 23.669,10.617 23.669,23.666 z"
                 id="path290" /></g><rect
               x="203.261"
               y="492.138"
               fill="#191d4c"
               width="17.440001"
               height="11.389"
               id="rect294" /></g><g
             id="g306"><circle
               fill="#191d4c"
               cx="164.36099"
               cy="534.24298"
               r="6.2080002"
               id="circle298" /><path
               fill="#39477a"
               d="m 173.314,533.694 h -16.991 v -1.885 c 0,-4.512 3.658,-8.17 8.17,-8.17 h 0.651 c 4.513,0 8.17,3.658 8.17,8.17 z"
               id="path300" /><circle
               fill="#191d4c"
               cx="259.31201"
               cy="534.24298"
               r="6.2080002"
               id="circle302" /><path
               fill="#39477a"
               d="m 268.265,533.694 h -16.991 v -1.885 c 0,-4.512 3.658,-8.17 8.17,-8.17 h 0.651 c 4.513,0 8.17,3.658 8.17,8.17 z"
               id="path304" /></g><rect
             x="207.388"
             y="505.66101"
             fill="#191d4c"
             width="9.8929996"
             height="22.422001"
             id="rect308" /><g
             id="g314"><circle
               fill="#191d4c"
               cx="212.54201"
               cy="534.24298"
               r="6.2080002"
               id="circle310" /><path
               fill="#39477a"
               d="m 221.494,533.694 h -16.99 v -1.885 c 0,-4.512 3.658,-8.17 8.17,-8.17 h 0.65 c 4.513,0 8.17,3.658 8.17,8.17 z"
               id="path312" /></g></g></g><path
         fill="#1b2c58"
         d="m 235.54,422.878 -0.441,-0.176 c 0.126,0.285 0.441,0.176 0.441,0.176 z"
         id="path320" /><path
         fill="#1b2c58"
         d="m 235.54,422.878 -0.441,-0.176 c 0.126,0.285 0.441,0.176 0.441,0.176 z"
         id="path322" /><path
         fill="#1c1c2d"
         d="m 189.893,362.136 0.558,22.889 c 0.308,12.57 5.314,23.021 21.33,23.557 l 41.641,5.338 v -25.092 l -5.338,-17.084 z"
         id="path324" /><g
         id="g344"><g
           id="g330"><path
             fill="#858484"
             d="m 285.293,539.165 43.404,1.17 c 2.589,0.07 4.742,-2.02 4.811,-4.664 v 0 c 0.054,-2.037 -1.161,-3.887 -3.026,-4.609 l -21.277,-8.236 -23.488,-0.045 z"
             id="path326" /><path
             fill="#191d4c"
             d="m 329.5,541.591 -43.911,-0.854 0.059,-3.219 47.097,0.914 v 0.031 c -0.033,1.761 -1.487,3.161 -3.245,3.128 z"
             id="path328" /></g><g
           id="g338"><line
             fill="none"
             stroke="#191d4c"
             stroke-width="1.1138"
             stroke-linecap="round"
             stroke-miterlimit="10"
             x1="308"
             y1="529.30402"
             x2="313.31601"
             y2="523.83502"
             id="line332" /><line
             fill="none"
             stroke="#191d4c"
             stroke-width="1.1138"
             stroke-linecap="round"
             stroke-miterlimit="10"
             x1="311.78799"
             y1="530.987"
             x2="317.104"
             y2="525.51703"
             id="line334" /><line
             fill="none"
             stroke="#191d4c"
             stroke-width="1.1138"
             stroke-linecap="round"
             stroke-miterlimit="10"
             x1="315.40302"
             y1="533.21399"
             x2="321.388"
             y2="527.00702"
             id="line336" /></g><g
           id="g342"><path
             fill="#1c1c2d"
             d="m 285.344,524.999 c 2.575,-43.289 4.224,-93.738 0.852,-101.844 -3.458,-5.031 -25.833,-10.305 -47.025,-16.166 l 4.464,-29.195 c 17.084,2.67 58.075,16.164 66.911,31.32 3.729,6.396 4.964,29.313 3.217,73.455 -0.917,23.121 -2.044,41.232 -2.044,41.232 z"
             id="path340" /></g></g><g
         id="g364"><g
           id="g350"><path
             fill="#9c9794"
             d="m 253.262,539.698 43.405,1.17 c 2.588,0.07 4.741,-2.018 4.81,-4.662 v 0 c 0.053,-2.041 -1.162,-3.887 -3.026,-4.609 l -21.276,-8.236 -23.49,-0.049 z"
             id="path346" /><path
             fill="#191d4c"
             d="m 297.468,542.122 -43.911,-0.85 0.061,-3.221 47.095,0.914 v 0.033 c -0.033,1.761 -1.486,3.159 -3.245,3.124 z"
             id="path348" /></g><g
           id="g358"><line
             fill="none"
             stroke="#191d4c"
             stroke-width="1.1138"
             stroke-linecap="round"
             stroke-miterlimit="10"
             x1="275.96899"
             y1="529.83899"
             x2="281.284"
             y2="524.36798"
             id="line352" /><line
             fill="none"
             stroke="#191d4c"
             stroke-width="1.1138"
             stroke-linecap="round"
             stroke-miterlimit="10"
             x1="279.75601"
             y1="531.52197"
             x2="285.07199"
             y2="526.052"
             id="line354" /><line
             fill="none"
             stroke="#191d4c"
             stroke-width="1.1138"
             stroke-linecap="round"
             stroke-miterlimit="10"
             x1="283.371"
             y1="533.745"
             x2="289.35599"
             y2="527.54199"
             id="line356" /></g><g
           id="g362"><path
             fill="#25263a"
             d="m 253.312,525.534 c 2.575,-43.291 4.225,-93.738 0.853,-101.844 -3.141,-3.178 -28.166,-9.191 -48.852,-15.203 -7.844,-2.279 -13.601,-8.973 -14.695,-17.066 l -1.081,-13.27 22.778,-1.068 c 17.084,2.67 57.362,17.41 66.198,32.564 3.731,6.398 4.965,29.314 3.217,73.455 -0.916,23.121 -2.043,41.23 -2.043,41.23 z"
             id="path360" /></g></g><path
         fill="#fdbc4a"
         d="m 249.957,374.911 -42.88,1.836 -17.957,0.775 h -0.077 l -5.252,-88.092 c -0.545,-11.986 0.708,-20.922 2.919,-27.582 6.485,-19.649 21.248,-19.487 22.683,-19.487 l 15.526,0.191 c 13.174,0 23.391,22.319 24.702,45.243 l 0.23,60.1 0.085,20.998 z"
         id="path366" /><path
         fill="#f4a32a"
         d="m 249.957,374.911 -42.88,1.836 -17.957,0.775 h -0.077 l -5.252,-88.092 c -0.545,-11.986 0.708,-20.922 2.919,-27.582 l 8.333,12.753 14.99,49.432 24.874,12.111 14.944,11.75 0.085,20.998 z"
         id="path368" /></g><line
       fill="#39477a"
       x1="718.38898"
       y1="523.716"
       x2="718.38898"
       y2="528.685"
       id="line372" /><rect
       x="583.41199"
       y="402.849"
       fill="#191d4c"
       width="65.109001"
       height="12.959"
       id="rect374" /><rect
       x="581.51801"
       y="358.78201"
       fill="#727083"
       width="14.641"
       height="180.813"
       id="rect376" /><rect
       x="636.039"
       y="358.78201"
       fill="#b2afc2"
       width="14.641"
       height="180.813"
       id="rect378" /><rect
       x="222.905"
       y="403.94199"
       fill="#727083"
       width="61.828999"
       height="12.957"
       id="rect380" /><rect
       x="221.62"
       y="358.87201"
       fill="#727083"
       width="14.642"
       height="180.811"
       id="rect382" /><rect
       x="274.871"
       y="358.78201"
       fill="#b2afc2"
       width="14.643"
       height="180.813"
       id="rect384" /><path
       fill="#d36652"
       d="M 203.568,359.737 H 407.79 V 349.18 c 0,-3.197 -2.591,-5.787 -5.785,-5.787 H 209.353 c -3.195,0 -5.784,2.59 -5.784,5.787 v 10.557 z"
       id="path386" /><g
       id="g392"><path
         fill="#f89f7c"
         d="M 667.883,349.177 V 359.74 H 263.092 v -10.563 c 0,-3.195 2.592,-5.779 5.787,-5.779 h 393.215 c 3.195,-0.001 5.789,2.583 5.789,5.779 z"
         id="path388" /><path
         fill="#d36652"
         d="m 626.189,343.397 v 16.342 H 515.693 c -1.942,-4.258 -5.081,-11.215 -7.31,-16.342 z"
         id="path390" /></g><g
       id="g470"><path
         fill="#dededd"
         d="m 527.499,343.952 h -83.16 c -0.464,-0.664 -0.83,-1.416 -1.051,-2.225 l -18.606,-67.168 c -0.896,-3.2 1.514,-6.369 4.838,-6.369 h 73.169 c 2.256,0 4.23,1.512 4.838,3.681 z"
         id="path394" /><path
         fill="#2d2e3b"
         d="m 453.436,344.558 h 78.026 l -20.805,-75.083 c -0.603,-2.172 -2.58,-3.674 -4.834,-3.674 h -73.102 c -3.316,0 -5.721,3.164 -4.834,6.359 l 18.594,67.108 c 0.866,3.128 3.711,5.29 6.955,5.29 z"
         id="path396" /><path
         fill="#30568d"
         d="m 431.998,275.118 15.194,54.719 3.188,11.459 h 77.409 l -3.18,-11.459 -15.893,-57.208 c -0.556,-2.012 -2.394,-3.399 -4.48,-3.399 h -67.759 c -3.071,0 -5.302,2.93 -4.479,5.888 z"
         id="path398" /><g
         id="g448"><g
           id="g410"><polygon
             fill="#edeef0"
             points="477.065,274.997 477.597,276.671 501.422,276.671 500.892,274.997 "
             id="polygon400" /><polygon
             fill="#ea5544"
             points="455.454,274.997 455.984,276.671 467.267,276.671 466.735,274.997 "
             id="polygon402" /><polygon
             fill="#a29fb0"
             points="439.168,274.997 439.698,276.671 450.979,276.671 450.448,274.997 "
             id="polygon404" /><polygon
             fill="#6f89c3"
             points="451.782,274.997 452.312,276.671 454.981,276.671 454.451,274.997 "
             id="polygon406" /><polygon
             fill="#a29fb0"
             points="468.042,274.997 468.572,276.671 476.48,276.671 475.949,274.997 "
             id="polygon408" /></g><g
           id="g418"><polygon
             fill="#dededd"
             points="493.657,303.585 494.188,305.261 482.906,305.261 482.376,303.585 "
             id="polygon412" /><polygon
             fill="#ffc644"
             points="509.944,303.585 510.475,305.261 499.193,305.261 498.663,303.585 "
             id="polygon414" /><polygon
             fill="#6f89c3"
             points="497.329,303.585 497.86,305.261 495.192,305.261 494.662,303.585 "
             id="polygon416" /></g><g
           id="g430"><polygon
             fill="#ea5544"
             points="494.221,282.144 494.751,283.819 503.686,283.819 503.155,282.144 "
             id="polygon420" /><polygon
             fill="#6f89c3"
             points="472.608,282.144 473.14,283.819 476.974,283.819 476.444,282.144 "
             id="polygon422" /><polygon
             fill="#ea5544"
             points="441.432,282.144 441.962,283.819 460.688,283.819 460.157,282.144 "
             id="polygon424" /><polygon
             fill="#6f89c3"
             points="461.491,282.144 462.021,283.819 472.135,283.819 471.604,282.144 "
             id="polygon426" /><polygon
             fill="#6f89c3"
             points="477.75,282.144 478.281,283.819 493.634,283.819 493.103,282.144 "
             id="polygon428" /></g><g
           id="g434"><polygon
             fill="#323e6f"
             points="507.799,325.026 508.33,326.702 517.266,326.702 516.732,325.026 "
             id="polygon432" /></g><g
           id="g442"><polygon
             fill="#dededd"
             points="496.483,289.292 497.014,290.968 505.949,290.968 505.419,289.292 "
             id="polygon436" /><polygon
             fill="#dededd"
             points="481.901,289.292 482.433,290.968 491.367,290.968 490.837,289.292 "
             id="polygon438" /><polygon
             fill="#6f89c3"
             points="446.174,289.292 446.704,290.968 462.057,290.968 461.526,289.292 "
             id="polygon440" /></g><g
           id="g446"><polygon
             fill="#6f89c3"
             points="507.682,296.438 508.212,298.114 492.858,298.114 492.328,296.438 "
             id="polygon444" /></g></g><polygon
         fill="#2d2e3b"
         points="524.61,329.837 447.192,329.837 450.381,341.296 527.79,341.296 "
         id="polygon450" /><g
         id="g454"><path
           fill="#85828e"
           d="m 488.915,344.735 h 95.056 c 2.221,0 4.039,-1.818 4.039,-4.039 v 0 c 0,-2.221 -1.818,-4.039 -4.039,-4.039 h -95.056 c -2.222,0 -4.04,1.818 -4.04,4.039 v 0 c 0,2.221 1.818,4.039 4.04,4.039 z"
           id="path452" /></g><polygon
         opacity="0.55"
         fill="#c5cae6"
         points="471.302,265.801 441.409,265.801 490.342,336.47 520.231,336.47 "
         id="polygon456" /><g
         id="g468"><g
           id="g460"><path
             fill="#dededd"
             d="m 452.98,344.685 h 56.376 c 2.278,0 4.142,-1.861 4.142,-4.141 v 0 c 0,-2.275 -1.863,-4.139 -4.142,-4.139 H 452.98 c -2.277,0 -4.14,1.863 -4.14,4.139 v 0 c 0.001,2.279 1.863,4.141 4.14,4.141 z"
             id="path458" /></g><g
           id="g466"><rect
             x="472.65201"
             y="339.08301"
             fill="#141743"
             width="7.8559999"
             height="2.359"
             id="rect462" /><rect
             x="482.86499"
             y="339.08301"
             fill="#141743"
             width="5.697"
             height="2.359"
             id="rect464" /></g></g></g><g
       id="g486"><g
         id="g478"><path
           fill="#f04847"
           d="m 367.539,322.712 v 21.512 h 17.97 v -21.512 c 0,-0.947 -0.771,-1.719 -1.718,-1.719 h -14.534 c -0.947,0 -1.718,0.772 -1.718,1.719 z"
           id="path472" /><g
           id="g476"><path
             fill="#f04847"
             d="m 385.288,340.542 c 0.234,-0.133 5.751,-3.365 6.243,-9.025 0.188,-2.156 -0.628,-3.494 -1.348,-4.236 -1.974,-2.039 -5.254,-1.922 -5.623,-1.902 l 0.145,2.625 c 0.665,-0.029 2.627,0.105 3.595,1.113 0.494,0.512 0.694,1.223 0.611,2.172 -0.374,4.307 -4.889,6.947 -4.934,6.973 z"
             id="path474" /></g></g><path
         fill="#f04847"
         d="m 375.937,344.224 h 9.572 v -21.512 c 0,-0.947 -0.771,-1.719 -1.718,-1.719 h -0.579 c -0.025,1.123 -0.333,9.705 -2.744,15.883 -2.094,5.383 -3.962,6.971 -4.531,7.348 z"
         id="path480" /><g
         id="g484"><path
           opacity="0.37"
           fill="#6d1a48"
           d="m 390.182,327.278 c -1.402,-1.445 -3.463,-1.805 -4.673,-1.893 v -2.674 c 0,-0.947 -0.771,-1.717 -1.718,-1.717 h -0.579 c -0.025,1.121 -0.333,9.703 -2.744,15.883 -2.094,5.381 -3.962,6.971 -4.531,7.346 h 9.572 v -3.82 c 1.07,-0.668 5.584,-3.799 6.023,-8.889 0.184,-2.158 -0.631,-3.49 -1.35,-4.236 z m -1.271,4.008 c -0.238,2.664 -2.042,4.689 -3.402,5.848 v -9.1 c 0.868,0.076 2.086,0.357 2.788,1.078 0.5,0.516 0.692,1.227 0.614,2.174 z"
           id="path482" /></g></g><g
       id="g530"><g
         id="g508"><g
           id="g504"><path
             fill="#dededd"
             d="M 387.347,344.946 H 323.03 c -4.208,0 -6.987,-4.373 -5.202,-8.184 l 22.433,-47.854 c 1.955,-4.174 6.146,-6.838 10.756,-6.838 h 59.213 c 3.068,0 5.096,3.189 3.794,5.967 z"
             id="path488" /><g
             id="g500"><g
               id="g492"><path
                 fill="#dbdae0"
                 d="m 323.268,345.11 h -45.86 c -1.853,0 -3.367,-1.514 -3.367,-3.367 v 0 c 0,-1.854 1.515,-3.367 3.367,-3.367 h 45.86 c 1.853,0 3.368,1.514 3.368,3.367 v 0 c 0,1.854 -1.516,3.367 -3.368,3.367 z"
                 id="path490" /></g><g
               id="g498"><rect
                 x="300.23801"
                 y="340.608"
                 fill="#ffffff"
                 width="6.5500002"
                 height="1.965"
                 id="rect494" /><rect
                 x="293.52399"
                 y="340.608"
                 fill="#ffffff"
                 width="4.7480001"
                 height="1.965"
                 id="rect496" /></g></g><path
             fill="#a29fb0"
             d="m 386.379,344.946 h -64.468 c -2.314,0 -3.844,-2.404 -2.862,-4.5 l 24.159,-51.537 c 1.955,-4.174 6.148,-6.838 10.756,-6.838 h 59.214 c 3.067,0 5.095,3.189 3.792,5.967 l -25.014,53.363 c -1.015,2.162 -3.187,3.545 -5.577,3.545 z"
             id="path502" /></g><path
           fill="#ffffff"
           d="m 372.295,317.183 c -1.529,3.574 -4.385,5.783 -6.381,4.93 -1.996,-0.852 -2.375,-4.443 -0.847,-8.018 1.528,-3.578 4.385,-5.783 6.38,-4.932 1.996,0.854 2.375,4.443 0.848,8.02 z"
           id="path506" /></g><g
         id="g526"><g
           id="g520"><g
             id="g516"><path
               fill="#fbc7b1"
               d="m 269.396,332.19 13.553,-2.1 c 0.988,-0.154 1.673,-1.09 1.521,-2.078 v 0 c -0.154,-0.99 -1.089,-1.674 -2.078,-1.521 l -13.554,2.1 c -0.989,0.154 -1.674,1.09 -1.521,2.08 v 0 c 0.154,0.988 1.089,1.674 2.079,1.519 z"
               id="path510" /><path
               fill="#fbc7b1"
               d="m 273.69,335.874 10.882,-1.688 c 0.99,-0.154 1.674,-1.09 1.521,-2.078 v 0 c -0.154,-0.99 -1.09,-1.674 -2.079,-1.521 l -10.882,1.688 c -0.99,0.154 -1.675,1.088 -1.521,2.078 v 0 c 0.155,0.99 1.09,1.673 2.079,1.521 z"
               id="path512" /><path
               fill="#fbc7b1"
               d="m 271.155,340.61 12.879,-1.998 c 0.989,-0.152 1.674,-1.09 1.521,-2.078 v 0 c -0.152,-0.99 -1.089,-1.674 -2.078,-1.52 l -12.881,1.996 c -0.989,0.154 -1.674,1.088 -1.521,2.078 v 0 c 0.154,0.991 1.089,1.675 2.08,1.522 z"
               id="path514" /></g><path
             fill="#fbc7b1"
             d="m 275.258,328.718 c -0.146,0.016 -1.807,-0.014 -3.606,-0.053 -3.107,-0.068 -6.187,0.609 -8.982,1.967 l -5.354,2.602 c 0,0 3.017,9.092 3.438,9.17 10.29,1.91 13.844,-2.748 13.844,-2.748 z"
             id="path518" /></g><g
           id="g524"><path
             fill="#fbc7b1"
             d="m 190.184,283.396 c 0,0 3.987,17.035 8.432,31.037 1.239,3.887 2.509,7.537 3.732,10.531 0.359,0.865 0.729,1.711 1.128,2.529 4.903,10.318 12.438,16.691 24.246,16.746 0.109,0.002 34.973,-1.426 34.973,-1.426 l -0.444,-12.088 -35.686,-1.475 c -3.89,0.033 -8.853,-6.033 -10.838,-9.982 -0.156,-0.305 -0.293,-0.6 -0.409,-0.877 -0.904,-2.145 -1.854,-4.773 -2.832,-7.697 -5.843,-17.553 -12.39,-45.918 -12.39,-45.918 z"
             id="path522" /></g></g><path
         fill="#fdbc4a"
         d="m 203.062,253.938 7.829,34.879 -22.422,6.764 c 0,0 -1.245,-4.396 -2.192,-9.498 -0.948,-5.104 -2.021,-18.211 0.434,-24.234 2.333,-5.729 9.844,-6.743 16.351,-7.911 z"
         id="path528" /></g><g
       id="g656"><g
         id="g654"><g
           id="g536"><path
             fill="#894d2e"
             d="m 619.92,550.884 -47.189,-0.977 c -2.813,-0.061 -5.047,-2.389 -4.988,-5.203 v 0 c 0.045,-2.164 1.457,-4.068 3.516,-4.74 l 23.516,-7.658 25.508,1.15 z"
             id="path532" /><path
             fill="#191d4c"
             d="m 571.758,551.198 47.762,1.344 0.098,-3.424 -51.186,-1.441 v 0 c -0.053,1.89 1.437,3.467 3.326,3.521 z"
             id="path534" /></g><g
           id="g544"><line
             fill="none"
             stroke="#191d4c"
             stroke-width="1.1846"
             stroke-linecap="round"
             stroke-miterlimit="10"
             x1="595.15601"
             y1="539.22198"
             x2="589.78302"
             y2="533.14203"
             id="line538" /><line
             fill="none"
             stroke="#191d4c"
             stroke-width="1.1846"
             stroke-linecap="round"
             stroke-miterlimit="10"
             x1="591.04901"
             y1="540.81702"
             x2="585.67603"
             y2="534.73901"
             id="line540" /><line
             fill="none"
             stroke="#191d4c"
             stroke-width="1.1846"
             stroke-linecap="round"
             stroke-miterlimit="10"
             x1="587.09802"
             y1="543.00098"
             x2="581.04901"
             y2="536.10797"
             id="line542" /></g><g
           id="g548"><path
             fill="#11112c"
             d="m 622.123,534.595 c -2.738,-46.037 -2,-88.6 1.588,-97.221 3.676,-5.352 32.348,-16.953 61.004,-18.205 l -13.41,-29.275 c -37.584,1.889 -64.453,15.99 -73.85,32.109 -3.967,6.803 -7.412,20.523 -5.553,67.469 0.973,24.588 2.172,43.85 2.172,43.85 z"
             id="path546" /></g><g
           id="g554"><path
             fill="#a36440"
             d="m 578.469,551.249 -47.198,0.354 c -2.813,0.021 -5.112,-2.244 -5.132,-5.059 v 0 c -0.018,-2.166 1.34,-4.107 3.381,-4.836 l 23.291,-8.322 25.529,0.432 z"
             id="path550" /><path
             fill="#191d4c"
             d="m 530.337,552.921 47.78,-0.006 v -3.424 l -51.206,0.004 v 0 c 0,1.891 1.535,3.426 3.426,3.426 z"
             id="path552" /></g><g
           id="g562"><line
             fill="none"
             stroke="#191d4c"
             stroke-width="1.1846"
             stroke-linecap="round"
             stroke-miterlimit="10"
             x1="553.38898"
             y1="540.28802"
             x2="547.84601"
             y2="534.36401"
             id="line556" /><line
             fill="none"
             stroke="#191d4c"
             stroke-width="1.1846"
             stroke-linecap="round"
             stroke-miterlimit="10"
             x1="549.328"
             y1="542.00098"
             x2="543.78497"
             y2="536.07703"
             id="line558" /><line
             fill="none"
             stroke="#191d4c"
             stroke-width="1.1846"
             stroke-linecap="round"
             stroke-miterlimit="10"
             x1="545.43799"
             y1="544.29401"
             x2="539.19897"
             y2="537.57501"
             id="line560" /></g><g
           id="g566"><path
             fill="#25263a"
             d="m 580.191,534.595 c -2.738,-46.037 -1.998,-88.6 1.588,-97.221 3.678,-5.352 32.35,-16.953 61.006,-18.205 l -13.41,-29.275 c -37.586,1.889 -64.451,15.99 -73.85,32.109 -3.967,6.803 -7.412,20.523 -5.553,67.469 0.973,24.588 2.172,43.85 2.172,43.85 z"
             id="path564" /></g><path
           fill="#25263a"
           d="m 620.582,398.317 c 0,5.156 1.836,9.881 4.885,13.564 3.898,4.725 9.814,7.74 16.432,7.74 h 35.822 c 1.064,0 2.107,-0.08 3.127,-0.238 2.629,-0.375 5.102,-1.246 7.32,-2.504 0.396,-0.215 0.783,-0.453 1.156,-0.703 5.836,-3.795 9.699,-10.381 9.699,-17.859 l -0.654,-11.367 -77.164,-0.668 z"
           id="path568" /><g
           id="g584"><g
             id="g580"><g
               id="g576"><path
                 fill="#fbc7b1"
                 d="m 595.973,337.608 -18.465,-2.951 c -1.348,-0.217 -2.275,-1.496 -2.061,-2.844 v 0 c 0.217,-1.35 1.496,-2.275 2.846,-2.059 l 18.463,2.949 c 1.348,0.215 2.275,1.494 2.061,2.844 v 0 c -0.215,1.35 -1.497,2.278 -2.844,2.061 z"
                 id="path570" /><path
                 fill="#fbc7b1"
                 d="m 590.094,342.601 -14.826,-2.369 c -1.348,-0.217 -2.275,-1.496 -2.061,-2.844 v 0 c 0.217,-1.35 1.496,-2.277 2.844,-2.061 l 14.826,2.369 c 1.35,0.215 2.275,1.496 2.061,2.844 v 0 c -0.217,1.348 -1.497,2.275 -2.844,2.061 z"
                 id="path572" /><path
                 fill="#fbc7b1"
                 d="m 593.521,349.075 -17.549,-2.805 c -1.348,-0.217 -2.275,-1.498 -2.059,-2.844 v 0 c 0.215,-1.35 1.494,-2.277 2.844,-2.063 l 17.547,2.807 c 1.35,0.215 2.275,1.496 2.061,2.842 v 0 c -0.215,1.35 -1.496,2.278 -2.844,2.063 z"
                 id="path574"
                 style="fill:#e79479;fill-opacity:1" /></g><path
               fill="#fbc7b1"
               d="m 588.002,332.833 c 0.199,0.025 2.463,-0.008 4.916,-0.049 4.238,-0.07 8.434,0.871 12.236,2.742 l 7.283,3.582 c 0,0 -4.172,12.377 -4.746,12.479 -14.041,2.539 -18.857,-3.836 -18.857,-3.836 z"
               id="path578"
               style="fill:#e79479;fill-opacity:1" /></g><rect
             x="598.87299"
             y="332.784"
             fill="#ffffff"
             width="6.2319999"
             height="20.257999"
             id="rect582" /></g><g
           id="g588"><path
             fill="#6d1a48"
             d="m 645.949,355.241 c 14.695,0 28.131,-8.578 34.305,-21.938 l 0.303,-0.66 19.236,-58.734 -23.695,-7.76 -18.742,57.239 c -2.223,4.27 -6.695,6.975 -11.531,6.92 l -40.859,-0.404 -0.248,24.93 40.857,0.406 c 0.124,-0.001 0.251,10e-4 0.374,10e-4 z"
             id="path586" /></g><g
           id="g596"><g
             id="g592"><path
               fill="#fbc7b1"
               d="m 512.954,329.269 c 1.526,-2.723 3.821,-4.951 6.621,-6.332 0.021,-0.01 0.044,-0.021 0.065,-0.033 3.81,-1.857 8.006,-2.785 12.243,-2.703 l 8.114,0.156 c 0,0 1.632,19.236 1.525,18.664 -0.209,-1.145 -7.813,-2.285 -28.406,-2.285 -1.949,0 -3.201,-2.051 -2.249,-3.75 z"
               id="path590"
               style="fill:#e79479;fill-opacity:1" /></g><rect
             x="536.52698"
             y="319.82901"
             fill="#ffffff"
             width="7.744"
             height="20.747999"
             id="rect594" /></g><path
           fill="#f04847"
           d="m 701.586,404.55 c 0,0 -7.988,0.879 -18.789,1.338 -1.961,0.096 -4.029,0.164 -6.143,0.211 -12.475,0.316 -27.084,-0.105 -37.463,-2.793 -6.305,-1.645 -11.088,-3.348 -14.658,-4.898 -1.463,-0.641 -2.715,-1.242 -3.797,-1.818 -3.961,-2.084 -5.49,-3.625 -5.691,-3.836 -0.01,-0.018 -0.02,-0.027 -0.02,-0.027 l -0.594,-66.633 -0.449,-52.332 c 0,-20.626 16.723,-37.349 37.348,-37.349 h 12.631 c 2.209,0 4.381,0.19 6.484,0.556 2.182,0.382 4.295,0.956 6.332,1.702 0.01,0 0.01,0.01 0.021,0.01 14.301,5.242 24.51,18.981 24.51,35.082 z"
           id="path598" /><path
           opacity="0.33"
           fill="#6d1a48"
           d="m 701.586,404.55 c 0,0 -7.988,0.879 -18.789,1.338 -1.961,0.096 -4.029,0.164 -6.143,0.211 -6.658,0.174 -13.939,0.125 -20.846,-0.363 l -0.307,-140.843 c 0,-10.696 -3.969,-20.483 -10.533,-27.936 2.066,-0.363 4.191,-0.545 6.361,-0.545 h 12.631 c 2.209,0 4.381,0.19 6.484,0.556 2.182,0.382 4.295,0.956 6.332,1.702 0.01,0 0.01,0.01 0.021,0.01 14.301,5.242 24.51,18.981 24.51,35.082 z"
           id="path600" /><path
           opacity="0.48"
           fill="#6d1a48"
           d="m 638.311,274.286 c -1.465,6.344 -10.207,45.74 -14.234,63.889 l -0.24,-30.93 c 0,0 -1.34,5.262 -5.021,11.977 l -1.877,-16.234 c -10e-4,-10e-4 23.286,-36.996 21.372,-28.702 z"
           id="path602" /><g
           id="g638"><g
             id="g608"><rect
               x="659.62903"
               y="445.487"
               fill="#39477a"
               width="12.609"
               height="70.096001"
               id="rect604" /><path
               fill="#191d4c"
               d="m 659.629,449.567 v 15.842 l 12.609,-4.6 v -10.725 c -3.156,-0.14 -9.228,-0.376 -12.609,-0.517 z"
               id="path606" /></g><path
             fill="#39477a"
             d="m 636.4,451.155 h 56.982 c 2.92,0 5.311,-2.391 5.311,-5.311 v 0 c 0,-2.92 -2.391,-5.311 -5.311,-5.311 H 636.4 c -2.922,0 -5.313,2.391 -5.313,5.311 v 0 c 10e-4,2.921 2.392,5.311 5.313,5.311 z"
             id="path610" /><g
             id="g618"><g
               id="g614"><path
                 fill="#191d4c"
                 d="m 613.002,541.47 h 7.887 c 0,-8.883 7.666,-16.107 17.088,-16.107 h 57.465 c 9.422,0 17.088,7.225 17.088,16.107 h 7.889 c 0,-12.98 -11.207,-23.543 -24.977,-23.543 h -57.465 c -13.772,0 -24.975,10.562 -24.975,23.543 z"
                 id="path612" /></g><rect
               x="656.81598"
               y="504.259"
               fill="#191d4c"
               width="18.402"
               height="15.357"
               id="rect616" /></g><g
             id="g628"><ellipse
               fill="#191d4c"
               cx="716.77301"
               cy="548.659"
               rx="6.5510001"
               ry="6.1739998"
               id="ellipse620" /><path
               fill="#39477a"
               d="m 707.326,548.114 h 17.93 v -1.633 c 0,-4.623 -3.748,-8.371 -8.371,-8.371 h -1.189 c -4.623,0 -8.369,3.748 -8.369,8.371 v 1.633 z"
               id="path622" /><ellipse
               fill="#191d4c"
               cx="616.57501"
               cy="548.659"
               rx="6.552"
               ry="6.1739998"
               id="ellipse624" /><path
               fill="#39477a"
               d="m 607.129,548.114 h 17.93 v -1.633 c 0,-4.623 -3.748,-8.371 -8.371,-8.371 h -1.189 c -4.623,0 -8.369,3.748 -8.369,8.371 v 1.633 z"
               id="path626" /></g><rect
             x="660.92999"
             y="520.22803"
             fill="#191d4c"
             width="10.441"
             height="22.305"
             id="rect630" /><g
             id="g636"><ellipse
               fill="#191d4c"
               cx="665.93103"
               cy="548.659"
               rx="6.552"
               ry="6.1739998"
               id="ellipse632" /><path
               fill="#39477a"
               d="m 656.482,548.114 h 17.93 v -1.633 c 0,-4.623 -3.748,-8.371 -8.371,-8.371 h -1.188 c -4.623,0 -8.371,3.748 -8.371,8.371 z"
               id="path634" /></g></g><path
           fill="#6d1a48"
           d="m 766.32,309.31 -16.885,121.885 c -1.027,7.412 -7.248,13.002 -14.729,13.236 l -38.455,0.707 23.484,-153.262 31.354,-0.025 c 9.327,-0.016 16.511,8.22 15.231,17.459 z"
           id="path640" /><g
           id="g644"><path
             fill="#f04847"
             d="m 582.486,343.907 c 14.697,0 28.131,-8.578 34.305,-21.936 l 27.697,-59.936 -22.633,-10.457 -27.695,59.934 c -2.119,4.582 -6.703,7.523 -11.799,7.461 l -40.858,-0.402 -0.246,24.93 40.858,0.406 c 0.123,0 0.248,0 0.371,0 z"
             id="path642" /></g><path
           fill="#f04847"
           d="m 600.328,445.138 h 98.559 c 7.303,0 13.277,-5.977 13.277,-13.277 v 0 c 0,-7.305 -5.975,-13.279 -13.277,-13.279 h -98.559 c -7.303,0 -13.277,5.975 -13.277,13.279 v 0 c 0,7.3 5.974,13.277 13.277,13.277 z"
           id="path646" /><rect
           x="638.17798"
           y="227.909"
           fill="#ffffff"
           width="38.528999"
           height="10.767"
           id="rect648" /><path
           fill="#f04847"
           d="m 713.768,428.364 17.896,-124.998 c 0.797,-5.566 -3.385,-10.74 -9.291,-11.49 v 0 c -5.908,-0.752 -11.395,3.189 -12.191,8.758 l -17.898,124.998 c -0.797,5.568 3.385,10.74 9.291,11.49 v 0 c 5.907,0.752 8.964,4.928 12.193,-8.758 z"
           id="path650" /><path
           opacity="0.48"
           fill="#6d1a48"
           d="m 624.533,398.407 c -1.463,-0.641 -2.715,-1.242 -3.797,-1.818 -3.961,-2.084 -5.49,-3.625 -5.691,-3.836 -0.01,-0.018 -0.02,-0.027 -0.02,-0.027 l -0.594,-66.633 c 7.051,-9.605 9.404,-18.848 9.404,-18.848 z"
           id="path652" /></g></g><g
       id="g666"><g
         id="g664"><path
           fill="#6176b1"
           d="m 122.28,481.565 v 17.928 h 76.571 c 4.947,0 8.964,-4.018 8.964,-8.965 0,-2.471 -1.004,-4.711 -2.623,-6.342 -1.628,-1.617 -3.872,-2.621 -6.341,-2.621 z"
           id="path658" /><path
           fill="#191d4c"
           d="m 101.25,481.565 v 17.928 h 76.571 c 4.948,0 8.963,-4.018 8.963,-8.965 0,-2.471 -1.003,-4.711 -2.621,-6.342 -1.63,-1.617 -3.873,-2.621 -6.342,-2.621 z"
           id="path660" /><path
           fill="#ffffff"
           d="m 101.25,484.638 v 11.492 h 74.155 c 3.175,0 5.745,-2.57 5.745,-5.744 0,-1.588 -0.646,-3.021 -1.68,-4.066 -1.044,-1.035 -2.479,-1.682 -4.065,-1.682 z"
           id="path662" /></g></g><g
       id="g676"><rect
         x="129.433"
         y="479.83701"
         fill="#bf7847"
         width="119.482"
         height="76.625"
         id="rect668" /><rect
         x="79.436996"
         y="479.841"
         fill="#de9863"
         width="119.48"
         height="76.621002"
         id="rect670" /><path
         fill="#2d2e3b"
         d="m 150.861,501.265 h -23.376 c -3.036,0 -5.52,-2.482 -5.52,-5.52 v 0 c 0,-3.035 2.484,-5.52 5.52,-5.52 h 23.376 c 3.036,0 5.52,2.484 5.52,5.52 v 0 c 0,3.037 -2.484,5.52 -5.52,5.52 z"
         id="path672" /><path
         opacity="0.64"
         fill="#4e1d0f"
         d="m 127.529,506.427 c 0,-2.268 -0.918,-4.334 -2.41,-5.826 -1.503,-1.494 -3.56,-2.42 -5.837,-2.42 h -3.865 c 1.656,-0.719 2.813,-2.373 2.813,-4.297 v -11.813 c 0,-0.816 -0.201,-1.57 -0.564,-2.23 H 79.437 v 23.408 11.424 41.414 h 35.732 c 2.583,0 4.688,-2.104 4.688,-4.697 v -11.814 c 0,-2.594 -2.105,-4.697 -4.688,-4.697 h -1.464 c 1.024,-0.861 1.684,-2.133 1.684,-3.578 v -11.814 c 0,-2.594 -2.095,-4.697 -4.688,-4.697 l -0.312,-0.115 h 8.893 c 4.554,-0.002 8.247,-3.696 8.247,-8.248 z"
         id="path674" /></g><g
       opacity="0.84"
       id="g730"><g
         id="g682"><path
           fill="#ab7340"
           d="M 76.208,537.187 H 18.551 v -19.945 h 57.656 c 2.437,0 4.412,1.975 4.412,4.414 v 11.119 c 0.001,2.437 -1.974,4.412 -4.411,4.412 z"
           id="path678" /><path
           fill="#ab7340"
           d="M 74.084,535.907 H 18.551 v -17.406 h 55.533 c 2.088,0 3.781,1.691 3.781,3.779 v 9.846 c 0,2.09 -1.693,3.781 -3.781,3.781 z"
           id="path680" /></g><g
         id="g686"><path
           fill="#ab7340"
           d="M 77.233,499.515 H 21.701 v -17.406 h 55.533 c 2.088,0 3.781,1.691 3.781,3.779 v 9.848 c -0.001,2.085 -1.693,3.779 -3.782,3.779 z"
           id="path684" /></g><g
         id="g692"><path
           fill="#ab7340"
           d="M 80.406,556.083 H 22.75 v -19.945 h 57.656 c 2.438,0 4.414,1.975 4.414,4.414 v 11.119 c -10e-4,2.437 -1.976,4.412 -4.414,4.412 z"
           id="path688" /><path
           fill="#ab7340"
           d="M 78.283,554.804 H 22.75 v -17.408 h 55.533 c 2.088,0 3.78,1.693 3.78,3.781 v 9.846 c 0,2.087 -1.692,3.781 -3.78,3.781 z"
           id="path690" /></g><g
         id="g698"><path
           fill="#ab7340"
           d="m 31.805,501.382 v 15.51 h 55.757 c 4.281,0 7.755,-3.475 7.755,-7.756 0,-2.137 -0.868,-4.078 -2.269,-5.486 -1.41,-1.4 -3.35,-2.268 -5.487,-2.268 z"
           id="path694" /><path
           fill="#ab7340"
           d="m 31.805,504.04 v 9.943 H 85.47 c 2.748,0 4.972,-2.225 4.972,-4.971 0,-1.375 -0.558,-2.617 -1.454,-3.52 -0.903,-0.896 -2.144,-1.453 -3.518,-1.453 H 31.805 Z"
           id="path696" /></g><g
         id="g708"><line
           fill="#ab7340"
           x1="21.132"
           y1="486.272"
           x2="78.870003"
           y2="486.272"
           id="line700" /><line
           fill="#ab7340"
           x1="21.132"
           y1="489.59698"
           x2="78.870003"
           y2="489.59698"
           id="line702" /><line
           fill="#ab7340"
           x1="21.132"
           y1="492.92099"
           x2="78.870003"
           y2="492.92099"
           id="line704" /><line
           fill="#ab7340"
           x1="21.132"
           y1="496.245"
           x2="78.870003"
           y2="496.245"
           id="line706" /></g><g
         id="g718"><line
           fill="#ab7340"
           x1="18.507999"
           y1="522.14001"
           x2="76.246002"
           y2="522.14001"
           id="line710" /><line
           fill="#ab7340"
           x1="18.507999"
           y1="525.46399"
           x2="76.246002"
           y2="525.46399"
           id="line712" /><line
           fill="#ab7340"
           x1="18.507999"
           y1="528.78802"
           x2="76.246002"
           y2="528.78802"
           id="line714" /><line
           fill="#ab7340"
           x1="18.507999"
           y1="532.112"
           x2="76.246002"
           y2="532.112"
           id="line716" /></g><g
         id="g728"><line
           fill="#ab7340"
           x1="22.881001"
           y1="541.21198"
           x2="80.620003"
           y2="541.21198"
           id="line720" /><line
           fill="#ab7340"
           x1="22.881001"
           y1="544.53601"
           x2="80.620003"
           y2="544.53601"
           id="line722" /><line
           fill="#ab7340"
           x1="22.881001"
           y1="547.85999"
           x2="80.620003"
           y2="547.85999"
           id="line724" /><line
           fill="#ab7340"
           x1="22.881001"
           y1="551.185"
           x2="80.620003"
           y2="551.185"
           id="line726" /></g></g><g
       id="g812"><g
         id="g744"><path
           fill="#6d1a48"
           d="M 92.008,534.239 H 25.356 v -23.057 h 66.651 c 2.817,0 5.102,2.281 5.102,5.1 v 12.855 c 0,2.819 -2.284,5.102 -5.101,5.102 z"
           id="path732" /><path
           fill="#6d1a48"
           d="M 67.736,534.239 H 1.035 v -23.057 h 66.702 c 2.817,0 5.102,2.281 5.102,5.1 v 12.855 c -0.001,2.819 -2.286,5.102 -5.103,5.102 z"
           id="path734" /><path
           fill="#ffffff"
           d="M 65.282,532.759 H 1.035 v -20.121 h 64.248 c 2.414,0 4.37,1.955 4.37,4.369 v 11.383 c -0.001,2.414 -1.957,4.369 -4.371,4.369 z"
           id="path736" /><rect
           x="76.036003"
           y="518.46198"
           fill="#ffffff"
           width="18.556999"
           height="8.1929998"
           id="rect738" /><rect
           x="77.844002"
           y="520.28198"
           fill="#191d4c"
           width="15.17"
           height="1.67"
           id="rect740" /><rect
           x="77.844002"
           y="523.013"
           fill="#191d4c"
           width="15.17"
           height="1.6720001"
           id="rect742" /></g><g
         id="g758"><path
           fill="#6d1a48"
           d="M 95.095,493.552 H 28.444 v -23.059 h 66.651 c 2.818,0 5.102,2.285 5.102,5.102 v 12.854 c 0,2.818 -2.284,5.103 -5.102,5.103 z"
           id="path746" /><path
           fill="#6d1a48"
           d="M 70.824,493.552 H 3.516 v -23.059 h 67.309 c 2.817,0 5.101,2.285 5.101,5.102 v 12.854 c -0.001,2.818 -2.285,5.103 -5.102,5.103 z"
           id="path748" /><path
           fill="#ffffff"
           d="M 68.37,492.071 H 3.516 V 471.948 H 68.37 c 2.414,0 4.37,1.955 4.37,4.371 V 487.7 c -10e-4,2.414 -1.957,4.371 -4.37,4.371 z"
           id="path750" /><rect
           x="79.125"
           y="477.77399"
           fill="#ffffff"
           width="18.556"
           height="8.191"
           id="rect752" /><rect
           x="80.931"
           y="479.595"
           fill="#191d4c"
           width="15.17"
           height="1.668"
           id="rect754" /><rect
           x="80.931"
           y="482.327"
           fill="#191d4c"
           width="15.17"
           height="1.668"
           id="rect756" /></g><g
         id="g772"><path
           fill="#191d4c"
           d="M 96.862,556.083 H 30.211 v -23.057 h 66.651 c 2.817,0 5.101,2.283 5.101,5.102 v 12.855 c 0,2.819 -2.283,5.1 -5.101,5.1 z"
           id="path760" /><path
           fill="#191d4c"
           d="M 72.591,556.083 H 5.939 v -23.057 h 66.652 c 2.817,0 5.101,2.283 5.101,5.102 v 12.855 c 0,2.819 -2.284,5.1 -5.101,5.1 z"
           id="path762" /><path
           fill="#ffffff"
           d="M 70.136,554.604 H 5.939 v -20.123 h 64.197 c 2.414,0 4.371,1.957 4.371,4.369 v 11.383 c -0.001,2.414 -1.957,4.371 -4.371,4.371 z"
           id="path764" /><rect
           x="80.890999"
           y="540.30798"
           fill="#ffffff"
           width="18.556999"
           height="8.191"
           id="rect766" /><rect
           x="82.697998"
           y="542.12799"
           fill="#191d4c"
           width="15.169"
           height="1.67"
           id="rect768" /><rect
           x="82.697998"
           y="544.85797"
           fill="#191d4c"
           width="15.169"
           height="1.668"
           id="rect770" /></g><g
         id="g780"><path
           fill="#d36652"
           d="m 24.753,493.122 v 17.93 h 76.591 c 4.949,0 8.965,-4.014 8.965,-8.963 0,-2.471 -1.004,-4.715 -2.624,-6.344 -1.628,-1.619 -3.873,-2.623 -6.342,-2.623 z"
           id="path774" /><path
           fill="#f89f7c"
           d="m 15.853,493.122 v 17.93 h 64.456 c 4.949,0 8.966,-4.014 8.966,-8.963 0,-2.471 -1.004,-4.715 -2.624,-6.344 -1.628,-1.619 -3.873,-2.623 -6.342,-2.623 z"
           id="path776" /><path
           fill="#ffffff"
           d="m 15.853,496.196 v 11.496 h 62.038 c 3.177,0 5.748,-2.572 5.748,-5.748 0,-1.588 -0.645,-3.021 -1.68,-4.068 -1.046,-1.035 -2.479,-1.68 -4.068,-1.68 z"
           id="path778" /></g><g
         id="g790"><line
           fill="none"
           stroke="#b0adc0"
           stroke-width="1.2685"
           stroke-miterlimit="10"
           x1="3.516"
           y1="476.763"
           x2="70.262001"
           y2="476.763"
           id="line782" /><line
           fill="none"
           stroke="#b0adc0"
           stroke-width="1.2685"
           stroke-miterlimit="10"
           x1="3.516"
           y1="480.60599"
           x2="70.262001"
           y2="480.60599"
           id="line784" /><line
           fill="none"
           stroke="#b0adc0"
           stroke-width="1.2685"
           stroke-miterlimit="10"
           x1="3.516"
           y1="484.448"
           x2="70.262001"
           y2="484.448"
           id="line786" /><line
           fill="none"
           stroke="#b0adc0"
           stroke-width="1.2685"
           stroke-miterlimit="10"
           x1="3.516"
           y1="488.29199"
           x2="70.262001"
           y2="488.29199"
           id="line788" /></g><g
         id="g800"><line
           fill="none"
           stroke="#b0adc0"
           stroke-width="1.2685"
           stroke-miterlimit="10"
           x1="1.035"
           y1="516.84497"
           x2="67.780998"
           y2="516.84497"
           id="line792" /><line
           fill="none"
           stroke="#b0adc0"
           stroke-width="1.2685"
           stroke-miterlimit="10"
           x1="1.035"
           y1="520.68799"
           x2="67.780998"
           y2="520.68799"
           id="line794" /><line
           fill="none"
           stroke="#b0adc0"
           stroke-width="1.2685"
           stroke-miterlimit="10"
           x1="1.035"
           y1="524.53003"
           x2="67.780998"
           y2="524.53003"
           id="line796" /><line
           fill="none"
           stroke="#b0adc0"
           stroke-width="1.2685"
           stroke-miterlimit="10"
           x1="1.035"
           y1="528.37402"
           x2="67.780998"
           y2="528.37402"
           id="line798" /></g><g
         id="g810"><line
           fill="none"
           stroke="#b0adc0"
           stroke-width="1.2685"
           stroke-miterlimit="10"
           x1="6.0910001"
           y1="538.89203"
           x2="72.837997"
           y2="538.89203"
           id="line802" /><line
           fill="none"
           stroke="#b0adc0"
           stroke-width="1.2685"
           stroke-miterlimit="10"
           x1="6.0910001"
           y1="542.73499"
           x2="72.837997"
           y2="542.73499"
           id="line804" /><line
           fill="none"
           stroke="#b0adc0"
           stroke-width="1.2685"
           stroke-miterlimit="10"
           x1="6.0910001"
           y1="546.57703"
           x2="72.837997"
           y2="546.57703"
           id="line806" /><line
           fill="none"
           stroke="#b0adc0"
           stroke-width="1.2685"
           stroke-miterlimit="10"
           x1="6.0910001"
           y1="550.41901"
           x2="72.837997"
           y2="550.41901"
           id="line808" /></g></g><rect
       x="507.68201"
       y="79.458"
       fill="#d36652"
       width="201.92"
       height="15.532"
       id="rect814" /><rect
       x="522.52197"
       y="66.683998"
       fill="#6d1a48"
       width="102.216"
       height="13.652"
       id="rect816" /><rect
       x="490.078"
       y="66.683998"
       fill="#f04847"
       width="102.217"
       height="13.652"
       id="rect818" /><path
       fill="none"
       stroke="#191d4c"
       stroke-width="1.7821"
       stroke-miterlimit="10"
       d="m 360.143,496.386 v -22.492 c 0,-4.633 3.757,-8.393 8.392,-8.393 v 0 c 4.635,0 8.392,3.76 8.392,8.393 v 27.861 h 14.435 v -17.623 c 0,-6.209 -5.034,-11.246 -11.245,-11.246 v 0 c -6.211,0 -11.244,5.037 -11.244,11.246 v 17.623"
       id="path820" /><path
       fill="#6176b1"
       d="m 456.816,484.972 h -10.088 v -6.891 c 0,-2.787 2.259,-5.045 5.044,-5.045 v 0 c 2.786,0 5.044,2.258 5.044,5.045 z"
       id="path822" /><path
       fill="#fdbd63"
       d="m 442.894,484.972 h -12.893 v -8.809 c 0,-3.559 2.886,-6.443 6.445,-6.443 v 0 c 3.561,0 6.447,2.885 6.447,6.443 v 8.809 z"
       id="path824" /><g
       id="g830"><path
         fill="#878498"
         d="m 469.987,528.149 h -45.18 c -5.627,0 -10.229,-4.602 -10.229,-10.229 v -25.574 c 0,-5.627 4.603,-10.23 10.229,-10.23 h 45.18 c 5.627,0 10.23,4.604 10.23,10.23 v 25.574 c 0.001,5.628 -4.603,10.229 -10.23,10.229 z"
         id="path826" /><path
         fill="#b0adc0"
         d="M 459.232,528.149 H 414.05 c -5.625,0 -10.229,-4.602 -10.229,-10.229 v -25.574 c 0,-5.627 4.604,-10.23 10.229,-10.23 h 45.182 c 5.626,0 10.229,4.604 10.229,10.23 v 25.574 c 10e-4,5.628 -4.603,10.229 -10.229,10.229 z"
         id="path828" /></g><rect
       x="415.61301"
       y="492.21799"
       fill="#191d4c"
       width="40.067001"
       height="25.146"
       id="rect832" /><path
       fill="#6176b1"
       d="m 373.737,521.224 h -50.352 v -23.205 c 0,-7.762 6.294,-14.055 14.057,-14.055 h 22.239 c 7.763,0 14.056,6.293 14.056,14.055 z"
       id="path834" /><path
       fill="#2c3663"
       d="m 391.36,521.224 h -50.35 v -23.205 c 0,-7.762 6.293,-14.055 14.056,-14.055 h 22.238 c 7.764,0 14.057,6.293 14.057,14.055 v 23.205 z"
       id="path836" /><g
       id="g844"><rect
         x="340.375"
         y="493.026"
         fill="#bf7847"
         width="72.132004"
         height="66.941002"
         id="rect838" /><rect
         x="310.189"
         y="493.026"
         fill="#de9863"
         width="72.132004"
         height="66.941002"
         id="rect840" /><path
         fill="#2d2e3b"
         d="m 352.636,511.747 h -12.761 c -2.204,0 -4.008,-1.803 -4.008,-4.008 v -1.627 c 0,-2.205 1.804,-4.008 4.008,-4.008 h 12.761 c 2.205,0 4.008,1.803 4.008,4.008 v 1.627 c 0,2.205 -1.803,4.008 -4.008,4.008 z"
         id="path842" /></g><g
       id="g852"><rect
         x="426.979"
         y="493.026"
         fill="#bf7847"
         width="72.132004"
         height="66.941002"
         id="rect846" /><rect
         x="396.793"
         y="493.026"
         fill="#de9863"
         width="72.133003"
         height="66.941002"
         id="rect848" /><path
         fill="#2d2e3b"
         d="m 439.238,511.747 h -12.759 c -2.205,0 -4.009,-1.803 -4.009,-4.008 v -1.627 c 0,-2.205 1.804,-4.008 4.009,-4.008 h 12.759 c 2.205,0 4.01,1.803 4.01,4.008 v 1.627 c 0,2.205 -1.805,4.008 -4.01,4.008 z"
         id="path850" /></g><g
       id="g868"><g
         id="g858"><rect
           x="390.797"
           y="333.362"
           fill="#191d4c"
           width="37.537998"
           height="11.195"
           id="rect854" /><rect
           x="380.259"
           y="333.362"
           fill="#6176b1"
           width="37.537998"
           height="11.195"
           id="rect856" /></g><path
         fill="none"
         stroke="#ffffff"
         stroke-width="2.0651"
         stroke-linecap="round"
         stroke-miterlimit="10"
         d="m 395.237,340.587 v 0 c -3.713,0.57 -6.477,3.729 -6.553,7.482 l -0.097,4.824 c -0.148,7.322 -6.073,13.209 -13.396,13.311 l -12.531,0.172 c -5.689,0.08 -10.447,-4.309 -10.83,-9.984 l -0.092,-1.361 c -0.408,-6.047 -5.146,-10.898 -11.179,-11.447 v 0 l -33.405,-0.076 c -1.102,-0.004 -2.143,-0.506 -2.829,-1.369 l -0.418,-0.527"
         id="path860" /><path
         fill="none"
         stroke="#ffffff"
         stroke-width="2.0651"
         stroke-linecap="round"
         stroke-miterlimit="10"
         d="m 401.987,341.573 v 0 c -3.3,0.184 -5.854,2.961 -5.761,6.264 l 0.994,35.627 c 0.264,9.432 -7.463,17.141 -16.896,16.859 v 0 c -8.717,-0.264 -15.707,-7.297 -15.912,-16.018 l -0.815,-34.635 c -0.076,-3.246 -2.679,-5.863 -5.925,-5.957 l -15.955,-0.061"
         id="path862" /><path
         fill="#ffffff"
         d="m 407.421,343.222 h -7.245 c -0.817,0 -1.481,-0.664 -1.481,-1.482 v 0 c 0,-0.818 0.664,-1.482 1.481,-1.482 h 7.245 c 0.817,0 1.48,0.664 1.48,1.482 v 0 c 0,0.818 -0.663,1.482 -1.48,1.482 z"
         id="path864" /><path
         fill="#ffffff"
         d="m 395.571,342.489 h -7.245 c -0.816,0 -1.481,-0.664 -1.481,-1.48 v 0 c 0,-0.818 0.665,-1.482 1.481,-1.482 h 7.245 c 0.818,0 1.481,0.664 1.481,1.482 v 0 c 10e-4,0.816 -0.662,1.48 -1.481,1.48 z"
         id="path866" /></g></g><rect
     x="477.651"
     y="79.458"
     fill="#f89f7c"
     width="201.923"
     height="15.532"
     id="rect872" /><path
     fill="#f3a892"
     d="m 217.913,249.658 h -3.221 c -4.185,0 -7.609,-3.424 -7.609,-7.608 v -24.098 c 0,-4.186 3.425,-7.609 7.609,-7.609 h 3.221 c 4.184,0 7.608,3.424 7.608,7.609 v 24.098 c 0,4.184 -3.424,7.608 -7.608,7.608 z"
     id="path874" /><g
     id="g914"><path
       fill="#ffffff"
       d="m 216.692,156.089 -2.716,-2.974 c 0,0 -13.639,2.229 -19.166,14.09 l 2.004,2.942 z"
       id="path876" /><g
       id="g912"><path
         fill="#f3885e"
         d="m 260.142,189.826 c -0.035,0.496 -0.08,0.99 -0.135,1.484 -0.279,2.377 -0.796,4.688 -1.541,6.881 -3.168,9.387 -35.389,-18.786 -44.438,-15.216 -4.492,1.777 -7.312,39.83 -8.032,39.176 -15.305,-13.88 -14.518,-30.944 -14.072,-37.293 1.258,-17.902 17.957,-31.232 35.714,-30.787 0.507,0.015 1.014,0.041 1.519,0.076 11.221,0.788 20.747,7.024 26.194,15.95 0.01,0.011 0.01,0.011 0.01,0.011 1.594,2.621 2.836,5.481 3.67,8.496 0.978,3.553 1.382,7.34 1.111,11.222 z"
         id="path878" /><g
         id="g886"><path
           fill="#fddcd4"
           d="m 215.642,196.685 c -0.039,0.727 -0.206,1.424 -0.501,2.063 -0.334,0.766 -0.845,1.582 -1.474,2.15 -1.14,1.022 -2.663,1.74 -4.313,1.651 l -3.548,-0.187 -2.72,-0.138 0.402,-8.075 h 0.01 l 0.069,-1.493 0.059,-1.159 0.058,-1.062 0.011,-0.274 h 0.011 l 6.258,0.324 c 1.581,0.078 2.985,0.767 4.008,1.817 0.619,0.639 1.09,1.426 1.375,2.279 0.236,0.669 0.334,1.366 0.295,2.104 z"
           id="path880" /><path
           fill="#fbc7b1"
           d="m 202.897,206.748 c -0.011,0.314 0,0.618 0.01,0.933 0,0.099 0.011,0.196 0.02,0.295 0.157,3.91 1.18,7.633 2.87,10.982 0.077,0.168 0.166,0.335 0.254,0.502 2.771,5.207 7.183,9.451 12.596,12.016 0.01,0.01 0.02,0.01 0.02,0.01 2.093,0.992 4.342,1.729 6.7,2.16 0.864,0.158 1.729,0.286 2.612,0.374 0.354,0.029 0.709,0.05 1.072,0.069 1.297,0.059 2.563,0.049 3.82,-0.078 0.354,-0.021 0.718,-0.05 1.072,-0.109 11.739,-1.453 21.309,-10.305 23.549,-21.84 0.235,-1.228 0.401,-2.504 0.462,-3.792 l 0.098,-1.955 0.668,-13.057 c 0.108,-1.965 0.078,-3.88 -0.147,-5.737 -0.166,-1.444 -0.473,-2.859 -0.942,-4.234 -1.219,-3.605 -2.889,-6.867 -5.434,-9.647 -4.745,-5.207 -11.553,-8.616 -19.147,-9.008 -5.679,-0.295 -11.063,1.149 -15.65,3.84 -0.658,0.393 -1.306,0.816 -1.935,1.258 -3.145,2.21 -5.808,5.068 -7.782,8.37 0,0 -0.009,0.009 -0.009,0.02 -0.521,0.865 -1.003,1.778 -1.415,2.702 -0.078,0.167 -0.147,0.324 -0.216,0.511 -0.501,1.12 -0.954,2.289 -1.317,3.488 -0.541,1.709 -0.913,3.498 -1.021,5.344 l -0.021,0.275 -0.058,1.061 -0.059,1.159 -0.079,1.483 v 0.01 l -0.01,0.079 -0.011,0.255 -0.039,0.688 -0.344,7.055 -0.127,2.328 -0.039,0.885 v 0.195 c -0.021,0.372 -0.04,0.745 -0.021,1.11 z"
           id="path882" /><path
           fill="#fddcd4"
           d="m 198.82,200.017 c -0.127,2.574 1.641,4.951 4.098,5.59 0.225,0.059 0.461,0.107 0.707,0.138 0.108,0.029 0.235,0.029 0.363,0.04 l 1.68,0.088 0.187,-3.508 0.039,-0.785 0.325,-6.366 -1.689,-0.089 c -0.158,-0.01 -0.295,-0.01 -0.443,0 h -0.01 c -0.216,0 -0.432,0.02 -0.638,0.049 0,0 -0.011,-0.01 -0.011,0 -1.07,0.128 -2.053,0.551 -2.818,1.238 -1.032,0.923 -1.712,2.14 -1.79,3.605 z"
           id="path884" /></g><path
         fill="#fbc7b1"
         d="m 202.918,205.607 v 0.029 c -0.021,0.374 -0.04,0.747 -0.021,1.111 -0.011,0.314 0,0.618 0.01,0.933 0,0.099 0.011,0.196 0.02,0.295 0.05,0.02 0.1,0.02 0.148,0.029 0.127,3.9 1.08,7.604 2.722,10.953 0.077,0.168 0.166,0.335 0.254,0.502 2.751,5.354 7.231,9.727 12.763,12.34 0.01,0.01 0.02,0.01 0.02,0.01 4.715,2.828 5.021,2.416 5.021,2.416 0,0 2.269,-0.294 1.964,-0.491 -1.915,-1.237 -6.866,-5.974 -9.962,-14.157 -1.688,-4.45 -2.082,-11.789 -2.023,-18.351 v -0.492 c 0.03,-3.006 0.168,-5.836 0.305,-8.104 0,-0.04 0,-0.09 0.011,-0.129 0.187,-3.134 0.393,-5.178 0.393,-5.178 -2.151,-4.646 -5.934,-4.253 -9.647,-2.18 -0.512,1.611 -0.875,3.291 -1.002,5.03 -0.011,0.108 -0.011,0.207 -0.021,0.314 h -0.01 l -0.009,0.274 -0.061,1.062 -0.058,1.159 -0.079,1.483 v 0.01 c -0.059,0 -0.128,0 -0.188,0.01 l -0.039,0.688 c -1.07,0.128 -2.053,0.551 -2.818,1.238 -1.031,0.924 -1.711,2.141 -1.789,3.605 -0.129,2.575 1.639,4.952 4.096,5.591 z"
         id="path888" /><path
         fill="#f3885e"
         d="m 249.796,178.617 c 0.432,2.383 -0.4,4.64 -1.931,6.17 -1.257,1.258 -3.007,2.044 -4.912,2.044 0,0 -27.287,2.04 -31.221,10.487 l -2.92,5.37 c -0.43,0.788 -1.288,1.259 -2.184,1.19 -0.018,-10e-4 -0.034,-0.002 -0.051,-0.003 -1.086,-0.085 -1.961,-0.907 -2.1,-1.987 -0.678,-5.256 -3.713,-20.354 -3.713,-21.533 0,-1.916 1.79,-4.136 3.048,-5.403 1.258,-1.258 3.006,-2.044 4.912,-2.044 h 33.941 c 3.421,0.001 6.52,2.345 7.131,5.709 z"
         id="path890" /><path
         fill="#f04847"
         d="m 237.607,218.67 h 4.338 c 0.587,0 1.066,-0.479 1.066,-1.064 v 0 c 0,-0.586 -0.479,-1.064 -1.066,-1.064 h -4.338 c -0.586,0 -1.065,0.479 -1.065,1.064 v 0 c 0,0.586 0.479,1.064 1.065,1.064 z"
         id="path892" /><path
         fill="#f04847"
         d="m 237.74,220.534 h 3.045 c 0.763,0 1.387,-0.624 1.387,-1.387 v 0 c 0,-0.764 -0.624,-1.387 -1.387,-1.387 h -3.045 c -0.763,0 -1.387,0.623 -1.387,1.387 v 0 c 0.001,0.763 0.625,1.387 1.387,1.387 z"
         id="path894" /><path
         fill="#fbc7b1"
         d="m 244.402,210.32 c 0,0 -0.318,1.976 -3.111,1.883 -2.456,-0.082 -2.7,-1.802 -2.7,-1.802 z"
         id="path896" /><circle
         fill="#39477a"
         cx="202.076"
         cy="207.20799"
         r="2.948"
         id="circle898" /><path
         fill="#f3885e"
         d="m 247.922,177.49 c 0,0 8.286,-0.329 11.635,9.538 0,0 1.874,-10.029 -11.88,-20.344 -13.754,-10.315 -38.068,-1.719 -40.034,2.701 -1.965,4.422 -1.719,7.86 -1.719,7.86 z"
         id="path900" /><g
         id="g906"><path
           fill="none"
           stroke="#f3885e"
           stroke-width="2.0538"
           stroke-linecap="round"
           stroke-miterlimit="10"
           d="m 235.396,194.928 c 0,0 -4.666,-2.21 -9.579,0.737"
           id="path902" /><path
           fill="none"
           stroke="#f3885e"
           stroke-width="2.0538"
           stroke-linecap="round"
           stroke-miterlimit="10"
           d="m 254.8,194.314 c 0,0 -4.666,-2.211 -9.578,0.737"
           id="path904" /></g><path
         fill="#191d4c"
         d="m 230.896,203.756 v 0 c -0.676,0 -1.229,-0.552 -1.229,-1.228 v -2.271 c 0,-0.676 0.553,-1.229 1.229,-1.229 v 0 c 0.675,0 1.228,0.553 1.228,1.229 v 2.271 c -0.001,0.677 -0.554,1.228 -1.228,1.228 z"
         id="path908" /><path
         fill="#191d4c"
         d="m 249.89,203.756 v 0 c -0.677,0 -1.229,-0.552 -1.229,-1.228 v -2.271 c 0,-0.676 0.552,-1.229 1.229,-1.229 v 0 c 0.675,0 1.227,0.553 1.227,1.229 v 2.271 c -10e-4,0.677 -0.553,1.228 -1.227,1.228 z"
         id="path910" /></g></g></g></g>
</svg>
