<?xml version="1.0" encoding="utf-8"?>
<!-- Generator: Adobe Illustrator 16.0.0, SVG Export Plug-In . SVG Version: 6.00 Build 0)  -->
<!DOCTYPE svg PUBLIC "-//W3C//DTD SVG 1.1//EN" "http://www.w3.org/Graphics/SVG/1.1/DTD/svg11.dtd">
<svg version="1.1" id="Layer_1" xmlns="http://www.w3.org/2000/svg" xmlns:xlink="http://www.w3.org/1999/xlink" x="0px" y="0px"
	 width="558.666px" height="405.054px" viewBox="262.15 68.462 558.666 405.054"
	 enable-background="new 262.15 68.462 558.666 405.054" xml:space="preserve">
<g>
	
		<line fill="none" stroke="#D5D5D4" stroke-width="3.8401" stroke-miterlimit="22.9256" x1="381.108" y1="192.075" x2="497.595" y2="254.513"/>
	
		<line fill="none" stroke="#D5D5D4" stroke-width="3.8401" stroke-miterlimit="22.9256" x1="694.953" y1="313.613" x2="497.595" y2="254.513"/>
	
		<line fill="none" stroke="#D5D5D4" stroke-width="2" stroke-miterlimit="22.9256" x1="564.558" y1="429.3" x2="497.595" y2="254.513"/>
	
		<line fill="none" stroke="#D5D5D4" stroke-width="2" stroke-miterlimit="22.9256" x1="657.467" y1="124.575" x2="497.595" y2="254.513"/>
	
		<line fill="none" stroke="#D5D5D4" stroke-width="2" stroke-miterlimit="22.9256" x1="646.456" y1="126.955" x2="755.691" y2="113.544"/>
	
		<line fill="none" stroke="#D5D5D4" stroke-width="3.8401" stroke-miterlimit="22.9256" x1="618.766" y1="206.943" x2="755.687" y2="113.544"/>
	
		<line fill="none" stroke="#D5D5D4" stroke-width="3.8401" stroke-miterlimit="22.9256" x1="615.335" y1="204.384" x2="486.85" y2="99.679"/>
	
		<line fill="none" stroke="#D5D5D4" stroke-width="3.8401" stroke-miterlimit="22.9256" x1="616.169" y1="209.613" x2="713.33" y2="343.894"/>
	
		<line fill="none" stroke="#D5D5D4" stroke-width="2" stroke-miterlimit="22.9256" x1="694.953" y1="313.612" x2="755.687" y2="113.544"/>
	
		<line fill="none" stroke="#D5D5D4" stroke-width="2" stroke-miterlimit="22.9256" x1="613.515" y1="206.259" x2="457.221" y2="261.435"/>
	
		<line fill="none" stroke="#D5D5D4" stroke-width="3.8401" stroke-miterlimit="22.9256" x1="694.953" y1="313.613" x2="789.24" y2="383.454"/>
	
		<line fill="none" stroke="#D5D5D4" stroke-width="3.8401" stroke-miterlimit="22.9256" x1="694.953" y1="313.613" x2="564.558" y2="429.3"/>
	
		<line fill="none" stroke="#D5D5D4" stroke-width="2" stroke-miterlimit="22.9256" x1="694.953" y1="313.612" x2="326.884" y2="355.396"/>
	
		<line fill="none" stroke="#D5D5D4" stroke-width="2" stroke-miterlimit="22.9256" x1="486.714" y1="102.409" x2="380.361" y2="196.059"/>
	
		<line fill="none" stroke="#D5D5D4" stroke-width="3.8401" stroke-miterlimit="22.9256" x1="289.395" y1="236.777" x2="380.361" y2="196.059"/>
	
		<line fill="none" stroke="#D5D5D4" stroke-width="2" stroke-miterlimit="22.9256" x1="288.08" y1="241.416" x2="315.671" y2="337.183"/>
	
		<line fill="none" stroke="#D5D5D4" stroke-width="2" stroke-miterlimit="22.9256" x1="289.905" y1="238.263" x2="496.893" y2="251.588"/>
	
		<line fill="none" stroke="#D5D5D4" stroke-width="3.8401" stroke-miterlimit="22.9256" x1="564.558" y1="429.3" x2="326.884" y2="355.396"/>
	
		<line fill="none" stroke="#D5D5D4" stroke-width="2" stroke-miterlimit="22.9256" x1="564.558" y1="429.3" x2="789.244" y2="381.074"/>
	
		<line fill="none" stroke="#D5D5D4" stroke-width="3.8401" stroke-miterlimit="22.9256" x1="323.257" y1="360.017" x2="501.263" y2="253.549"/>
	
		<line fill="none" stroke="#D5D5D4" stroke-width="3.8401" stroke-miterlimit="22.9256" x1="499.524" y1="266.106" x2="486.43" y2="100.88"/>
	
		<line fill="none" stroke="#D5D5D4" stroke-width="2" stroke-miterlimit="22.9256" x1="650.096" y1="125.998" x2="486.582" y2="98.892"/>
	
		<line fill="none" stroke="#D5D5D4" stroke-width="3.8401" stroke-miterlimit="22.9256" x1="791.91" y1="383.454" x2="755.691" y2="113.544"/>
</g>
<g>
	<circle fill="#CBE3E2" cx="496.816" cy="245.629" r="61.021"/>
	<path fill="#E6625F" d="M474.003,273.484c-6.013,3.903-8.502,12.292-12.029,22.225c9.884,6.896,21.902,10.942,34.866,10.942
		c12.944,0,24.944-4.034,34.819-10.907c-3.52-9.981-5.968-18.449-12.052-22.26c-10.413-6.52-16.68-8.082-22.824-8.165
		C490.499,265.233,484.341,266.772,474.003,273.484z"/>
	<g>
		<path fill="#D95957" d="M524.805,299.875v-20.901c2.705,4.354,4.551,10.238,6.854,16.771
			C529.474,297.265,527.185,298.646,524.805,299.875z"/>
		<path fill="#D95957" d="M519.611,273.488v28.769c-2.429,0.978-4.933,1.804-7.502,2.467v-35.451
			c2.257,1.098,4.729,2.48,7.498,4.212L519.611,273.488z"/>
		<path fill="#D95957" d="M506.915,267.098v38.725c-2.455,0.408-4.958,0.669-7.502,0.774v-41.143
			C501.748,265.667,504.178,266.154,506.915,267.098z"/>
		<path fill="#D95957" d="M494.218,265.383v41.213c-2.543-0.108-5.048-0.372-7.502-0.782v-38.893
			C489.43,265.991,491.856,265.541,494.218,265.383z"/>
		<path fill="#D95957" d="M481.522,269.123v35.588c-2.571-0.665-5.075-1.494-7.503-2.474v-28.764
			C476.794,271.674,479.267,270.246,481.522,269.123z"/>
		<path fill="#D95957" d="M468.826,279.046v20.804c-2.38-1.231-4.668-2.615-6.853-4.141
			C464.276,289.223,466.138,283.396,468.826,279.046z"/>
	</g>
	<g>
		<path fill="#D95957" d="M472.416,274.687c-2.162,1.887-3.828,4.451-5.289,7.502h59.414c-1.458-3.066-3.125-5.635-5.305-7.502
			H472.416z"/>
		<path fill="#D95957" d="M464.947,287.382c-0.888,2.346-1.752,4.866-2.683,7.502h69.091c-0.922-2.633-1.776-5.154-2.655-7.502
			H464.947z"/>
		<path fill="#D95957" d="M469.271,300.079c8.28,4.201,17.646,6.572,27.567,6.572c9.922,0,19.289-2.371,27.569-6.572H469.271z"/>
	</g>
	<g>
		<g>
			<path fill="#EF817F" d="M524.805,282.188h1.735l-0.068-0.144l-0.138-0.284l-0.069-0.142c-0.092-0.188-0.186-0.373-0.28-0.557
				l-0.071-0.138c-0.095-0.182-0.19-0.36-0.286-0.537l-0.003-0.004l-0.072-0.135l-0.068-0.122l-0.008-0.016l-0.07-0.126
				l-0.074-0.131l-0.008-0.016l-0.052-0.089l-0.016-0.026l-0.075-0.128v-0.001l-0.074-0.129l-0.014-0.021l-0.063-0.106l-0.077-0.128
				l-0.068-0.111l-0.025-0.041l-0.053-0.084v3.216H524.805z"/>
			<polygon fill="#EF817F" points="524.805,294.884 531.356,294.884 531.336,294.829 531.313,294.761 531.271,294.638 
				531.231,294.526 531.229,294.515 531.185,294.393 531.099,294.146 531.056,294.024 531.021,293.924 531.014,293.902 
				530.972,293.78 530.929,293.658 530.917,293.625 530.887,293.537 530.844,293.415 530.76,293.173 530.718,293.052 
				530.71,293.028 530.676,292.931 530.425,292.211 530.403,292.144 530.26,291.734 530.219,291.616 530.199,291.56 
				530.177,291.497 530.136,291.379 530.097,291.269 530.095,291.261 530.054,291.143 530.013,291.025 529.997,290.979 
				529.811,290.45 529.807,290.441 529.794,290.406 529.766,290.325 529.725,290.209 529.693,290.12 529.685,290.093 
				529.644,289.978 529.602,289.862 529.593,289.837 529.521,289.632 529.493,289.554 529.48,289.517 529.396,289.289 
				529.392,289.272 529.356,289.175 529.316,289.061 529.292,288.993 529.275,288.947 529.234,288.834 529.193,288.721 
				529.191,288.715 529.152,288.607 529.111,288.495 529.09,288.438 529.07,288.383 529.029,288.271 528.99,288.162 
				528.989,288.158 528.889,287.888 528.865,287.824 528.824,287.714 528.789,287.616 528.701,287.382 524.805,287.382 			"/>
		</g>
		<g>
			<rect x="512.109" y="274.687" fill="#EF817F" width="7.502" height="7.502"/>
			<rect x="512.109" y="287.382" fill="#EF817F" width="7.502" height="7.502"/>
			<polygon fill="#EF817F" points="512.181,304.704 512.462,304.632 512.47,304.629 512.533,304.613 512.59,304.597 
				512.872,304.521 513.025,304.479 513.309,304.4 513.388,304.379 513.428,304.367 513.442,304.363 513.749,304.276 
				513.88,304.237 513.905,304.23 514.024,304.196 514.143,304.161 514.306,304.112 514.607,304.021 514.618,304.019 
				514.663,304.005 514.735,303.982 514.995,303.902 515.202,303.837 515.208,303.835 515.326,303.798 515.444,303.761 
				515.563,303.723 515.679,303.685 515.796,303.647 515.914,303.607 515.976,303.588 516.251,303.496 516.419,303.438 
				516.706,303.341 516.822,303.301 517.087,303.208 517.264,303.146 517.545,303.046 517.59,303.029 517.661,303.004 
				517.663,303.003 517.931,302.905 518.007,302.876 518.123,302.833 518.32,302.76 518.468,302.704 518.583,302.66 
				518.697,302.616 518.813,302.573 518.892,302.541 518.926,302.528 519.041,302.483 519.155,302.438 519.188,302.425 
				519.289,302.386 519.497,302.303 519.611,302.257 519.611,300.079 512.109,300.079 512.109,304.724 			"/>
		</g>
		<g>
			<rect x="499.413" y="274.687" fill="#EF817F" width="7.502" height="7.502"/>
			<rect x="499.413" y="287.382" fill="#EF817F" width="7.502" height="7.502"/>
			<path fill="#EF817F" d="M499.77,306.581l0.119-0.006l0.356-0.019l0.12-0.007l0.355-0.021l0.118-0.009l0.237-0.015l0.118-0.009
				l0.118-0.008l0.237-0.018l0.119-0.01l0.118-0.009l0.34-0.029l0.013-0.001l0.118-0.01l0.228-0.021l0.008-0.001l0.118-0.011
				l0.117-0.012l0.171-0.016l0.182-0.019l0.118-0.013l0.176-0.019l0.246-0.025l0.16-0.019l0.302-0.035l0.144-0.017l0.375-0.047
				l0.021-0.002l0.016-0.002l0.425-0.056l0.007-0.001h0.002l0.01-0.002c0.146-0.02,0.292-0.04,0.438-0.061l0.014-0.001
				c0.464-0.067,0.925-0.139,1.386-0.215v-5.743h-7.502v6.518L499.77,306.581z"/>
		</g>
		<g>
			<rect x="486.716" y="274.687" fill="#EF817F" width="7.502" height="7.502"/>
			<rect x="486.716" y="287.382" fill="#EF817F" width="7.502" height="7.502"/>
			<path fill="#EF817F" d="M486.716,305.813l0.08,0.015l0.031,0.004l0.005,0.001l0.021,0.004l0.399,0.064l0.02,0.003l0.021,0.004
				l0.402,0.061l0.021,0.004l0.038,0.006l0.393,0.058l0.018,0.002l0.053,0.008l0.35,0.048l0.046,0.007l0.069,0.009l0.329,0.043
				l0.117,0.015l0.253,0.032l0.225,0.026l0.009,0.001l0.116,0.015l0.116,0.013h0.002l0.232,0.026l0.117,0.013l0.118,0.012
				l0.21,0.022l0.022,0.003l0.118,0.012l0.021,0.002l0.333,0.032l0.116,0.012c1.021,0.094,2.047,0.164,3.081,0.208v-6.517h-7.502
				V305.813L486.716,305.813z"/>
		</g>
		<g>
			<rect x="474.02" y="274.687" fill="#EF817F" width="7.503" height="7.502"/>
			<rect x="474.02" y="287.382" fill="#EF817F" width="7.503" height="7.502"/>
			<polygon fill="#EF817F" points="474.134,302.282 474.247,302.329 474.362,302.374 474.59,302.464 474.705,302.509 
				474.735,302.521 474.933,302.598 475.049,302.642 475.163,302.686 475.178,302.691 475.358,302.76 475.394,302.772 
				475.509,302.815 475.624,302.858 475.828,302.933 475.854,302.943 475.971,302.985 476.166,303.057 476.44,303.154 
				476.551,303.193 476.667,303.234 476.783,303.274 476.784,303.275 477.016,303.355 477.132,303.396 477.249,303.436 
				477.276,303.444 477.366,303.475 477.483,303.514 477.6,303.554 477.718,303.592 477.825,303.627 477.834,303.631 
				477.952,303.669 478.07,303.707 478.087,303.712 478.238,303.762 478.502,303.846 478.657,303.894 478.659,303.895 
				478.777,303.93 478.895,303.968 478.942,303.981 479.093,304.027 479.369,304.11 479.44,304.132 479.488,304.146 
				479.726,304.216 479.845,304.25 479.912,304.27 480.206,304.354 480.322,304.387 480.442,304.42 480.563,304.454 
				480.681,304.486 480.792,304.517 480.801,304.519 480.921,304.552 481.041,304.583 481.147,304.613 481.161,304.615 
				481.192,304.624 481.522,304.711 481.522,300.079 474.02,300.079 474.02,302.237 			"/>
		</g>
		<g>
			<polygon fill="#EF817F" points="468.826,279.047 468.8,279.089 468.795,279.096 468.718,279.223 468.7,279.251 468.642,279.349 
				468.611,279.401 468.566,279.477 468.49,279.604 468.423,279.72 468.415,279.734 468.34,279.863 468.297,279.938 
				468.242,280.035 468.192,280.126 468.119,280.258 468.116,280.263 468.055,280.373 468.045,280.391 467.973,280.524 
				467.972,280.525 467.9,280.659 467.829,280.795 467.757,280.931 467.755,280.933 467.694,281.052 467.68,281.077 
				467.551,281.327 467.539,281.353 467.474,281.482 467.404,281.622 467.265,281.903 467.196,282.046 467.195,282.047 
				467.127,282.188 468.826,282.188 			"/>
			<polygon fill="#EF817F" points="464.947,287.382 464.906,287.492 464.864,287.604 464.849,287.644 464.822,287.714 
				464.781,287.824 464.748,287.914 464.74,287.936 464.698,288.047 464.656,288.158 464.646,288.186 464.615,288.271 
				464.574,288.382 464.545,288.459 464.533,288.495 464.491,288.606 464.45,288.721 464.445,288.734 464.409,288.833 
				464.367,288.946 464.344,289.01 464.327,289.06 464.285,289.174 464.243,289.288 464.202,289.401 464.161,289.516 
				464.143,289.567 464.119,289.631 464.078,289.745 464.042,289.847 464.037,289.861 463.995,289.977 463.955,290.092 
				463.94,290.129 463.913,290.208 463.871,290.324 463.839,290.411 463.83,290.44 463.789,290.557 463.747,290.673 
				463.739,290.696 463.705,290.79 463.664,290.906 463.638,290.981 463.623,291.024 463.581,291.143 463.539,291.26 
				463.536,291.269 463.498,291.377 463.456,291.496 463.435,291.556 463.415,291.614 463.372,291.732 463.333,291.846 
				463.331,291.852 463.289,291.971 463.247,292.09 463.231,292.136 463.205,292.21 463.163,292.329 463.128,292.429 
				463.121,292.449 462.952,292.93 462.922,293.015 462.909,293.051 462.867,293.172 462.825,293.293 462.819,293.311 
				462.782,293.413 462.74,293.535 462.715,293.606 462.696,293.657 462.654,293.78 462.611,293.901 462.61,293.903 
				462.568,294.023 462.524,294.146 462.505,294.201 462.482,294.269 462.438,294.393 462.4,294.501 462.396,294.514 
				462.352,294.638 462.309,294.761 462.294,294.803 462.266,294.884 468.826,294.884 468.826,287.382 			"/>
		</g>
	</g>
	<path fill="#FFDDB8" d="M488.181,242.405h17.248v24.947c0,8.421-17.248,9.387-17.248,0V242.405z"/>
	<polygon fill="#E7C5A0" points="505.428,258.067 505.428,254.879 488.181,254.879 488.181,266.619 	"/>
	<path fill="#C48872" d="M496.425,216.479c12.25,0,18.718,7.185,19.373,14.783c0.653,7.597,1.755,6.249,4.403,0.595
		c2.648-5.653-3.839-30.035-22.782-30.035s-26.698,18.758-24.049,29.006c2.648,10.247,2.648,7.813,4.304,0.039
		C479.329,223.093,482.85,216.832,496.425,216.479z"/>
	<path fill="#FFDDB8" d="M518.146,224.118c4.051,14.276-7.172,34.813-21.343,34.813c-13.976,0-25.087-19.979-21.5-34.225
		C486.766,218.982,504.479,212.508,518.146,224.118z"/>
	<path fill="#C48872" d="M514.818,229.62c-0.079-4.001-3.436-8.281-5.868-9.498c-2.436-1.218-14.746,0.303-21.104,4.347
		c-6.874,4.372-8.141,7.692-8.598,11.614c-0.143,1.23-0.478,2.48-1.143,2.238c-2.104-0.768-2.521-6.652-4.31-7.726
		c-2.607-1.564-1.415-4.062-0.372-8.062c1.043-3.999,12.813-6.194,22.548-6.541c9.736-0.349,17.02,1.911,20.039,4.693
		c3.021,2.782,4.166,7.271,2.835,11.075c-0.954,2.728-1.911,6.059-3.868,5.49C514.089,236.992,514.863,231.935,514.818,229.62z"/>
	<g>
		
			<ellipse transform="matrix(-0.9761 -0.2172 0.2172 -0.9761 975.0518 572.9153)" fill="#FFDDB8" cx="519.016" cy="232.864" rx="2.465" ry="5.711"/>
		
			<ellipse transform="matrix(-0.9761 0.2171 -0.2171 -0.9761 988.4125 357.1726)" fill="#F6D6B2" cx="474.586" cy="232.882" rx="2.466" ry="5.71"/>
	</g>
	<path fill="#FFCD63" d="M480.818,268.865c-7.263,0-8.775,0.907-9.078,5.75c-0.304,4.841,0.907,16.34,5.445,22.693
		c4.539,6.354,2.118-0.908,2.725-6.052c0.604-5.144,1.513,7.263,3.631,1.513C485.659,287.021,482.938,283.087,480.818,268.865z"/>
	<path fill="#FFCD63" d="M516.956,271.135c3.305,0,7.388,2.14,4.472,6.806c-2.917,4.667-4.472,15.361-4.667,19.834
		c-0.193,4.472-2.333,7.584-2.333,3.89c0-3.695-2.722-12.251-3.5-8.557c-0.776,3.695-3.692,7.389-3.305,0.389
		S509.566,267.246,516.956,271.135z"/>
	<path fill="#FFCD63" d="M516.484,272.057c-6.292,6.816-25.493,15.97-38.077-0.284c-1.388-4.226-0.998-6.485,2.673-5.437
		c-0.262-3.933,3.284-5.398,6.692-3.563c4.98,5.243,16.069,2.546,18.167-0.863c3.242-0.882,5.266,0.425,5.266,4.883
		C517.758,263.645,519.106,268.648,516.484,272.057z"/>
	<g>
		<path fill="#DFA427" d="M513.993,280.085v-2.421c1.237-2.213,2.607-3.838,3.589-4.155
			C516.932,274.051,515.388,276.791,513.993,280.085L513.993,280.085z M513.993,275.587c1.351-0.949,2.559-2.4,3.004-4.197l0,0
			c-0.56,1.049-1.736,2.096-3.004,3.017V275.587z M513.993,274.406v1.181c-1.175,0.825-2.458,1.272-3.439,1.243v-0.237
			C511.473,276.057,512.774,275.29,513.993,274.406L513.993,274.406z M513.993,277.664v2.421c-1.425,3.367-2.695,7.313-2.695,10.084
			C510.276,286.554,511.954,281.312,513.993,277.664L513.993,277.664z M510.554,267.29v-0.084c0.121-0.093,0.239-0.185,0.353-0.276
			l0,0C510.792,267.05,510.674,267.17,510.554,267.29z M479.513,287.83c-0.259-0.454-0.504-0.979-0.735-1.556v0.804
			C479.009,287.351,479.255,287.604,479.513,287.83L479.513,287.83z M510.554,267.206v0.084
			c-5.302,5.304-17.438,10.645-28.053-0.012C493.328,276.061,505.402,271.176,510.554,267.206L510.554,267.206z M510.554,276.593
			l-0.352,0.204c0.112,0.019,0.229,0.029,0.352,0.033V276.593L510.554,276.593z M478.777,273.716v-1.433
			c0.948,1.25,2.307,2.526,3.146,3.198C480.797,275.414,479.546,274.772,478.777,273.716z M478.777,286.274
			c-1.935-4.803-2.912-13.199-2.261-14.373c-2.024,1.551-1.396,10.909,2.261,15.177V286.274L478.777,286.274z M478.777,272.283
			v1.433c-0.501-0.688-0.799-1.551-0.726-2.546C478.238,271.527,478.489,271.905,478.777,272.283z"/>
	</g>
	<path fill="#C48872" d="M479.25,232.182c-0.865,3.458-0.645,11.989,2.78,14.754c3.425,2.764,5.37,3.188,5.945,0.017
		c1.076-5.922,16.55-5.922,17.625,0c0.576,3.171,2.521,2.747,5.945-0.017c3.425-2.765,3.646-11.296,2.78-14.754
		c0.42-3.567,3.129-3.377,2.353-0.8c-0.445,1.481,0.376,3.48,0.682,4.727c1.119,4.578,0.285,9.431-2.888,14.908
		c-7.604,13.137-27.765,13.137-35.371,0c-3.172-5.478-4.005-10.33-2.886-14.908c0.306-1.246,1.126-3.245,0.681-4.727
		C476.12,228.805,478.83,228.614,479.25,232.182z"/>
	<path fill="#F6D6B2" d="M496.816,244.072c4.337,0,7.854,2.395,7.854,5.348c0,2.137,0,4.837-3.233,4.837
		c-3.184,0-2.256-2.702-4.544-2.669c-2.511,0.036-1.826,2.634-4.934,2.633c-2.934-0.001-2.999-2.708-2.999-4.801
		C488.961,246.414,492.478,244.072,496.816,244.072z"/>
	<path fill="#028170" d="M505.279,239.195c0.184-0.003,0.373-0.01,0.567-0.026c4.449-0.335,5.483-2.188,5.908-4.528
		c0.466-2.57,0.472-3.466,1.181-3.702c0.521-0.173,0.631-0.748,0.592-1.418c-0.039-0.669-0.065-0.741-0.946-1.023
		c-0.688-0.221-4.464-0.546-7.302-0.393v0.692c2.229-0.104,4.382,0.151,5.019,0.526c1.46,0.862,1.177,5.002,0.039,7.051
		c-0.8,1.441-3.042,2.163-5.058,2.168V239.195z M496.725,229.442c-0.983,0.021-5.044-1.063-7.916-1.299
		c-0.186-0.017-0.378-0.029-0.574-0.039v0.692c2.316,0.108,4.716,0.603,5.576,1.748c1.417,1.891-0.866,6.499-3.032,7.523
		c-0.678,0.318-1.584,0.478-2.543,0.474v0.653c3.926,0.057,5.282-2.547,5.732-3.412c0.843-1.615,0.584-3.842,2.789-3.842
		s1.985,2.187,2.828,3.803c0.452,0.865,1.772,3.504,5.694,3.451v-0.653c-0.958,0.004-1.865-0.155-2.543-0.474
		c-2.166-1.024-4.451-5.633-3.033-7.523c0.86-1.146,3.258-1.64,5.576-1.748v-0.692c-0.196,0.01-0.39,0.022-0.574,0.039
		C502.134,228.354,499.042,229.391,496.725,229.442z M488.234,228.104c-2.837-0.153-6.613,0.172-7.304,0.393
		c-0.88,0.282-0.905,0.354-0.944,1.023c-0.04,0.67,0.07,1.245,0.59,1.418c0.709,0.236,0.715,1.132,1.182,3.702
		c0.425,2.341,1.458,4.193,5.907,4.528c0.195,0.017,0.385,0.023,0.568,0.026v-0.653c-2.016-0.005-4.258-0.727-5.059-2.168
		c-1.138-2.049-1.421-6.188,0.04-7.051c0.636-0.375,2.79-0.63,5.019-0.526L488.234,228.104L488.234,228.104z"/>
</g>
<g>
	<circle fill="#FFCD63" cx="486.718" cy="100.787" r="32.325"/>
	<path fill="#C48872" d="M475.031,85.662c-1.83,3.377-5.504,23.411-0.297,34.952s18.369,11.93,18.651,5.315
		C493.667,119.313,478.55,82.988,475.031,85.662z"/>
	<path fill="#C48872" d="M497.902,85.651c1.83,3.377,5.241,22.182,0.033,33.72c-5.208,11.541-18.191,13.172-18.474,6.558
		C479.181,119.313,494.384,82.977,497.902,85.651z"/>
	<path fill="#7F9C9C" d="M474.632,115.544c-3.186,2.067-4.503,6.51-6.372,11.773c5.236,3.652,11.604,5.795,18.471,5.795
		c6.856,0,13.214-2.136,18.444-5.777c-1.864-5.288-3.161-9.773-6.385-11.792c-5.515-3.455-8.835-4.281-12.09-4.326
		C483.372,111.174,480.11,111.989,474.632,115.544z"/>
	<path fill="#FFDDB8" d="M482.143,99.081h9.137v13.215c0,4.46-9.137,4.973-9.137,0V99.081z"/>
	<polygon fill="#E7C5A0" points="491.279,107.377 491.279,105.688 482.143,105.688 482.143,111.907 	"/>
	<path fill="#F0CEAB" d="M486.712,82.276c19.348,0,11.505,25.559,0,25.559S467.363,82.276,486.712,82.276z"/>
	<path fill="#FFDDB8" d="M486.712,82.276c19.348,0,11.505,25.559,0,25.559V82.276z"/>
	<path fill="#C48872" d="M490.646,84.738c3.204,1.582,5.18,4.225,5.866,8.277c0.688,4.053,1.189,3.471,2.593,0.477
		c1.401-2.996-2.034-15.911-12.069-15.911s-14.144,9.936-12.741,15.364c1.403,5.43,2.499,3.654,3.375-0.464
		C478.548,88.363,482.848,84.317,490.646,84.738z"/>
	<path fill="#7E6055" d="M495.778,115.936c5.63-19.141-3.235-31.104-5.206-31.244C494.37,83.737,503.333,95.641,495.778,115.936z"/>
	<path fill="#FFDDB8" d="M491.322,111.855c-0.424,4.375-4.572,8.111-4.572,11.648c0-3.546-4.169-7.285-4.575-11.683L491.322,111.855
		z"/>
	<path fill="#E1E6F4" d="M486.75,121.886c1.997-2.986,4.079-4.703,6.59-5.485c1.241-0.387,3.417-0.8,4.582-0.231
		c-2.205-2.505-4.523-3.759-6.599-6.118C491.298,116.854,486.706,118.047,486.75,121.886z"/>
	<path fill="#FFFFFF" d="M486.75,121.886c1.494-3.18,3.808-5.863,6.319-6.645c1.239-0.387,2.409-0.298,3.574,0.27
		c-2.204-2.505-3.246-3.952-5.321-5.459C491.298,116.854,486.706,118.047,486.75,121.886z"/>
	<path fill="#E1E6F4" d="M486.75,121.886c-1.997-2.986-4.079-4.703-6.589-5.485c-1.241-0.387-3.417-0.8-4.582-0.231
		c2.205-2.505,4.522-3.759,6.599-6.118C482.202,116.854,486.792,118.047,486.75,121.886z"/>
	<path fill="#FFFFFF" d="M486.75,121.886c-1.494-3.18-3.808-5.863-6.319-6.645c-1.241-0.387-2.411-0.298-3.574,0.27
		c2.204-2.505,3.246-3.952,5.321-5.459C482.202,116.854,486.792,118.047,486.75,121.886z"/>
	<path fill="#7E6055" d="M478.257,119.665c-6.593-38.603,8.872-34.219,12.385-34.902C486.237,80.045,466.115,79.746,478.257,119.665
		z"/>
	<g>
		<path fill="#3E6735" d="M476.817,114.355c-1.636,1.001-2.347,3.366-2.574,5.209c3.238-0.701,6.845,1.228,7.455,2.105
			c-2.434,1.364-3.122,2.631-4.465,4.389c1.152,1.545,3.587,3.835,5.749,6.838c0.286,0.034,0.575,0.063,0.864,0.088
			c-1.938-3.178-4.294-5.478-5.491-7.08c1.345-1.757,2.3-2.716,4.732-4.08c-0.61-0.879-4.804-4.27-8.043-3.567
			C475.381,116.414,475.556,115.663,476.817,114.355z"/>
		<path fill="#3E6735" d="M496.735,114.355c1.636,1.001,2.347,3.366,2.575,5.209c-3.238-0.701-6.845,1.228-7.457,2.105
			c2.436,1.364,3.123,2.631,4.468,4.389c-1.152,1.542-3.587,3.83-5.752,6.825c-0.288,0.035-0.578,0.065-0.868,0.091
			c1.942-3.172,4.301-5.469,5.497-7.07c-1.345-1.757-2.302-2.716-4.734-4.08c0.611-0.879,4.806-4.27,8.045-3.567
			C498.173,116.414,497.997,115.663,496.735,114.355z"/>
		<path fill="#3E6735" d="M486.651,133.113c-0.037-3.646,0.02-8.166,0.237-10.737c-0.78,2.807-0.857,7.212-0.648,10.731
			C486.376,133.109,486.513,133.113,486.651,133.113z"/>
	</g>
</g>
<g>
	<circle fill="#CBE3E2" cx="289.396" cy="236.778" r="27.246"/>
	<path fill="#FFFFFF" d="M279.212,254.1c-1.837,1.194-2.938,3.324-3.955,5.973c4.122,2.507,8.961,3.952,14.138,3.952
		c5.182,0,10.026-1.448,14.15-3.959c-1.013-2.662-2.112-4.802-3.971-5.966c-4.65-2.911-7.447-3.607-10.191-3.646
		C286.578,250.417,283.829,251.103,279.212,254.1z"/>
	<path fill="#FFDDB8" d="M285.543,239.296h7.701v11.139c0,3.761-7.701,4.193-7.701,0V239.296z"/>
	<polygon fill="#E7C5A0" points="293.244,247.216 293.244,245.793 285.543,245.793 285.543,251.035 	"/>
	<path fill="#FFDDB8" d="M289.394,226.06c16.308,0,9.697,21.542,0,21.542S273.084,226.06,289.394,226.06z"/>
	<path fill="#7E6055" d="M293.947,227.539c3.038,0.854,3.713,5.189,4.325,7.47c0.886,3.314,0.385,3.028,1.567,0.505
		c1.184-2.524-1.714-13.411-10.172-13.411s-11.921,8.375-10.738,12.95c1.183,4.576,1.183,3.489,1.922,0.019
		c0.736-3.455,2.02-6.695,3.788-7.38c1.394-0.542,3.295,0.435,4.865,0.367C291.086,227.988,292.508,227.135,293.947,227.539z"/>
	<g>
		
			<ellipse transform="matrix(-0.9762 -0.2171 0.2171 -0.9762 540.2368 531.2861)" fill="#FFDDB8" cx="299.301" cy="235.969" rx="1.101" ry="2.549"/>
		
			<ellipse transform="matrix(-0.9761 0.2173 -0.2173 -0.9761 603.5515 405.5707)" fill="#F6D6B2" cx="279.476" cy="235.971" rx="1.101" ry="2.549"/>
	</g>
	<path fill="#E6625F" d="M288.55,257.229l-0.481,6.762c0.44,0.021,0.883,0.034,1.327,0.034c0.439,0,0.876-0.012,1.31-0.033
		l-0.481-6.763l2.721-6.517c-2.547-0.045-4.584-0.04-7.114,0L288.55,257.229z"/>
	<polygon fill="#BCC2D6" points="285.665,248.379 282.703,252.149 284.39,256.577 289.427,250.68 	"/>
	<polygon fill="#FFFFFF" points="285.665,248.379 282.703,252.149 284.545,255.589 289.427,250.68 	"/>
	<polygon fill="#E1E6F4" points="293.364,248.379 296.325,252.149 294.639,256.577 289.601,250.68 	"/>
	<polygon fill="#FFFFFF" points="293.364,248.379 296.325,252.149 294.483,255.589 289.601,250.68 	"/>
</g>
<g>
	<g>
		<circle fill="#E6625F" cx="381.222" cy="191.28" r="37.795"/>
		<path fill="#AE4A48" d="M366.156,189.73c1.152,7.502-2.238,16.254-3.773,10.464c-3.207,4.027,0.542,20.475,14.008,12.5
			C389.856,204.72,378.825,174.373,366.156,189.73z"/>
		<path fill="#AE4A48" d="M396.335,189.73c-1.386,8.896,2.238,16.254,3.773,10.464c3.207,4.027-0.543,20.475-14.009,12.5
			C372.634,204.72,383.666,174.373,396.335,189.73z"/>
		<path fill="#FFCD63" d="M367.095,215.309c-2.548,1.654-4.075,4.611-5.485,8.285c5.717,3.478,12.431,5.481,19.611,5.481
			c7.188,0,13.907-2.008,19.627-5.49c-1.403-3.694-2.928-6.661-5.507-8.276c-6.45-4.038-10.331-5.006-14.137-5.058
			C377.313,210.198,373.499,211.151,367.095,215.309z"/>
		<path fill="#FFDDB8" d="M375.877,196.059h10.682v15.452c0,5.215-10.682,5.813-10.682,0V196.059z"/>
		<polygon fill="#E7C5A0" points="386.56,205.759 386.56,203.784 375.877,203.784 375.877,211.056 		"/>
		<path fill="#FFDDB8" d="M381.218,176.411c22.623,0,13.452,29.883,0,29.883C367.767,206.294,358.596,176.411,381.218,176.411z"/>
		<path fill="#FFDDB8" d="M381.226,225.115c0-1.96-5.279-9.017-5.279-12.827h10.559
			C386.505,216.099,381.226,223.155,381.226,225.115z"/>
		<path fill="#ECA321" d="M378.792,228.995c-2.1-3.528-5.262-7.037-8.292-6.658c-0.678-2.252-0.098-4.004,0.923-6.02
			c-1.229-0.205-2,0.01-3.548,0.761c-0.516-2.854,4.218-8.04,8.002-9.24c0,2.102-0.218,6.13,1.846,8.834
			c1.412,1.85,2.525,7.526,3.087,12.396C380.133,229.062,379.46,229.037,378.792,228.995z"/>
		<path fill="#FFCD63" d="M379.543,229.035c-2.021-3.814-5.486-8.248-8.308-8.248c0.063-2.394,0.271-3.531,1.646-5.334
			c-1.893-0.299-3.268,0.049-4.815,0.801c0.471-2.854,4.882-7.216,7.811-8.416c0,2.102-0.218,6.13,1.846,8.834
			c1.511,1.978,2.679,7.779,3.197,12.398C380.459,229.065,380,229.056,379.543,229.035z"/>
		<path fill="#FFFFFF" d="M381.213,225.567c-3.348-4.973-7.001-6.59-9.234-6.595c0.471-2.22,1.682-4.661,2.546-5.604
			c-3.599,0.031-4.723,0.768-6.271,1.898c0.47-2.854,4.695-6.229,7.624-7.429c0,2.102-0.218,6.13,1.846,8.834
			C379.787,219.375,381.213,221.363,381.213,225.567z"/>
		<path fill="#ECA321" d="M383.634,228.995c2.101-3.527,5.264-7.037,8.294-6.658c0.678-2.252,0.098-4.004-0.924-6.02
			c1.229-0.205,2,0.01,3.548,0.761c0.517-2.854-4.218-8.04-8.002-9.24c0,2.102,1.818,6.453-1.519,8.927
			c-2.303,1.708-3.876,7.374-4.195,12.305c0.128,0.001,0.257,0.006,0.386,0.006C382.032,229.075,382.836,229.046,383.634,228.995z"
			/>
		<path fill="#FFCD63" d="M382.882,229.036c2.021-3.814,5.486-8.249,8.311-8.249c-0.064-2.394-0.272-3.531-1.648-5.334
			c1.892-0.299,3.268,0.049,4.817,0.801c-0.473-2.854-4.883-7.216-7.813-8.416c0,2.102,0.362,6.382-1.847,8.834
			c-1.642,1.822-2.893,7.634-3.336,12.4C381.875,229.07,382.38,229.058,382.882,229.036z"/>
		<path fill="#FFFFFF" d="M381.213,225.567c3.348-4.973,7.002-6.59,9.236-6.595c-0.473-2.22-1.683-4.661-2.546-5.604
			c3.597,0.031,4.722,0.768,6.27,1.898c-0.471-2.854-4.694-6.229-7.624-7.429c0,2.102,0.218,6.13-1.847,8.834
			C382.639,219.375,381.213,221.363,381.213,225.567z"/>
		<path fill="#AE4A48" d="M380.835,180.001c7.587,0,11.261,4.983,11.503,8.824c0.243,3.842,1.582,4.201,3.223,0.7
			c1.641-3.502-2.378-18.604-14.11-18.604c-11.733,0-16.536,11.618-14.896,17.966c1.642,6.346,3.674,2.747,3.596,0.023
			C370.07,186.186,372.428,180.219,380.835,180.001z"/>
		
			<ellipse transform="matrix(-0.9761 -0.2173 0.2173 -0.9761 739.2277 461.6005)" fill="#FFDDB8" cx="394.99" cy="190.162" rx="1.528" ry="3.537"/>
		
			<ellipse transform="matrix(-0.9761 0.2173 -0.2173 -0.9761 767.4426 295.9083)" fill="#F6D6B2" cx="367.45" cy="190.154" rx="1.527" ry="3.537"/>
		<path fill="#AE4A48" d="M371.633,177.255c-0.732,4.488,11.559,9.701,21.422,10.131
			C393.947,175.726,379.353,172.918,371.633,177.255z"/>
	</g>
	<path fill="#E6625F" d="M387.235,193.478c0.43-0.029,0.851-0.063,1.234-0.102c1.912-0.185,4.431-1.413,4.515-1.866
		c0.083-0.452-0.114-2.587,0.005-3.176c-0.02-0.297-3.618-0.161-5.754,0.081v0.503c1.734-0.19,4.741-0.265,4.738,0.351
		c-0.002,0.335,0.013,2.012-0.491,2.536c-0.505,0.522-2.198,0.984-3.75,1.192c-0.165,0.022-0.331,0.04-0.496,0.056L387.235,193.478
		L387.235,193.478z M374.817,193.458c1.713,0.109,3.579,0.12,3.902-0.2c0.404-0.401,1.183-1.854,1.271-2.207
		c0.119-0.478,1.969-0.391,2.078,0.036c0.088,0.353,0.871,1.803,1.275,2.203c0.324,0.319,2.183,0.302,3.893,0.188v-0.425
		c-1.391,0.128-2.75,0.015-3.389-0.286c-0.713-0.336-1.578-2.026-1.296-2.536c0.281-0.51,2.729-1.063,4.395-1.277
		c0.091-0.013,0.188-0.024,0.29-0.035v-0.503c-0.267,0.03-0.51,0.062-0.721,0.095c-2.488,0.387-4.007,0.803-5.333,0.82
		c-1.51,0.021-2.804-0.408-5.648-0.842c-0.209-0.032-0.451-0.063-0.716-0.092v0.504c0.101,0.01,0.196,0.021,0.288,0.032
		c1.665,0.21,4.114,0.755,4.397,1.263c0.283,0.509-0.576,2.203-1.289,2.54c-0.639,0.305-2.002,0.422-3.396,0.297L374.817,193.458
		L374.817,193.458z M369.058,188.334c0.123,0.589-0.068,2.724,0.017,3.176c0.085,0.453,2.607,1.674,4.521,1.851
		c0.38,0.036,0.797,0.07,1.223,0.098v-0.426c-0.162-0.014-0.324-0.031-0.485-0.053c-1.553-0.203-3.248-0.659-3.755-1.181
		c-0.505-0.521-0.496-2.198-0.5-2.534c-0.006-0.614,3.005-0.551,4.74-0.364v-0.504C372.681,188.161,369.075,188.036,369.058,188.334
		z"/>
</g>
<circle fill="#FFCD63" cx="694.953" cy="313.613" r="61.04"/>
<path fill="#7E6055" d="M672.886,295.871c-3.454,4.388-10.394,30.403-0.56,45.392c2.021,3.08,4.677,5.549,7.625,7.451
	c4.799,0.834,9.826,1.278,15.002,1.278c4.258,0,8.414-0.3,12.424-0.871c0.09-0.306,0.146-0.624,0.168-0.956
	C708.076,339.573,679.531,292.398,672.886,295.871z"/>
<path fill="#7E6055" d="M716.074,295.857c3.455,4.386,9.895,28.807,0.063,43.794c-2.822,4.303-6.855,7.545-11.188,9.777
	c-3.252,0.369-6.59,0.563-9.996,0.563c-4.666,0-9.211-0.361-13.578-1.044c-0.063-0.25-0.105-0.512-0.123-0.783
	C680.722,339.573,709.429,292.385,716.074,295.857z"/>
<path fill="#CBE3E2" d="M672.133,352.388c-4.122,2.676-6.589,7.461-8.869,13.403c9.238,5.623,20.083,8.86,31.689,8.86
	c11.611,0,22.465-3.24,31.705-8.869c-2.271-5.979-4.734-10.782-8.906-13.396c-10.416-6.521-16.684-8.085-22.832-8.168
	C688.634,344.132,682.474,345.672,672.133,352.388z"/>
<path fill="#FFDDB8" d="M686.316,321.299h17.252v24.953c0,8.424-17.252,9.392-17.252,0V321.299z"/>
<polygon fill="#E7C5A0" points="703.568,336.964 703.568,333.774 686.316,333.774 686.316,345.519 "/>
<path fill="#FFDDB8" d="M694.941,289.567c36.537,0,21.725,48.262,0,48.262C673.217,337.829,658.405,289.567,694.941,289.567z"/>
<path fill="#7E6055" d="M702.371,294.215c6.053,2.985,10.941,10.078,12.24,17.73c1.297,7.652,1.084,4.457,3.732-1.199
	c2.65-5.655-3.84-30.044-22.787-30.044c-18.949,0-26.707,18.763-24.058,29.014c2.65,10.249,4.222,7.42,5.878-0.355
	C679.031,301.584,685.775,292.49,702.371,294.215z"/>
<path fill="#C48872" d="M712.062,336.269c10.631-25.525-6.111-41.479-9.832-41.666C709.402,293.329,726.328,309.203,712.062,336.269
	z"/>
<path fill="#FFDDB8" d="M703.646,345.418c-0.801,8.265-8.633,15.319-8.633,21.997c0-6.695-7.873-13.755-8.637-22.063
	L703.646,345.418z"/>
<path fill="#498C76" d="M695.013,364.362c3.771-5.641,7.701-8.881,12.443-10.359c2.342-0.729,6.451-1.508,8.65-0.438
	c-4.164-4.732-8.543-7.098-12.461-11.553C703.601,354.86,694.933,357.114,695.013,364.362z"/>
<path fill="#CBE3E2" d="M695.013,364.362c2.82-6.006,7.189-11.073,11.932-12.551c2.342-0.729,4.551-0.561,6.752,0.513
	c-4.164-4.733-6.133-7.464-10.051-10.312C703.601,354.86,694.933,357.114,695.013,364.362z"/>
<path fill="#498C76" d="M695.013,364.362c-3.77-5.641-7.703-8.881-12.443-10.359c-2.344-0.729-6.451-1.508-8.651-0.438
	c4.163-4.732,8.542-7.098,12.459-11.553C686.425,354.86,695.095,357.114,695.013,364.362z"/>
<path fill="#CBE3E2" d="M695.013,364.362c-2.82-6.006-7.189-11.073-11.932-12.551c-2.344-0.729-4.551-0.561-6.752,0.513
	c4.164-4.733,6.131-7.464,10.051-10.312C686.425,354.86,695.095,357.114,695.013,364.362z"/>
<path fill="#C48872" d="M678.976,341.241c-11.958-51.988,17.807-46.732,23.387-46.545
	C694.046,288.405,656.049,288.007,678.976,341.241z"/>
<g>
	<circle fill="#CBE3E2" cx="789.244" cy="381.075" r="31.573"/>
	<path fill="#FFDDB8" d="M784.775,385.05h8.924v13.848c0,4.356-8.924,4.856-8.924,0V385.05z"/>
	<path fill="#E6625F" d="M777.439,401.128c-2.133,1.385-3.406,3.859-4.586,6.936c4.777,2.908,10.389,4.584,16.391,4.584
		c6.004,0,11.617-1.679,16.398-4.59c-1.176-3.094-2.447-5.578-4.607-6.93c-5.387-3.373-8.678-3.91-11.857-3.952
		C785.925,397.131,782.789,397.657,777.439,401.128z"/>
	<polygon fill="#E7C5A0" points="793.699,393.153 793.699,391.504 784.775,391.504 784.775,397.578 	"/>
	<path fill="#FFDDB8" d="M789.238,368.638c18.896,0,11.234,24.963,0,24.963C778,393.601,770.339,368.638,789.238,368.638z"/>
	<path fill="#FFFFFF" d="M788.271,404.771l-0.557,7.836c0.506,0.025,1.016,0.041,1.527,0.041s1.021-0.016,1.527-0.041l-0.557-7.836
		l3.15-7.552c-2.949-0.051-5.311-0.046-8.242,0L788.271,404.771z"/>
	<polygon fill="#C94542" points="784.775,394.541 781.345,398.908 783.296,404.04 789.134,397.207 	"/>
	<polygon fill="#E6625F" points="784.775,394.541 781.345,398.908 783.476,402.894 789.134,397.207 	"/>
	<polygon fill="#C94542" points="793.699,394.541 797.13,398.908 795.175,404.04 789.337,397.207 	"/>
	<polygon fill="#E6625F" points="793.699,394.541 797.13,398.908 794.996,402.894 789.337,397.207 	"/>
	<path fill="#AE4A48" d="M798.556,376.397c-0.039-2.067-1.773-4.281-3.033-4.912c-1.264-0.629-7.633,0.156-10.92,2.248
		c-3.557,2.265-4.211,3.979-4.447,6.011c-0.074,0.637-0.248,1.282-0.592,1.155c-1.09-0.396-1.305-2.281-2.229-2.836
		c-1.35-0.811-0.734-3.26-0.193-5.33c0.539-2.069,3.535-7.721,11.744-7.943c4.092-0.109,5.758,2.359,7.002,2.607
		c3.744,0.754,6.084,7.67,4.986,10.805c-0.492,1.413-1.221,2.441-2.232,2.145C798.177,380.215,798.58,377.599,798.556,376.397z"/>
	
		<ellipse transform="matrix(-0.9761 -0.2174 0.2174 -0.9761 1499.7632 925.2175)" fill="#FFDDB8" cx="800.78" cy="380.104" rx="1.276" ry="2.955"/>
	
		<ellipse transform="matrix(-0.9762 0.2167 -0.2167 -0.9762 1619.3787 582.6523)" fill="#F6D6B2" cx="777.747" cy="380.105" rx="1.275" ry="2.954"/>
</g>
<g>
	<circle fill="#E6625F" cx="564.576" cy="429.283" r="44.233"/>
	<path fill="#FFD67D" d="M548.021,449.476c-4.358,2.828-6.164,8.908-8.721,16.11c7.167,4.999,15.877,7.931,25.276,7.931
		c9.382,0,18.082-2.923,25.239-7.906c-2.55-7.233-4.326-13.371-8.736-16.135c-7.547-4.729-12.088-5.859-16.543-5.921
		C559.979,443.495,555.517,444.61,548.021,449.476z"/>
	<path fill="#FBAD18" d="M574.451,445.865c-3.924-1.748-6.939-2.271-9.916-2.312c-3.043-0.041-6.045,0.443-9.937,2.222
		c1.013,4.555,5.076,7.96,9.937,7.96C569.362,453.735,573.404,450.374,574.451,445.865z"/>
	<path fill="#FFDDB8" d="M558.3,426.947h12.501v18.082c0,6.104-12.501,6.807-12.501,0V426.947z"/>
	<path fill="#F0CEAB" d="M564.549,403.951c26.479,0,15.745,34.975,0,34.975C548.808,438.926,538.073,403.951,564.549,403.951z"/>
	<path fill="#FFDDB8" d="M564.549,403.951c26.479,0,15.745,34.975,0,34.975V403.951z"/>
	<path fill="#7E6055" d="M564.274,408.149c2.967,0,4.222-1.311,6.238-0.377c4.025,1.867,7.49,7.123,8.448,10.709
		c1.44,5.377,0.627,4.918,2.549,0.818c1.92-4.099-2.783-21.773-16.516-21.773c-13.731,0-19.354,13.596-17.435,21.025
		c1.922,7.428,1.922,5.663,3.121,0.027C551.883,412.944,554.436,408.408,564.274,408.149z"/>
	<path fill="#7E6055" d="M571.631,408.062c-1.949,1.688-8.561,5.496-12.414,5.601c1.01-0.913,1.693-1.765,2.027-2.802
		c0.335-1.034-5.242,3.906-7.492,4.119c1.163-1.388,1.358-1.963,1.412-2.727c-3.649,1.997-3.587,5.857-3.583,8.969
		c0.006,3.107-1.676,2.235-1.449-1.176c0.23-3.408-2.042-7.58-0.901-10.273s16.163-6.422,20.93-6.422
		c4.766,0,8.704,4.765,9.843,6.838c1.14,2.07-1.072,7.903-1.01,9.771c0.062,1.863-1.449,3.904-1.465-0.054
		C577.509,415.946,575.221,411.826,571.631,408.062z"/>
	<g>
		
			<ellipse transform="matrix(-0.9761 -0.2172 0.2172 -0.9761 1056.1768 956.1298)" fill="#FFDDB8" cx="580.646" cy="420.008" rx="1.787" ry="4.139"/>
		
			<ellipse transform="matrix(-0.9761 0.2175 -0.2175 -0.9761 1175.1597 710.7592)" fill="#F6D6B2" cx="548.473" cy="420.038" rx="1.787" ry="4.139"/>
	</g>
	<g>
		<path fill="#FBAD18" d="M545.928,451.273c-2.927,3.221-4.521,8.387-6.627,14.313c2.854,1.99,5.953,3.651,9.241,4.933
			c0.445-1.969,0.686-4.054,0.686-6.213C549.227,459.414,548,454.9,545.928,451.273z"/>
		<path fill="#FBAD18" d="M580.581,470.531c3.286-1.276,6.382-2.937,9.234-4.922c-2.098-5.949-3.671-11.156-6.615-14.354
			c-2.078,3.628-3.312,8.149-3.312,13.05C579.89,466.469,580.133,468.559,580.581,470.531z"/>
	</g>
</g>
<g>
	<circle fill="#A8CFCE" cx="652.306" cy="127.358" r="18.898"/>
	<path fill="#E6625F" d="M645.179,135.984c-1.855,1.205-2.628,3.789-3.715,6.852c3.069,2.154,6.808,3.42,10.842,3.42
		c3.989,0,7.689-1.237,10.739-3.348c-1.095-3.105-1.853-5.74-3.743-6.924c-3.226-2.02-5.167-2.503-7.068-2.529
		C650.289,133.429,648.381,133.905,645.179,135.984z"/>
	<path fill="#6D4B29" d="M649.57,126.359h5.341v7.726c0,1.355-1.441,5.786-2.827,5.77c-1.281-0.016-2.514-4.372-2.514-5.77V126.359z
		"/>
	<polygon fill="#38210B" points="654.911,131.209 654.911,130.222 649.57,130.222 649.57,133.858 	"/>
	<path fill="#6D4B29" d="M652.24,116.536c11.311,0,6.727,14.942,0,14.942C645.515,131.478,640.929,116.536,652.24,116.536z"/>
	<path d="M655.52,117.782c1.831,0.778,2.576,3.126,3,4.708c0.614,2.299,0.268,2.101,1.089,0.35c0.819-1.75-1.188-9.301-7.057-9.301
		s-8.268,5.809-7.448,8.982c0.82,3.173,0.821,2.419,1.334,0.012C647.755,116.341,652.398,119.051,655.52,117.782z"/>
	<path d="M655.949,118.997c-1.019,0.443-4.561,2.7-6.021,2.744c-1.459,0.045,0.267-0.266,0.665-0.708
		c0.398-0.442-2.789,1.02-3.541,1.063c-0.753,0.044,0-0.088,0.354-0.576c0.354-0.487-1.284,0.266-1.019,1.593
		c0.266,1.329-1.097,0.832-1.184-0.408c-0.089-1.239,0.032-1.451,0.52-2.602c0.487-1.15,6.905-2.743,8.941-2.743
		s3.719,2.036,4.207,2.921c0.485,0.886,0.595,1.845,0.374,2.642c-0.223,0.796-0.906,1.165-0.906,0.147
		S656.701,120.856,655.949,118.997z"/>
	<g>
		
			<ellipse transform="matrix(-0.9762 -0.217 0.217 -0.9762 1275.9429 386.9293)" fill="#6D4B29" cx="659.215" cy="123.411" rx="0.763" ry="1.769"/>
		
			<ellipse transform="matrix(-0.9761 0.2173 -0.2173 -0.9761 1302.1799 103.5962)" fill="#6D4B29" cx="645.393" cy="123.407" rx="0.764" ry="1.769"/>
	</g>
	<g>
		<path fill="#F8ADAE" d="M644.295,136.784c-1.25,1.375-1.932,3.583-2.832,6.114c1.22,0.85,2.542,1.561,3.948,2.107
			c0.189-0.842,0.292-1.732,0.292-2.654C645.704,140.261,645.179,138.332,644.295,136.784z"/>
		<path fill="#F8ADAE" d="M659.099,145.011c1.404-0.546,2.729-1.255,3.946-2.103c-0.896-2.541-1.568-4.767-2.827-6.134
			c-0.887,1.552-1.413,3.483-1.413,5.576C658.805,143.274,658.908,144.168,659.099,145.011z"/>
	</g>
</g>
<g>
	<circle fill="#FFCD63" cx="755.687" cy="113.544" r="31.654"/>
	<path fill="#7E6055" d="M765.404,110.764c-3.025,1.792-0.922,5.381,0.379,3.319c1.268,1.94-2.121,7.872-8.248,3.189
		C751.412,112.59,760.347,103.314,765.404,110.764z"/>
	<path fill="#7E6055" d="M746.019,110.518c3.027,1.792,0.924,5.381-0.379,3.318c-1.268,1.94,2.121,7.872,8.248,3.189
		C760.015,112.344,751.078,103.068,746.019,110.518z"/>
	<path fill="#7E6055" d="M746.984,114.808c2.541,2.43-0.32,5.451-1.121,3.146c-1.674,1.603,0.281,8.148,7.311,4.974
		C760.201,119.754,753.593,108.696,746.984,114.808z"/>
	<path fill="#7E6055" d="M764.429,114.808c-2.541,2.43,0.32,5.451,1.121,3.146c1.674,1.603-0.285,8.148-7.311,4.974
		C751.212,119.754,757.82,108.696,764.429,114.808z"/>
	<path fill="#AE4A48" d="M743.855,127.994c-3.117,2.024-4.41,6.376-6.238,11.529c5.127,3.576,11.361,5.676,18.086,5.676
		c6.713,0,12.938-2.093,18.061-5.658c-1.826-5.177-3.096-9.57-6.25-11.546c-5.402-3.383-8.652-4.193-11.84-4.235
		C752.414,123.713,749.218,124.512,743.855,127.994z"/>
	<path fill="#FFDDB8" d="M751.21,111.872h8.945v12.94c0,4.368-8.945,4.87-8.945,0V111.872z"/>
	<polygon fill="#E7C5A0" points="760.156,119.996 760.156,118.342 751.21,118.342 751.21,124.433 	"/>
	<path fill="#FFDDB8" d="M755.683,95.417c18.947,0,11.268,25.028,0,25.028C744.417,120.445,736.736,95.417,755.683,95.417z"/>
	<path fill="#FFDDB8" d="M755.687,136.207c0-1.642-4.42-7.552-4.42-10.743h8.844C760.111,128.655,755.687,134.565,755.687,136.207z"
		/>
	<path fill="#71A7CC" d="M755.679,136.586c-2.805-4.166-5.863-5.52-7.734-5.524c0.395-1.858,1.408-3.904,2.133-4.694
		c-3.012,0.026-3.955,0.643-5.252,1.59c0.395-2.39,3.932-5.216,6.385-6.222c0,1.761-0.182,5.135,1.545,7.398
		C754.486,131.399,755.679,133.064,755.679,136.586z"/>
	<path fill="#71A7CC" d="M755.679,136.586c2.805-4.166,5.863-5.52,7.734-5.524c-0.396-1.858-1.41-3.904-2.131-4.694
		c3.012,0.026,3.953,0.643,5.25,1.59c-0.395-2.39-3.932-5.216-6.385-6.222c0,1.761,0.182,5.135-1.547,7.398
		C756.873,131.399,755.679,133.064,755.679,136.586z"/>
	<path fill="#7E6055" d="M755.363,98.423c6.354,0,9.43,4.173,9.633,7.391c0.205,3.216,1.326,3.519,2.699,0.586
		c1.375-2.933-1.992-15.58-11.816-15.58c-9.826,0-13.85,9.729-12.475,15.045c1.373,5.316,3.076,2.302,3.01,0.021
		C746.347,103.605,748.322,98.606,755.363,98.423z"/>
	<g>
		
			<ellipse transform="matrix(-0.9762 -0.217 0.217 -0.9762 1492.959 377.6906)" fill="#FFDDB8" cx="767.211" cy="106.895" rx="1.279" ry="2.963"/>
		
			<ellipse transform="matrix(-0.9761 0.2171 -0.2171 -0.9761 1493.8044 49.6763)" fill="#F6D6B2" cx="744.173" cy="106.898" rx="1.279" ry="2.962"/>
	</g>
	<path fill="#7E6055" d="M747.656,96.124c-0.613,3.758,6.564,9.098,14.828,9.457C763.232,95.815,754.123,92.49,747.656,96.124z"/>
	<path fill="#71A7CC" d="M755.585,145.188c-0.037-3.568,0.018-7.995,0.232-10.514c-0.764,2.748-0.84,7.063-0.637,10.508
		C755.316,145.185,755.451,145.188,755.585,145.188z"/>
</g>
<g>
	<circle fill="#E6625F" cx="618.77" cy="204.079" r="18.898"/>
	<path fill="#FFFFFF" d="M611.704,212.705c-1.862,1.209-2.632,3.807-3.726,6.883c1.494,1.042,3.145,1.873,4.909,2.453
		c1.632-1.376,3.833-0.884,5.89-0.884c1.732-2.697,4.035-0.815,5.889,0.883c1.759-0.577,3.405-1.405,4.894-2.441
		c-1.089-3.091-1.849-5.714-3.731-6.894c-3.226-2.02-5.164-2.503-7.068-2.529C616.813,210.149,614.906,210.626,611.704,212.705z"/>
	<path fill="#FFDDB8" d="M616.095,203.081h5.341v7.725c0,2.607-5.341,2.908-5.341,0V203.081z"/>
	<polygon fill="#E7C5A0" points="621.436,207.931 621.436,206.943 616.095,206.943 616.095,210.58 	"/>
	<path fill="#FFDDB8" d="M618.766,193.257c11.313,0,6.727,14.941,0,14.941C612.04,208.198,607.454,193.257,618.766,193.257z"/>
	<path fill="#1E0C06" d="M618.574,194.58c3.794,0,5.63,2.492,5.751,4.412c0.122,1.921,0.791,2.102,1.611,0.352
		c0.82-1.752-1.188-9.303-7.056-9.303c-5.865,0-8.268,5.81-7.448,8.982c0.821,3.174,1.838,1.375,1.798,0.013
		C613.193,197.675,614.371,194.69,618.574,194.58z"/>
	<path fill="#1E0C06" d="M613.19,200.207c-0.192,1.341-1.396,0.458-1.482-0.781c-0.089-1.239,0.032-1.45,0.521-2.602
		c0.486-1.15,3.076-4.229,6.347-4.229c3.268,0,6.313,3.521,6.8,4.406c0.486,0.886,0.595,1.845,0.374,2.641
		c-0.221,0.797-0.738,1.351-1.018,0.372c-0.954-3.35-3.647-5.371-6.071-5.413C615.678,194.55,613.541,197.766,613.19,200.207z"/>
	<g>
		
			<ellipse transform="matrix(-0.9761 -0.2173 0.2173 -0.9761 1192.8931 531.4447)" fill="#FFDDB8" cx="625.671" cy="200.124" rx="0.764" ry="1.768"/>
		
			<ellipse transform="matrix(-0.9762 0.217 -0.217 -0.9762 1252.5955 262.6657)" fill="#F6D6B2" cx="611.876" cy="200.105" rx="0.763" ry="1.768"/>
	</g>
	<path fill="#2F5B78" d="M614.52,211.121v8.217h4.25h4.25v-8.164c0.512,0.229,1.061,0.508,1.657,0.844v10.02
		c-1.901,0.625-3.904,0.939-5.906,0.939c-2.019,0-3.999-0.316-5.907-0.945v-1.151v-8.891
		C613.459,211.642,614.008,211.355,614.52,211.121z"/>
	<path fill="#1E0C06" d="M623.197,195.028c0.366,2.243-3.92,5.432-8.853,5.646C613.899,194.844,619.337,192.859,623.197,195.028z"/>
</g>
<g>
	<circle fill="#FFCD63" cx="326.884" cy="355.395" r="43.042"/>
	<path fill="#EB817F" d="M310.775,375.044c-4.24,2.753-5.997,8.669-8.484,15.675c6.971,4.864,15.448,7.718,24.593,7.718
		c9.13,0,17.594-2.845,24.56-7.691c-2.482-7.041-4.21-13.014-8.501-15.7c-7.346-4.601-11.765-5.7-16.1-5.761
		C322.412,369.224,318.067,370.31,310.775,375.044z"/>
	<path fill="#753A00" d="M320.776,353.121h12.165v17.596c0,2.991-4.7,13.697-6.082,23.308c-1.011-5.85-6.083-20.019-6.083-23.308
		V353.121z"/>
	<path fill="#E6625F" d="M329.994,381.239c-1.231,3.953-2.518,8.479-3.136,12.785c-0.514-2.979-2.081-8.111-3.495-12.868
		c1.096,0.237,2.281,0.368,3.52,0.368C327.968,381.524,329.013,381.425,329.994,381.239z"/>
	<polygon fill="#422002" points="332.94,364.169 332.94,361.92 320.776,361.92 320.776,370.2 	"/>
	<path fill="#753A00" d="M326.858,330.747c25.763,0,15.318,34.031,0,34.031S301.096,330.747,326.858,330.747z"/>
	<path d="M326.591,334.833c8.641,0,12.89,4.816,14.291,10.052c1.401,5.233,0.611,4.786,2.479,0.796
		c1.868-3.988-2.708-21.186-16.069-21.186s-18.831,13.231-16.963,20.458c1.868,7.229,1.869,5.513,3.036,0.03
		C314.532,339.499,317.017,335.083,326.591,334.833z"/>
	<g>
		
			<ellipse transform="matrix(-0.9762 -0.2169 0.2169 -0.9762 601.7454 758.8225)" fill="#753A00" cx="342.521" cy="346.384" rx="1.738" ry="4.027"/>
		
			<ellipse transform="matrix(-0.9761 0.2172 -0.2172 -0.9761 690.204 616.9485)" fill="#753A00" cx="311.197" cy="346.405" rx="1.738" ry="4.027"/>
	</g>
	<g>
		<path fill="#E6625F" d="M326.884,346.108h1c-0.062,0.772,0.133,1.603,0.598,2.306c1.055,1.599,3.511,3.082,5.536,3.28
			c2.026,0.199,3.682-1.141,4.167-3.853c0.485-2.713-0.778-4.004-1.685-4.425c-0.761-0.354-1.764-0.488-2.798-0.477l0,0h-6.521
			h-0.297v0.431h0.297h3.425c-0.493,0.131-0.929,0.285-1.27,0.444c-0.75,0.354-1.219,1.056-1.391,1.863h-1.063L326.884,346.108
			L326.884,346.108z M317.267,343.418c-0.905,0.421-2.169,1.712-1.684,4.425c0.485,2.711,2.14,4.051,4.167,3.852
			c2.026-0.197,4.48-1.683,5.537-3.279c0.463-0.703,0.657-1.532,0.596-2.305h1v-0.43h-1.063c-0.17-0.809-0.642-1.509-1.392-1.863
			c-0.341-0.159-0.775-0.313-1.271-0.444h3.425h0.298v-0.431h-0.298h-6.52l0,0C319.031,342.931,318.029,343.063,317.267,343.418z"/>
		<g>
			<path fill="#F8ADAE" d="M317.448,343.806c-0.504,0.235-0.912,0.674-1.165,1.163c-0.44,0.854-0.444,1.871-0.279,2.798
				c0.238,1.336,0.871,2.752,2.205,3.301c0.476,0.195,0.986,0.252,1.497,0.201c1.836-0.181,4.204-1.551,5.222-3.093
				c0.662-1.002,0.78-2.528-0.039-3.479c-0.18-0.206-0.395-0.373-0.643-0.49c-1.018-0.48-2.487-0.737-3.603-0.811
				C319.642,343.33,318.373,343.376,317.448,343.806z"/>
			<path fill="#F8ADAE" d="M336.32,343.806c0.503,0.235,0.911,0.674,1.163,1.163c0.439,0.854,0.444,1.871,0.279,2.798
				c-0.239,1.336-0.873,2.752-2.205,3.301c-0.477,0.195-0.987,0.252-1.498,0.201c-1.836-0.181-4.203-1.551-5.222-3.093
				c-0.662-1.002-0.78-2.528,0.04-3.479c0.179-0.206,0.396-0.373,0.644-0.49c1.017-0.48,2.486-0.737,3.602-0.811
				C334.125,343.33,335.395,343.376,336.32,343.806z"/>
		</g>
	</g>
	<path fill="#7F9C9C" d="M326.858,394.024c0-7.899-6.116-19.529-6.083-27.496c-5.339,1.949-7.854,5.135-10.001,8.516
		C322.816,375.271,323.625,387.362,326.858,394.024z"/>
	<path fill="#7F9C9C" d="M326.858,394.024c0-11.397,6.144-19.787,6.082-27.942c4.13,0.501,9.767,6.875,10.376,9.21
		C331.276,375.519,330.093,387.362,326.858,394.024z"/>
	<path d="M333.908,334.379c-1.89,1.639-8.299,5.332-12.037,5.431c0.979-0.883,1.642-1.709,1.966-2.714
		c0.325-1.005-5.083,3.789-7.265,3.992c1.127-1.341,1.315-1.9,1.369-2.643c-3.54,1.937-3.479,5.682-3.475,8.697
		c0.005,3.014-1.626,2.168-1.405-1.139c0.223-3.309-1.979-7.354-0.875-9.964c1.106-2.612,15.675-6.23,20.296-6.23
		c4.623,0,8.439,4.624,9.546,6.633c1.104,2.01-1.042,7.665-0.979,9.474c0.062,1.81-1.403,3.787-1.422-0.052
		C339.609,342.026,337.388,338.032,333.908,334.379z"/>
</g>
</svg>
